<svg width="1000" height="1000" xmlns="http://www.w3.org/2000/svg">

 <g>
  <title>background</title>
  <rect fill="none" id="canvas_background" height="402" width="582" y="-1" x="-1"/>
 </g>
 <g>
  <title>Layer 1</title>
  <path id="svg_1" fill="#f58220" d="m119.18,605.1c-1.29,7.71 -2.27,15.47 -3.65,23.16s-2.91,15 -4.66,22.5a437.19,437.19 0 0 1 -12.78,44q-4.29,12.36 -9.34,24.43c-0.4,1 1.19,1.4 1.59,0.44a434.68,434.68 0 0 0 26.2,-88.7c1.55,-8.5 3.07,-17.1 3.78,-25.71c0.05,-0.65 -1,-0.81 -1.14,-0.16l0,0.04z"/>
  <path fill="#f58220" id="svg_2" d="m724.56,624l23.72,34.84q10.61,-14.18 20,-29.21c1.58,-2.52 3.17,-5.18 3.42,-8.14s-0.84,-5.8 -1.9,-8.55a543.43,543.43 0 0 1 -25.73,-89.59c-1.13,-5.76 -2.21,-11.66 -5.07,-16.8l-3.49,8.33"/>
  <path fill="#f58220" id="svg_3" d="m252.89,552.64c-2.78,-8 -5,-16.25 -7.39,-24.41c-3.44,-11.81 -6.9,-23.62 -10.62,-35.35c-3.77,-11.92 -7.74,-23.83 -12.48,-35.42c-3.55,-8.68 -7.36,-17.77 -13.22,-25.19c-3.43,-4.36 -8.27,-7.45 -13.11,-10.06a60.2,60.2 0 0 0 -24.77,-7.21a52.38,52.38 0 0 0 -6.63,0c-1.14,0.08 -1.16,1.85 0,1.79a57.37,57.37 0 0 1 25.75,4.68a63.07,63.07 0 0 1 11.58,6.53a27.59,27.59 0 0 1 4.74,4.09a51.63,51.63 0 0 1 6.43,9.65c2.43,4.45 4.54,9.08 6.52,13.75c4.78,11.3 8.83,22.9 12.65,34.55s7.36,23.35 10.86,35.09c2.56,8.6 5,17.25 7.85,25.76c0.23,0.68 0.46,1.35 0.7,2s1.39,0.41 1.14,-0.32l0,0.07z"/>
  <path fill="#f58220" id="svg_4" d="m236,565.68a133.46,133.46 0 0 0 16.49,-8.13a0.69,0.69 0 0 0 -0.69,-1.19a154,154 0 0 1 -16.21,8.35c-0.55,0.24 -0.15,1.2 0.41,1l0,-0.03z"/>
  <path fill="#f58220" id="svg_6" d="m727.15,454.12l-3.8,-1.29c-0.1,0 -0.21,-0.08 -0.24,-0.18s0.06,-0.25 0.16,-0.35l7.61,-7.05a8.35,8.35 0 0 0 9.55,1.05a0.77,0.77 0 0 1 0.64,-0.16a0.75,0.75 0 0 1 0.35,0.43c1.06,2.4 2,4.91 3.72,6.91c0.12,0.14 0.25,0.31 0.19,0.49a0.47,0.47 0 0 1 -0.26,0.26a26.47,26.47 0 0 1 -5.38,2.74a27,27 0 0 1 -4.27,0.89a19,19 0 0 1 -4.11,0.32a6.75,6.75 0 0 1 -1.94,-0.38a10.26,10.26 0 0 1 -2.23,-1.21c-1.64,-1.09 -3.23,-2.26 -4.76,-3.49"/>
  <path fill="#f58220" id="svg_7" d="m727.32,453.5l-1.87,-0.73c-0.42,-0.16 -1.47,-0.37 -1.74,-0.72l0.21,0.83c0.06,-0.28 1.27,-1.16 1.63,-1.49l2,-1.83c1.33,-1.21 2.65,-2.45 4,-3.65l-1.32,0a9.2,9.2 0 0 0 5.27,2.36a9.68,9.68 0 0 0 2.89,-0.15a8.59,8.59 0 0 0 1.42,-0.42c0.38,-0.16 0.87,-0.56 1.27,-0.56l-0.71,-0.29a4.79,4.79 0 0 1 0.82,1.68c0.26,0.6 0.53,1.21 0.81,1.8a11,11 0 0 0 1.9,3.21c0.06,0.09 0.13,0.17 0.2,0.26c0.16,0.28 0.32,0.13 0.46,-0.45a4.91,4.91 0 0 0 -0.69,0.42c-0.58,0.34 -1.16,0.69 -1.75,1a16.06,16.06 0 0 1 -4,1.55c-2.43,0.58 -5.65,1.25 -8.1,0.49a12.76,12.76 0 0 1 -3.35,-2c-1.18,-0.83 -2.31,-1.72 -3.42,-2.64a1.27,1.27 0 1 0 -1.55,2q2.17,1.65 4.46,3.17a10.18,10.18 0 0 0 4.18,1.83a16.26,16.26 0 0 0 4.92,-0.26a26.62,26.62 0 0 0 5.43,-1.27a28,28 0 0 0 4.35,-2.25c1.28,-0.77 1.63,-1.58 0.67,-2.82a22.26,22.26 0 0 1 -2.5,-4.37c-0.49,-1.09 -0.93,-3.27 -2.5,-3.1a11.37,11.37 0 0 0 -2.09,0.86a7.42,7.42 0 0 1 -2.34,0.35a7.61,7.61 0 0 1 -4.77,-1.75a1,1 0 0 0 -1.32,0c-2.38,2.29 -4.89,4.45 -7.23,6.78c-0.6,0.59 -1.15,1.5 -0.21,2.11a6.23,6.23 0 0 0 1.64,0.5l2.56,0.74c0.81,0.24 1.1,-0.94 0.34,-1.23l0.03,0.04z"/>
  <path fill="#f58220" id="svg_8" d="m839.82,703.08c-45.56,11.58 -90.76,10.67 -136.27,-1.1c-1.72,-0.45 -3.46,-0.93 -5.17,-1.49l0,12.69s-11.14,34.82 -22,81.87l242,0s-6,-36.55 -11.2,-79.33q-5.7,6.63 -11.66,13c-9.89,10.62 -22.87,21.59 -37.11,18.79c-8.6,-1.68 -15.37,-8.1 -21.62,-14.24c-1.84,-1.81 -3.77,-3.76 -4.38,-6.28c-0.71,-2.92 0.5,-5.94 1.7,-8.7"/>
  <path fill="#f58220" id="svg_9" d="m839.4,701.56a263.93,263.93 0 0 1 -55,8a270,270 0 0 1 -54.9,-3.62q-7.62,-1.29 -15.17,-3c-5.21,-1.16 -10.46,-2.33 -15.54,-4a1.59,1.59 0 0 0 -2,1.52l0,10a15.75,15.75 0 0 0 0,2.57c0.06,0.29 0.21,-0.54 0,0c-0.13,0.31 -0.21,0.66 -0.31,1c-0.42,1.35 -0.84,2.7 -1.25,4.06c-4.13,13.53 -7.94,27.17 -11.54,40.85q-4.68,17.8 -8.83,35.76a1.6,1.6 0 0 0 1.52,2l232.16,0c3.13,0 6.27,0.06 9.4,0l0.4,0a1.6,1.6 0 0 0 1.52,-2c-0.8,-4.92 -1.56,-9.84 -2.31,-14.77q-2.84,-18.57 -5.36,-37.19q-1.82,-13.47 -3.47,-26.95c-0.15,-1.2 -1.7,-2.26 -2.7,-1.11c-4.73,5.49 -9.51,11 -14.62,16.13a66.71,66.71 0 0 1 -15,11.89c-5.21,2.84 -11.23,4.54 -17.18,3.48c-6.16,-1.1 -11.38,-4.77 -16,-8.86a67.79,67.79 0 0 1 -7.61,-7.45a7.22,7.22 0 0 1 -1.86,-5a17.17,17.17 0 0 1 1.69,-5.71a1.62,1.62 0 0 0 -0.57,-2.15a1.57,1.57 0 0 0 -2.15,0.56c-1.44,3.34 -2.92,7.07 -1.62,10.7c1.17,3.28 4,5.68 6.44,8c4.88,4.7 10.14,9.3 16.58,11.71c13.53,5.07 26.71,-3 36.38,-12a231.64,231.64 0 0 0 17.76,-19.17l-2.69,-1.12q2.81,22.88 6.09,45.68q2.1,14.52 4.37,29c0.26,1.68 0.53,3.36 0.8,5l1.52,-2l-232.16,0c-3.12,0 -6.29,-0.19 -9.4,0l-0.41,0l1.52,2q6.75,-29.25 14.94,-58.13q2.45,-8.61 5,-17.19c0.66,-2.15 1.56,-4.34 2,-6.54a9.52,9.52 0 0 0 0.06,-1.85l0,-11.17l-1.9,1.51a211.72,211.72 0 0 0 27.82,6.45c9.14,1.63 18.36,2.84 27.61,3.57a264.08,264.08 0 0 0 55.57,-1.4a275.26,275.26 0 0 0 31.28,-6c2,-0.5 1.13,-3.54 -0.84,-3l-0.04,-0.06z"/>
  <path fill="#f58220" id="svg_10" d="m249.06,584.33q4.55,-38.39 12.27,-76.31a10,10 0 0 1 1.55,-4.21c1.46,-1.89 4,-2.48 6.36,-2.91a207.06,207.06 0 0 1 41.21,-3.27c2.1,0 4.47,0.24 5.79,1.87a7.34,7.34 0 0 1 1.25,3.62l2.2,13.81a4.35,4.35 0 0 1 -2.48,-4.27l87.12,2.12c2.4,0.06 5,0.21 6.79,1.84s2.07,3.86 2.29,6.06c1.06,10.57 -0.91,21.18 -3,31.6q-7.32,37.15 -16.24,74a7.62,7.62 0 0 1 -1.38,3.28a6.48,6.48 0 0 1 -4.47,2c-36.05,2.22 -94.27,1.92 -136.65,-5.42a6.68,6.68 0 0 1 -3.56,-1.68c-1.38,-1.37 -1.55,-3.5 -1.61,-5.44c-0.33,-11.22 0.85,-22.74 2.53,-36.61"/>
  <path fill="#f58220" id="svg_11" d="m249.65,584.33c2.62,-20.28 5.73,-40.5 9.5,-60.61q1.39,-7.5 2.93,-15c0.45,-2.19 0.88,-4.43 3,-5.63a17.73,17.73 0 0 1 5.86,-1.6a206.32,206.32 0 0 1 30.28,-3q4.26,-0.1 8.52,0c2.11,0 5,-0.06 6.16,2.07a10.89,10.89 0 0 1 0.86,3.51l0.66,4.19l1.41,8.88l1.34,-1a3.57,3.57 0 0 1 -2,-3.49l-0.91,0.91c29,0.72 58.08,1.35 87.12,2.16c3,0.08 6.2,0.38 7.43,3.57c1.14,3 1,6.61 1,9.73a116.81,116.81 0 0 1 -2.58,21.63c-2.69,14.08 -5.66,28.12 -8.75,42.13q-2.34,10.63 -4.82,21.23q-1.25,5.31 -2.51,10.6c-0.38,1.57 -0.67,3.19 -1.18,4.73a4.52,4.52 0 0 1 -3.66,3.06a49.89,49.89 0 0 1 -7.23,0.47l-7.41,0.33q-7.91,0.3 -15.81,0.43c-23.74,0.39 -47.54,-0.17 -71.21,-2.12c-11.44,-0.94 -22.87,-2.22 -34.2,-4.12a9.41,9.41 0 0 1 -4.07,-1.26c-1.34,-1 -1.68,-2.54 -1.79,-4.09a85.93,85.93 0 0 1 -0.06,-8.79c0.16,-6.25 0.69,-12.49 1.35,-18.71c0.36,-3.4 0.71,-6.82 1.13,-10.22c0.13,-1.13 -1.64,-1.12 -1.78,0c-0.84,7 -1.7,14 -2.19,21c-0.22,3.18 -0.38,6.36 -0.42,9.55a48.35,48.35 0 0 0 0.24,8.51a6.44,6.44 0 0 0 5.26,5.49c2.78,0.62 5.67,1 8.49,1.37q8.73,1.28 17.53,2.17a677.15,677.15 0 0 0 74.41,3.19c10.88,-0.08 21.76,-0.36 32.63,-1c2.4,-0.13 5.12,0 7.34,-1c3.08,-1.44 3.52,-4.6 4.24,-7.59q2.66,-11.07 5.18,-22.17q5,-22 9.43,-44c1.43,-7.16 2.94,-14.33 3.77,-21.59a79.35,79.35 0 0 0 0.56,-11.22c-0.09,-3 -0.09,-6.43 -1.43,-9.18c-1.21,-2.46 -3.58,-3.56 -6.19,-3.88c-3.5,-0.43 -7.13,-0.28 -10.66,-0.36l-22.9,-0.55l-45.36,-1.06l-11,-0.27a0.93,0.93 0 0 0 -0.91,0.91a5.34,5.34 0 0 0 2.93,5.05a0.92,0.92 0 0 0 1.34,-1l-1.34,-8.39a53.21,53.21 0 0 0 -1.18,-7.3c-1.39,-4.53 -6.32,-4.26 -10.2,-4.28a209.29,209.29 0 0 0 -32,2.24c-2.49,0.37 -5,0.75 -7.44,1.24a11.22,11.22 0 0 0 -5.32,2.24c-1.64,1.45 -2.13,3.57 -2.55,5.62c-0.54,2.66 -1.06,5.31 -1.58,8c-2.05,10.64 -4,21.31 -5.59,32c-1.84,12.07 -3.48,24.17 -4.79,36.31c-0.09,0.76 1.08,0.74 1.18,0l-0.06,-0.04z"/>
  <path fill="#f58220" id="svg_12" d="m113.68,366.89c-2.12,7.76 -3.83,15.62 -5.86,23.4c-1,3.94 -2.1,7.87 -3.38,11.74s-2.75,7.34 -4.22,11c-0.35,0.89 1.09,1.47 1.53,0.65a61.6,61.6 0 0 0 4.32,-11c1.22,-3.89 2.27,-7.83 3.22,-11.79c1.9,-7.89 3.42,-15.86 5.48,-23.71a0.57,0.57 0 0 0 -1.09,-0.31l0,0.02z"/>
  <path id="svg_13" fill="#f58220" d="m183.37,288.81a74.27,74.27 0 0 1 -29,33.7a2.81,2.81 0 0 1 -2.48,0.58c-0.81,-0.36 -0.75,-1.94 0.13,-1.85a10,10 0 0 1 -6,9.39c-3.66,-4.41 -11.8,-2.79 -14.23,2.4s0.65,11.9 5.83,14.33c0.16,0.47 -1.56,2.73 -1.8,3.14c-4.75,8.15 -9.57,17.59 -16.18,24.41a10.42,10.42 0 0 1 -5,3.06c-7.52,1.79 -13.23,-7.36 -15.84,-13.06c-7.15,-15.59 -20,-30.91 -18.16,-49.22c1.66,-16.21 11.54,-30.78 25.48,-39a55.25,55.25 0 0 1 22.28,-7.34a77.28,77.28 0 0 1 36.18,4.9c5.77,2.26 10.35,6.79 16.06,9.19c2.78,1.16 5.74,1.15 8.59,2.06a18.77,18.77 0 0 1 9.49,6.42a33.57,33.57 0 0 1 3.75,7.77a35.57,35.57 0 0 0 1.74,3.88c0.61,1.12 1.43,2.39 0.24,3.47s-3.06,1 -4.41,0.74c-4.24,-0.69 -8.64,-1.43 -12.21,-3.81s-6.85,-7.51 -5.56,-11.61"/>
  <path id="svg_14" fill="#f58220" d="m182.87,288.52a80.45,80.45 0 0 1 -12.71,19.48a74.91,74.91 0 0 1 -8.31,7.92c-1.53,1.25 -3.11,2.41 -4.72,3.54s-3.31,2.62 -5.15,2.76l-1,-1a9.15,9.15 0 0 1 -5.49,8.55l1.17,0.15c-4,-4.6 -11.91,-3.21 -15.13,1.6c-3.86,5.74 -0.14,13.79 5.6,16.6l-0.45,-0.78c0,0.36 -0.68,1.21 -0.93,1.58c-0.45,0.65 -0.87,1.29 -1.27,2c-1.28,2.23 -2.54,4.47 -3.83,6.69a103.16,103.16 0 0 1 -8.59,13.09c-2.8,3.49 -6.4,7.7 -11.4,6.28c-3.81,-1.09 -6.58,-4.64 -8.59,-7.85c-2.24,-3.58 -3.82,-7.55 -5.82,-11.27c-2.25,-4.21 -4.66,-8.34 -6.9,-12.57c-4.57,-8.64 -8.5,-18 -7.94,-28c1.07,-19.17 14.75,-36.33 32.29,-43.39c10.41,-4.18 22,-4.91 33,-3.39a76.66,76.66 0 0 1 16.08,4c5,1.85 9.05,5.08 13.58,7.76a23.34,23.34 0 0 0 7.16,2.94a34.67,34.67 0 0 1 7.7,2a17.54,17.54 0 0 1 5.77,4.09a22.42,22.42 0 0 1 3.94,7.15c0.44,1.13 0.88,2.27 1.37,3.39q0.47,1.08 1,2.13c0.24,0.47 0.79,1.18 0.71,1.74c-0.34,2.15 -5.6,0.69 -6.76,0.47c-5.1,-1 -9.9,-2.78 -12.75,-7.39a7.88,7.88 0 0 1 -1.28,-6.23a1.07,1.07 0 0 0 -2.07,-0.57c-1.53,5.41 2.58,11 7.14,13.51a28.18,28.18 0 0 0 8.84,2.76c2.37,0.41 5.59,1.26 7.69,-0.42c2.46,-2 0,-4.86 -0.88,-7c-1.32,-3.08 -2.28,-6.39 -4.22,-9.16a18.18,18.18 0 0 0 -6.34,-5.54a29.29,29.29 0 0 0 -8.73,-2.68c-6.52,-1.21 -11.3,-5.9 -17,-8.89s-12.65,-4.57 -19.09,-5.63c-13.29,-2.09 -27.26,-1 -39.44,5c-20.3,10.05 -34.4,34 -28,56.65c3.23,11.52 10.24,21.44 15.52,32c2.17,4.35 4.12,8.75 7.56,12.29c3.26,3.35 7.86,5.44 12.4,3.36c2.78,-1.27 4.82,-3.77 6.7,-6.1a80.1,80.1 0 0 0 5.25,-7.42c3.11,-4.9 5.65,-10.19 8.89,-15a5.58,5.58 0 0 0 1.08,-2c0.19,-1.21 -1.38,-1.57 -2.17,-2.15a11.28,11.28 0 0 1 -4.26,-6.63a8,8 0 0 1 7.53,-9.88a6.82,6.82 0 0 1 5.72,2.27a1,1 0 0 0 1.17,0.15a11,11 0 0 0 6.5,-10.22a1,1 0 0 0 -1,-1a1.83,1.83 0 0 0 -1.6,2.48c0.46,1.52 2.13,1.7 3.41,1.18a25.46,25.46 0 0 0 4.85,-3q2.28,-1.64 4.42,-3.44a74.72,74.72 0 0 0 15,-17.06a64.66,64.66 0 0 0 5.83,-11.42c0.24,-0.6 -0.77,-1 -1,-0.44l-0.05,-0.04z"/>
  <path fill="#f58220" id="svg_15" d="m169.76,320.54a20.2,20.2 0 0 0 3.3,0.11c1.15,0 2.3,0 3.45,0.05a50.27,50.27 0 0 1 6.9,0.88c1,0.19 1.38,-1.3 0.41,-1.49a47.8,47.8 0 0 0 -7,-0.86c-1.15,-0.05 -2.3,-0.07 -3.45,0a11.57,11.57 0 0 0 -3.56,0.51c-0.35,0.13 -0.45,0.74 0,0.82l-0.05,-0.02z"/>
  <path fill="#f58220" id="svg_16" d="m178.91,331.11a0.91,0.91 0 0 0 -0.7,-0.89a1.66,1.66 0 0 0 -1.15,0.2a4.33,4.33 0 0 0 -1.65,1.53a3.33,3.33 0 0 0 -0.54,2.21a2.93,2.93 0 0 0 1.25,2.06a2.91,2.91 0 0 0 3.83,-0.85a2.59,2.59 0 0 0 0.3,-2.29a2.45,2.45 0 0 0 -2,-1.69a2.33,2.33 0 0 0 -2.54,1.52a2.29,2.29 0 0 0 0,1.37a2.09,2.09 0 0 0 1,1.25a1.3,1.3 0 0 0 1.28,0a1.26,1.26 0 0 0 0.62,-1a1.43,1.43 0 0 0 0,-0.39a1.45,1.45 0 0 0 -0.62,-0.78l0.25,0.2a1.67,1.67 0 0 1 -0.23,-0.23l0.2,0.26a2,2 0 0 1 -0.11,-0.2l0.12,0.3a1.28,1.28 0 0 1 -0.07,-0.28l0,0.34a1.31,1.31 0 0 1 0,-0.28l0,0.33a1,1 0 0 1 0.06,-0.23l-0.13,0.3a2.25,2.25 0 0 1 0.12,-0.21l-0.19,0.26a0.77,0.77 0 0 1 0.18,-0.18l-0.25,0.19l0.22,-0.13l-0.3,0.13a1.49,1.49 0 0 1 0.3,-0.09l-0.33,0.05a1.09,1.09 0 0 1 0.36,0l-0.33,-0.05a1.32,1.32 0 0 1 0.3,0.09l-0.29,-0.13a1.42,1.42 0 0 1 0.23,0.14l-0.25,-0.2a1.31,1.31 0 0 1 0.23,0.24l-0.19,-0.25a2.61,2.61 0 0 1 0.17,0.28l-0.13,-0.29a1.62,1.62 0 0 1 0.12,0.43l-0.05,-0.33a1.7,1.7 0 0 1 0,0.39l0,-0.32a1.4,1.4 0 0 1 -0.1,0.35l0.13,-0.29a1.88,1.88 0 0 1 -0.14,0.24c-0.09,0.16 0.21,-0.23 0.08,-0.1l-0.1,0.1c-0.07,0.07 -0.21,0.14 0.11,-0.07l-0.12,0.08l-0.24,0.13l0.28,-0.12a2.11,2.11 0 0 1 -0.49,0.14l0.31,-0.05a1.77,1.77 0 0 1 -0.46,0l0.31,0a2.37,2.37 0 0 0 -0.31,-0.08s0.3,0.15 0.1,0l-0.11,-0.07c-0.16,-0.09 0.22,0.21 0.07,0.05l-0.12,-0.12c-0.14,-0.14 0.16,0.24 0,0l-0.09,-0.15c-0.11,-0.23 0.07,0.24 0,0a1.09,1.09 0 0 1 0,-0.17a0.85,0.85 0 0 1 0,-0.17s0,-0.07 0,-0.11l0,0.18a1.61,1.61 0 0 1 0,-0.38a0.28,0.28 0 0 0 0,-0.09c0,-0.11 0,-0.07 0,0.12a1.16,1.16 0 0 0 0,-0.18a1.09,1.09 0 0 1 0.05,-0.17a1.34,1.34 0 0 0 0.07,-0.18c-0.07,0.15 -0.08,0.17 0,0.07l0,-0.06l0.1,-0.19c0,-0.07 0.15,-0.31 0.23,-0.35l-0.05,0.07l0.06,-0.07l0.13,-0.15c0.18,-0.19 0.34,-0.4 0.52,-0.6s-0.14,0.08 0,0l0.06,0l-0.07,0l0.12,0a0.37,0.37 0 0 1 -0.21,0c-0.18,-0.13 -0.24,-0.15 -0.16,-0.07a0.57,0.57 0 0 0 0.63,0.12a0.59,0.59 0 0 0 0.36,-0.53l-0.04,0.09z"/>
  <path fill="#f58220" id="svg_17" d="m173.3,336.61c2.21,0.35 4.43,0.69 6.64,1a0.68,0.68 0 0 0 0.81,-0.46a0.65,0.65 0 0 0 -0.46,-0.81c-2.27,-0.3 -4.55,-0.6 -6.83,-0.88c-0.64,-0.08 -0.8,1 -0.16,1.13l0,0.02z"/>
  <path fill="#f58220" id="svg_18" d="m188.57,297.51c2.92,8.45 2.82,17.59 1.45,26.34c-1.08,6.93 -2.83,14.63 0.28,21.29a20.17,20.17 0 0 0 4,5.13a6.27,6.27 0 0 1 1.78,3c0.26,1.36 -0.47,2.25 -1.44,3.07c-1.63,1.39 -2.81,2.7 -3.1,4.9a35.17,35.17 0 0 0 0.24,6.15c0.4,8.12 -1,16.77 -5.64,23.61c-2.54,3.77 -6,7 -10.57,7.9s-9.44,0 -13.83,-1.36c-1.22,-0.38 -1.7,1.48 -0.52,1.9a30.35,30.35 0 0 0 12.5,1.72a16.55,16.55 0 0 0 10.77,-5c6.06,-6 8.69,-14.61 9.21,-22.95a49.52,49.52 0 0 0 0,-6.33c-0.14,-2.13 -0.77,-4.61 0.05,-6.67s3.17,-2.71 4,-4.72s-0.19,-4.27 -1.54,-5.87c-1.6,-1.89 -3.4,-3.36 -4.41,-5.7a18.69,18.69 0 0 1 -1.32,-6.9a58.09,58.09 0 0 1 1,-10.77c1.57,-9.61 2,-19.81 -1.65,-29c-0.28,-0.71 -1.43,-0.43 -1.17,0.32l-0.09,-0.06z"/>
  <path fill="#f58220" id="svg_19" d="m147,333.18a8.54,8.54 0 0 0 -12.54,-5.43c-5.67,3.25 -5.32,10.53 -1.76,15.25a21.36,21.36 0 0 0 3.65,3.71c1.33,1.07 2.84,2.36 4.59,2.6a0.89,0.89 0 0 0 0.47,-1.71a12.27,12.27 0 0 1 -4.28,-2.64a17.72,17.72 0 0 1 -3.32,-3.6c-1.74,-2.6 -2.66,-6.1 -1.21,-9.05a7.27,7.27 0 0 1 6.75,-4a7.58,7.58 0 0 1 6.6,5.14a0.55,0.55 0 0 0 1.05,-0.29l0,0.02z"/>
  <path fill="#f58220" id="svg_20" d="m139.61,335.8l0.26,0l0.12,0s0.15,0.05 0.08,0s0.06,0 0.06,0a1.64,1.64 0 0 1 0.22,0.14s-0.05,0 0,0l0.09,0.09l0.19,0.19l0.09,0.11c-0.06,-0.07 0,-0.05 0,0a1.76,1.76 0 0 1 0.14,0.23s0.07,0.15 0,0l0.05,0.12l0.09,0.29l0.06,0.31s0,0.1 0,0.15a8.83,8.83 0 0 1 0,1.26l0.78,-0.77c0.26,0 -0.15,0 -0.13,-0.05s0.14,0.08 0,0l-0.15,-0.1l0.4,0.7c0,-0.1 0,-0.08 0,0l0,-0.11a0.49,0.49 0 0 1 0,-0.11c-0.05,0.1 -0.06,0.12 0,0.07s0.12,-0.26 0.2,-0.38a0.76,0.76 0 0 0 -0.2,-1a0.78,0.78 0 0 0 -1,0.06a1.79,1.79 0 0 0 -0.62,1.37c0,0.75 0.83,1 1.46,1a0.79,0.79 0 0 0 0.77,-0.78a5.47,5.47 0 0 0 -0.63,-3a2.34,2.34 0 0 0 -2.56,-1.09a0.54,0.54 0 0 0 -0.39,0.59a0.55,0.55 0 0 0 0.54,0.47l0.08,0.24z"/>
  <path fill="#f58220" id="svg_21" d="m170.58,365.27a8.2,8.2 0 0 0 4.92,3.66a0.81,0.81 0 1 0 0.43,-1.56l-0.66,-0.22l-0.33,-0.12l-0.13,0l-0.07,0a8.29,8.29 0 0 1 -1.19,-0.68l-0.25,-0.18l-0.14,-0.11a5.79,5.79 0 0 1 -0.51,-0.48c-0.17,-0.17 -0.33,-0.34 -0.48,-0.52a0.76,0.76 0 0 0 -0.08,-0.11l-0.11,-0.14l-0.25,-0.29a0.7,0.7 0 0 0 -0.93,-0.05a0.72,0.72 0 0 0 -0.18,0.91l-0.04,-0.11z"/>
  <path fill="#f58220" id="svg_22" d="m155.66,420.68q1.67,-5.18 3.56,-10.27c0.61,-1.64 1.21,-3.28 1.84,-4.9c0.34,-0.88 0.69,-1.75 1,-2.62a20.73,20.73 0 0 1 1,-2.59a0.86,0.86 0 0 0 0.23,-1.68c-1.77,-0.68 -2.38,2.32 -2.8,3.42c-0.76,2 -1.5,4 -2.21,6c-1.41,4.05 -2.64,8.16 -3.78,12.29a0.58,0.58 0 0 0 1.11,0.31l0.05,0.04z"/>
  <path id="svg_23" fill="#f58220" d="m87.21,297.91c-5.07,3.43 -11.46,4.47 -17.56,4s-11.21,-3.52 -13.5,-9.3a21.27,21.27 0 0 1 2.65,-20.38a33.25,33.25 0 0 1 14.1,-10.83a24.48,24.48 0 0 1 17.57,-0.16a15.46,15.46 0 0 1 5.59,3.64c4,4.3 4.38,11 2.72,16.67a29.28,29.28 0 0 1 -12.52,16.45"/>
  <path id="svg_24" fill="#f58220" d="m86.9,297.38a25.86,25.86 0 0 1 -13.28,3.72c-4,0.08 -8,-0.46 -11.45,-2.7c-6.88,-4.51 -7.78,-14.85 -4.62,-21.86a27.44,27.44 0 0 1 8.25,-9.76a27.7,27.7 0 0 1 12.06,-5.55a21.56,21.56 0 0 1 14.12,2a12.6,12.6 0 0 1 6.49,10.21c0.89,9.65 -5.21,18.37 -12.68,23.79a0.93,0.93 0 0 0 0.94,1.6a28.24,28.24 0 0 0 14.13,-22.83c0.18,-4.44 -1,-9.08 -4.27,-12.28c-3.71,-3.69 -9.33,-5.24 -14.45,-5.24c-10,0 -19.67,6 -25.12,14.19c-4.84,7.3 -5,18.94 1.43,25.4c3.42,3.43 8.14,4.7 12.87,4.79a27.21,27.21 0 0 0 16.2,-4.46c0.64,-0.44 0.06,-1.49 -0.62,-1.06l0,0.04z"/>
  <path id="svg_25" fill="#f58220" d="m87.55,298.55a47.53,47.53 0 0 1 8.77,-9.64c0.82,-0.69 -0.36,-1.86 -1.17,-1.17a43.26,43.26 0 0 0 -8.73,10.15c-0.46,0.72 0.66,1.36 1.13,0.66z"/>
  <path fill="#f58220" id="svg_26" d="m99.87,286.57a14.23,14.23 0 0 1 -4.35,-8.45c-0.27,-2.66 0.8,-5.82 3.5,-6.86c3.3,-1.26 4,2.9 4,5.22a14.72,14.72 0 0 1 -3,8c-0.44,0.62 0.52,1.32 1,0.8a13,13 0 0 0 3.5,-7.46c0.31,-2.4 0.19,-5.34 -1.54,-7.23c-1.91,-2.07 -5,-1.17 -6.73,0.63a8.61,8.61 0 0 0 -2.12,7.4a15,15 0 0 0 4.95,8.74c0.53,0.46 1.29,-0.29 0.77,-0.78l0.02,-0.01z"/>
  <path fill="#f58220" id="svg_27" d="m112.27,270.82a11.34,11.34 0 0 1 -0.86,2.15a19.43,19.43 0 0 1 -1.19,2.14a39,39 0 0 1 -3,4c-2,2.44 -3.93,5.05 -6.78,6.55c-0.88,0.46 -0.11,1.73 0.77,1.32c3.39,-1.58 5.77,-5 8,-7.94a30.49,30.49 0 0 0 3.12,-5c0.43,-0.91 2,-3.55 0.53,-4.23a0.54,0.54 0 0 0 -0.55,0.94l-0.04,0.07z"/>
  <path fill="#f58220" id="svg_28" d="m105,286c1.09,-0.31 2.08,-0.91 3.2,-1.16a4,4 0 0 1 2.72,0.22a2.36,2.36 0 0 1 1.42,1.8a3.11,3.11 0 0 1 -1.22,2.38a5.24,5.24 0 0 1 -4.74,0.94a7.75,7.75 0 0 1 -2.57,-1.28a10.34,10.34 0 0 1 -1.13,-1c-0.35,-0.35 -0.66,-0.78 -1,-1.1a0.83,0.83 0 0 0 -1.3,1a7.23,7.23 0 0 0 2,2.19a10,10 0 0 0 2.59,1.54a7.3,7.3 0 0 0 5.4,0.1a5.58,5.58 0 0 0 3.63,-4a3.89,3.89 0 0 0 -2.76,-4.18a5.52,5.52 0 0 0 -3.17,-0.1a9.56,9.56 0 0 0 -3.47,1.56c-0.47,0.36 -0.23,1.22 0.44,1l-0.04,0.09z"/>
  <path fill="#f58220" id="svg_30" d="m164.14,343.46a0.6,0.6 0 0 0 0,-1.2a0.6,0.6 0 0 0 0,1.2z"/>
  <path fill="#f58220" id="svg_31" d="m166.78,342.34a0.56,0.56 0 0 0 0,-1.11a0.56,0.56 0 0 0 0,1.11z"/>
  <path fill="#f58220" id="svg_32" d="m166.09,345.65a0.54,0.54 0 0 0 0,-1.08a0.54,0.54 0 0 0 0,1.08z"/>
  <path fill="#f58220" id="svg_33" d="m718.81,331.52c0.07,-0.08 0,-0.06 -0.16,0.07a0.3,0.3 0 0 1 -0.16,0c-0.14,0 0,0 0.06,0l-0.09,0l0.08,0c0.13,0.06 -0.1,-0.11 0,0l0.5,0.58l0.15,0.17c0,0.06 0.12,0.21 0,0c0.06,0.11 0.15,0.21 0.21,0.32l0.11,0.19s0.1,0.25 0,0.08s0,0.09 0,0.12a1.09,1.09 0 0 1 0,0.17l0,0.18c-0.08,-0.31 0,-0.15 0,-0.06s0,0.25 0,0.38s0,0 0,-0.15a0.36,0.36 0 0 1 0,0.11l0,0.17a1.09,1.09 0 0 0 0,0.17c-0.07,0.2 0.12,-0.23 0,-0.06a1.09,1.09 0 0 1 -0.08,0.15l-0.06,0.09q0.18,-0.23 0.09,-0.12a1.85,1.85 0 0 1 -0.14,0.14c-0.14,0.15 0.24,-0.15 0.08,-0.05l-0.12,0.07c-0.11,0.05 -0.18,0 0.11,0a2,2 0 0 1 -0.31,0.08l0.31,0a1.77,1.77 0 0 1 -0.46,0l0.31,0.05a2.19,2.19 0 0 1 -0.5,-0.14l0.29,0.12l-0.25,-0.13l-0.11,-0.08c0.3,0.2 0.18,0.14 0.1,0.07l-0.1,-0.1c-0.12,-0.13 0.18,0.27 0.08,0.1a1.12,1.12 0 0 1 -0.13,-0.24l0.12,0.29a1.4,1.4 0 0 1 -0.1,-0.35l0,0.32a2.54,2.54 0 0 1 0,-0.39l0,0.33a1.6,1.6 0 0 1 0.11,-0.43l-0.12,0.29a1.56,1.56 0 0 1 0.16,-0.28l-0.19,0.25a1.75,1.75 0 0 1 0.23,-0.24l-0.24,0.2a1,1 0 0 1 0.22,-0.14l-0.29,0.13a1.49,1.49 0 0 1 0.3,-0.09l-0.33,0.05a1.15,1.15 0 0 1 0.37,0l-0.33,-0.05a1.4,1.4 0 0 1 0.29,0.09l-0.29,-0.13l0.22,0.13l-0.26,-0.19a1.07,1.07 0 0 1 0.19,0.18l-0.2,-0.26a1.13,1.13 0 0 1 0.12,0.21l-0.13,-0.3a1,1 0 0 1 0.06,0.23l0,-0.33a1.31,1.31 0 0 1 0,0.28l0,-0.34a2.29,2.29 0 0 1 -0.08,0.28l0.13,-0.3l-0.12,0.2l0.2,-0.26a1.67,1.67 0 0 1 -0.23,0.23l0.25,-0.2a1.48,1.48 0 0 0 -0.61,0.78a1.16,1.16 0 0 0 0,0.39a1.27,1.27 0 0 0 1.9,1a1.94,1.94 0 0 0 1,-1.16a2.24,2.24 0 0 0 0.09,-1.28a2.2,2.2 0 0 0 -1.79,-1.68a2.47,2.47 0 0 0 -1.42,0.14a2.59,2.59 0 0 0 -1.1,0.92a2.65,2.65 0 0 0 -0.21,2.47a2.86,2.86 0 0 0 3.51,1.53a2.74,2.74 0 0 0 1.68,-1.77a3.27,3.27 0 0 0 -0.2,-2.34a4.15,4.15 0 0 0 -1.65,-1.82a2.12,2.12 0 0 0 -1.14,-0.35a0.94,0.94 0 0 0 -0.94,0.92a0.59,0.59 0 0 0 0.36,0.53a0.58,0.58 0 0 0 0.64,-0.12l0.01,-0.02z"/>
  <path fill="#f58220" id="svg_34" d="m723.27,335.48c-2.28,0.28 -4.56,0.58 -6.84,0.88a0.66,0.66 0 0 0 -0.46,0.81a0.67,0.67 0 0 0 0.81,0.46c2.21,-0.33 4.43,-0.67 6.64,-1c0.63,-0.1 0.49,-1.21 -0.15,-1.13l0,-0.02z"/>
  <path fill="#f58220" id="svg_35" d="m753.93,333.47a7.6,7.6 0 0 1 6.61,-5.14a7.25,7.25 0 0 1 6.75,4c1.44,2.95 0.53,6.45 -1.21,9.05a18,18 0 0 1 -3.32,3.6a12.27,12.27 0 0 1 -4.28,2.64a0.89,0.89 0 0 0 0.47,1.71a9,9 0 0 0 4,-2.18a22.52,22.52 0 0 0 3.4,-3.15a13.16,13.16 0 0 0 3.47,-8.44c0,-5.65 -5.56,-10.4 -11.16,-8.62a8.72,8.72 0 0 0 -5.82,6.26a0.54,0.54 0 0 0 1,0.29l0.09,-0.02z"/>
  <path fill="#f58220" id="svg_36" d="m760.41,334.74a2.36,2.36 0 0 0 -2.56,1.09a5.58,5.58 0 0 0 -0.63,3a0.79,0.79 0 0 0 0.78,0.78c0.63,0 1.46,-0.31 1.45,-1a1.74,1.74 0 0 0 -0.61,-1.37a0.79,0.79 0 0 0 -1,-0.06a0.78,0.78 0 0 0 -0.2,1c0.08,0.12 0.13,0.26 0.21,0.38l0,-0.07s0,0.07 0,0.11a0.43,0.43 0 0 1 0,0.11c0,-0.12 0,-0.14 0,0l0.39,-0.7a0.5,0.5 0 0 1 -0.12,0.08c-0.05,0 0,0 0.06,0s-0.41,0.07 -0.13,0.05l0.78,0.77a8.83,8.83 0 0 1 0,-1.26a0.49,0.49 0 0 0 0,-0.12c0,-0.2 0,0.09 0,0s0,-0.21 0.05,-0.31l0.09,-0.29l0.06,-0.15a1.13,1.13 0 0 1 0.12,-0.21s0.1,-0.14 0,-0.06s0,0 0.05,-0.05l0.18,-0.2l0.1,-0.09s0.12,-0.09 0,0l0.22,-0.14l0.1,-0.05c-0.13,0.06 0,0 0,0l0.1,0l0.28,0a0.53,0.53 0 0 0 0.53,-0.47a0.52,0.52 0 0 0 -0.39,-0.59l0.09,-0.18z"/>
  <path fill="#f58220" id="svg_38" d="m735.74,343.46a0.6,0.6 0 0 0 0,-1.2a0.6,0.6 0 0 0 0,1.2z"/>
  <path fill="#f58220" id="svg_39" d="m733.1,342.34a0.56,0.56 0 0 0 0,-1.11a0.56,0.56 0 0 0 0,1.11z"/>
  <path fill="#f58220" id="svg_40" d="m733.79,345.65a0.54,0.54 0 0 0 0,-1.08a0.54,0.54 0 0 0 0,1.08z"/>
  <path fill="#f58220" id="svg_41" d="m93.65,414.32c-12.86,9.5 -28.86,14 -41.06,24.49c-12.67,10.89 -17,27.75 -15,43.92c2.21,17.9 11.64,33.65 21.92,48.09q16.23,22.77 33.65,44.72c11.75,14.84 24.05,29.31 37.59,42.55c11.63,11.37 24.33,22.53 38.77,30.19a83.42,83.42 0 0 0 40.9,9.47a121.53,121.53 0 0 0 26.66,-3.32c9.78,-2.36 19.24,-5.84 28.64,-9.37q26.52,-10 53,-20q13.37,-5.07 26.73,-10.19l12.86,-4.94a117.21,117.21 0 0 0 11.48,-4.57c2.84,-1.46 5.52,-3.71 5.53,-7.15a0.92,0.92 0 0 0 -1.84,0c0,4.19 -5.22,5.92 -8.42,7.15q-6,2.32 -12,4.62q-12.9,5 -25.83,9.87q-25.74,9.76 -51.52,19.43c-17.91,6.72 -35.81,14.07 -55,15.92c-14.3,1.38 -28.74,0.47 -42.19,-4.9c-14.14,-5.65 -26.39,-15.4 -37.65,-25.46c-13.52,-12.08 -25.72,-25.59 -37.27,-39.53c-11.75,-14.18 -22.8,-28.9 -33.75,-43.69c-10.67,-14.42 -22,-29.13 -27.53,-46.44c-4.92,-15.34 -5,-33.61 4.47,-47.29c9,-13 24.78,-18.75 38,-26.36a86.83,86.83 0 0 0 9.45,-6.2c0.58,-0.44 0,-1.43 -0.58,-1l-0.01,-0.01z"/>
  <path fill="#f58220" id="svg_42" d="m365.81,564.31c-1.14,-5.15 -9.17,-5.35 -13.2,-5.45c-8.65,-0.21 -17.36,1 -25.88,2.4c-7.72,1.23 -15.38,2.76 -23.08,4.07q-21.76,3.69 -43.58,7c-8.38,1.29 -16.77,2.64 -25.2,3.59s-17,1.41 -25.42,0.05c-0.54,-0.09 -1.32,0.24 -1.22,0.93c0.46,3.49 6.2,4.06 7,0.45a1,1 0 0 0 -0.25,-1c-10.57,-8.53 -19.37,-19.24 -27.7,-29.9c-9.28,-11.86 -18,-24.18 -26.83,-36.35c-4.3,-5.9 -8.64,-11.78 -13.23,-17.47c-0.83,-1 -2.26,0.43 -1.44,1.44c8.66,10.71 16.53,22 24.63,33.17c8.78,12.05 17.68,24.09 27.6,35.24a132.09,132.09 0 0 0 15.6,15.24l-0.25,-0.94c-0.28,1.32 -3,1.51 -3.18,0.07l-1.22,0.93c14.47,2.32 29.17,-0.48 43.48,-2.62c14.75,-2.22 29.46,-4.64 44.16,-7.1c8.36,-1.39 16.67,-3 25,-4.45a212.06,212.06 0 0 1 26.21,-3.39a45.32,45.32 0 0 1 11.4,0.53c2.19,0.46 5,1.34 5.58,3.79c0.16,0.67 1.18,0.38 1,-0.29l0.02,0.06z"/>
  <path fill="#f58220" id="svg_43" d="m364.64,565.33a54.76,54.76 0 0 0 6.52,-2.67c2.17,-0.91 4.36,-1.77 6.57,-2.6c4.34,-1.64 8.73,-3.11 13.16,-4.48s9.11,-3 13.78,-3.58c4.11,-0.5 8.39,0.23 11.1,3.63c0.55,0.69 1.74,-0.22 1.24,-1c-4.09,-6.06 -12.16,-5 -18.23,-3.33a207.8,207.8 0 0 0 -22.57,7.7q-2.94,1.18 -5.84,2.45a34.69,34.69 0 0 0 -6.13,3a0.53,0.53 0 0 0 0.4,1l0,-0.12z"/>
  <path fill="#f58220" id="svg_44" d="m446.77,558.24c-4.89,-1.26 -9,-4.54 -13.89,-5.78c-5.28,-1.33 -10,0.85 -14.41,3.64a137.26,137.26 0 0 0 -14.06,10.25c-1.56,1.29 -4.21,3.14 -3.36,5.53c0.73,2.06 3.65,2.68 5.53,3a20,20 0 0 0 15.73,-3.46l-1,-0.12a26.48,26.48 0 0 0 10.35,7.38c3.4,1.34 7.92,2.5 11,-0.15c0.63,-0.55 -0.28,-1.42 -0.91,-0.91c-2.93,2.37 -7.62,0.6 -10.59,-0.82a26.12,26.12 0 0 1 -8.71,-6.64a0.8,0.8 0 0 0 -1,-0.12a18.73,18.73 0 0 1 -12.37,3.56a17.21,17.21 0 0 1 -3.27,-0.56c-0.95,-0.26 -2.75,-0.62 -3.22,-1.61c-0.58,-1.21 1.07,-2.42 1.85,-3.08q1.42,-1.2 2.88,-2.37a129.65,129.65 0 0 1 12.47,-8.86c4,-2.51 8.39,-4.39 13.19,-3.11s8.69,4.22 13.45,5.25a0.55,0.55 0 0 0 0.29,-1.07l0.05,0.05z"/>
  <path fill="#f58220" id="svg_45" d="m372.4,597.91a72.88,72.88 0 0 1 13.39,4.24c4.19,1.84 8.23,4 12.38,5.94c7.91,3.68 16.83,6.51 25.56,4.29c0.93,-0.23 0.53,-1.67 -0.4,-1.44c-9,2.24 -17.95,-1.22 -25.95,-5.05c-3.89,-1.86 -7.72,-3.85 -11.69,-5.53a52.74,52.74 0 0 0 -13,-3.49c-0.67,-0.1 -1,0.89 -0.29,1l0,0.04z"/>
  <path fill="#f58220" id="svg_46" d="m416.79,600.8c4.77,2.62 11.07,3.82 16.35,2.13a0.62,0.62 0 0 0 -0.32,-1.19a26.89,26.89 0 0 1 -7.85,0.48a21.61,21.61 0 0 1 -7.63,-2.37c-0.62,-0.33 -1.17,0.61 -0.55,0.95z"/>
  <path fill="#f58220" id="svg_47" d="m423.71,593.74a64.7,64.7 0 0 0 10,2.17c2.35,0.31 5.5,0.91 7.3,-1.1c0.54,-0.61 -0.34,-1.51 -0.91,-0.9a4,4 0 0 1 -3.12,1a33,33 0 0 1 -4.21,-0.4a64.41,64.41 0 0 1 -8.77,-1.81a0.54,0.54 0 0 0 -0.28,1l-0.01,0.04z"/>
  <path fill="#f58220" id="svg_48" d="m447.93,587c-3.61,-1.71 -7.17,-3.55 -10.64,-5.53c-1.72,-1 -3.4,-2 -5.09,-3c-1.34,-0.79 -3.56,-1.68 -4.05,-3.31a0.72,0.72 0 0 0 -1.38,0.38c0.26,1.64 1.66,2.55 3,3.37c1.88,1.19 3.81,2.3 5.77,3.36q5.79,3.13 11.83,5.76c0.69,0.31 1.31,-0.7 0.6,-1l-0.04,-0.03z"/>
  <path fill="#f58220" id="svg_49" d="m103.33,404.59c-5.24,0.45 -8.7,5 -10,9.78a52.8,52.8 0 0 0 -1.41,8.85a64.32,64.32 0 0 0 -0.44,8.44c0.13,5.65 1.5,11.18 5.17,15.6s8.75,7.62 13.67,10.36c10.56,5.87 22.17,9.2 33.71,12.54c2.66,0.78 5.43,1.7 7.39,3.77c1.77,1.88 2.59,4.42 3.29,6.85a40,40 0 0 0 2.44,7.05a16.9,16.9 0 0 0 5,5.69a63.86,63.86 0 0 0 8.54,5.08q4.92,2.67 9.87,5.26q10.11,5.31 20.37,10.36a0.9,0.9 0 0 0 1.29,-1c-1.77,-9.31 -8.6,-16.69 -14.61,-23.62q-9.71,-11.22 -20.3,-21.64a373.54,373.54 0 0 0 -44.86,-37.76c-4.52,-3.24 -9.13,-6.38 -13.79,-9.42c-3.74,-2.43 -8.43,-5.5 -9.06,-10.32c-0.13,-1 -1.65,-1 -1.55,0c0.41,4 3,7 6.11,9.31c3.71,2.85 7.8,5.24 11.65,7.9q12.31,8.47 23.92,17.91a374.1,374.1 0 0 1 43,41.12c3.64,4.09 7.31,8.21 10.62,12.56s6.12,9 7.14,14.43l1.29,-1c-11.46,-5.65 -22.86,-11.46 -34,-17.69a29.84,29.84 0 0 1 -6.52,-4.56a15.71,15.71 0 0 1 -3.83,-6.65c-1.39,-4.35 -2.16,-9.25 -6,-12.23a20,20 0 0 0 -6.77,-3.07c-2.75,-0.81 -5.52,-1.57 -8.27,-2.39a165.77,165.77 0 0 1 -16.65,-5.83a82.65,82.65 0 0 1 -14.83,-8c-4.79,-3.31 -9,-7.3 -10.73,-13c-1.76,-6 -1.1,-12.43 -0.44,-18.54c0.63,-5.86 2.45,-14.15 9.6,-15c0.69,-0.08 0.72,-1.17 0,-1.1l-0.01,-0.04z"/>
  <path fill="#f58220" id="svg_50" d="m157.71,413.11c6.53,3.22 12.7,7.5 17.21,13.29c4.62,6 7.38,13.69 6.37,21.27c-0.26,1.9 -0.92,3.8 -0.75,5.73a7.45,7.45 0 0 0 1.43,3.77c1.78,2.47 4.48,4 6.6,6.13c5.12,5.13 5.74,13.21 6.85,20c1.59,9.71 3.05,19.45 4.82,29.13c0.19,1.05 1.73,0.59 1.58,-0.43c-1.29,-8.84 -2.86,-17.65 -4.31,-26.46c-1.15,-7 -1.64,-15 -5.78,-21c-1.85,-2.69 -4.52,-4.39 -6.86,-6.59a8.06,8.06 0 0 1 -2.56,-3.82c-0.48,-2 0.31,-4.17 0.57,-6.19c0.92,-7.24 -1.4,-14.69 -5.53,-20.63c-4.73,-6.79 -11.62,-11.68 -19,-15.16c-0.68,-0.32 -1.28,0.68 -0.59,1l-0.05,-0.04z"/>
  <path fill="#f58220" id="svg_51" d="m155.85,416.4a285.13,285.13 0 0 1 16.88,47.92q1.74,7 3.11,14c0.2,1 1.73,0.58 1.54,-0.42a254.07,254.07 0 0 0 -14.75,-49c-1.83,-4.41 -3.76,-8.77 -5.88,-13c-0.3,-0.62 -1.18,-0.08 -0.9,0.53l0,-0.03z"/>
  <path fill="#f58220" id="svg_52" d="m192.55,446.86c9,15.41 19.78,29.75 28.31,45.46a118,118 0 0 1 10.51,24.81c2.49,9.08 2.49,18.63 1.18,27.9c-1.51,10.6 -4.7,20.8 -7.73,31a0.92,0.92 0 0 0 1.78,0.49c5.69,-17.75 11.24,-37.1 7.52,-55.83c-1.76,-8.82 -5.59,-17.4 -9.73,-25.35a261.87,261.87 0 0 0 -14.22,-23.49c-5.62,-8.49 -11.41,-16.87 -16.64,-25.61a0.57,0.57 0 0 0 -1,0.58l0.02,0.04z"/>
  <path fill="#f58220" id="svg_53" d="m47.75,513q11.9,25.3 23.82,50.6l11.82,25.08c1,2.07 2,4.25 2,6.58a12.89,12.89 0 0 1 -2,6.08c-1.42,2.56 -2.85,5.1 -4.2,7.68c-6.39,12.16 -12.08,24.67 -17.95,37.07c-3,6.23 -5.91,12.44 -9,18.59c-1.36,2.72 -2.74,5.42 -4.18,8.1a72.64,72.64 0 0 0 -4.1,8.06a17.42,17.42 0 0 0 1.28,15.88c3.27,5.06 8.68,8.46 14,11c13.61,6.51 28.45,10.73 43.22,13.65a279.89,279.89 0 0 0 46.82,5a351.55,351.55 0 0 0 46.79,-2c7.41,-0.81 14.92,-1.6 22.14,-3.46a59.65,59.65 0 0 0 10.98,-3.91c3.27,-1.56 6.72,-3.49 9.13,-6.25c4.28,-4.9 3.8,-11.27 2.75,-17.26q-2.2,-12.65 -5.13,-25.18c-1,-4.38 -2.11,-8.74 -3.24,-13.1a0.9,0.9 0 0 0 -1.73,0.48c2.27,8.71 4.34,17.46 6.12,26.29c0.78,3.87 1.5,7.75 2.2,11.64a31,31 0 0 1 0.63,9.36c-1,7.46 -8.35,11.31 -14.7,13.81c-7.08,2.79 -14.58,4 -22.1,5a357.14,357.14 0 0 1 -45.29,2.93a292.58,292.58 0 0 1 -46.56,-3.54a206.79,206.79 0 0 1 -43.67,-11.79c-10,-4 -25.16,-10.65 -23,-24a27.72,27.72 0 0 1 3.55,-9c1.38,-2.48 2.7,-5 4,-7.52c3,-5.81 5.79,-11.7 8.58,-17.6c5.88,-12.41 11.58,-24.9 17.7,-37.19c1.32,-2.64 2.66,-5.27 4,-7.87c1.52,-2.84 3.53,-5.68 4.21,-8.87c0.87,-4 -1.22,-7.7 -2.89,-11.22l-5.75,-12.12q-11.73,-24.71 -23.47,-49.39l-5.8,-12.17c-0.32,-0.66 -1.29,-0.09 -1,0.57l0.02,-0.01z"/>
  <path fill="#f58220" id="svg_54" d="m712.56,324.72a24.84,24.84 0 0 1 7,-1c2.22,0.09 4,1.36 5.8,2.58l1,-2.35a27.07,27.07 0 0 0 -7.65,-1.68a9.44,9.44 0 0 0 -6.71,1.71a1.35,1.35 0 0 0 -0.21,1.62a1.37,1.37 0 0 0 1.51,0.61c3.74,-0.8 7.77,-1.62 11.35,0.26a1.31,1.31 0 0 0 1.31,-2.26a10.79,10.79 0 0 0 -5.47,-1.28a43.12,43.12 0 0 0 -6.49,0.07a1.2,1.2 0 0 0 0,2.4c2,0.08 3.94,0 5.9,0c1.62,0.06 3.32,0.06 4.69,1l1.31,-2.26c-4,-2.47 -9,-1.52 -13.37,-0.57l1.3,2.23c1.43,-1.13 3.53,-1.08 5.25,-0.91a31.91,31.91 0 0 1 6.54,1.47a1.29,1.29 0 0 0 1,-2.35c-2.1,-1.27 -4.31,-2.45 -6.84,-2.41a24.35,24.35 0 0 0 -7.6,1.69a0.73,0.73 0 0 0 0.39,1.4l-0.01,0.03z"/>
  <path fill="#f58220" id="svg_55" d="m711.21,294.2c-4.23,9.43 -3.63,19.82 -4.28,29.9a54.39,54.39 0 0 1 -2.55,14.42a28.28,28.28 0 0 1 -3.34,6.69c-1.25,1.82 -2.91,3.49 -3.32,5.74c-1.05,5.7 5,8.61 9.37,10.18l-0.67,-0.88a112,112 0 0 0 -0.34,13.83c0.16,4.13 0.3,8.52 1.7,12.45c2.45,6.85 9,11 15.77,12.8a71.32,71.32 0 0 0 14.45,1.74c1.11,0.06 1.1,-1.66 0,-1.72c-7.51,-0.43 -15.45,-0.92 -21.88,-5.25a16.76,16.76 0 0 1 -6.41,-7.64c-1.43,-3.66 -1.58,-7.76 -1.76,-11.64a112.48,112.48 0 0 1 0.32,-14.57a0.92,0.92 0 0 0 -0.67,-0.88c-2.21,-0.8 -4.57,-1.63 -6.27,-3.33a5.2,5.2 0 0 1 -1.15,-6.42c1.06,-1.9 2.53,-3.52 3.58,-5.43a31.85,31.85 0 0 0 2.51,-6c2.69,-8.76 2.1,-18 2.62,-27c0.33,-5.58 1.11,-11.19 3.37,-16.35c0.3,-0.69 -0.71,-1.29 -1,-0.6l-0.05,-0.04z"/>
  <path fill="#f58220" id="svg_56" d="m705.76,359.63l-4.79,12c-2.1,5.25 -4.22,10.59 -4.79,16.21s0.61,11.68 4.4,15.87c2.9,3.2 7,5 11.22,6.12a42.66,42.66 0 0 0 26.66,-1.83a29.42,29.42 0 0 0 12,-8.52c5.14,-6.43 6.35,-15.22 5.68,-23.42s-3,-16.18 -4.1,-24.33s-1,-16.87 3,-24.07c1.71,-3.09 4.07,-5.82 5.4,-9.09s1.37,-7.46 -1.19,-9.89a12.15,12.15 0 0 0 -5.23,-2.45l-4.6,-1.32a6.1,6.1 0 0 0 -3,-0.34c-2,0.42 -3,2.7 -3,4.72s1,3.89 1.64,5.81c2.83,8.64 -0.21,17.95 -1.47,27c-0.58,4.14 -0.79,8.41 -2.47,12.24s-5.31,7.18 -9.48,7c-2.12,-0.09 -4.08,-1.05 -6.08,-1.74a25.45,25.45 0 0 0 -18.81,0.9"/>
  <path fill="#f58220" id="svg_57" d="m705.16,359.47c-2.24,5.39 -4.57,10.75 -6.67,16.2c-1.83,4.77 -3.37,9.77 -3.35,14.92a20.91,20.91 0 0 0 4.05,12.84c2.91,3.71 7.31,5.85 11.78,7.09a43.41,43.41 0 0 0 30,-2.6a26.43,26.43 0 0 0 15.86,-21.57c1.51,-10.5 -1.49,-20.8 -3.32,-31.06a58.24,58.24 0 0 1 -1,-15.7a30.81,30.81 0 0 1 5.13,-14.34c2.47,-3.73 5.14,-7.67 4.56,-12.37a7.78,7.78 0 0 0 -2.54,-5c-1.76,-1.51 -4.08,-2.08 -6.26,-2.7s-5.09,-2.05 -7.43,-1.33a5,5 0 0 0 -3.16,3.83c-0.53,2.31 0.37,4.57 1.15,6.71a24.77,24.77 0 0 1 1.49,7.95c0.13,5.68 -1.22,11.25 -2.16,16.81c-0.87,5.08 -0.76,10.76 -3.13,15.45a11.47,11.47 0 0 1 -4.69,5c-2.45,1.3 -4.88,0.88 -7.39,0a28.87,28.87 0 0 0 -14.67,-1.89a26.52,26.52 0 0 0 -7,2.09c-1.06,0.48 -0.14,2 0.91,1.56a24.71,24.71 0 0 1 14.81,-1.71c4.36,0.86 8.52,3.83 13,2.1c4,-1.52 6.51,-5.26 7.71,-9.18c1.47,-4.74 1.58,-9.89 2.46,-14.76c0.92,-5.09 2,-10.24 1.91,-15.44a26.13,26.13 0 0 0 -1.13,-7.19c-0.68,-2.15 -2,-4.5 -1.61,-6.83a3.73,3.73 0 0 1 1.32,-2.39c1.15,-0.84 2.63,-0.28 3.85,0.06a44.25,44.25 0 0 1 7.36,2.18c4.36,2.1 4.15,7.33 2.28,11.12a68.52,68.52 0 0 1 -3.79,6.12a29.36,29.36 0 0 0 -3,6.28a38,38 0 0 0 -1.72,13.65c0.4,10.41 3.8,20.38 4.62,30.73c0.71,9 -0.86,18.84 -7.76,25.28c-7.08,6.62 -17.68,9.28 -27.17,8.83a35.08,35.08 0 0 1 -14.2,-3.45a16.22,16.22 0 0 1 -8.45,-10.32c-2.72,-9.9 2.24,-20 5.71,-29l2.92,-7.63c0.29,-0.75 -0.89,-1.05 -1.19,-0.33l-0.09,-0.01z"/>
  <path id="svg_58" fill="#f58220" d="m716.26,371.63a19.38,19.38 0 0 0 5.5,-1.47a14.68,14.68 0 0 0 2.41,-1.29a5,5 0 0 0 2,-2.07c0.35,-0.85 -0.89,-1.42 -1.47,-0.86c-0.28,0.28 -0.5,0.6 -0.78,0.87a6.29,6.29 0 0 1 -0.87,0.67a23.34,23.34 0 0 1 -6.9,3.06c-0.59,0.15 -0.49,1.17 0.15,1.09l-0.04,0z"/>
  <path id="svg_59" fill="#f58220" d="m724,364.76a3.46,3.46 0 0 0 0.21,1.39a4.32,4.32 0 0 0 0.32,0.69a1.87,1.87 0 0 0 0.56,0.71a0.65,0.65 0 0 0 0.71,-0.05a0.64,0.64 0 0 0 0.23,-0.68a0.94,0.94 0 0 0 -0.2,-0.35c0,-0.05 0,0 0,0l0,-0.06l-0.17,-0.24c-0.05,-0.09 -0.1,-0.18 -0.14,-0.27s0,-0.08 -0.07,-0.13l0,-0.07c0,-0.06 0,0 0,0.05c0,-0.09 -0.07,-0.19 -0.1,-0.28l-0.09,-0.28c0,-0.1 -0.06,-0.2 -0.08,-0.29a0.77,0.77 0 0 1 0,-0.15s0,-0.21 0,0a0.58,0.58 0 0 0 -0.57,-0.57a0.57,0.57 0 0 0 -0.56,0.57l-0.05,0.01z"/>
  <path fill="#f58220" id="svg_60" d="m751.85,334.06c2.12,-2.83 4.67,-5.74 8.14,-6.42a8.08,8.08 0 0 1 9.22,6.83c0.31,3.09 -1.23,6.06 -3,8.59a3.65,3.65 0 0 0 -0.85,1.77a3.45,3.45 0 0 0 0.95,2.24a85.56,85.56 0 0 0 7.71,8.86c4.2,4.2 9.47,8.19 15.39,7.81a7.64,7.64 0 0 0 5.56,-2.56a11,11 0 0 0 1.71,-4c3.2,-11.72 3.36,-14.26 5.72,-26.23c1.61,-8.14 2.77,-17.84 -0.12,-25.85c-2.14,-5.92 -7.94,-11.21 -13.15,-14.6c-11.12,-7.24 -22.88,-19.36 -35.83,-16.32a12.87,12.87 0 0 1 -4.25,0.57a16.94,16.94 0 0 1 -4.62,-1.66c-6.84,-2.86 -14.85,-1.07 -21.34,2.5s-11.93,8.76 -17.85,13.23c-2.26,1.71 -4.77,3.57 -5.38,6.35a7.66,7.66 0 0 0 2.18,6.61a23,23 0 0 0 5.89,4.15c0,-2.41 0.17,-5.3 2.28,-6.44a6.63,6.63 0 0 1 2.29,-0.6l29.63,-4a13.35,13.35 0 0 0 13.84,21.33c1.53,-0.41 3.58,-0.91 4.36,0.47c0.56,1 0,2.17 -0.59,3.13l-3.17,5.36"/>
  <path fill="#f58220" id="svg_61" d="m752.23,334.44c2.58,-3.28 6.26,-7.28 10.89,-6a7.74,7.74 0 0 1 4.68,3.81a7.88,7.88 0 0 1 -0.17,6.8a19.37,19.37 0 0 1 -1.86,3.25a4.68,4.68 0 0 0 -1.2,2.71c0,2 2.21,4 3.39,5.43a57.43,57.43 0 0 0 10.26,10.23c3.47,2.54 7.74,4.41 12.13,3.76a8.1,8.1 0 0 0 5.06,-2.55c1.46,-1.71 1.91,-4 2.47,-6.12c2,-7.54 3.47,-15.15 5,-22.81c1.78,-9.12 3.55,-19.14 0.27,-28.15c-3.15,-8.55 -11.15,-13.21 -18.15,-18.3s-13.81,-11 -22.24,-13.13a21.36,21.36 0 0 0 -5.9,-0.69c-2.36,0.07 -4.58,1 -6.9,1.07s-4.48,-1.45 -6.68,-2.16a20.75,20.75 0 0 0 -6.78,-0.94c-9.87,0.24 -18,6.2 -25.37,12.17c-2,1.63 -4,3.28 -6.07,4.85a25.56,25.56 0 0 0 -4.59,4c-2.78,3.52 -1.9,8 1.13,11.05a24.24,24.24 0 0 0 5.81,3.95a0.94,0.94 0 0 0 1.41,-0.8c-0.05,-2.4 0,-5.43 2.89,-6c3.3,-0.71 6.78,-0.93 10.13,-1.37l20.25,-2.7l-0.64,-1.54a14.3,14.3 0 0 0 14,23.12c1.45,-0.3 5,-1.51 3.63,1.37c-1,2 -2.33,4 -3.48,5.92a1,1 0 0 0 1.77,1a52.87,52.87 0 0 0 3.75,-6.52c0.66,-1.61 0.35,-3.58 -1.47,-4.22s-3.43,0.22 -5.09,0.51a12.39,12.39 0 0 1 -5.8,-0.43a12.26,12.26 0 0 1 -8.16,-8a12.83,12.83 0 0 1 2.08,-11.51a0.91,0.91 0 0 0 -0.88,-1.51l-23,3.1l-5.67,0.77c-1.44,0.2 -2.94,0.29 -4.12,1.22c-2,1.59 -2.17,4.44 -2.15,6.79l1.41,-0.81c-3.52,-2 -9.2,-5.45 -7.4,-10.39c0.72,-2 2.54,-3.38 4.15,-4.61q2.7,-2.05 5.33,-4.19c7.22,-5.86 14.94,-12.34 24.6,-13.18a20,20 0 0 1 6.72,0.5c2.08,0.54 3.91,1.73 6,2.27c2.3,0.61 4.43,-0.16 6.69,-0.57a17.33,17.33 0 0 1 5.88,0c8.12,1.3 15.08,6.85 21.52,11.58c6.76,5 14.73,9.2 18.71,16.94c2.1,4.08 2.61,8.91 2.58,13.43a75.75,75.75 0 0 1 -1.59,13.84c-1.4,7.22 -2.65,14.48 -4.47,21.61a66.77,66.77 0 0 1 -1.81,6.55a6,6 0 0 1 -4.8,3.92c-4.52,0.87 -9,-1.51 -12.38,-4.24a65.94,65.94 0 0 1 -9.71,-10c-0.72,-0.88 -1.88,-1.94 -2.2,-3.05s1.13,-2.63 1.71,-3.6a13.58,13.58 0 0 0 2.08,-5.9a8.59,8.59 0 0 0 -5,-8.28c-3.36,-1.58 -6.95,-0.68 -9.69,1.68a25.24,25.24 0 0 0 -3.86,4.46c-0.35,0.49 0.47,1.14 0.85,0.65l0.05,-0.04z"/>
  <path fill="#f58220" id="svg_62" d="m803,404.13q-3,-12.08 -5.43,-24.27c-0.8,-4 -1.54,-8 -2.25,-12s-1.22,-8.4 -2.24,-12.47c-0.3,-1.22 -2.37,-1 -2.24,0.3a113.76,113.76 0 0 0 2.26,12.31q1.27,6.07 2.68,12.13q2.79,12.22 6.07,24.34a0.6,0.6 0 0 0 1.16,-0.32l-0.01,-0.02z"/>
  <path fill="#f58220" id="svg_63" d="m732.14,404.47c0.69,3.37 1.54,6.7 2.34,10c0.38,1.62 0.79,3.25 1.19,4.87a29.93,29.93 0 0 0 1.37,4.77c0.27,0.64 1.36,0.32 1.3,-0.35a28.83,28.83 0 0 0 -1,-4.67c-0.44,-1.69 -0.87,-3.37 -1.32,-5.05c-0.88,-3.31 -1.71,-6.65 -2.71,-9.94a0.6,0.6 0 0 0 -1.15,0.32l-0.02,0.05z"/>
  <path fill="#f58220" id="svg_64" d="m387.48,607.65l1.78,-1.33l0.89,-0.67l0.45,-0.33a2.31,2.31 0 0 1 0.45,-0.32a0.65,0.65 0 1 0 -0.79,-1a2.78,2.78 0 0 1 -0.41,0.36l-0.43,0.35l-0.86,0.71l-1.72,1.41a0.52,0.52 0 0 0 0,0.7a0.53,0.53 0 0 0 0.69,0.14l-0.05,-0.02z"/>
  <path fill="#f58220" id="svg_65" d="m398.13,612.85c1.72,-1.22 3.44,-2.45 5.08,-3.77c0.55,-0.44 -0.18,-1.4 -0.76,-1c-1.7,1.24 -3.34,2.58 -5,3.92c-0.45,0.38 0.15,1.17 0.64,0.83l0.04,0.02z"/>
  <path fill="#f58220" id="svg_66" d="m406.73,616.37l4.68,-3.54a0.57,0.57 0 1 0 -0.69,-0.89l-4.62,3.6c-0.47,0.36 0.16,1.19 0.63,0.83z"/>
  <path fill="#f58220" id="svg_67" d="m422.15,624a71.45,71.45 0 0 0 35.07,-17.32a65.54,65.54 0 0 0 7,-7.3a16.44,16.44 0 0 0 4,-8.55c0.42,-3.61 -0.2,-7.42 -0.8,-11a39.19,39.19 0 0 0 -2.84,-9.78c-2.86,-6.33 -8.43,-11.64 -15.58,-12.31c-1,-0.1 -1,1.47 0,1.58c6,0.66 10.87,5.21 13.54,10.43a35.34,35.34 0 0 1 3.06,9.68a46.81,46.81 0 0 1 1,10c-0.13,3.66 -1.81,6.59 -4.12,9.32a69.4,69.4 0 0 1 -6.19,6.41a75.61,75.61 0 0 1 -15,10.54a76.71,76.71 0 0 1 -19.43,7.3c-0.68,0.15 -0.38,1.16 0.29,1z"/>
  <path fill="#f58220" id="svg_68" d="m719,424.62c-19.42,-2.28 -38.3,6.93 -52.67,19.35c-15.64,13.52 -27.08,31 -39.54,47.29q-10.27,13.42 -21.31,26.23c-3.53,4.09 -7.09,8.17 -10.78,12.12a61.94,61.94 0 0 1 -11.31,10c-9.15,6 -20.54,6.48 -31.09,7.68q-17.22,2 -34.51,3.28t-34.62,2q-8.65,0.35 -17.33,0.52c-4.79,0.1 -9.74,-0.07 -14.42,1.14a18.69,18.69 0 0 0 -6.06,2.75c-1,0.7 -0.05,2.33 0.95,1.63c4,-2.82 8.88,-3.35 13.64,-3.51c5.57,-0.18 11.15,-0.22 16.72,-0.4q17.2,-0.56 34.36,-1.74t34.27,-3q8.55,-0.9 17.07,-2a65.93,65.93 0 0 0 15.1,-3.25c9.23,-3.51 16,-10.87 22.41,-18.07q11.16,-12.49 21.58,-25.63c13,-16.32 24.34,-34.11 38.95,-49.06c13.57,-13.88 31.43,-25.5 51.37,-26.31a58,58 0 0 1 7.22,0.13c0.77,0.06 0.74,-1.1 0,-1.18l0,0.03z"/>
  <path id="svg_69" fill="#f58220" d="m726.33,456a6.37,6.37 0 0 1 5.55,-9.13c3.94,0 8.06,3.31 11.43,1.27c1.06,2.89 4.19,4.18 2.34,6.65c-1.46,1.94 -7.27,5.39 -8.61,7.42c-2.19,3.28 -1.72,7.59 -1.16,11.49q9.54,66.66 23.12,132.68c0.59,2.88 1.19,5.89 0.49,8.75c-0.64,2.65 -2.33,4.9 -4,7a224.91,224.91 0 0 1 -27.79,29.35a1.85,1.85 0 0 1 -1,0.56c-0.64,0 -1.09,-0.62 -1.4,-1.18l-14.93,-26.81c-1.4,-2.51 -2.83,-5.09 -3.26,-7.94a24.34,24.34 0 0 1 0.15,-6.32c4.73,-42.32 9.46,-84.69 17.22,-126.56a124.88,124.88 0 0 1 4.3,-17.86a8.61,8.61 0 0 0 -1.36,-8.1l-1.5,-1.92"/>
  <path id="svg_70" fill="#f58220" d="m726.88,455.64c-1.57,-3.68 1,-8.17 5.19,-8c3.95,0.14 7.76,3.34 11.65,1.19l-1.21,-0.5a12.54,12.54 0 0 0 1.76,2.92c0.75,1 1.55,1.9 0.67,3.06c-1.3,1.7 -3.45,2.91 -5.12,4.19s-3.4,2.6 -4.3,4.65c-1.23,2.79 -1.11,5.94 -0.76,8.89c0.84,7.16 2,14.29 3.11,21.41q1.67,11 3.45,21.93q7.13,43.83 16,87.35c0.72,3.55 1.94,7.37 1.5,11s-2.87,6.36 -5,9q-6.54,8.18 -13.82,15.71c-2.34,2.42 -4.74,4.8 -7.19,7.11q-1.81,1.75 -3.72,3.45a22.5,22.5 0 0 1 -1.71,1.53l-0.35,0.31c-0.39,0.32 -0.67,0.27 -0.84,-0.16a6.78,6.78 0 0 1 -0.89,-1.58l-10.84,-19.46c-1.68,-3 -3.49,-6 -5,-9.11a16,16 0 0 1 -1.57,-4.9a24.83,24.83 0 0 1 0.22,-5.84q1.21,-11 2.47,-22.06c1.67,-14.71 3.4,-29.4 5.32,-44.08c2,-14.91 4.1,-29.81 6.61,-44.65c1.22,-7.2 2.44,-14.41 3.94,-21.55a102,102 0 0 1 2.55,-10.05c0.93,-2.94 1.6,-5.6 0.34,-8.58a19,19 0 0 0 -2.79,-4.15c-0.77,-1 -2.13,0.4 -1.37,1.37c1.21,1.55 2.49,3 2.93,5a8.8,8.8 0 0 1 -0.48,4.79c-0.59,1.79 -1.11,3.6 -1.58,5.42c-1.83,7.15 -3,14.47 -4.25,21.73c-2.59,15 -4.86,30 -6.9,45.09c-2,14.91 -3.83,29.84 -5.56,44.79q-1.3,11.26 -2.55,22.55c-0.4,3.59 -1.18,7.37 -0.61,11c0.51,3.26 2.24,6.17 3.83,9l11.07,19.89l2.65,4.76c0.59,1.06 1.22,2.69 2.61,2.89s2.45,-1.2 3.36,-2q2.06,-1.85 4.06,-3.73q7.71,-7.26 14.7,-15.21q3.49,-4 6.8,-8.1c2,-2.48 4.11,-5 5,-8.11c1,-3.34 0.2,-6.83 -0.48,-10.14q-1.14,-5.57 -2.25,-11.12q-2.24,-11.13 -4.34,-22.28q-4.23,-22.31 -8,-44.68t-7.08,-44.84c-0.54,-3.69 -1.18,-7.38 -1.61,-11.08c-0.34,-3 -0.55,-6.61 1.37,-9.13c1.35,-1.78 3.54,-3.06 5.28,-4.4c1.42,-1.09 3.59,-2.48 3.86,-4.42c0.31,-2.27 -2.14,-3.86 -2.92,-5.78a0.84,0.84 0 0 0 -1.21,-0.5c-2.36,1.32 -5.1,-0.05 -7.45,-0.73a8.91,8.91 0 0 0 -6.27,0a7.23,7.23 0 0 0 -3.38,9.65c0.34,0.74 1.4,0.09 1.09,-0.64l0.01,-0.07z"/>
  <path fill="#f58220" id="svg_71" d="m462.87,601c3.28,5.75 10.17,7.52 16.1,9.24c8.34,2.41 16.7,4.8 25.1,7c16.51,4.32 33.25,8 50.26,9.55a155.16,155.16 0 0 0 24,0.7a112.91,112.91 0 0 0 18.82,-2.88a149.37,149.37 0 0 0 38.15,-15c11.41,-6.36 22.3,-14.19 31.18,-23.82c1,-1.13 2,-2.3 3,-3.51c0.6,-0.75 -0.41,-1.83 -1.08,-1.08a126.85,126.85 0 0 1 -29.26,24.27a150.77,150.77 0 0 1 -37,16.16a117.94,117.94 0 0 1 -19,3.82a127.11,127.11 0 0 1 -21.46,0.32c-16.82,-0.95 -33.43,-4.11 -49.77,-8.11c-8.13,-2 -16.2,-4.22 -24.26,-6.47c-3.91,-1.09 -7.84,-2.14 -11.72,-3.31a28.07,28.07 0 0 1 -8.74,-3.9a13,13 0 0 1 -3.36,-3.58a0.59,0.59 0 0 0 -1,0.6l0.04,0z"/>
  <path fill="#f58220" id="svg_72" d="m671.5,486.16c-4.06,24.27 -5.21,48.93 -4.51,73.51s3.3,49.23 6.53,73.68c1.62,12.24 3.4,24.46 5.22,36.68c0.81,5.48 1.31,11.18 3,16.48a20.73,20.73 0 0 0 8.42,11.28c4.1,2.67 8.9,4 13.59,5.24q9.09,2.36 18.31,4.14a281.38,281.38 0 0 0 36.35,4.65a265.28,265.28 0 0 0 72.47,-5.61c3.07,-0.67 6.12,-1.42 9.14,-2.27a0.89,0.89 0 0 0 -0.47,-1.72a323.72,323.72 0 0 1 -36.16,6.49a263,263 0 0 1 -35.6,1.5a275.73,275.73 0 0 1 -36.06,-3.33q-9,-1.43 -17.82,-3.4a144.29,144.29 0 0 1 -16.17,-4.2c-4.66,-1.62 -9.19,-4.09 -11.91,-8.35s-3.56,-9.62 -4.32,-14.62c-1.82,-12 -3.62,-23.92 -5.29,-35.9c-3.37,-24.13 -6.16,-48.35 -7.36,-72.69c-1.19,-24.08 -0.75,-48.3 2.43,-72.22c0.41,-3 0.85,-6 1.34,-9c0.12,-0.75 -1,-1.08 -1.16,-0.32l0.03,-0.02z"/>
  <path fill="#f58220" id="svg_73" d="m238.92,708.47a14.94,14.94 0 0 1 -4.11,4.21c-7.46,5.32 -17.23,7.92 -26.17,9.21c-46.95,6.76 -103.51,5.42 -147.39,-14.23a41.75,41.75 0 0 1 -12.32,-7.89c-9.48,20.72 -22.81,56.41 -23.93,95.28l230.88,0l-16.96,-86.58z"/>
  <path fill="#f58220" id="svg_74" d="m824.15,418.09c18.09,-6.17 37.71,-2.09 54.06,7c17.42,9.69 30.51,25.16 41,41.83c11.27,17.87 20.22,37.2 29.71,56c9.85,19.54 21.24,39.52 24.42,61.49a64.18,64.18 0 0 1 -3.25,32c-3.79,10.16 -9.31,19.77 -14.66,29.18a439.94,439.94 0 0 1 -35.08,52.55q-9.71,12.56 -20.35,24.37c-6.65,7.38 -13.49,15 -22.14,20a30.61,30.61 0 0 1 -13.6,4.51a24.59,24.59 0 0 1 -14,-3.67a62.15,62.15 0 0 1 -11.32,-9.21a26.68,26.68 0 0 1 -4.92,-5.48c-1.57,-2.74 -0.87,-5.69 0.21,-8.46c2.19,-5.59 4.75,-11.06 7.13,-16.57l6.9,-16c4.5,-10.41 9,-20.83 13.51,-31.21c8.72,-19.83 17.89,-39.52 29,-58.15q4.13,-6.9 8.61,-13.59l-1.51,0c-0.05,-0.08 -1.21,-0.12 -1.47,-0.21a4.28,4.28 0 0 1 -1.84,-1.61l-4,-4.92q-3.84,-4.71 -7.63,-9.44c-5.2,-6.5 -10.31,-13.06 -15.25,-19.75a302.24,302.24 0 0 1 -26.28,-41.48a189.22,189.22 0 0 1 -10.91,-25.61c-0.33,-1 -1.89,-0.55 -1.55,0.43c11.77,34.74 33.93,64.37 56.74,92.6l4.73,5.83l2.55,3.13a8.42,8.42 0 0 0 2,2.08c1.54,0.91 6.1,0.94 4.42,-1.93a0.89,0.89 0 0 0 -1.51,0c-12.61,18.76 -22.82,39 -32.15,59.51c-9.76,21.47 -18.88,43.23 -28.22,64.87l-3.65,8.46a26.1,26.1 0 0 0 -2.48,7.41c-0.56,5.13 3.36,8.49 6.71,11.72c6.83,6.58 14.73,13 24.69,13.07c9.59,0.06 18.19,-5.43 25.18,-11.5c8,-7 15,-15.28 21.84,-23.36a443.18,443.18 0 0 0 38.35,-52.61q8.61,-13.85 16.17,-28.31c5.13,-9.81 9.86,-19.88 11.17,-31c2.6,-22.2 -7,-43.77 -16.55,-63.19c-5.3,-10.7 -10.74,-21.34 -16.11,-32c-4.86,-9.64 -9.66,-19.31 -14.91,-28.74c-9.8,-17.59 -21.5,-34.85 -37.68,-47.19c-15,-11.44 -34.23,-18.87 -53.3,-17a56.39,56.39 0 0 0 -13.08,2.91c-0.72,0.25 -0.42,1.4 0.32,1.15l-0.02,0.09z"/>
  <path id="svg_75" fill="#f58220" d="m829.65,715.31c17.62,17.5 45.44,26.71 68.14,40.31a3.88,3.88 0 0 1 1.53,1.3c0.65,1.23 -0.65,2.54 -2,3.35c-6.36,3.8 -15.3,3.81 -23.13,2.37a81.53,81.53 0 0 1 -26.59,-10.12c-13.38,-7.86 -24.33,-19.65 -23.8,-32.59"/>
  <path id="svg_76" fill="#f58220" d="m829.22,715.74c16.19,16.17 38.36,24.54 58.22,35.11c2.51,1.34 5,2.71 7.46,4.14c1,0.58 2.65,1.18 3.37,2.09c1,1.31 -1.88,2.65 -2.77,3.09c-5.27,2.58 -11.54,2.7 -17.26,2.07c-12.18,-1.36 -24.24,-6.43 -34.32,-13.3c-9.56,-6.51 -19.45,-16.58 -19,-29c0.05,-1.41 -2.15,-1.41 -2.2,0c-0.37,11.41 7.46,21.08 16,27.79a80.85,80.85 0 0 0 35.46,15.94c5.95,1.05 12.28,1.36 18.17,-0.26c2.54,-0.7 5.8,-1.8 7.45,-4c1.93,-2.55 -0.68,-4.15 -2.68,-5.32c-10.74,-6.28 -22.09,-11.43 -33.18,-17.05c-12,-6.1 -24.07,-12.68 -33.79,-22.17a0.61,0.61 0 0 0 -0.86,0.86l-0.07,0.01z"/>
  <path fill="#f58220" id="svg_77" d="m829.53,714.65a104.85,104.85 0 0 0 21.47,17.35a224.08,224.08 0 0 0 25.17,12.86a128.37,128.37 0 0 0 14.72,6c1.37,0.43 2.35,-1.74 1,-2.37c-4.13,-1.94 -8.5,-3.49 -12.74,-5.18s-8.57,-3.62 -12.76,-5.66a174.2,174.2 0 0 1 -23.75,-13.83a116.15,116.15 0 0 1 -12.33,-9.9a0.54,0.54 0 0 0 -0.77,0.77l-0.01,-0.04z"/>
  <path fill="#f58220" id="svg_78" d="m363.13,511.79c3.64,-2.75 7.19,-5.81 11.08,-8.2a10.9,10.9 0 0 1 6.55,-1.91c2.31,0.2 3.95,1.66 5.44,3.31a31.58,31.58 0 0 1 6.47,11c0.31,0.92 0.59,1.85 0.81,2.79s0.84,2.51 0.21,3.29s-2.13,0.81 -3.07,0.75a12.63,12.63 0 0 1 -3.62,-0.89a25.07,25.07 0 0 1 -10.53,-8.14c-0.52,-0.62 -1.52,0.19 -1.11,0.86a22.39,22.39 0 0 0 10.64,8.75c2.25,0.92 4.88,1.67 7.29,0.92a3.67,3.67 0 0 0 2.14,-1.53a4.33,4.33 0 0 0 0.12,-3a33.3,33.3 0 0 0 -6.1,-13.58a20.12,20.12 0 0 0 -4.89,-5a8.6,8.6 0 0 0 -7,-0.87c-2.74,0.77 -5,2.53 -7.21,4.27l-7.88,6.32c-0.49,0.39 0.17,1.27 0.69,0.89l-0.03,-0.03z"/>
  <path fill="#f58220" id="svg_79" d="m423.38,521c-1.3,-3 -4.36,-4.7 -7.06,-6.23a51.86,51.86 0 0 0 -9.84,-4.3a53.48,53.48 0 0 0 -10.48,-2.2c-1.54,-0.17 -3.53,-0.6 -5.06,-0.27c-1,0.22 -1.41,1.29 -0.48,1.94a0.82,0.82 0 0 0 0.83,0l0.1,-0.05c0.81,-0.43 0.25,-1.83 -0.63,-1.5l-0.11,0l0.81,0.22l0.14,0.35l-0.42,0.74c0.29,-0.18 1.4,0 1.75,0.07c0.73,0 1.46,0.09 2.19,0.16c1.53,0.14 3.05,0.36 4.55,0.63a59.05,59.05 0 0 1 8.29,2.16a56.48,56.48 0 0 1 8.07,3.49c2.47,1.29 5.21,2.71 6.48,5.32c0.3,0.63 1.19,0.08 0.92,-0.54l-0.05,0.01z"/>
  <path fill="#f58220" id="svg_80" d="m421.54,531.54a20.59,20.59 0 0 0 -3.28,-2.19c-0.59,-0.31 -1.2,-0.58 -1.81,-0.84l-0.87,-0.35a2.78,2.78 0 0 0 -1.09,-0.27a0.7,0.7 0 0 0 -0.61,0.41a0.68,0.68 0 0 0 0.14,0.74a2.51,2.51 0 0 0 1,0.44l0.88,0.31c0.59,0.22 1.16,0.46 1.72,0.73a30,30 0 0 1 3.32,1.86c0.5,0.33 1.12,-0.45 0.65,-0.84l-0.05,0z"/>
  <path fill="#f58220" id="svg_81" d="m419.56,538.48a9.84,9.84 0 0 0 -1.3,-0.92a10.41,10.41 0 0 0 -1.52,-0.69a8.69,8.69 0 0 0 -3.14,-0.62a0.64,0.64 0 0 0 -0.63,0.56a0.63,0.63 0 0 0 0.46,0.7a18.75,18.75 0 0 1 2.86,0.64a13.35,13.35 0 0 1 2.6,1.21c0.53,0.32 1.18,-0.47 0.67,-0.88z"/>
  <path fill="#f58220" id="svg_82" d="m418.73,546a45.7,45.7 0 0 0 -5.26,-1.5a0.71,0.71 0 0 0 -0.38,1.36a47,47 0 0 0 5.36,1.17a0.53,0.53 0 0 0 0.28,-1l0,-0.03z"/>
  <path fill="#f58220" id="svg_83" d="m734.94,416.2c-2.77,-0.07 -6,-0.18 -8.7,0.75c-2.32,0.82 -3.5,3.3 -4.68,5.29a76.29,76.29 0 0 0 -7,15.53a78.42,78.42 0 0 0 -2.11,8.14c-0.26,1.3 -0.49,2.61 -0.68,3.92a14.51,14.51 0 0 0 -0.3,3.83c0.78,6.33 8.64,0.8 11,-1.17a75.84,75.84 0 0 0 13.31,-14.07c0.56,-0.77 -0.7,-1.76 -1.32,-1a119.1,119.1 0 0 1 -10.11,10.72a45.38,45.38 0 0 1 -5.52,4.55a13.81,13.81 0 0 1 -3.14,1.64c-0.47,0.16 -1.21,0.43 -1.69,0.14s-0.5,-1 -0.51,-1.43a31.9,31.9 0 0 1 1,-7c0.48,-2.32 1.07,-4.6 1.76,-6.86a77.34,77.34 0 0 1 5.6,-13.66c0.62,-1.17 1.27,-2.33 2,-3.47a9.48,9.48 0 0 1 2.38,-3.15a9.72,9.72 0 0 1 3.94,-1.07c1.58,-0.24 3.17,-0.42 4.76,-0.53a0.55,0.55 0 0 0 0,-1.09l0.01,-0.01z"/>
  <path fill="#f58220" id="svg_84" d="m737.73,437.83a75.94,75.94 0 0 0 6.53,13.49c2.13,3.58 4.56,8.28 8.53,10.12a7.05,7.05 0 0 0 5.81,0a69.54,69.54 0 0 0 6.57,-3.16c4.64,-2.43 9.13,-5.14 13.54,-8c9.12,-5.85 18,-12.09 27,-18.18c4.59,-3.12 9.25,-6.16 13.67,-9.5c1.61,-1.21 3.46,-2.52 4.1,-4.53c0.74,-2.29 -0.7,-4.44 -1.71,-6.4c-4.2,-8.15 -9.63,-21.24 -21.11,-19.23c-1.21,0.21 -0.7,2.07 0.51,1.85c4.28,-0.75 8.34,1.67 11.07,4.78c2.93,3.34 4.75,7.53 6.71,11.47l1.5,3c0.55,1.09 1.41,2.37 1.15,3.64c-0.42,2.05 -3.08,3.53 -4.62,4.65c-4,2.94 -8.18,5.69 -12.3,8.49c-8.08,5.48 -16.12,11 -24.26,16.42c-3.92,2.6 -7.89,5.12 -12,7.46c-2,1.15 -4,2.26 -6.09,3.31s-4.24,2.55 -6.44,2.76s-4.23,-1.47 -5.65,-3.1a49.46,49.46 0 0 1 -4.26,-6.08a132.55,132.55 0 0 1 -7.29,-13.67a0.53,0.53 0 0 0 -1,0.41l0.04,0z"/>
  <path fill="#f58220" id="svg_85" d="m802.86,401.19c-0.49,2.81 -2.7,4.83 -5.06,6.23s-5.18,2.65 -7.79,3.9c-5.32,2.54 -10.67,5.05 -16.12,7.33a156.35,156.35 0 0 1 -16.8,6q-4.17,1.21 -8.41,2.09q-2,0.42 -4,0.75a17.56,17.56 0 0 0 -4.19,0.88c-2.63,1.13 -3.56,4.22 -4.38,6.72a38.39,38.39 0 0 0 -1.78,9.81c-0.06,1.13 1.7,1.12 1.76,0a36.18,36.18 0 0 1 1.69,-9.11a20.83,20.83 0 0 1 1.6,-4a4.42,4.42 0 0 1 3.39,-2.2a144.24,144.24 0 0 0 17,-3.86c11.12,-3.46 21.72,-8.38 32.2,-13.41c4.93,-2.37 11.39,-4.74 11.94,-11.05c0.06,-0.59 -0.94,-0.74 -1,-0.14l-0.05,0.06z"/>
  <path fill="#f58220" id="svg_87" d="m54,722.33c-1.92,3.58 -4,8.32 -1,12a5.62,5.62 0 0 0 5.34,1.8c1.78,-0.31 4.11,-1.4 4.68,-3.27c0.46,-1.51 -0.53,-3.39 -2.27,-3.14c-1.89,0.27 -2.57,2.39 -1.93,4c1.57,3.86 7,6 10.83,4.5a6.08,6.08 0 0 0 3.86,-4.54a4.13,4.13 0 0 0 -2.7,-4.69a0.84,0.84 0 0 0 -0.94,1.23a4.53,4.53 0 0 0 4.51,2.35a5,5 0 0 0 4.14,-3.59a6.34,6.34 0 0 0 -1.18,-5.83c-1.18,-1.51 -3.41,-3.27 -5.44,-2.73a0.87,0.87 0 0 0 0,1.67a2.36,2.36 0 0 0 2.78,-1.77a4.25,4.25 0 0 0 -0.68,-3.72c-1.6,-2.39 -4.66,-3.29 -7.39,-3.46c-1.1,-0.06 -1.09,1.63 0,1.71a9.68,9.68 0 0 1 4.62,1.44a4.58,4.58 0 0 1 1.62,1.71c0.21,0.46 0.62,2.59 -0.47,2.35l0,1.65c1.33,-0.36 3.09,1.34 3.78,2.3a4.69,4.69 0 0 1 0.84,3.81a3.4,3.4 0 0 1 -2.53,2.66a2.88,2.88 0 0 1 -3.13,-1.48l-1,1.23c1.53,0.44 1.83,2.38 1.27,3.68a5.07,5.07 0 0 1 -3.73,2.8a7,7 0 0 1 -4.88,-1.12c-0.89,-0.55 -4.39,-3.34 -2.43,-4.48c0.69,-0.41 1.15,0.14 1.05,0.82a2,2 0 0 1 -0.78,1.17a5.87,5.87 0 0 1 -2.49,1.22a4.23,4.23 0 0 1 -4.66,-1.69c-2.05,-3.18 -0.21,-7.06 1.26,-10c0.31,-0.62 -0.6,-1.16 -0.93,-0.54l-0.02,-0.05z"/>
  <path id="svg_88" d="m57.55,718.68a0.62,0.62 0 0 0 0,-1.23a0.62,0.62 0 0 0 0,1.23z"/>
  <path fill="#ffffff" id="svg_89" d="m49.26,768.14c-1.87,0.25 -2.79,-1.72 -2.35,-3.32a7.27,7.27 0 0 1 2.87,-3.73c1.09,-0.77 2.67,-1.43 4,-0.81c1.13,0.54 2,2 1.26,3.11l1.52,0.63a4.09,4.09 0 0 1 3.85,-2.27a4.64,4.64 0 0 1 4.07,2.81c1.78,3.72 -0.57,7.62 -3.65,9.74l1.12,1.46c0.18,-0.16 0.8,-0.72 1.07,-0.7c0.64,0.05 0.59,0.81 0.6,1.22a6,6 0 0 1 -0.32,1.92a7.2,7.2 0 0 1 -2.48,3.38a8.63,8.63 0 0 1 -8.62,0.57a9.07,9.07 0 0 1 -3.42,-2.44a2.48,2.48 0 0 1 -0.57,-2.32c0.23,-0.63 0.39,-0.65 0,-0.19a2.14,2.14 0 0 1 -1.06,0.74c-1.54,0.43 -3.07,-0.91 -3.59,-2.25a4.72,4.72 0 0 1 0.44,-4.09c0.55,-1 -0.82,-1.69 -1.46,-0.85c-2.44,3.16 -0.52,8.53 3.56,9.06a3.8,3.8 0 0 0 4.19,-2.81c0.38,-1.87 -1.65,-2.7 -3,-1.64c-1.64,1.27 -1.36,3.75 -0.29,5.28a10.93,10.93 0 0 0 5.16,3.62c4.08,1.53 8.84,0.7 11.6,-2.83a7.93,7.93 0 0 0 1.73,-6.09a2.38,2.38 0 0 0 -1.95,-2.19a3.87,3.87 0 0 0 -2.89,1.29c-0.78,0.7 0.25,2.07 1.12,1.46c4.1,-2.87 7,-8.45 3.75,-13.08c-2.62,-3.77 -8.71,-3.74 -10.55,0.76c-0.36,0.89 1.05,1.43 1.52,0.64a3.82,3.82 0 0 0 -1.37,-5c-2,-1.36 -4.46,-0.64 -6.22,0.68s-3.65,3.65 -3.48,6.09a3.63,3.63 0 0 0 4,3.43c0.72,-0.1 0.56,-1.38 -0.18,-1.29l0.02,0.01z"/>
  <path fill="#f58220" id="svg_90" d="m106.7,755.57c-5.53,-2.25 -13,0.58 -15.28,6.22a7.76,7.76 0 0 0 1.15,8a6.31,6.31 0 0 0 7.22,1.54l-1.4,-0.8a6.88,6.88 0 0 0 11.61,4.64a14,14 0 0 0 3.93,-4.84c0.54,-1.37 -0.13,-3.24 -1.82,-3.26s-2.17,2.11 -1.16,3.22s3.41,1.16 4.92,0.83a7.77,7.77 0 0 0 4.71,-3.15c2.78,-4.07 -1.67,-9.26 -5,-11.45l0.19,1.48c1.26,-1.47 2.48,-3.49 1.09,-5.3a4.24,4.24 0 0 0 -4.64,-1.17c-2,0.68 -3,2.67 -3.79,4.48c-0.34,0.85 -0.92,1.94 -0.47,2.85a1.43,1.43 0 0 0 2,0.58c1.07,-0.57 0.12,-2.18 -0.94,-1.62l0.64,0.2l0.1,-0.31a3.09,3.09 0 0 0 0.24,-0.71a13.27,13.27 0 0 1 0.73,-1.63a4.1,4.1 0 0 1 2.22,-2.15a2.51,2.51 0 0 1 2.2,0.4c1,0.91 -0.11,2.26 -0.75,3a1,1 0 0 0 0.19,1.48a12.16,12.16 0 0 1 3.33,3.26c0.83,1.22 1.89,3 1.48,4.52a5.2,5.2 0 0 1 -3.4,3.16a6.14,6.14 0 0 1 -2.12,0.32a5.36,5.36 0 0 1 -1,-0.12l-0.6,-0.18c-0.36,-0.18 -0.44,0 -0.25,0.6a6.2,6.2 0 0 1 -1.2,1.69a17.57,17.57 0 0 1 -1.57,1.77a6,6 0 0 1 -3.82,1.94a5.22,5.22 0 0 1 -5.24,-4.57a1,1 0 0 0 -1.4,-0.81a4.49,4.49 0 0 1 -5.49,-1.92a6.5,6.5 0 0 1 0.3,-6.72a10.89,10.89 0 0 1 12.67,-4.19c0.84,0.33 1.18,-1 0.37,-1.33l0.05,0.05z"/>
  <path fill="#f58220" id="svg_91" d="m98.91,736.36l0.58,0a0.42,0.42 0 0 0 0.27,-0.06a0.57,0.57 0 0 0 0.37,-0.37a0.42,0.42 0 0 0 0.06,-0.27l0,-0.18a0.87,0.87 0 0 0 -0.18,-0.31l-0.14,-0.11a0.74,0.74 0 0 0 -0.36,-0.09l-0.58,0a0.42,0.42 0 0 0 -0.27,0.06a0.46,0.46 0 0 0 -0.23,0.14a0.59,0.59 0 0 0 -0.14,0.23a0.58,0.58 0 0 0 -0.06,0.26l0,0.19a0.87,0.87 0 0 0 0.18,0.31l0.15,0.11a0.68,0.68 0 0 0 0.35,0.09z"/>
  <path fill="#f58220" id="svg_92" d="m83.55,778l1.17,-0.28a0.64,0.64 0 0 0 0.4,-0.3a0.67,0.67 0 0 0 -0.24,-0.9a0.69,0.69 0 0 0 -0.51,-0.06l-1.17,0.29a0.68,0.68 0 0 0 -0.39,0.3a0.64,0.64 0 0 0 -0.06,0.49a0.65,0.65 0 0 0 0.3,0.39a0.66,0.66 0 0 0 0.5,0.07z"/>
  <path fill="#f58220" id="svg_93" d="m146.6,781.47c-1.46,-0.3 -3.12,-0.59 -4.19,-1.73c-1.28,-1.35 -0.69,-3 0.5,-4.19a4.91,4.91 0 0 1 4,-1.55a3,3 0 0 1 2.66,2.73c0.05,1.16 1.84,1.17 1.8,0a6.31,6.31 0 0 1 2.12,-4.74a10.71,10.71 0 0 1 4.51,-2.65c1.13,-0.23 1.56,0.5 2,1.45a8.46,8.46 0 0 1 0,7.45l1.94,0.53c0,-0.44 0,-1.45 0.6,-1.28c0.38,0.11 0.59,0.67 0.73,1a5.59,5.59 0 0 1 0.4,2.46a7.51,7.51 0 0 1 -2.19,4.78c-3.14,3.12 -8.1,2.61 -11.89,1.2c-1.12,-0.42 -1.94,1.48 -0.82,1.95c5.51,2.33 13.17,1.84 16.06,-4.2a8.41,8.41 0 0 0 0.07,-7.66c-0.64,-1.16 -1.68,-2.1 -3.09,-1.68s-2,2 -1.95,3.42c0,1 1.47,1.5 1.94,0.52a10.85,10.85 0 0 0 0.88,-6.91c-0.39,-1.88 -1.52,-4.88 -3.74,-5.14a6.52,6.52 0 0 0 -3.5,1.08a13.72,13.72 0 0 0 -3.06,2a8.06,8.06 0 0 0 -2.83,6.37l1.8,0a4.76,4.76 0 0 0 -3.47,-4.28a6.26,6.26 0 0 0 -5.87,1.69c-1.48,1.36 -2.5,3.48 -1.55,5.43c1.07,2.2 3.56,2.83 5.77,3.23c0.86,0.16 1.24,-1.15 0.36,-1.33l0.01,0.05z"/>
  <path fill="#f58220" id="svg_94" d="m144.26,730a15,15 0 0 0 -4.23,7.88c-0.5,2.72 -0.15,5.88 2.51,7.35c5.23,2.88 10.71,-2.39 11.08,-7.48a0.9,0.9 0 0 0 -1.77,-0.24a6.78,6.78 0 1 0 13.37,1.09l-1.88,0.25a3.2,3.2 0 0 0 4.46,2.08c1.57,-0.68 3.68,-3.26 2.69,-5.06c-0.53,-1 -1.85,-1.5 -2.76,-2c-1.24,-0.72 -2.46,-1.5 -3.75,-2.15c-2,-1 -4.54,-1.75 -6.54,-0.27c-0.93,0.69 -0.06,2.25 0.92,1.58c2.39,-1.67 5.71,0.94 7.77,2.14a16.88,16.88 0 0 1 2.1,1.22c0.64,0.52 0.5,0.92 0.08,1.59c-0.6,1 -2.75,2.3 -3.12,0.39a1,1 0 0 0 -1.88,0.26a4.92,4.92 0 1 1 -9.72,-0.61l-1.78,-0.24c-0.24,3.86 -4.68,8.41 -8.68,5.86c-2.12,-1.35 -1.89,-4.37 -1.37,-6.48a13.75,13.75 0 0 1 3.45,-6.18a0.67,0.67 0 0 0 -1,-0.95l0.05,-0.03z"/>
  <path fill="#f58220" id="svg_95" d="m131,737.93l0.29,0.88a0.59,0.59 0 0 0 0.15,0.27a0.56,0.56 0 0 0 0.22,0.21a0.63,0.63 0 0 0 0.3,0.1a0.58,0.58 0 0 0 0.32,0a0.75,0.75 0 0 0 0.48,-0.37a0.79,0.79 0 0 0 0.08,-0.62l-0.29,-0.88a0.88,0.88 0 0 0 -0.37,-0.48a0.53,0.53 0 0 0 -0.3,-0.09a0.58,0.58 0 0 0 -0.32,0a0.8,0.8 0 0 0 -0.56,1l0,-0.02z"/>
  <path fill="#f58220" id="svg_96" d="m139.41,762.09l-1.16,1.18a0.77,0.77 0 0 0 0,1.1a0.79,0.79 0 0 0 0.54,0.22a0.84,0.84 0 0 0 0.55,-0.22l1.18,-1.17a0.76,0.76 0 0 0 0,-1.11a0.76,0.76 0 0 0 -0.55,-0.23a0.83,0.83 0 0 0 -0.56,0.23z"/>
  <path fill="#f58220" id="svg_97" d="m122.37,782.11a0.7,0.7 0 0 0 0,-1.39a0.7,0.7 0 0 0 0,1.39z"/>
  <path id="svg_98" d="m33.65,785.66l0.6,-0.57a0.63,0.63 0 0 0 0.13,-0.2a0.53,0.53 0 0 0 0,-0.25a0.49,0.49 0 0 0 0,-0.24a0.46,0.46 0 0 0 -0.13,-0.2l-0.13,-0.1a0.62,0.62 0 0 0 -0.32,-0.09l-0.17,0a0.62,0.62 0 0 0 -0.28,0.17l-0.57,0.59a0.49,0.49 0 0 0 -0.13,0.2a0.4,0.4 0 0 0 0,0.24a0.42,0.42 0 0 0 0,0.24a0.41,0.41 0 0 0 0.13,0.19l0.12,0.1a0.58,0.58 0 0 0 0.31,0.08l0.17,0a0.63,0.63 0 0 0 0.27,-0.16z"/>
  <path id="svg_99" d="m47.48,750.43l1.17,-0.3a0.7,0.7 0 0 0 0.41,-0.31a0.73,0.73 0 0 0 0.07,-0.52a0.7,0.7 0 0 0 -0.32,-0.41a0.68,0.68 0 0 0 -0.52,-0.07l-1.17,0.29a0.7,0.7 0 0 0 -0.41,0.32a0.68,0.68 0 0 0 0.24,0.93a0.76,0.76 0 0 0 0.53,0.07z"/>
  <path fill="#f58220" id="svg_100" d="m193.66,758.34c-2.29,-1.74 -5.3,-1 -7.25,0.89a14.48,14.48 0 0 0 -3.92,8.31c-0.32,2.72 0.62,5.85 3.2,7.19a4.77,4.77 0 0 0 6.25,-1.64l-1.75,-0.74c-0.93,2.32 0.46,4.68 2.38,6a8,8 0 0 0 7.11,0.69a9.55,9.55 0 0 0 5.31,-4.5c0.83,-1.6 1.36,-4.93 -1.19,-5.29a1,1 0 0 0 -1.26,1.27c0.47,2.39 3.24,3.25 5.35,2.56a6.47,6.47 0 0 0 4.23,-5.73c0.19,-2.4 -0.72,-5.72 -2.7,-7.26c-1.65,-1.29 -4.83,-0.56 -4.53,2a1.06,1.06 0 0 0 1.57,0.9c4.25,-2.6 0.61,-8.13 -2.22,-10.23a7.5,7.5 0 0 0 -5.57,-1.55a6.22,6.22 0 0 0 -2.77,1.08a5.83,5.83 0 0 0 -0.94,0.85a4.61,4.61 0 0 0 -0.46,0.63l-0.17,0.28c-0.16,0.2 -0.07,0.24 0.29,0.1l0.46,0.61l-0.06,-0.21a1,1 0 0 0 -1.91,0.53c0.25,1.46 2,1.37 2.78,0.42c0.56,-0.68 0.82,-1.32 1.64,-1.76a4.54,4.54 0 0 1 2.45,-0.51a7,7 0 0 1 4.66,2.78c1,1.24 2.76,3.95 0.77,5.18l1.57,0.9c-0.11,-0.87 0.93,-0.53 1.32,-0.19a4.71,4.71 0 0 1 1,1.59a7.37,7.37 0 0 1 0.66,4.47a4.32,4.32 0 0 1 -2.21,3c-1.1,0.55 -2.93,0.55 -3.23,-0.94l-1.26,1.26c1.34,0.19 -0.49,3.1 -0.89,3.58a7.67,7.67 0 0 1 -3.87,2.46a6.07,6.07 0 0 1 -4.47,-0.36c-1.47,-0.81 -2.65,-2.34 -2,-4c0.4,-1 -1.22,-1.64 -1.75,-0.73c-1,1.69 -3.32,1.59 -4.63,0.34c-1.6,-1.54 -1.7,-4 -1.23,-6a13.52,13.52 0 0 1 2.81,-5.87c1.44,-1.61 3.89,-2.52 5.87,-1.34c0.62,0.37 1.09,-0.53 0.55,-0.93l0.01,-0.09z"/>
  <path fill="#f58220" id="svg_101" d="m213,726l-0.87,0a0.57,0.57 0 0 0 -0.39,0.16a0.59,0.59 0 0 0 -0.16,0.38a0.62,0.62 0 0 0 0.16,0.39a0.61,0.61 0 0 0 0.39,0.15l0.87,0a0.61,0.61 0 0 0 0.39,-0.15a0.62,0.62 0 0 0 0.16,-0.39a0.59,0.59 0 0 0 -0.16,-0.38a0.57,0.57 0 0 0 -0.39,-0.16z"/>
  <path fill="#f58220" id="svg_102" d="m213,726a10.88,10.88 0 0 1 -2.13,-0.18a0.76,0.76 0 0 0 -0.83,0.34a5,5 0 0 0 3.66,6.89c3.41,0.54 6.21,-2.93 5.55,-6.15a0.93,0.93 0 0 0 -1.82,0.24a5.65,5.65 0 1 0 10.87,-2.24a1,1 0 0 0 -1.78,-0.24a3.24,3.24 0 0 0 2,4.9c2.43,0.55 4.57,-1.44 5.06,-3.7c0.61,-2.79 -0.68,-5.62 -1.63,-8.19c-0.39,-1 -0.91,-2.14 -2.08,-2.42a1.94,1.94 0 0 0 -2.29,1.27c-0.41,1 1.22,1.66 1.74,0.73c0.14,-0.26 0.75,1.17 0.79,1.3c0.24,0.65 0.47,1.29 0.71,1.93a10.7,10.7 0 0 1 0.92,4.31a2.94,2.94 0 0 1 -2,2.84c-1.17,0.24 -2.3,-0.89 -1.52,-2l-1.78,-0.23a3.75,3.75 0 1 1 -7.14,1.72l-1.82,0.25c0.45,2.05 -1.53,4.37 -3.68,3.9a3.57,3.57 0 0 1 -2.39,-4.56l-0.52,0.51a11.76,11.76 0 0 1 2.13,-0.16a0.54,0.54 0 0 0 0,-1.08l-0.02,0.02z"/>
  <path fill="#f58220" id="svg_103" d="m248.32,753.7a7.74,7.74 0 0 0 -9,4.14a8.13,8.13 0 0 0 2.69,9.72l0,-1.78a6.78,6.78 0 0 0 -3.5,6.23c0.16,2.38 2,4.93 4.61,4.65c1.12,-0.12 1.65,-2 0.3,-2.18a3.94,3.94 0 0 0 -4.25,2.45a5.12,5.12 0 0 0 0.9,5.4c1.18,1.45 3.42,3.26 5.36,3.35s3.42,-2 1.94,-3.53c-0.77,-0.81 -2.23,0.26 -1.57,1.21c0.14,0.21 -1.08,-0.22 -1.24,-0.3a9.94,9.94 0 0 1 -1.24,-0.78a6.19,6.19 0 0 1 -2,-2.06c-0.75,-1.41 -0.2,-3.82 1.75,-3.56l0,-2.22c-1.7,0.19 -2.52,-1.65 -2.43,-3.12a4.69,4.69 0 0 1 2.36,-3.76a1,1 0 0 0 0,-1.78a6.24,6.24 0 0 1 -2,-7.28a6.6,6.6 0 0 1 6.94,-3.69c0.71,0.1 1,-0.91 0.31,-1.11l0.07,0z"/>
  <path fill="#f58220" id="svg_104" d="m232.25,753.65l0.58,0.29a0.63,0.63 0 0 0 0.3,0.1a0.65,0.65 0 0 0 0.31,0a0.59,0.59 0 0 0 0.27,-0.14a0.7,0.7 0 0 0 0.2,-0.22l0.08,-0.19a0.75,0.75 0 0 0 0,-0.42l-0.08,-0.19a0.75,0.75 0 0 0 -0.28,-0.28l-0.59,-0.29a0.63,0.63 0 0 0 -0.29,-0.1a0.65,0.65 0 0 0 -0.31,0a0.5,0.5 0 0 0 -0.27,0.14a0.56,0.56 0 0 0 -0.21,0.22l-0.08,0.19a1,1 0 0 0 0,0.42l0.08,0.19a0.86,0.86 0 0 0 0.29,0.28z"/>
  <path fill="#f58220" id="svg_105" d="m226.12,778.6l0,0.07l0,0.05l0,0.19l0,0.15a0.46,0.46 0 0 0 0.06,0.28a0.62,0.62 0 0 0 0.14,0.23a0.79,0.79 0 0 0 0.23,0.14a0.46,0.46 0 0 0 0.28,0.06l0.19,0a0.69,0.69 0 0 0 0.31,-0.18l0.12,-0.15a0.74,0.74 0 0 0 0.09,-0.36l0,-0.15a1.64,1.64 0 0 0 -0.05,-0.32l-0.07,-0.17a0.55,0.55 0 0 0 -0.18,-0.19a0.38,0.38 0 0 0 -0.15,-0.09a0.47,0.47 0 0 0 -0.26,0l-0.18,0l-0.16,0.07a0.55,0.55 0 0 0 -0.2,0.17a0.55,0.55 0 0 0 -0.12,0.24l-0.05,-0.04z"/>
  <path fill="#f58220" id="svg_106" d="m215,791.5a17,17 0 0 1 3.88,-0.53a11.33,11.33 0 0 1 1.93,0.15c0.67,0.11 1.31,0.33 2,0.39a0.69,0.69 0 0 0 0.34,-1.27a6,6 0 0 0 -2.08,-0.55a13.06,13.06 0 0 0 -2.25,-0.12a10.47,10.47 0 0 0 -4.23,0.94c-0.57,0.26 -0.16,1.12 0.42,1l-0.01,-0.01z"/>
  <path fill="#f58220" id="svg_107" d="m190.35,787.85l-2.64,1.15a0.77,0.77 0 0 0 -0.33,0.42a0.73,0.73 0 0 0 0.08,0.54a0.66,0.66 0 0 0 0.42,0.33a0.84,0.84 0 0 0 0.54,-0.07l2.64,-1.17a0.76,0.76 0 0 0 0.33,-0.43a0.78,0.78 0 0 0 -0.07,-0.54a0.7,0.7 0 0 0 -1,-0.25l0.03,0.02z"/>
  <path fill="#f58220" id="svg_108" d="m105,793.19l0.88,-0.27a0.7,0.7 0 0 0 0.37,-0.28a0.48,0.48 0 0 0 0.07,-0.23a0.49,0.49 0 0 0 0,-0.24a0.61,0.61 0 0 0 -0.75,-0.42l-0.89,0.25a0.67,0.67 0 0 0 -0.37,0.29a0.44,0.44 0 0 0 -0.07,0.22a0.42,0.42 0 0 0 0,0.25a0.65,0.65 0 0 0 0.28,0.37a0.67,0.67 0 0 0 0.48,0.06z"/>
  <path fill="#f58220" id="svg_109" d="m775.81,528.58c8.5,0.25 17,0.15 25.51,0.25s17,0.27 25.52,0.08a0.89,0.89 0 0 0 0,-1.78c-8.5,-0.19 -17,0 -25.52,0.08s-17,0 -25.51,0.25a0.56,0.56 0 0 0 0,1.12z"/>
  <path fill="#f58220" id="svg_111" d="m100.62,348.3a88.55,88.55 0 0 0 23.84,-7.81c0.72,-0.37 0.09,-1.4 -0.63,-1.08a107.11,107.11 0 0 1 -23.5,7.84c-0.68,0.14 -0.39,1.18 0.29,1.05z"/>
  <path fill="#f58220" id="svg_112" d="m106.07,355.24a86.07,86.07 0 0 0 18,-6.35c0.74,-0.36 0.1,-1.47 -0.64,-1.1a85.51,85.51 0 0 1 -17.63,6.42c-0.67,0.16 -0.38,1.19 0.28,1l-0.01,0.03z"/>
  <path fill="#f58220" id="svg_113" d="m114.11,361.58a3.74,3.74 0 0 0 2.5,-1.81a0.58,0.58 0 0 0 -1,-0.59c0,0.09 -0.11,0.18 -0.17,0.27l-0.06,0.08s0.08,-0.1 0,0l-0.11,0.13a5.11,5.11 0 0 1 -0.48,0.45a0.18,0.18 0 0 0 -0.07,0.05l-0.13,0.09l-0.28,0.16l-0.15,0.06c-0.1,0.05 0.12,0 0,0l-0.07,0l-0.32,0.1a0.53,0.53 0 1 0 0.28,1l0.06,0.01z"/>
  <path fill="#f58220" id="svg_114" d="m147.2,325.11l1.37,-0.16a0.63,0.63 0 0 0 0.33,-0.09l0.13,-0.1a0.66,0.66 0 0 0 -0.06,-1a0.65,0.65 0 0 0 -0.22,-0.11a0.69,0.69 0 0 0 -0.35,0l-1.36,0.21a0.63,0.63 0 0 0 -0.38,0.28a0.7,0.7 0 0 0 -0.07,0.4a0.61,0.61 0 0 0 0.17,0.36a0.58,0.58 0 0 0 0.44,0.18l0,0.03z"/>
  <path fill="#f58220" id="svg_115" d="m720.56,512.64a183.54,183.54 0 0 1 16.82,-16.88c0.66,-0.59 -0.31,-1.55 -1,-1a131.59,131.59 0 0 0 -16.6,17.11c-0.42,0.52 0.3,1.28 0.76,0.75l0.02,0.02z"/>
  <path fill="#f58220" id="svg_116" d="m724.76,489a55.25,55.25 0 0 1 4.89,-4.15c0.84,-0.63 1.69,-1.24 2.57,-1.81s1.86,-1.09 2.69,-1.76c0.46,-0.37 0,-1.24 -0.59,-1a15.1,15.1 0 0 0 -2.76,1.64c-0.91,0.62 -1.8,1.27 -2.68,1.95a47.08,47.08 0 0 0 -4.87,4.39a0.53,0.53 0 0 0 0.75,0.75l0,-0.01z"/>
  <path fill="#f58220" id="svg_117" d="m728.59,470.74a32.65,32.65 0 0 1 7.25,-3.59c0.73,-0.25 0.41,-1.44 -0.33,-1.17a33.76,33.76 0 0 0 -7.51,3.82c-0.57,0.39 0,1.32 0.55,0.94l0.04,0z"/>
  <path fill="#f58220" id="svg_118" d="m729.2,458.74a52,52 0 0 1 14.28,-7.65c0.74,-0.25 0.43,-1.42 -0.32,-1.17a49.3,49.3 0 0 0 -14.62,8c-0.48,0.37 0.16,1.22 0.66,0.85l0,-0.03z"/>
  <path fill="#f58220" id="svg_119" d="m728.14,451.9l0.3,-0.29a0.39,0.39 0 0 0 0.12,-0.19a0.53,0.53 0 0 0 0.06,-0.24a0.48,0.48 0 0 0 -0.06,-0.24a0.47,0.47 0 0 0 -0.12,-0.2l-0.13,-0.09a0.56,0.56 0 0 0 -0.31,-0.09l-0.16,0a0.52,0.52 0 0 0 -0.27,0.15l-0.29,0.3a0.53,0.53 0 0 0 -0.13,0.2a0.59,0.59 0 0 0 0,0.23a0.64,0.64 0 0 0 0,0.24a0.5,0.5 0 0 0 0.13,0.19l0.12,0.1a0.68,0.68 0 0 0 0.31,0.08l0.16,0a0.63,0.63 0 0 0 0.27,-0.16l0,0.01z"/>
  <path fill="#f58220" id="svg_120" d="m717.2,538c3.9,-3.78 7.14,-8.16 10.89,-12.08a43.63,43.63 0 0 1 6.18,-5.42c2.11,-1.5 4.59,-2.92 6.23,-5a0.63,0.63 0 0 0 -0.9,-0.89c-4.05,3.59 -8.66,6.42 -12.38,10.39s-6.92,8.38 -10.79,12.2c-0.5,0.49 0.27,1.25 0.77,0.76l0,0.04z"/>
  <path fill="#f58220" id="svg_121" d="m714.42,569.56a195.68,195.68 0 0 1 13.93,-14.86q3.64,-3.5 7.48,-6.76c2.62,-2.23 5.41,-4.25 8,-6.48c0.58,-0.49 -0.19,-1.48 -0.82,-1.05a88.79,88.79 0 0 0 -7.82,6.28q-3.91,3.34 -7.63,6.92a165.37,165.37 0 0 0 -14,15.16c-0.44,0.55 0.32,1.34 0.79,0.79l0.07,0z"/>
  <path fill="#f58220" id="svg_122" d="m711.31,604q19.73,-18.25 39.33,-36.62c0.69,-0.65 -0.35,-1.68 -1,-1q-19.54,18.42 -39.06,36.89c-0.51,0.48 0.25,1.24 0.76,0.77l-0.03,-0.04z"/>
  <path fill="#f58220" id="svg_123" d="m720.46,635.44c12.55,-12.27 24.73,-24.94 36.59,-37.88c0.6,-0.67 -0.38,-1.66 -1,-1q-17.8,19.42 -36.39,38.08a0.56,0.56 0 0 0 0.79,0.79l0.01,0.01z"/>
  <path fill="#f58220" id="svg_124" d="m738.57,761.72c3.82,3.41 4.6,9.26 5.46,14a122.23,122.23 0 0 1 1.72,17.39a0.81,0.81 0 0 0 1.61,0a90.23,90.23 0 0 0 -2.05,-18.24c-1,-4.82 -2,-10.56 -6,-13.93c-0.52,-0.44 -1.27,0.29 -0.76,0.75l0.02,0.03z"/>
  <path fill="#f58220" id="svg_125" d="m467.21,223.7c-22.62,-16.7 -52.9,-20.51 -80.21,-18.08s-58.5,10.72 -78.07,30.9c-12.42,12.8 -19.75,30.76 -18.44,48.55c1.18,16 9.22,31.12 20.86,42.17s26.66,18.17 42.32,21.68a67.52,67.52 0 0 1 -18.9,19.82c11.54,0.37 20.65,-9.33 31.36,-13.65c13.52,-5.44 28.76,-2 43.33,-2.41a82.09,82.09 0 0 0 58.13,-26.88c24.57,-27.36 30.1,-75 0.84,-101.21"/>
  <path fill="#f58220" id="svg_126" d="m467.59,223c-17.18,-12.7 -38.64,-18 -59.73,-19a175.27,175.27 0 0 0 -30.8,1.55a162.7,162.7 0 0 0 -29.74,6.73c-19.36,6.46 -37.8,17.53 -48.63,35.32a65.1,65.1 0 0 0 -9.55,30.27a61.36,61.36 0 0 0 6.77,30.69c9.94,19.65 28.82,32.94 49.53,39.31c2.61,0.81 5.24,1.49 7.9,2.1l-0.69,-1.71a67.53,67.53 0 0 1 -18.41,19.54a1,1 0 0 0 0.51,1.89c8.81,0.14 16.23,-5.14 23.46,-9.49a48.92,48.92 0 0 1 12.55,-5.72a57.4,57.4 0 0 1 15.06,-1.63c10,0 20,1.35 30,0.26a83.4,83.4 0 0 0 25.7,-7.11a81,81 0 0 0 36.74,-33.62a83.58,83.58 0 0 0 10.84,-43.59c-0.54,-14.94 -5.74,-29.6 -15.88,-40.72c-1.32,-1.45 -2.72,-2.83 -4.17,-4.14c-0.87,-0.78 -2.15,0.5 -1.28,1.28a60.19,60.19 0 0 1 19.21,39a80.57,80.57 0 0 1 -8.19,43.3a78.91,78.91 0 0 1 -33.56,34.63a81.65,81.65 0 0 1 -24.93,8.57c-9.61,1.64 -19.2,0.9 -28.87,0.49c-9.49,-0.4 -19.15,-0.11 -27.9,4c-7.66,3.61 -14.33,9.61 -22.62,11.82a21.69,21.69 0 0 1 -6.16,0.72l0.52,1.89a69.46,69.46 0 0 0 19.38,-20.12a1.17,1.17 0 0 0 -0.7,-1.7c-20.69,-4.68 -40.43,-15.83 -52.17,-33.92a61.51,61.51 0 0 1 -10.08,-29.22a60.17,60.17 0 0 1 6.15,-30.15c8.95,-18.35 26,-30.58 44.63,-37.83c18.32,-7.12 38.47,-10.47 58.09,-10.7c20.63,-0.23 41.94,3.47 59.86,14.14q3.3,2 6.4,4.23c0.79,0.57 1.53,-0.74 0.76,-1.31l0,-0.05z"/>
  <path id="svg_127" fill="#f58220" d="m455.64,277.22c22.62,-16.67 52.9,-20.5 80.22,-18.07s58.51,10.72 78.08,30.9c12.42,12.8 19.75,30.76 18.44,48.55c-1.19,16 -9.22,31.12 -20.86,42.17s-26.66,18.16 -42.32,21.68a67.52,67.52 0 0 0 18.9,19.82c-11.54,0.36 -20.65,-9.34 -31.36,-13.65c-13.52,-5.44 -28.76,-2 -43.33,-2.41a82.09,82.09 0 0 1 -58.13,-26.88c-24.57,-27.36 -30.1,-75 -0.84,-101.21"/>
  <path id="svg_128" fill="#f58220" d="m456,277.88c16.93,-12.31 37.89,-17.47 58.56,-18.26a170.8,170.8 0 0 1 58.83,8.1c18.75,6.11 36.94,16.6 47.79,33.55a62.72,62.72 0 0 1 9.95,29.59a58.68,58.68 0 0 1 -6.26,29.87c-9.63,19.3 -28,32.3 -48.3,38.55c-2.54,0.79 -5.11,1.46 -7.69,2.05a1.17,1.17 0 0 0 -0.7,1.7a69.46,69.46 0 0 0 19.38,20.12l0.52,-1.89c-8.73,0.24 -16,-5.26 -23.17,-9.51a49.55,49.55 0 0 0 -12.13,-5.45a56.57,56.57 0 0 0 -14.2,-1.73c-9.8,-0.11 -19.58,1.28 -29.38,0.49a80.29,80.29 0 0 1 -25.87,-6.61a79.3,79.3 0 0 1 -36.77,-32.71a81.79,81.79 0 0 1 -11,-42.74c0.4,-14.73 5.44,-29.28 15.48,-40.23c1.29,-1.4 2.65,-2.74 4.06,-4c0.87,-0.78 -0.41,-2.05 -1.28,-1.27c-11.32,10.21 -18,24.35 -19.65,39.42a81.92,81.92 0 0 0 7.9,44.13a80.67,80.67 0 0 0 33.42,35.53a83.48,83.48 0 0 0 25.21,9.2c9.63,1.82 19.21,1.37 28.94,0.91c10,-0.47 20.24,-0.49 29.43,4c7.69,3.78 14.47,9.71 22.9,11.87a23.58,23.58 0 0 0 6.15,0.73a1,1 0 0 0 0.51,-1.89a67.53,67.53 0 0 1 -18.41,-19.54l-0.69,1.7c21.2,-4.8 41.29,-16.16 53.46,-34.57a64.33,64.33 0 0 0 10.59,-29.59a62.2,62.2 0 0 0 -5.66,-31.16a69.45,69.45 0 0 0 -19.28,-24.82a98.69,98.69 0 0 0 -26,-14.94c-18.8,-7.52 -39.56,-10.87 -59.76,-11c-21.06,-0.15 -42.85,3.73 -61.08,14.73c-2.25,1.35 -4.43,2.82 -6.54,4.38c-0.77,0.57 0,1.88 0.76,1.31l-0.02,-0.02z"/>
  <path fill="#f58220" id="svg_130" d="m454.44,278.12c-19.49,17.47 -23.53,44.44 -16.8,68.58a81.5,81.5 0 0 0 29.93,-20.9c15,-16.71 22.9,-41 20.1,-63.34a92.44,92.44 0 0 0 -32,14.76l-1.23,0.9z"/>
  <path fill="#f58220" id="svg_131" d="m453.33,277c-15,13.53 -21.5,33.62 -20.09,53.49a84.53,84.53 0 0 0 2.88,16.63a1.59,1.59 0 0 0 1.94,1.1a82.78,82.78 0 0 0 34,-25.38a84.67,84.67 0 0 0 16.46,-37.25a78.69,78.69 0 0 0 0.69,-23.13a1.6,1.6 0 0 0 -2,-1.52a96.32,96.32 0 0 0 -33.6,15.81c-1.61,1.2 0,3.94 1.59,2.73a93.82,93.82 0 0 1 32.89,-15.48l-2,-1.52a79.07,79.07 0 0 1 -48.87,82.72l1.94,1.1c-5,-18.09 -4,-38.31 6,-54.59a56.64,56.64 0 0 1 10.43,-12.46c1.48,-1.38 -0.76,-3.61 -2.26,-2.25z"/>
  <path fill="#ffffff" id="svg_132" d="m553.36,308.7c-0.91,0.74 -2,1.21 -3,1.89s-2.18,1.55 -3.22,2.4c-1.9,1.57 -3.82,3.17 -5.61,4.87c-3.65,3.47 -7.26,6.95 -10.79,10.53s-6.84,7 -10,10.69q-0.94,0.89 1.65,-0.89a4.39,4.39 0 0 1 4.14,1c-0.41,-0.47 -0.31,-0.33 0.31,0.42c-0.15,-0.24 -0.3,-0.47 -0.44,-0.71l-2,-3.14l-2,-3.14a15.45,15.45 0 0 0 -1.71,-2.46a7.82,7.82 0 0 0 -3.23,-2a5.29,5.29 0 0 0 -4.87,1a5.8,5.8 0 0 0 -2.2,4.39c-0.28,2.72 1.89,5.41 3.22,7.66a55.61,55.61 0 0 0 3.57,5.7a7.81,7.81 0 0 0 9.39,2.6c2.31,-1 3.91,-3.09 5.59,-4.87c6,-6.32 11.64,-12.82 17.12,-19.57c1.7,-2.1 3.34,-4.3 4.88,-6.52c1.38,-2 2.28,-4.27 3.66,-6.25a2.9,2.9 0 0 0 -0.75,-3.77a3,3 0 0 0 -3.84,0.23l0.13,-0.06z"/>
  <path id="svg_133" fill="#ffffff" d="m413.76,250.14c-0.91,0.74 -2,1.2 -3,1.89s-2.19,1.55 -3.22,2.4c-1.91,1.57 -3.83,3.17 -5.61,4.87c-3.65,3.47 -7.26,6.94 -10.8,10.52s-6.83,7 -10,10.7q-0.94,0.89 1.65,-0.89a4.39,4.39 0 0 1 4.14,1c-0.42,-0.47 -0.31,-0.33 0.31,0.41c-0.15,-0.23 -0.3,-0.46 -0.44,-0.7l-2,-3.14l-1.86,-3.2a16.63,16.63 0 0 0 -1.71,-2.46a7.87,7.87 0 0 0 -3.24,-2a5.28,5.28 0 0 0 -4.86,1a5.8,5.8 0 0 0 -2.2,4.39c-0.28,2.72 1.89,5.41 3.22,7.66a53.93,53.93 0 0 0 3.57,5.7a7.81,7.81 0 0 0 9.39,2.6c2.3,-1 3.91,-3.09 5.59,-4.87q8.93,-9.48 17.11,-19.57c1.7,-2.1 3.35,-4.31 4.89,-6.53c1.38,-2 2.28,-4.27 3.66,-6.24a2.9,2.9 0 0 0 -0.75,-3.77a3,3 0 0 0 -3.84,0.23z"/>
  <path fill="#f58220" id="svg_135" d="m279.31,511.82c13,0.32 25.94,0.63 38.91,0.85a0.7,0.7 0 0 0 0,-1.39q-19.46,-0.36 -38.91,-0.55a0.55,0.55 0 0 0 0,1.09z"/>
  <path fill="#f58220" id="svg_136" d="m760.51,319.72c9.15,3.6 17.38,9.9 20.89,19.37c0.26,0.71 1.39,0.42 1.15,-0.32c-3.24,-10 -12.33,-16.45 -21.76,-20.06c-0.64,-0.24 -0.9,0.77 -0.28,1l0,0.01z"/>
  <path fill="#f58220" id="svg_137" d="m772.29,336.05a36.63,36.63 0 0 1 3.82,4.53c0.56,0.78 1.08,1.58 1.58,2.4s1,1.79 1.51,2.64c0.32,0.51 1.27,0.19 1,-0.43a18,18 0 0 0 -1.42,-2.67c-0.54,-0.89 -1.12,-1.76 -1.74,-2.6a38.44,38.44 0 0 0 -4,-4.62a0.53,0.53 0 0 0 -0.75,0.75z"/>
  <path fill="#f58220" id="svg_138" d="m784,346.11l0.25,0.05l-0.14,-0.06a0.55,0.55 0 0 0 0.3,0.09a0.61,0.61 0 0 0 0.6,-0.6a0.61,0.61 0 0 0 -0.29,-0.52a0.58,0.58 0 0 0 -0.31,-0.08a0.54,0.54 0 0 0 -0.3,0.08l0.14,-0.06l-0.25,0.05l-0.13,0.06a0.47,0.47 0 0 0 -0.15,0.13a0.75,0.75 0 0 0 -0.07,0.12a0.36,0.36 0 0 0 0,0.21l0,0.14l0.05,0.13a0.4,0.4 0 0 0 0.14,0.15a0.51,0.51 0 0 0 0.18,0.09l-0.02,0.02z"/>
  <path fill="#f58220" id="svg_139" d="m782.1,351.12a0.54,0.54 0 0 0 0,-1.08a0.54,0.54 0 0 0 0,1.08z"/>
  <path fill="#f58220" id="svg_140" d="m770.86,343.63l0.29,0.3a0.44,0.44 0 0 0 0.18,0.12a0.36,0.36 0 0 0 0.21,0a0.38,0.38 0 0 0 0.21,0a0.44,0.44 0 0 0 0.18,-0.12l0.08,-0.11a0.54,0.54 0 0 0 0.08,-0.28l0,-0.14a0.56,0.56 0 0 0 -0.14,-0.25l-0.3,-0.28a0.34,0.34 0 0 0 -0.18,-0.11a0.35,0.35 0 0 0 -0.2,-0.05a0.36,0.36 0 0 0 -0.21,0.05a0.34,0.34 0 0 0 -0.18,0.11l-0.08,0.11a0.5,0.5 0 0 0 -0.08,0.27l0,0.14a0.57,0.57 0 0 0 0.14,0.24z"/>
  <path fill="#f58220" id="svg_141" d="m774,347.35l1.42,2.08a0.58,0.58 0 1 0 1,-0.59l-1.42,-2.06a0.62,0.62 0 0 0 -0.33,-0.26a0.59,0.59 0 0 0 -0.43,0.06a0.57,0.57 0 0 0 -0.2,0.77l-0.04,0z"/>
  <path fill="#f58220" id="svg_142" d="m785,332.85a14.8,14.8 0 0 1 2.51,6.61a0.57,0.57 0 0 0 0.56,0.56a0.56,0.56 0 0 0 0.55,-0.56a15.81,15.81 0 0 0 -2.7,-7.15c-0.39,-0.56 -1.31,0 -0.92,0.54z"/>
  <path fill="#f58220" id="svg_143" d="m790.6,342.31a0.53,0.53 0 0 0 0,-1.05a0.53,0.53 0 0 0 0,1.05z"/>
  <path fill="#f58220" id="svg_145" d="m909,583.07a57.22,57.22 0 0 1 16.68,-1.91c0.78,0 0.76,-1.14 0,-1.2a47.07,47.07 0 0 0 -17,2.08a0.53,0.53 0 0 0 0.28,1l0.04,0.03z"/>
  <path fill="#f58220" id="svg_146" d="m911.78,577.29l9.4,-1.52c0.73,-0.12 0.42,-1.23 -0.3,-1.11l-9.38,1.58c-0.69,0.12 -0.4,1.16 0.28,1l0,0.05z"/>
  <path fill="#f58220" id="svg_147" d="m610.69,556a29.77,29.77 0 0 1 8.6,17.34c0.09,0.66 1.26,0.51 1.18,-0.16a30.26,30.26 0 0 0 -9,-18c-0.52,-0.51 -1.32,0.29 -0.8,0.8l0.02,0.02z"/>
  <path fill="#f58220" id="svg_148" d="m619.69,551.37a13.4,13.4 0 0 1 4.73,8.63a0.63,0.63 0 0 0 0.61,0.61a0.61,0.61 0 0 0 0.61,-0.61a14.21,14.21 0 0 0 -5.16,-9.42c-0.56,-0.44 -1.35,0.33 -0.79,0.79z"/>
 </g>
</svg>