<?xml version="1.0" encoding="UTF-8" standalone="no"?>
<svg
   xmlns:dc="http://purl.org/dc/elements/1.1/"
   xmlns:cc="http://creativecommons.org/ns#"
   xmlns:rdf="http://www.w3.org/1999/02/22-rdf-syntax-ns#"
   xmlns:svg="http://www.w3.org/2000/svg"
   xmlns="http://www.w3.org/2000/svg"
   xmlns:sodipodi="http://sodipodi.sourceforge.net/DTD/sodipodi-0.dtd"
   xmlns:inkscape="http://www.inkscape.org/namespaces/inkscape"
   width="1000px"
   height="600px"
   viewBox="0 0 1000 600"
   version="1.1"
   id="SVGRoot"
   sodipodi:docname="projekty.svg"
   inkscape:version="1.0.2 (e86c870879, 2021-01-15, custom)">
  <defs
     id="defs397" />
  <sodipodi:namedview
     id="base"
     pagecolor="#ffffff"
     bordercolor="#666666"
     borderopacity="1.0"
     inkscape:pageopacity="0.0"
     inkscape:pageshadow="2"
     inkscape:zoom="0.7"
     inkscape:cx="400"
     inkscape:cy="356.50177"
     inkscape:document-units="px"
     inkscape:current-layer="layer1"
     inkscape:document-rotation="0"
     showgrid="false"
     inkscape:window-width="1366"
     inkscape:window-height="728"
     inkscape:window-x="0"
     inkscape:window-y="0"
     inkscape:window-maximized="0" />
  <metadata
     id="metadata400">
    <rdf:RDF>
      <cc:Work
         rdf:about="">
        <dc:format>image/svg+xml</dc:format>
        <dc:type
           rdf:resource="http://purl.org/dc/dcmitype/StillImage" />
        <dc:title></dc:title>
      </cc:Work>
    </rdf:RDF>
  </metadata>
  <g
     inkscape:label="Warstwa 1"
     inkscape:groupmode="layer"
     id="layer1">
    <g
       id="g197"
       transform="matrix(0.66646098,0,0,0.66007003,165.92822,-29.807693)">
      <title
         id="title7">Layer 1</title>
      <path
         id="svg_1"
         d="m 838.36,704.78 c 2.53,37.53 14.46,76.24 32,116 3.91,8.85 8.92,17.18 13.92,25.46 q 16.21,26.84 34.77,52.14 c 5.23,7.14 10.74,14.48 12.6,23.13 1.41,6.48 0.1,14 -4,18.9 a 2.56,2.56 0 0 0 2,4.13 l 12.21,0.27 a 11.36,11.36 0 0 0 5.44,-0.78 c 1.83,-0.94 3,-2.79 4.06,-4.54 4.77,-7.87 15.16,-11.66 19.94,-19.52 1.83,-3 3.72,-6.23 3.67,-9.76 0,-3.08 -6.27,-9 -7.62,-11.79 -12.5,-25.81 -19.11,-45.45 -27.62,-78.93 -5.45,-21.43 -22.69,-41.07 -30.74,-61.66 -10.17,-26 -6.67,-55 -7.85,-82.9 -0.42,-9.88 -1.7,-20.39 -8,-28" />
      <path
         id="svg_2"
         d="m 837.45,704.78 c 1.31,21.78 5.75,43.24 12,64.11 3.33,11.11 7.18,22.06 11.45,32.85 4.27,10.79 8.75,21.76 14.43,32 a 606.38,606.38 0 0 0 37.87,58.92 c 6.15,8.58 13.88,17.14 16.75,27.52 a 23.47,23.47 0 0 1 -0.53,14.61 17.93,17.93 0 0 1 -1.58,3.16 15.41,15.41 0 0 0 -1.84,2.75 3.92,3.92 0 0 0 1.39,4.46 c 1.65,1.21 4.41,0.81 6.34,0.85 l 7.7,0.16 a 20.89,20.89 0 0 0 4.33,-0.2 8.83,8.83 0 0 0 5.53,-3.91 47.54,47.54 0 0 1 3.8,-5.24 44.77,44.77 0 0 1 4.93,-4.4 c 3.46,-2.75 7.18,-5.28 10.1,-8.64 2.92,-3.36 5.75,-8 6.12,-12.53 0.3,-3.57 -2.53,-6.55 -4.61,-9.15 a 30.08,30.08 0 0 1 -3,-4 c -1.11,-2 -2,-4.14 -3,-6.21 a 346.24,346.24 0 0 1 -18.88,-51.28 c -1.46,-5.13 -2.84,-10.28 -4.18,-15.45 A 126.68,126.68 0 0 0 938.11,810 c -3.81,-9.54 -9.12,-18.37 -14.34,-27.18 -5.22,-8.81 -10.57,-17.7 -14.06,-27.37 -3.75,-10.39 -5.37,-21.4 -6,-32.38 -0.69,-11.13 -0.49,-22.3 -0.54,-33.44 0,-10.37 0.27,-21.26 -2.55,-31.33 a 34.2,34.2 0 0 0 -6.38,-12.36 c -1.18,-1.45 -3.22,0.61 -2.05,2 6.14,7.56 7,18.18 7.37,27.52 0.44,11 0.17,22 0.31,32.93 a 185.34,185.34 0 0 0 2.72,32.08 103,103 0 0 0 10.3,29.13 c 4.72,9 10.25,17.45 15.2,26.28 a 136.66,136.66 0 0 1 6.71,13.36 102.09,102.09 0 0 1 4.63,14.45 c 4.72,18.16 10,36.18 17.07,53.57 1.64,4 3.37,8 5.16,12 0.94,2.08 1.91,4.15 2.89,6.22 a 32.39,32.39 0 0 0 2.61,5 c 2,2.85 5,5.44 6.3,8.71 0.78,1.92 -0.18,4.35 -1,6.1 a 29.06,29.06 0 0 1 -3.71,6.11 c -5.41,6.61 -13.83,10 -18.46,17.4 -1.3,2.07 -2.57,4.1 -5.17,4.55 a 20.1,20.1 0 0 1 -3.88,0.1 l -7.72,-0.18 c -1.07,0 -5.45,0.54 -5,-1.6 0.2,-0.86 1.32,-1.85 1.78,-2.61 a 21.89,21.89 0 0 0 1.58,-3.18 24.76,24.76 0 0 0 1.6,-6.69 c 1,-10.09 -4.38,-19.27 -10,-27.17 -6.55,-9.2 -13.22,-18.3 -19.52,-27.69 -6.3,-9.39 -12.48,-19.07 -18.39,-28.82 a 249.75,249.75 0 0 1 -15.83,-29.79 q -6.93,-16 -12.78,-32.44 a 326.92,326.92 0 0 1 -16,-63.16 q -1.08,-7.68 -1.67,-15.4 c -0.09,-1.17 -1.9,-1.19 -1.83,0 z" />
      <path
         id="svg_3"
         d="M 442,518.29 A 19.14,19.14 0 0 1 437.61,532 c -18,21.41 -39.12,41.48 -59.35,60.78 a 14.54,14.54 0 0 0 -5.57,10 l -18.45,90.43 c -1.12,5.45 -2.48,11.33 -6.77,14.87 -5.29,4.36 -13,3.57 -19.77,2.55 l -8.51,-1.28 c -2,-0.3 -4.33,-0.82 -5.23,-2.64 -1.16,-2.36 0.87,-5 2.84,-6.74 a 66.85,66.85 0 0 1 10.06,-7.33 5.51,5.51 0 0 0 2.07,-1.75 5.28,5.28 0 0 0 0.4,-3 c -1.36,-22.54 -1.6,-45.15 -0.73,-67.71 0.44,-11.4 1.21,-23 5.33,-33.65 a 96.88,96.88 0 0 1 7.82,-15.06 350.76,350.76 0 0 1 38,-51.45" />
      <path
         id="svg_4"
         d="M 441.18,518.29 A 19.38,19.38 0 0 1 439,528.2 c -1.68,3.12 -4.36,5.72 -6.7,8.35 q -7.64,8.58 -15.66,16.82 C 406,564.31 395,574.88 384,585.38 c -2.75,2.62 -5.61,5.16 -8.26,7.88 a 16.71,16.71 0 0 0 -4.38,8.79 c -1.67,8 -3.27,15.91 -4.89,23.87 q -4.83,23.7 -9.65,47.42 c -1.55,7.63 -2.88,15.35 -4.7,22.93 a 24.45,24.45 0 0 1 -3.37,8.41 12.43,12.43 0 0 1 -7.61,4.93 c -6.52,1.49 -13.69,-0.35 -20.15,-1.31 -2.37,-0.36 -7.35,-0.79 -5.57,-4.42 a 12.41,12.41 0 0 1 3.38,-3.73 q 2.07,-1.75 4.29,-3.33 c 1.46,-1 3,-2 4.48,-2.91 1.48,-0.91 2.72,-1.87 3.08,-3.63 a 19,19 0 0 0 -0.07,-4.76 c -0.12,-2.16 -0.23,-4.31 -0.33,-6.47 q -0.57,-12.18 -0.71,-24.39 -0.13,-12 0.15,-23.91 c 0.19,-7.8 0.37,-15.64 1.14,-23.42 A 74.26,74.26 0 0 1 336,585.24 c 3,-6.88 7.06,-13.29 11.08,-19.59 a 347.45,347.45 0 0 1 26.49,-36.08 c 2.37,-2.83 4.79,-5.61 7.24,-8.37 1.28,-1.43 -0.83,-3.56 -2.12,-2.11 a 352.12,352.12 0 0 0 -28.37,36.46 c -4.31,6.35 -8.47,12.82 -12.29,19.47 a 72.67,72.67 0 0 0 -8.45,21.42 138.89,138.89 0 0 0 -2.38,22.93 q -0.51,12.54 -0.54,25.08 -0.03,12.54 0.37,24.9 0.21,6.23 0.53,12.44 c 0.1,2.07 0.23,4.14 0.34,6.22 a 4.2,4.2 0 0 1 -0.2,2.25 c -0.45,0.8 -1.59,1.25 -2.34,1.71 a 69,69 0 0 0 -8.9,6.51 c -2.29,2 -5.13,5 -4,8.31 1,3.1 4.49,3.69 7.3,4.11 3.66,0.56 7.32,1.18 11,1.63 6.23,0.75 13.19,0.7 18.13,-3.75 4.94,-4.45 6,-11.62 7.28,-17.8 q 5,-24.56 10.06,-49.12 l 5.05,-24.68 q 1.24,-6.1 2.47,-12.22 a 44.39,44.39 0 0 1 1.25,-5.39 11.76,11.76 0 0 1 2.91,-4.41 c 5.4,-5.52 11.15,-10.71 16.68,-16.08 5.71,-5.54 11.39,-11.1 16.94,-16.78 5.55,-5.68 10.89,-11.32 16.15,-17.16 2.66,-2.95 5.26,-5.95 7.83,-9 2.24,-2.67 4.57,-5.25 5.9,-8.52 a 20.71,20.71 0 0 0 1.37,-9.35 c -0.07,-1 -1.64,-1 -1.61,0 z" />
      <path
         id="svg_5"
         fill="#f58220"
         d="M 779.56,55.13 H 762 a 28.05,28.05 0 0 1 28,28.05 v 406.55 a 28.05,28.05 0 0 1 -28,28 h 17.61 a 28.05,28.05 0 0 0 28.05,-28 V 83.18 a 28.05,28.05 0 0 0 -28.1,-28.05 z" />
      <path
         id="svg_6"
         fill="#f58220"
         d="M 779.56,52.76 H 762 c -3.05,0 -3.06,4.71 0,4.75 a 26,26 0 0 1 25.63,25.69 v 3.87 401.61 a 26.56,26.56 0 0 1 -6.9,18.56 26,26 0 0 1 -18.73,8.16 c -3.05,0 -3.06,4.75 0,4.75 h 12.77 c 5.2,0 10.29,0 15.26,-1.84 a 30.81,30.81 0 0 0 20,-28.72 c 0,-5.68 0,-11.37 0,-17 V 90.91 c 0,-2.33 0,-4.65 0,-7 A 30.43,30.43 0 0 0 779.61,52.74 c -3.06,0 -3.06,4.71 0,4.75 a 26,26 0 0 1 25.67,25.72 v 4.42 399.73 a 32.3,32.3 0 0 1 -1.56,11.24 25.83,25.83 0 0 1 -14.95,15.13 c -4.85,1.82 -9.77,1.67 -14.84,1.67 H 762 v 4.75 a 30.74,30.74 0 0 0 30.17,-26.62 52.47,52.47 0 0 0 0.26,-6.75 v -403 A 30.46,30.46 0 0 0 762,52.78 v 4.75 h 17.61 c 3.01,-0.02 3.01,-4.77 -0.05,-4.77 z" />
      <path
         id="svg_7"
         d="M 264.78,515.4 H 90.83 c -12.46,0 -24.93,0.14 -37.38,0 A 26,26 0 0 1 27.38,489.7 c 0,-1.76 0,-3.54 0,-5.3 V 85.33 c 0,-6.87 1.52,-13.47 6.15,-18.83 5.25,-6.08 12.62,-9 20.53,-9 H 70.86 760 a 31.1,31.1 0 0 1 10.57,1.5 c 10.73,3.79 17,14 17.06,25.1 v 25.29 372.34 7.54 c -0.09,13.33 -10,25 -23.54,26.05 -8.07,0.65 -16.38,0.08 -24.47,0.08 h -284.8 c -3.06,0 -3.07,4.75 0,4.75 h 288.65 c 9.71,0 21.45,1.42 30.55,-2.51 11.36,-4.9 18.23,-16.11 18.36,-28.34 0,-2.48 0,-5 0,-7.45 v -375.2 c 0,-7.7 0.08,-15.4 0,-23.1 -0.2,-18 -14.53,-30.79 -32.11,-30.79 H 68.09 c -4.9,0 -9.8,-0.06 -14.69,0 a 30.89,30.89 0 0 0 -27,15.8 c -2.9,5.3 -3.75,11 -3.75,17 v 400.52 a 46.35,46.35 0 0 0 0.8,10.57 c 3.19,13.94 15.89,23.34 29.95,23.5 12.48,0.14 25,0 37.46,0 h 174 c 3.06,0 3.06,-4.75 0,-4.75 z" />
      <path
         id="svg_8"
         d="M 762,55.13 H 53.05 A 28.05,28.05 0 0 0 25,83.18 v 5.65 H 790 V 83.18 A 28.05,28.05 0 0 0 762,55.13 Z" />
      <circle
         id="svg_10"
         r="4.5500002"
         cy="71.980003"
         cx="66.379997" />
      <circle
         id="svg_11"
         r="4.5500002"
         cy="71.980003"
         cx="98.860001" />
      <circle
         id="svg_12"
         r="4.5500002"
         cy="71.980003"
         cx="131.35001" />
      <path
         id="svg_13"
         d="m 608.63,456.76 c -0.26,9.61 -0.21,19.23 -0.27,28.84 -0.06,9.61 -0.22,19.24 0,28.84 a 1.1,1.1 0 0 0 2.2,0 c 0.25,-9.6 0.08,-19.24 0,-28.84 -0.08,-9.6 0,-19.23 -0.26,-28.84 a 0.86,0.86 0 0 0 -1.71,0 z" />
      <path
         id="svg_14"
         d="m 621.68,456.76 c -0.25,9.61 -0.21,19.23 -0.26,28.84 -0.05,9.61 -0.23,19.24 0,28.84 a 1.1,1.1 0 0 0 2.2,0 c 0.24,-9.6 0.07,-19.24 0,-28.84 -0.07,-9.6 0,-19.23 -0.27,-28.84 a 0.86,0.86 0 0 0 -1.71,0 z" />
      <path
         id="svg_15"
         d="m 637.26525,466.86101 c -0.26,9.61 -0.21,19.23 -0.27,28.84 -0.06,9.61 -0.23,19.24 0,28.84 a 1.1,1.1 0 0 0 2.2,0 c 0.25,-9.6 0.08,-19.24 0,-28.84 -0.08,-9.6 0,-19.23 -0.27,-28.84 a 0.85,0.85 0 0 0 -1.7,0 z" />
      <path
         id="svg_16"
         d="m 705.15,447.64 h -57 l 2.38,2.38 v -25.67 l -2.38,2.37 h 57 l -2.38,-2.37 V 450 c 0,3.06 4.75,3.06 4.75,0 v -25.65 a 2.41,2.41 0 0 0 -2.37,-2.38 h -57 a 2.41,2.41 0 0 0 -2.37,2.38 V 450 a 2.41,2.41 0 0 0 2.37,2.37 h 57 c 3.05,0.02 3.06,-4.73 0,-4.73 z" />
      <path
         id="svg_17"
         fill="#f58220"
         d="m 737.22525,447.73051 h -130.7 a 9.53,9.53 0 0 0 -9.53,9.53 v 7.79 h 149.77 v -7.8 a 9.54,9.54 0 0 0 -9.54,-9.52 z" />
      <path
         id="svg_18"
         fill="#f58220"
         d="m 739.75051,447.87576 h -125.4 c -1.76,0 -3.53,0 -5.29,0 a 12.12,12.12 0 0 0 -10.33,5.9 c -1.92,3.27 -1.63,6.91 -1.63,10.53 v 3.27 a 2.41,2.41 0 0 0 2.38,2.37 h 131.38 c 6.05,0 12.13,0.19 18.18,0 h 0.25 a 2.41,2.41 0 0 0 2.37,-2.37 c 0,-2.82 0.19,-5.69 0,-8.49 a 12.09,12.09 0 0 0 -11.91,-11.21 c -3.05,-0.05 -3.06,4.7 0,4.75 a 7.25,7.25 0 0 1 7.16,7.32 v 7.64 l 2.38,-2.38 h -143.74 c -1.92,0 -3.91,-0.15 -5.82,0 h -0.25 l 2.37,2.37 c 0,-2.55 0,-5.09 0,-7.64 a 7.24,7.24 0 0 1 6.81,-7.31 c 1.51,-0.06 3,0 4.52,0 h 107.12 c 6.38,0 12.8,0.19 19.18,0 h 0.27 c 3.06,0 3.06,-4.75 0,-4.75 z" />
      <path
         id="svg_19"
         d="m 758.08,442.68 h -38 a 9.54,9.54 0 0 1 9.54,9.53 V 460 h 38 v -7.8 a 9.53,9.53 0 0 0 -9.54,-9.52 z" />
      <path
         id="svg_20"
         d="m 758.08,440.3 h -38 c -3.06,0 -3.06,4.7 0,4.75 a 7.26,7.26 0 0 1 7.16,7.32 v 7.64 a 2.41,2.41 0 0 0 2.38,2.37 h 38 A 2.41,2.41 0 0 0 770,460 c 0,-2.82 0.18,-5.69 0,-8.49 a 12.08,12.08 0 0 0 -11.88,-11.22 c -3.06,-0.05 -3.06,4.7 0,4.75 a 7.26,7.26 0 0 1 7.16,7.32 V 460 l 2.37,-2.38 h -38 L 732,460 c 0,-2.82 0.18,-5.69 0,-8.49 a 12.09,12.09 0 0 0 -11.89,-11.22 v 4.75 h 38 c 3.02,0.01 3.03,-4.74 -0.03,-4.74 z" />
      <path
         id="svg_21"
         fill="#f58220"
         d="M 591.90475,506.85 V 540 a 9.53,9.53 0 0 0 9.53,9.53 h 130.74 a 9.53,9.53 0 0 0 9.54,-9.53 v -33.15 z" />
      <path
         id="svg_22"
         fill="#f58220"
         d="m 592.05,506.85 v 22.91 9.94 A 12.1,12.1 0 0 0 604,551.93 h 9 121.11 a 12.36,12.36 0 0 0 10.53,-5.35 c 2.21,-3.24 2,-7 2,-10.67 v -29.06 a 2.4,2.4 0 0 0 -2.37,-2.38 H 612.85 c -6,0 -12.13,-0.19 -18.17,0 h -0.25 c -3.06,0 -3.07,4.75 0,4.75 h 143.74 c 1.92,0 3.9,0.15 5.82,0 h 0.25 l -2.38,-2.37 v 32.64 c 0,4.17 -2.86,7.63 -7.19,7.69 -3.23,0 -6.45,0 -9.67,0 H 604.83 c -2.62,0 -5.1,-0.73 -6.7,-3 -1.78,-2.5 -1.33,-5.81 -1.33,-8.72 v -28.61 c 0,-3.06 -4.75,-3.06 -4.75,0 z" />
      <path
         id="svg_23"
         d="M 729.59,506.85 V 540 a 9.53,9.53 0 0 1 -9.54,9.53 h 38 a 9.53,9.53 0 0 0 9.53,-9.53 v -33.15 z" />
      <path
         id="svg_24"
         d="m 727.21,506.85 v 32.7 c 0,4.14 -2.88,7.55 -7.16,7.63 -3,0.05 -3.06,4.75 0,4.75 h 34.81 a 33.84,33.84 0 0 0 5.23,-0.18 A 12,12 0 0 0 770,540 c 0.08,-5.11 0,-10.23 0,-15.34 v -17.81 a 2.41,2.41 0 0 0 -2.38,-2.38 h -38 c -3.06,0 -3.07,4.75 0,4.75 h 38 l -2.37,-2.37 v 32.49 c 0,3.08 -1.3,5.94 -4.27,7.24 -1.68,0.74 -3.5,0.6 -5.29,0.6 h -35.64 v 4.75 a 12.08,12.08 0 0 0 11.89,-11.21 c 0.12,-1.77 0,-3.57 0,-5.34 v -28.53 c 0.06,-3.06 -4.73,-3.06 -4.73,0 z" />
      <path
         id="svg_25"
         d="m 737.94,456.76 c -0.26,9.61 -0.21,19.23 -0.27,28.84 -0.06,9.61 -0.23,19.24 0,28.84 a 1.1,1.1 0 0 0 2.2,0 c 0.25,-9.6 0.08,-19.24 0,-28.84 -0.08,-9.6 0,-19.23 -0.26,-28.84 a 0.86,0.86 0 0 0 -1.71,0 z" />
      <path
         id="svg_26"
         d="m 751,456.76 c -0.25,9.61 -0.21,19.23 -0.26,28.84 -0.05,9.61 -0.23,19.24 0,28.84 a 1.1,1.1 0 0 0 2.2,0 c 0.24,-9.6 0.07,-19.24 0,-28.84 -0.07,-9.6 0,-19.23 -0.27,-28.84 a 0.86,0.86 0 0 0 -1.71,0 z" />
      <path
         id="svg_27"
         d="m 764.05,456.76 c -0.26,9.61 -0.21,19.23 -0.27,28.84 -0.06,9.61 -0.23,19.24 0,28.84 a 1.1,1.1 0 0 0 2.2,0 c 0.25,-9.6 0.07,-19.24 0,-28.84 -0.07,-9.6 0,-19.23 -0.27,-28.84 a 0.85,0.85 0 0 0 -1.7,0 z" />
      <path
         id="svg_29"
         d="m 335.27,492.85 -28.16,12.21 c -14.5,6.29 -29.16,12.67 -41.75,22.23 -7.53,5.72 -14.45,12.86 -17.4,21.84 -3.49,10.6 -1,22.16 2,32.91 A 348.83,348.83 0 0 0 282,659.52 c 2.43,4.33 5,9.48 3,14 -0.9,2 -2.71,3.93 -2.27,6.1 0.63,3 4.81,3.46 7.87,2.94 a 67.47,67.47 0 0 0 23.1,-8.5 c 2.36,-1.4 4.8,-3.16 5.6,-5.78 0.8,-2.62 -0.19,-5.36 -1.13,-7.9 a 239.59,239.59 0 0 1 -14.49,-73.32 c -0.36,-9.2 -0.62,-19.52 -7.27,-25.89 -1,1.31 0,3.32 1.53,4 a 8.16,8.16 0 0 0 4.82,0 379,379 0 0 0 96.39,-33.51" />
      <path
         id="svg_30"
         d="m 335,491.93 c -13.37,5.62 -26.78,11.17 -40,17.1 -12,5.39 -24,11.47 -34.1,20 a 50.48,50.48 0 0 0 -11.69,13.53 36.51,36.51 0 0 0 -4.56,18.64 c 0.11,7.07 1.73,14 3.61,20.83 1.88,6.83 3.9,13.29 6.14,19.84 a 342.7,342.7 0 0 0 15.77,38.39 q 4.53,9.35 9.62,18.41 c 1.64,2.94 3.48,5.88 4.23,9.2 a 8.29,8.29 0 0 1 -0.1,4.5 c -0.49,1.48 -1.5,2.71 -2.11,4.14 a 5.05,5.05 0 0 0 1.69,6.49 c 2,1.29 4.63,1.34 6.9,1 a 64.34,64.34 0 0 0 18.87,-5.95 c 5,-2.43 12.19,-5.78 11.74,-12.43 -0.23,-3.48 -1.9,-6.83 -3,-10.09 -1.1,-3.26 -2.19,-6.57 -3.17,-9.89 a 239.17,239.17 0 0 1 -8.42,-41.89 c -0.73,-6.82 -1,-13.64 -1.36,-20.49 -0.27,-5.62 -0.77,-11.4 -3,-16.62 a 20.94,20.94 0 0 0 -4.5,-6.58 1.56,1.56 0 0 0 -2.42,0.31 c -1.7,2.72 0.58,6 3.42,6.53 a 13,13 0 0 0 5.12,-0.35 q 2.83,-0.57 5.64,-1.19 11.49,-2.5 22.81,-5.73 A 381,381 0 0 0 376,544.18 q 12.21,-5.15 24,-11.13 c 1.88,-1 0.23,-3.77 -1.65,-2.82 a 379.36,379.36 0 0 1 -80.68,30 q -5.82,1.44 -11.68,2.68 A 34.09,34.09 0 0 1 300.3,564 c -0.94,0 -3.5,-0.55 -2.57,-2 l -2.42,0.31 c 3.94,3.85 5.5,9.22 6.17,14.54 0.75,5.9 0.67,11.89 1.09,17.81 a 242,242 0 0 0 6.29,40.22 q 2.43,10 5.71,19.71 c 1,3.08 2.39,6.13 3.21,9.28 a 6.81,6.81 0 0 1 -0.15,4.77 8.59,8.59 0 0 1 -2.75,3 c -5,3.67 -11.27,6.15 -17.22,7.88 a 37,37 0 0 1 -8.88,1.85 c -1.6,0.06 -4.56,-0.12 -4.69,-2.26 -0.08,-1.34 1,-2.63 1.59,-3.75 a 11.12,11.12 0 0 0 1.42,-4.16 c 0.35,-3.09 -0.7,-6.14 -2,-8.9 -1.3,-2.76 -3,-5.57 -4.47,-8.35 q -2.42,-4.47 -4.68,-9 A 359.34,359.34 0 0 1 260,608 q -3.42,-9.33 -6.31,-18.83 a 164.2,164.2 0 0 1 -4.95,-19.25 c -1.11,-6.42 -1.38,-13.17 0.47,-19.48 a 37.17,37.17 0 0 1 9.08,-14.92 c 8.54,-9 19.69,-15.37 30.71,-20.82 12.21,-6 24.86,-11.21 37.29,-16.77 l 9.48,-4.24 c 1,-0.43 0.26,-2.16 -0.74,-1.74 z" />
      <path
         id="svg_31"
         d="M 709.67,198.47 H 293.76 c -5.57,0 -11.29,-0.36 -16.86,0 -0.24,0 -0.49,0 -0.73,0 l 2.37,2.38 V 164 l -2.37,2.38 h 415.91 c 5.57,0 11.29,0.36 16.86,0 h 0.73 L 707.3,164 v 36.89 c 0,3.05 4.75,3.06 4.75,0 V 164 a 2.41,2.41 0 0 0 -2.38,-2.37 H 293.76 c -5.61,0 -11.24,-0.11 -16.86,0 h -0.73 a 2.41,2.41 0 0 0 -2.38,2.37 v 36.89 a 2.41,2.41 0 0 0 2.38,2.37 h 415.91 c 5.61,0 11.24,0.11 16.86,0 h 0.73 c 3.06,-0.04 3.07,-4.79 0,-4.79 z" />
      <path
         id="svg_32"
         d="m 309.24,202.37 h -34.61 l 27.32,-36.89 h 34.61 z" />
      <path
         id="svg_33"
         d="m 371.17,202.37 h -34.61 l 27.32,-36.89 h 34.61 z" />
      <path
         id="svg_34"
         d="m 433.1,202.37 h -34.61 l 27.32,-36.89 h 34.61 z" />
      <path
         id="svg_35"
         d="m 495.02,202.37 h -34.6 l 27.32,-36.89 h 34.61 z" />
      <path
         id="svg_36"
         d="m 556.95,202.37 h -34.6 l 27.32,-36.89 h 34.6 z" />
      <path
         id="svg_37"
         d="m 618.88,202.37 h -34.61 l 27.33,-36.89 h 34.6 z" />
      <path
         id="svg_38"
         d="M 680.81,202.37 H 646.2 l 27.32,-36.89 h 34.61 z" />
      <path
         id="svg_39"
         d="M 174.6,137.63 121.87,229 a 10.34,10.34 0 0 0 9,15.52 h 105.42 a 10.34,10.34 0 0 0 9,-15.52 l -52.73,-91.34 a 10.34,10.34 0 0 0 -17.96,-0.03 z" />
      <path
         id="svg_42"
         d="m 658.6,943.58 -2.5,-10.28 -6.81,-27.94 -10,-41 L 627,814 613.56,758.83 600.06,703.3 587.44,651.55 576.75,607.67 569.09,576.22 c -1.21,-5 -2.33,-10 -3.64,-14.92 l -0.15,-0.65 A 2.42,2.42 0 0 0 563,558.9 h -96.76 a 2.41,2.41 0 0 0 -2.29,3 l 2.51,10.27 6.81,28 10,41 12.27,50.36 13.46,55.15 13.52,55.5 12.61,51.76 10.69,43.88 7.67,31.45 c 1.21,5 2.31,10 3.63,14.92 0.06,0.21 0.11,0.43 0.16,0.65 0.72,3 5.31,1.71 4.58,-1.26 l -2.5,-10.28 -6.81,-27.94 -10,-41 L 530.26,814 516.82,758.83 503.3,703.3 490.68,651.55 480,607.67 472.34,576.22 c -1.21,-5 -2.16,-10.05 -3.64,-14.92 -0.06,-0.22 -0.1,-0.44 -0.15,-0.65 l -2.3,3 H 563 l -2.29,-1.74 2.5,10.27 6.81,28 10,41 12.27,50.36 13.45,55.17 13.52,55.5 12.61,51.76 10.69,43.88 7.67,31.45 c 1.21,5 2.31,10 3.63,14.92 0.06,0.21 0.11,0.43 0.16,0.65 0.72,3 5.31,1.71 4.58,-1.26 z" />
      <path
         id="svg_43"
         d="m 554,924.61 h 84.8 c 3.91,0 7.86,0.16 11.77,0 h 0.16 c 3.06,0 3.06,-4.75 0,-4.75 h -84.82 c -3.91,0 -7.86,-0.16 -11.77,0 H 554 c -3.05,0 -3.06,4.75 0,4.75 z" />
      <path
         id="svg_44"
         d="m 538.71,861.26 h 84.83 c 3.91,0 7.86,0.16 11.76,0 h 0.17 c 3.06,0 3.06,-4.75 0,-4.75 h -84.83 c -3.91,0 -7.86,-0.16 -11.76,0 h -0.17 c -3.06,0 -3.06,4.75 0,4.75 z" />
      <path
         id="svg_45"
         d="m 523.45,797.9 h 84.82 c 3.91,0 7.86,0.16 11.77,0 h 0.17 c 3,0 3.06,-4.75 0,-4.75 h -84.83 c -3.91,0 -7.86,-0.16 -11.77,0 h -0.16 c -3.06,0 -3.07,4.75 0,4.75 z" />
      <path
         id="svg_46"
         d="M 508.18,734.55 H 593 c 3.91,0 7.86,0.16 11.77,0 h 0.16 c 3.06,0 3.07,-4.76 0,-4.76 h -84.81 c -3.91,0 -7.86,-0.16 -11.77,0 h -0.17 c -3.05,0 -3.06,4.76 0,4.76 z" />
      <path
         id="svg_47"
         d="m 492.92,671.19 h 84.83 c 3.91,0 7.86,0.16 11.77,0 h 0.16 c 3.06,0 3.06,-4.75 0,-4.75 h -84.82 c -3.92,0 -7.86,-0.16 -11.77,0 h -0.17 c -3.06,0 -3.06,4.75 0,4.75 z" />
      <path
         id="svg_48"
         d="m 477.66,607.83 h 84.82 c 3.92,0 7.86,0.16 11.77,0 h 0.17 c 3.06,0 3.06,-4.75 0,-4.75 h -84.83 c -3.91,0 -7.86,-0.16 -11.77,0 h -0.16 c -3.06,0 -3.06,4.75 0,4.75 z" />
      <path
         id="svg_49"
         d="M 118.31,540.54 H 562.8 v 20.73 H 118.31 Z" />
      <path
         id="svg_50"
         d="M 562.8,558.9 H 136.35 c -5.72,0 -11.58,-0.38 -17.29,0 -0.25,0 -0.5,0 -0.75,0 l 2.37,2.38 v -20.74 l -2.37,2.38 h 426.45 c 5.71,0 11.58,0.38 17.28,0 h 0.76 l -2.37,-2.38 v 20.74 c 0,3.06 4.75,3.06 4.75,0 v -20.74 a 2.41,2.41 0 0 0 -2.38,-2.37 H 136.35 c -5.76,0 -11.53,-0.11 -17.29,0 h -0.75 a 2.41,2.41 0 0 0 -2.38,2.37 v 20.74 a 2.41,2.41 0 0 0 2.38,2.37 h 426.45 c 5.76,0 11.53,0.11 17.28,0 h 0.76 c 3.06,0 3.06,-4.75 0,-4.75 z" />
      <path
         id="svg_51"
         d="m 27.29,944.84 2.5,-10.27 6.81,-28 10,-41 12.27,-50.36 13.44,-55.17 13.53,-55.5 12.61,-51.76 10.69,-43.88 7.66,-31.45 c 1.21,-5 2.71,-9.91 3.64,-14.92 0,-0.22 0.1,-0.43 0.16,-0.65 l -2.29,1.74 h 96.76 l -2.29,-3 -2.51,10.27 -6.81,28 -10,41 -12.26,50.36 -13.45,55.17 -13.52,55.5 -12.61,51.76 -10.69,43.88 -7.67,31.44 c -1.21,5 -2.49,9.93 -3.63,14.92 0,0.21 -0.11,0.43 -0.16,0.65 -0.72,3 3.86,4.23 4.58,1.26 l 2.5,-10.27 6.81,-28 10,-41 12.27,-50.36 13.44,-55.17 13.53,-55.5 12.61,-51.76 10.69,-43.88 7.66,-31.45 c 1.21,-5 2.5,-9.93 3.64,-14.92 0.05,-0.22 0.1,-0.43 0.16,-0.65 a 2.41,2.41 0 0 0 -2.29,-3 h -96.76 a 2.41,2.41 0 0 0 -2.29,1.75 l -2.51,10.27 -6.81,28 -10,41 L 84.44,690.25 71,745.42 57.48,800.92 44.86,852.68 34.17,896.56 26.5,928 c -1.21,5 -2.49,9.93 -3.63,14.92 -0.05,0.21 -0.11,0.43 -0.16,0.65 -0.72,3 3.86,4.23 4.58,1.26 z" />
      <path
         id="svg_52"
         d="M 127.34,919.86 H 42.51 c -3.91,0 -7.86,-0.16 -11.77,0 h -0.16 c -3.06,0 -3.06,4.75 0,4.75 h 84.82 c 3.92,0 7.86,0.16 11.77,0 h 0.17 c 3.06,0 3.06,-4.75 0,-4.75 z" />
      <path
         id="svg_53"
         d="M 142.6,856.51 H 57.78 c -3.92,0 -7.86,-0.16 -11.77,0 h -0.17 c -3.06,0 -3.06,4.75 0,4.75 h 84.83 c 3.91,0 7.86,0.16 11.77,0 h 0.16 c 3.06,0 3.06,-4.75 0,-4.75 z" />
      <path
         id="svg_54"
         d="M 157.86,793.15 H 73 c -3.91,0 -7.86,-0.16 -11.77,0 H 61.1 c -3.05,0 -3.06,4.75 0,4.75 h 84.83 c 3.91,0 7.86,0.16 11.77,0 h 0.16 c 3.06,0 3.07,-4.75 0,-4.75 z" />
      <path
         id="svg_55"
         d="M 173.13,729.79 H 88.3 c -3.91,0 -7.86,-0.16 -11.77,0 h -0.16 c -3.06,0 -3.06,4.76 0,4.76 h 84.82 c 3.91,0 7.86,0.16 11.77,0 h 0.17 c 3.05,0 3.06,-4.76 0,-4.76 z" />
      <path
         id="svg_56"
         d="m 188.39,666.44 h -84.83 c -3.91,0 -7.86,-0.16 -11.76,0 h -0.17 c -3.06,0 -3.06,4.75 0,4.75 h 84.83 c 3.91,0 7.86,0.16 11.76,0 h 0.17 c 3.06,0 3.06,-4.75 0,-4.75 z" />
      <path
         id="svg_57"
         d="m 203.65,603.08 h -84.82 c -3.91,0 -7.86,-0.16 -11.77,0 h -0.17 c -3,0 -3.06,4.75 0,4.75 h 84.83 c 3.91,0 7.86,0.16 11.77,0 h 0.16 c 3.06,0 3.06,-4.75 0,-4.75 z" />
      <path
         id="svg_58"
         fill="#f58220"
         d="m 463.15,540.54 h 99.65 v 20.73 h -99.65 z" />
      <path
         id="svg_59"
         fill="#f58220"
         d="m 565.32525,558.9 h -95.56 c -1.29,0 -2.63,-0.11 -3.92,0 h -0.17 l 2.37,2.38 v -20.74 l -2.37,2.38 h 95.56 c 1.29,0 2.63,0.12 3.92,0 h 0.17 l -2.37,-2.38 v 20.74 c 0,3.06 4.75,3.06 4.75,0 v -20.74 a 2.41,2.41 0 0 0 -2.38,-2.37 h -87.4 c -4,0 -8.06,-0.16 -12.08,0 h -0.17 a 2.42,2.42 0 0 0 -2.38,2.37 v 20.74 a 2.41,2.41 0 0 0 2.38,2.37 h 87.4 c 4,0 8.06,0.16 12.08,0 h 0.17 c 3.06,0 3.06,-4.75 0,-4.75 z" />
      <path
         id="svg_61"
         d="m 168.7,202.62 a 64.75,64.75 0 0 1 -3.94,-23.06 20.6,20.6 0 0 1 1.62,-8.84 c 1.32,-2.71 3.88,-5 6.89,-5.22 a 5,5 0 0 1 3.72,1.11 7.18,7.18 0 0 1 1.8,3.49 c 2.86,10.27 1.28,21.37 -2.41,31.38 a 6.64,6.64 0 0 1 -1.14,2.21 3.75,3.75 0 0 1 -5.28,0.16" />
      <path
         id="svg_62"
         d="M 169.54,202.39 A 64.32,64.32 0 0 1 166,185.2 c -0.32,-5 -0.8,-11.64 2.62,-15.78 1.4,-1.7 3.64,-3.08 5.93,-2.64 2.83,0.54 3.24,4.16 3.69,6.5 a 45.53,45.53 0 0 1 -0.07,16.5 65.1,65.1 0 0 1 -2.35,9.21 c -0.41,1.23 -0.76,3.08 -1.77,4 a 2.41,2.41 0 0 1 -3.11,-0.08 c -1.3,-1.19 -3.25,0.74 -1.94,1.94 a 5.18,5.18 0 0 0 7,0.07 9.44,9.44 0 0 0 2,-3.89 q 0.9,-2.56 1.61,-5.19 a 52.5,52.5 0 0 0 1.6,-20 c -0.38,-3 -0.79,-6.75 -2.62,-9.25 -1.69,-2.3 -4.82,-2.78 -7.4,-1.87 -6.13,2.17 -7.55,9.11 -7.56,14.86 a 66.16,66.16 0 0 0 4.23,23.29 c 0.38,1 2,0.61 1.67,-0.46 z" />
      <path
         id="svg_63"
         d="m 175.09,213.57 c -3.78,-2.36 -6.39,4.71 -5.71,7.45 a 5.38,5.38 0 0 0 5.38,4.1 c 6.31,-0.54 4.17,-9.14 0,-11.13" />
      <path
         id="svg_64"
         d="m 175.52,212.84 a 3.64,3.64 0 0 0 -3.49,-0.43 5.89,5.89 0 0 0 -2.62,2.65 c -1.3,2.31 -1.94,5.21 -0.74,7.68 a 6.48,6.48 0 0 0 8.72,3 c 2.35,-1.24 3,-4 2.56,-6.39 a 9.09,9.09 0 0 0 -4.52,-6.58 1.43,1.43 0 0 0 -1.91,0.5 1.4,1.4 0 0 0 0.5,1.91 l 0.53,0.29 0.3,0.2 c 0.26,0.18 -0.07,-0.08 0.09,0.08 a 11.56,11.56 0 0 1 1,1 c -0.16,-0.18 0,0 0.05,0.08 l 0.18,0.27 a 6.71,6.71 0 0 1 0.4,0.68 c 0.11,0.2 0.21,0.4 0.3,0.61 -0.1,-0.22 0,0 0,0.09 0,0.09 0.09,0.24 0.13,0.37 0.04,0.13 0.14,0.46 0.2,0.69 0.06,0.23 0,0.21 0.07,0.32 0.07,0.11 0.07,0.42 0,0.25 -0.07,-0.17 0,0.14 0,0.19 0,0.05 0,0.24 0,0.37 a 5,5 0 0 1 0,0.67 c 0,0 0,0.19 -0.05,0.29 a 4.88,4.88 0 0 1 -0.2,0.65 c 0,0.07 0.11,-0.2 0,0 l -0.14,0.25 c -0.05,0.08 -0.1,0.16 -0.16,0.24 -0.06,0.08 0.17,-0.18 0,0 a 1.66,1.66 0 0 0 -0.13,0.14 l -0.21,0.2 c -0.19,0.18 0,0 0,0 0,0 -0.39,0.24 -0.59,0.34 0.26,-0.13 -0.07,0 -0.15,0 l -0.34,0.1 -0.36,0.08 h -0.19 a 4.12,4.12 0 0 1 -4.11,-2.94 c 0,-0.1 -0.06,-0.21 -0.09,-0.31 -0.03,-0.1 0,-0.22 0,0 0,-0.22 0,-0.45 0,-0.68 0,-0.23 0,-0.43 0,-0.64 0,-0.21 0,0.13 0,-0.12 0,-0.25 0,-0.27 0.08,-0.4 a 11.47,11.47 0 0 1 0.4,-1.53 6.21,6.21 0 0 1 1.54,-2.55 l 0.12,-0.1 c -0.09,0.07 0,0 0,0 a 2.37,2.37 0 0 1 0.33,-0.22 2.08,2.08 0 0 0 0.22,-0.12 l 0.24,-0.07 h 0.5 a 2.5,2.5 0 0 1 0.64,0.23 0.84038682,0.84038682 0 0 0 0.85,-1.45 z" />
      <path
         id="svg_65"
         fill="#f58220"
         d="m 437.11,481 c 6.43,16.67 17.46,44.87 -5.22,54.35 -6,2.49 -12.61,2.89 -19.09,2.84 C 394.48,538 376.32,538 358,536 c -13.43,-1.51 -14.75,-1.5 -22.78,-14.36 -3.76,-6 -3.5,-12.91 -3.33,-19.72 0.14,-5.39 -0.95,-11.82 3.82,-15.66 2.68,-2.16 6.36,-2.5 9.79,-2.72 q 44.61,-2.92 89.37,-1.68" />
      <path
         id="svg_66"
         fill="#f58220"
         d="m 436.32,481.2 c 2.24,6.69 4.8,13.26 6.4,20.15 1.56,6.7 2.51,14 0.31,20.72 -2.53,7.7 -9.45,12 -17.09,13.67 -5.69,1.23 -11.55,1 -17.34,1 -6.17,-0.06 -12.35,-0.13 -18.52,-0.28 -11.82,-0.29 -23.61,-1 -35.36,-2.39 -2.7,-0.32 -5.71,-0.64 -8.13,-1.74 a 15,15 0 0 1 -5.7,-5.06 c -2.67,-3.6 -5.46,-7.53 -6.58,-11.91 -1.29,-5.07 -0.75,-10.29 -0.8,-15.45 0,-3.94 -0.46,-8.74 2.55,-11.8 1.76,-1.79 4.25,-2.45 6.68,-2.75 2.89,-0.35 5.84,-0.44 8.75,-0.61 q 37.06,-2.21 74.23,-1.53 l 9.19,0.21 c 2,0.06 2,-3.06 0,-3.12 q -39.24,-1.08 -78.46,1 c -3.22,0.17 -6.45,0.36 -9.67,0.57 a 34.54,34.54 0 0 0 -8,1.07 c -4.95,1.53 -7.67,5.56 -8.27,10.55 a 54,54 0 0 0 -0.17,6.73 c 0,2.69 -0.14,5.37 -0.07,8.06 a 35,35 0 0 0 1,8.09 26.49,26.49 0 0 0 3.41,7.38 c 2,3.08 4,6.37 6.68,8.86 a 15.56,15.56 0 0 0 7.23,3.63 102.65,102.65 0 0 0 12.36,1.6 c 6.56,0.65 13.14,1 19.72,1.29 6.41,0.24 12.82,0.33 19.23,0.38 6.41,0.05 12.68,0.31 19,-0.09 9.1,-0.58 18.95,-3.37 24.18,-11.43 4,-6.15 4.13,-13.88 3.09,-20.9 -1.11,-7.55 -3.68,-14.81 -6.43,-21.9 -0.61,-1.56 -1.28,-3.1 -1.95,-4.63 -0.37,-0.85 -1.78,-0.24 -1.49,0.63 z" />
      <path
         id="svg_67"
         d="m 325.13,377 c 7.25,1.19 14.53,2.15 21.79,3.21 3.38,0.5 6.74,1.26 10.12,1.67 a 7.24,7.24 0 0 0 4.86,-0.79 5.34,5.34 0 0 0 1.6,-1.61 11.89,11.89 0 0 1 1.56,-2.51 c 1.35,-1.18 3.75,-0.91 5.4,-1 2.31,-0.06 4.61,-0.08 6.91,-0.08 q 6.92,0 13.82,0.45 c 2.29,0.15 4.59,0.33 6.88,0.55 1.07,0.1 2.13,0.21 3.2,0.33 a 10.25,10.25 0 0 1 3.17,0.55 c 1.31,0.61 1.38,2.27 1.5,3.53 a 11.91,11.91 0 0 0 0.91,4.26 5.94,5.94 0 0 0 4.45,2.91 c 2.45,0.48 4.91,0.87 7.36,1.3 5.19,0.92 10.37,1.84 15.57,2.71 1.61,0.26 2.32,-2.18 0.68,-2.49 -4.52,-0.85 -9.06,-1.65 -13.59,-2.46 l -6.8,-1.21 c -1.55,-0.27 -4.16,-0.29 -5.13,-1.74 -0.76,-1.14 -0.67,-2.76 -0.82,-4.06 a 7.23,7.23 0 0 0 -1.37,-4 c -1.2,-1.43 -3,-1.69 -4.71,-1.9 q -3.44,-0.4 -6.87,-0.69 a 190.35,190.35 0 0 0 -27.43,-0.6 8,8 0 0 0 -4.74,1.47 c -1.34,1.11 -1.61,3.33 -3.15,4.14 -1.54,0.81 -3.32,0.43 -4.84,0.25 -1.52,-0.18 -3.32,-0.43 -5,-0.64 -8.31,-1 -16.62,-2.05 -24.89,-3.29 -1.09,-0.17 -1.57,1.48 -0.47,1.67 z" />
      <path
         id="svg_68"
         d="m 436.75,429.89 c -0.58,9.08 -0.54,18.23 -0.63,27.32 q -0.08,6.71 -0.07,13.41 c 0,4.6 -0.3,9.35 0.19,13.91 a 1.14,1.14 0 0 0 2.27,0 c 0.35,-4.58 0,-9.31 -0.09,-13.91 -0.09,-4.6 -0.09,-8.94 -0.1,-13.41 0,-9.1 0.27,-18.22 0.11,-27.32 a 0.84,0.84 0 0 0 -1.68,0 z" />
      <path
         id="svg_69"
         d="m 325.58,423.52 a 283.89,283.89 0 0 0 3.69,51.76 c 0.8,4.86 1.74,9.71 2.91,14.5 0.38,1.54 2.68,0.88 2.36,-0.65 -1.72,-8.4 -3.36,-16.8 -4.53,-25.3 -1.17,-8.5 -1.95,-17.15 -2.4,-25.76 -0.25,-4.85 -0.34,-9.7 -0.33,-14.55 a 0.85,0.85 0 0 0 -1.7,0 z" />
      <path
         id="svg_71"
         d="m 330.71,502.26 -0.9,-19.18 a 5.34,5.34 0 0 1 3.58,-5.33 c 11.35,-3.8 23,-9 28.21,-19.73 2.5,-5.18 3.16,-11.06 4,-16.78 a 7.93,7.93 0 0 1 1.36,-4.05 c 1.4,-1.68 3.83,-1.84 6,-1.87 l 30.49,-0.45 a 5.3,5.3 0 0 1 2.47,0.37 5,5 0 0 1 2,2.34 c 2.45,4.73 3.56,10.06 5.38,15.08 1.82,5.02 4.63,10 9.23,12.54 5.47,3 13.5,2.74 16,8.56 a 14.57,14.57 0 0 1 0.89,4.2 l 4.86,43.46" />
      <path
         id="svg_72"
         d="m 331.55,502.26 c -0.08,-3.24 -0.18,-6.48 -0.28,-9.72 -0.1,-3.24 -0.46,-6.58 -0.32,-9.82 a 4.26,4.26 0 0 1 2.95,-3.85 c 1.71,-0.59 3.45,-1.14 5.15,-1.79 a 69.67,69.67 0 0 0 9.81,-4.53 c 6.22,-3.55 11.63,-8.56 14.46,-15.25 a 49.86,49.86 0 0 0 3,-12.4 c 0.28,-1.95 0.28,-4.25 1.09,-6.07 0.81,-1.82 2.93,-2.13 4.74,-2.2 9.56,-0.34 19.16,-0.27 28.72,-0.41 1.1,0 2.24,-0.11 3.34,0 1.33,0.1 1.89,0.95 2.46,2.06 a 39.71,39.71 0 0 1 2.43,6.06 c 1.3,3.94 2.33,8 4,11.77 a 22.94,22.94 0 0 0 6.56,8.94 c 2.65,2.07 5.84,3 9,4 2.67,0.81 5.85,1.64 7.64,4 a 10.1,10.1 0 0 1 1.58,5.25 c 0.26,2.39 0.51,4.77 0.77,7.16 q 1.57,14.44 3.21,28.89 l 0.8,7.16 c 0.21,1.88 3.18,1.9 3,0 -1.11,-10 -2.21,-20.09 -3.36,-30.13 -0.56,-4.85 -1,-9.73 -1.69,-14.57 a 10.34,10.34 0 0 0 -5.4,-8.25 c -2.87,-1.56 -6.14,-2.18 -9.21,-3.24 a 15.89,15.89 0 0 1 -8.39,-6.54 c -2.33,-3.58 -3.61,-7.65 -4.86,-11.69 -0.66,-2.13 -1.32,-4.26 -2.13,-6.33 -0.74,-1.91 -1.52,-4.16 -3,-5.67 -1.48,-1.51 -3.72,-1.45 -5.8,-1.42 l -7.5,0.12 -15.24,0.23 c -2.39,0 -4.78,0 -7.16,0.12 a 9,9 0 0 0 -5.21,1.5 7.27,7.27 0 0 0 -2.41,4.95 c -0.34,2.19 -0.6,4.39 -1,6.58 a 34.79,34.79 0 0 1 -4.08,12.4 28.63,28.63 0 0 1 -7.48,8.07 50.83,50.83 0 0 1 -9.62,5.48 c -1.79,0.8 -3.62,1.51 -5.46,2.2 a 28.3,28.3 0 0 0 -5.09,2 c -3.94,2.52 -2.94,7.21 -2.7,11.13 0.26,4.34 0.52,8.69 0.82,13 l 0.06,0.88 c 0.07,1.07 1.71,1.09 1.68,0 z" />
      <path
         id="svg_73"
         d="m 369.14,446.78 a 362.1,362.1 0 0 1 -26.29,-71.87 l 11.25,3.23 a 6.72,6.72 0 0 1 3.18,1.57 6.8,6.8 0 0 1 1.35,2.87 230.51,230.51 0 0 0 26.81,59.24" />
      <path
         id="svg_74"
         d="m 369.94,446.31 a 362.8,362.8 0 0 1 -21.4,-55.51 q -2.37,-8.08 -4.36,-16.26 l -1.69,1.7 8.42,2.48 c 1.25,0.36 2.54,0.68 3.77,1.11 a 3.46,3.46 0 0 1 2.36,2.56 c 1.59,5.1 3.11,10.2 4.93,15.23 A 227.73,227.73 0 0 0 375,427 q 4.26,8 9.12,15.65 c 1.07,1.68 3.75,0.13 2.67,-1.56 A 233.27,233.27 0 0 1 371,411.74 q -3.39,-7.56 -6.27,-15.35 -1.41,-3.83 -2.67,-7.71 c -0.85,-2.59 -1.48,-5.29 -2.46,-7.83 -1.15,-3 -3.68,-3.7 -6.52,-4.5 l -9.86,-2.77 a 1.4,1.4 0 0 0 -1.7,1.7 366.46,366.46 0 0 0 19.57,56.53 q 3.44,7.8 7.25,15.44 c 0.53,1.07 2.11,0.13 1.6,-0.94 z" />
      <path
         id="svg_75"
         d="m 389.58,439.65 a 272.63,272.63 0 0 0 23.62,-54.87 l 13.8,1.51 a 479.85,479.85 0 0 1 -26.77,58" />
      <path
         id="svg_76"
         d="m 390.3,440.08 a 261,261 0 0 0 19.82,-42.21 q 2.33,-6.31 4.34,-12.74 l -1.26,0.95 13.8,1.64 -1.38,-1.81 c -6.1,15.37 -12.69,30.49 -20.22,45.22 -2.12,4.15 -4.33,8.24 -6.52,12.35 -0.95,1.78 1.72,3.36 2.71,1.59 a 439.16,439.16 0 0 0 21.55,-45.21 c 1.81,-4.37 3.6,-8.76 5.24,-13.19 0.35,-0.95 -0.54,-1.73 -1.38,-1.81 l -13.76,-1.39 a 1.31,1.31 0 0 0 -1.26,1 283.6,283.6 0 0 1 -23.09,54.8 0.84038682,0.84038682 0 0 0 1.45,0.85 z" />
      <path
         id="svg_77"
         d="m 370.58,385.54 a 191.55,191.55 0 0 0 40.27,3.26 c 1.28,0 1.28,-2 0,-2 A 187.13,187.13 0 0 1 371,383.91 c -1.06,-0.19 -1.52,1.42 -0.45,1.63 z" />
      <path
         id="svg_78"
         d="m 323.64,374.7 -12.13,-2.79 q -2.91,-0.66 -5.83,-1.28 a 15.58,15.58 0 0 0 -4.7,-0.58 c -3.59,0.34 -4.57,3.53 -5.5,6.5 A 103.57,103.57 0 0 0 290.73,410 c 0,1.86 0.14,3.73 0.28,5.59 a 17.5,17.5 0 0 0 0.72,4.84 c 1.21,3.28 4.93,4 7.9,4.93 a 153.74,153.74 0 0 0 25.74,5.48 c 1.45,0.19 1.81,-2.37 0.34,-2.57 a 164.4,164.4 0 0 1 -20.73,-4.2 c -1.7,-0.46 -3.4,-0.95 -5.08,-1.46 a 19.5,19.5 0 0 1 -4.32,-1.55 c -1.34,-0.82 -1.58,-2.16 -1.73,-3.61 -0.18,-1.7 -0.29,-3.41 -0.38,-5.12 a 102.87,102.87 0 0 1 1.08,-20.6 q 0.78,-5.08 2,-10.07 c 0.42,-1.66 0.89,-3.31 1.39,-4.94 0.4,-1.3 0.71,-3.11 1.9,-3.93 1.43,-1 3.67,-0.28 5.2,0 q 2.93,0.58 5.87,1.13 l 12.27,2.26 c 1,0.18 1.45,-1.32 0.43,-1.55 z" />
      <path
         id="svg_79"
         d="m 437.36,453.48 c 4.68,0.81 8.09,4.41 11.88,6.95 a 19.17,19.17 0 0 0 13.07,2.64 c 5,-0.63 9.6,-2.68 14,-4.9 3.69,-1.84 7.4,-3.95 10.21,-7 2.6,-2.85 4.14,-6.49 3.33,-10.36 a 16.78,16.78 0 0 0 -3,-6.15 c -1.57,-2.2 -3.23,-4.34 -4.84,-6.5 -6.21,-8.3 -12.16,-17 -19.51,-24.37 a 49.09,49.09 0 0 0 -12.65,-9.48 43.58,43.58 0 0 0 -15.29,-4.45 c -1.85,-0.18 -1.84,2.72 0,2.89 a 42.24,42.24 0 0 1 23.78,10.78 c 7.08,6.33 12.61,14.24 18.27,21.8 3,4 6.23,7.85 8.9,12 a 10.38,10.38 0 0 1 2,6 8.8,8.8 0 0 1 -1.7,4.67 c -2.13,3.09 -5.54,5.24 -8.79,7 a 51.6,51.6 0 0 1 -12.89,5.25 c -4.77,1.05 -10.1,0.73 -14.2,-2.14 -3.78,-2.63 -7.54,-5.86 -12.33,-6.25 -0.95,-0.08 -1.18,1.51 -0.23,1.67 z" />
      <path
         id="svg_80"
         d="m 343.85,514.57 q 14.11,0.38 28.23,0.36 c 1.72,0 1.72,-2.73 0,-2.67 q -14.11,0.48 -28.23,0.53 a 0.89,0.89 0 0 0 0,1.78 z" />
      <path
         id="svg_81"
         d="m 411.54,515.59 a 84.78,84.78 0 0 1 24.19,3 1.3125262,1.3125262 0 0 0 0.7,-2.53 74.33,74.33 0 0 0 -24.89,-2.22 c -1.08,0.09 -1.11,1.72 0,1.71 z" />
      <path
         id="svg_82"
         d="m 367.82,437.36 c -0.1,-0.14 -0.14,-0.17 0,-0.37 a 0.74,0.74 0 0 1 0.5,-0.26 10.47,10.47 0 0 1 2.5,0 l 5.81,0.29 c 1.46,0.07 1.46,-2.23 0,-2.28 -2.45,-0.07 -4.91,-0.18 -7.36,-0.2 a 3.48,3.48 0 0 0 -2.83,1 2.14,2.14 0 0 0 0,2.82 c 0.67,0.73 2,-0.26 1.4,-1.08 z" />
      <path
         id="svg_83"
         d="m 398,436.3 6.34,1.29 a 1.09,1.09 0 0 0 1.31,-0.74 1.07,1.07 0 0 0 -0.74,-1.31 l -6.45,-0.88 a 0.87,0.87 0 0 0 -1.05,0.59 0.86,0.86 0 0 0 0.59,1.05 z" />
      <path
         id="svg_85"
         d="m 351.2,591.45 c 3.95,1.63 7.88,3.3 11.85,4.87 a 0.91,0.91 0 0 0 1.1,-0.62 0.92,0.92 0 0 0 -0.63,-1.1 c -3.94,-1.62 -7.92,-3.14 -11.89,-4.7 a 0.80426986,0.80426986 0 0 0 -0.43,1.55 z" />
      <path
         id="svg_86"
         d="m 355.44,585.72 c 4.24,1.66 8.41,3.48 12.52,5.43 1,0.49 1.91,-1 0.89,-1.51 q -6.39,-3 -13,-5.49 c -1,-0.38 -1.4,1.19 -0.44,1.57 z" />
      <path
         id="svg_87"
         d="m 371.47,592.34 a 0.8,0.8 0 0 0 0,-1.59 0.8,0.8 0 0 0 0,1.59 z" />
      <path
         id="svg_88"
         d="m 349.92,564.79 c 18.62,0.17 37.24,0.4 55.85,0.48 a 1.35,1.35 0 0 0 0,-2.7 c -18.61,0.08 -37.23,0.31 -55.85,0.48 a 0.87,0.87 0 0 0 0,1.74 z" />
      <path
         id="svg_89"
         d="m 316.61,706.67 a 103.7,103.7 0 0 1 15.93,-3.52 22.53,22.53 0 0 1 14.57,3.05 c 1.11,0.67 2.1,-1 1,-1.73 a 22.76,22.76 0 0 0 -15.11,-3.22 101.58,101.58 0 0 0 -16.85,3.87 0.80426986,0.80426986 0 0 0 0.43,1.55 z" />
      <path
         id="svg_90"
         d="m 329.24,669.34 a 37.35,37.35 0 0 1 14.17,-0.63 38,38 0 0 1 6.65,1.64 c 1.12,0.39 2.21,0.83 3.29,1.31 0.53,0.23 1,0.47 1.56,0.72 0.25,0.13 0.51,0.25 0.76,0.39 0.51,0.3 0.29,0.4 0.53,-0.12 a 1.16,1.16 0 0 0 2,1.17 c 2.7,-3.76 -10.44,-6.57 -12.52,-6.91 a 39.91,39.91 0 0 0 -16.88,0.83 0.83,0.83 0 0 0 0.44,1.6 z" />
      <path
         id="svg_91"
         d="m 329.88,691.34 a 0.83,0.83 0 0 0 0,-1.66 0.83,0.83 0 0 0 0,1.66 z" />
      <path
         id="svg_92"
         d="m 276,645.06 a 66.89,66.89 0 0 0 19.17,-2.82 65.28,65.28 0 0 0 8.81,-3.58 q 2.12,-1 4.14,-2.25 c 1.18,-0.71 2.64,-1.4 3,-2.86 0.38,-1.68 -2.18,-2.4 -2.6,-0.71 -0.12,0.45 -1,0.84 -1.33,1.08 -0.59,0.41 -1.18,0.8 -1.79,1.18 a 39,39 0 0 1 -3.73,2.09 54.06,54.06 0 0 1 -8.32,3.19 71.61,71.61 0 0 1 -17.35,2.87 0.91,0.91 0 0 0 0,1.81 z" />
      <path
         id="svg_93"
         d="m 238.66,301 c 1.26,1.85 2.51,3.69 3.68,5.6 v -1.12 a 10.85,10.85 0 0 0 -1.17,9.51 10.67,10.67 0 0 0 2.69,4.23 c 1.3,1.25 3,2.24 3.49,4.09 0.49,1.85 0.19,4.22 0.16,6.22 l -0.09,7 c 0,4.57 0,9.14 0.1,13.71 0.29,8.82 1.08,17.77 3.36,26.31 1.92,7.15 5.27,14.2 11.59,18.43 3.76,2.52 8.16,3.88 12.42,5.27 5.09,1.66 10.16,3.47 15.3,4.93 1.76,0.5 2.41,-2.08 0.75,-2.69 -4.18,-1.54 -8.46,-2.81 -12.69,-4.18 a 83,83 0 0 1 -11.37,-4.13 c -6.83,-3.37 -10.59,-9.58 -12.74,-16.68 -4.94,-16.35 -4,-34 -4,-50.82 0,-2 0,-4.05 -1,-5.78 -1,-1.73 -2.7,-2.58 -4,-4 a 8.91,8.91 0 0 1 -0.89,-10.3 1.14,1.14 0 0 0 -0.17,-1.34 c -1.35,-1.68 -2.62,-3.41 -3.9,-5.15 -0.66,-0.89 -2.16,-0.06 -1.52,0.89 z" />
      <path
         id="svg_94"
         d="m 259.81,288.85 a 22.39,22.39 0 0 1 3.73,11 1.22,1.22 0 0 0 1.19,1.18 1.19,1.19 0 0 0 1.19,-1.18 22.54,22.54 0 0 0 -4.73,-12 c -0.61,-0.78 -1.93,0.24 -1.38,1.07 z" />
      <path
         id="svg_95"
         d="m 270,300.86 c 0.32,7.13 -4,13.43 -4.32,20.49 a 33.62,33.62 0 0 0 1.63,10.89 c 1.12,3.88 2.42,7.71 3.64,11.56 1.15,3.64 2.26,7.3 3.53,10.91 1.11,3.18 2.22,6.82 4.27,9.54 1.61,2.14 4.31,3.14 6.75,4.05 a 61.33,61.33 0 0 0 6.49,2 c 5.07,1.3 10.44,2.64 15.69,2.83 1.58,0.05 1.58,-2.4 0,-2.45 a 65.27,65.27 0 0 1 -13.14,-2.28 c -2.27,-0.56 -4.53,-1.16 -6.75,-1.9 a 22.43,22.43 0 0 1 -5.92,-2.61 8.66,8.66 0 0 1 -2.49,-3.58 c -0.81,-1.75 -1.51,-3.54 -2.16,-5.35 -1.23,-3.43 -2.29,-6.92 -3.39,-10.39 -1.16,-3.65 -2.33,-7.29 -3.47,-10.94 A 42.6,42.6 0 0 1 268,322.74 c -0.32,-7.55 4.35,-14.3 3.83,-21.88 -0.08,-1.13 -1.83,-1.15 -1.78,0 z" />
      <path
         id="svg_96"
         d="m 251.22,289.76 a 21.51,21.51 0 0 1 2.86,6.77 0.94,0.94 0 1 0 1.81,-0.5 20.71,20.71 0 0 0 -3.26,-7.09 0.84,0.84 0 0 0 -1.12,-0.29 0.81,0.81 0 0 0 -0.29,1.11 z" />
      <path
         id="svg_97"
         d="m 246.32,293.06 -0.52,0.86 h -0.16 c 0,0 -0.22,0 -0.07,0 h -0.08 c 0,0 0.1,0.09 0,0 a 0.28,0.28 0 0 1 -0.09,-0.1 c 0,-0.06 0,-0.07 0,0 l 0.1,0.17 c 0.06,0.11 0.13,0.22 0.2,0.33 l 0.87,1.45 c 0.57,0.95 1.13,1.9 1.72,2.85 a 1,1 0 1 0 1.66,-1 c -0.78,-1.25 -1.58,-2.5 -2.37,-3.75 -0.39,-0.61 -0.72,-1.38 -1.48,-1.59 a 1.33,1.33 0 0 0 -1,0.1 1,1 0 0 0 -0.32,1.31 0.82,0.82 0 0 0 1,0.34 0.84,0.84 0 0 0 0.48,-1 z" />
      <path
         id="svg_98"
         d="m 414.52,331.73 0.64,12.61 0.33,6.18 c 0.07,1.29 0.62,4.76 -1.51,4.7 a 1.25,1.25 0 0 0 -1.22,1.23 c -0.44,4.27 -0.9,9 -3.61,12.49 a 9.72,9.72 0 0 1 -4.42,3.33 c -2,0.65 -4,0.07 -5.92,0.93 -1.47,0.67 -0.19,2.85 1.28,2.18 1.06,-0.48 2.42,-0.16 3.56,-0.3 a 9.8,9.8 0 0 0 2.89,-0.85 12.58,12.58 0 0 0 4.78,-4.06 c 2.91,-3.93 3.42,-9 3.89,-13.72 l -1.21,1.23 c 5.29,0.13 3.79,-7.22 3.53,-10.38 -0.43,-5.19 -0.89,-10.38 -1.33,-15.57 -0.09,-1.05 -1.72,-1.08 -1.66,0 z" />
      <path
         id="svg_99"
         d="m 809.86,496.44 q -3.89,7.05 -7.77,14.1 c -1.59,2.91 -5.56,8.66 -0.63,10.65 l -0.86,-1.51 c -1.55,4.72 -3.13,9.81 -1.76,14.77 a 12.43,12.43 0 0 0 2.85,5.19 9.45,9.45 0 0 0 2.32,1.8 c 1,0.54 2.16,0.79 2.92,1.67 1.07,1.22 2.85,-0.57 1.79,-1.79 -1.24,-1.42 -3.21,-1.66 -4.63,-2.85 a 9.43,9.43 0 0 1 -2.84,-4.68 c -1.27,-4.5 0.33,-9.18 1.72,-13.45 a 1.26,1.26 0 0 0 -0.86,-1.51 c -1.76,-0.71 0.17,-3.82 0.65,-4.74 q 1.41,-2.76 2.81,-5.53 l 5.72,-11.28 c 0.48,-0.95 -0.91,-1.78 -1.43,-0.84 z" />
      <path
         fill="#f58220"
         id="svg_100"
         d="M 416,328.55 A 41.55,41.55 0 0 1 405.19,348 c 0.74,-2.3 -2.44,-3.76 -3.93,-1.86 a 11.57,11.57 0 0 0 -2,10.3 5.27,5.27 0 0 1 0.44,2.9 c -0.37,1.26 -1.76,1.87 -3,2.37 -9,3.71 -15,11.33 -18.71,20.28 -4.06,9.67 -6,20.63 -15.61,26.57 -5.2,3.19 -10.91,3.33 -16.81,3.28 -10.54,-0.1 -20.51,5.43 -31.09,4.37 -9,-0.9 -16.87,-7.28 -20.31,-15.52 -3.44,-8.24 -2.44,-18.14 1.89,-25.94 5.34,-9.6 14.08,-13.22 24.59,-14.26 4.48,-0.45 9.34,-1 13.34,-3.19 3.8,-2.13 6.24,-5.9 9.4,-8.78 4.14,-3.76 9.46,-4.78 14.36,-7.24 4.57,-2.28 5.8,-7.82 8.36,-11.8 3.54,-5.52 9.92,-8.71 16.37,-9.86 6.45,-1.15 13.07,-0.52 19.6,0.12 5.57,0.55 12.33,2 13.94,7.38" />
      <path
         id="svg_101"
         d="m 415.18,328.32 a 41.78,41.78 0 0 1 -10.77,18.93 l 1.84,1.06 a 3.22,3.22 0 0 0 -2.35,-4.08 c -2.4,-0.6 -3.89,1.38 -4.85,3.29 a 12.9,12.9 0 0 0 -1.28,7.7 c 0.17,1.15 1.23,3 0.6,4.06 -0.63,1.06 -2.36,1.35 -3.32,1.79 -9.63,4.33 -15.64,13.31 -19.37,22.85 -3.58,9.15 -6.47,20.2 -16.42,24.45 -5.66,2.41 -11.68,1.38 -17.61,2 -5.93,0.62 -11.86,2.55 -17.83,3.63 -5.49,1 -11.17,1 -16.28,-1.49 a 24.65,24.65 0 0 1 -10.67,-10.07 c -5.45,-9.72 -3.58,-23 3.67,-31.32 a 25.06,25.06 0 0 1 11.55,-7.35 c 5.11,-1.61 10.42,-1.61 15.64,-2.64 a 22.11,22.11 0 0 0 8.08,-3.1 34.54,34.54 0 0 0 6,-5.62 24.27,24.27 0 0 1 6.42,-5.31 c 2.48,-1.32 5.16,-2.23 7.74,-3.32 a 14.69,14.69 0 0 0 6.18,-4.21 31.59,31.59 0 0 0 3.51,-6.17 21.24,21.24 0 0 1 4.15,-6.18 22.19,22.19 0 0 1 6.73,-4.42 c 5.7,-2.46 12,-2.69 18.15,-2.34 3.06,0.17 6.16,0.39 9.2,0.83 a 22.72,22.72 0 0 1 6.57,1.79 7.59,7.59 0 0 1 4.22,4.4 c 0.57,1.75 3.34,1 2.77,-0.76 -1.52,-4.69 -6.17,-6.78 -10.67,-7.69 a 75.64,75.64 0 0 0 -8.49,-1 78.79,78.79 0 0 0 -10.07,-0.38 c -5.88,0.22 -11.84,1.51 -16.84,4.74 a 22.15,22.15 0 0 0 -5.93,5.57 51.83,51.83 0 0 0 -3.53,6.41 12.37,12.37 0 0 1 -4.3,5.26 c -2.5,1.49 -5.4,2.31 -8.08,3.43 a 25.42,25.42 0 0 0 -7.22,4.35 c -2.14,1.92 -3.89,4.22 -6,6.19 -4.45,4.18 -10.38,4.72 -16.18,5.34 a 39.78,39.78 0 0 0 -14.22,3.92 c -9.8,5.09 -15.37,16.11 -15.45,26.94 -0.09,11.11 6.25,21.69 16.56,26.14 5.46,2.35 11.27,2.41 17.06,1.44 6.19,-1 12.18,-3.24 18.45,-3.78 3,-0.26 6,0 9,-0.26 a 27.62,27.62 0 0 0 8.76,-1.92 24.59,24.59 0 0 0 11.53,-10.55 c 2.59,-4.42 4.15,-9.35 5.88,-14.14 a 52.44,52.44 0 0 1 7.12,-14.06 30.75,30.75 0 0 1 12.17,-9.76 c 2.39,-1.05 4.48,-2.4 3.85,-5.36 a 20.14,20.14 0 0 1 -0.87,-4.19 10.61,10.61 0 0 1 0.89,-4.34 c 0.37,-0.84 1,-2.51 2.06,-2.66 a 1.06,1.06 0 0 1 1.21,1.37 1.11,1.11 0 0 0 1.86,1.07 42.39,42.39 0 0 0 10.91,-20 c 0.25,-1.1 -1.41,-1.57 -1.69,-0.47 z" />
      <path
         stroke="null"
         id="svg_102"
         fill="#000000"
         d="m 415.21,331.75 a 197.47,197.47 0 0 1 -50.87,-4 c 0.84,-4.8 1.72,-9.73 4.2,-13.93 3.16,-5.37 8.74,-9.08 14.75,-10.71 a 38.39,38.39 0 0 1 18.51,0.08 c 5.93,1.35 12,4.08 15,9.38 2.45,4.33 2.62,10 6.31,13.37 0.81,0.72 1.81,1.38 2.07,2.44 0.42,1.7 -1.43,3.17 -3.16,3.45 -1.73,0.28 -3.56,-0.12 -5.25,0.37" />
      <path
         id="svg_103"
         fill="#000000"
         d="m 415.21,330.93 c -8.46,-0.06 -16.89,0 -25.32,-0.69 a 192.51,192.51 0 0 1 -25.19,-3.76 l 0.94,1.67 c 1.15,-6.31 2.47,-12.75 7.21,-17.42 a 26,26 0 0 1 16.64,-7.08 37.71,37.71 0 0 1 19,3.48 16.44,16.44 0 0 1 6.44,5.3 c 1.56,2.31 2.23,5 3.11,7.64 a 17.32,17.32 0 0 0 4.85,7.71 c 0.38,0.35 1,0.78 0.78,1.36 -0.22,0.58 -1.14,1 -1.72,1.18 -1.8,0.46 -3.71,0.05 -5.54,0.54 -1.83,0.49 -1,3.17 0.77,2.77 1.77,-0.4 3.75,0.08 5.59,-0.34 a 5.53,5.53 0 0 0 3.56,-2.6 c 1.86,-3.46 -2.17,-5.23 -3.69,-7.68 -1.67,-2.69 -2.22,-5.92 -3.4,-8.83 a 17.56,17.56 0 0 0 -5.6,-7.4 c -5.53,-4.26 -13.11,-5.89 -20,-6.2 -7.27,-0.33 -14.69,1.41 -20.53,5.9 a 22.9,22.9 0 0 0 -7,8.74 50,50 0 0 0 -3.11,12.21 1.38,1.38 0 0 0 1,1.67 203.59,203.59 0 0 0 25.42,3.5 143.55,143.55 0 0 0 25.81,0 0.82,0.82 0 0 0 0,-1.63 z" />
      <path
         id="svg_104"
         d="m 487.35,447.4 c 4.85,3.83 10.9,5.14 16.93,5.7 7.27,0.69 14.65,0.62 21.94,0.86 q 11.67,0.36 23.34,0.79 c 6.83,0.26 13.87,0.15 20.62,1.36 6.12,1.09 14.74,4.51 14.88,11.94 0,1.16 1.93,1.53 2.11,0.29 1,-6.52 -5.41,-11.2 -10.81,-13.22 -6.12,-2.28 -12.9,-2.31 -19.35,-2.58 -16,-0.68 -32,-1 -47.93,-1.55 -7.08,-0.25 -14.72,-0.66 -20.67,-5 -0.8,-0.58 -1.85,0.76 -1.06,1.38 z" />
      <path
         id="svg_105"
         d="m 453,462 a 104.47,104.47 0 0 0 9.74,8.58 73.73,73.73 0 0 0 8.92,6.17 55.27,55.27 0 0 0 19.72,6.71 c 18.74,2.7 37.3,-1.81 55.68,-4.93 q 3.87,-0.66 7.75,-1.22 c 2.07,-0.29 4.86,-1.16 6.81,-0.06 2.39,1.33 2.08,4.24 2.24,6.58 0.12,1.74 2.84,1.75 2.72,0 -0.14,-2.1 0,-4.48 -1.1,-6.36 a 6.72,6.72 0 0 0 -3.57,-3 c -1.92,-0.7 -4,-0.23 -5.92,0 -9.55,1.28 -19,3.27 -28.47,4.84 -16.76,2.77 -35.35,4.47 -51.19,-3 a 69.87,69.87 0 0 1 -10.44,-6.26 c -4.06,-2.89 -7.75,-6.21 -11.63,-9.34 -0.87,-0.7 -2.08,0.42 -1.26,1.26 z" />
      <path
         id="svg_106"
         d="m 572.19,476.23 a 8.09,8.09 0 0 1 0.14,5.81 1,1 0 0 0 0.69,1.2 1,1 0 0 0 1.2,-0.68 10,10 0 0 0 -0.43,-7 0.87,0.87 0 0 0 -1.1,-0.36 0.86,0.86 0 0 0 -0.5,1 z" />
      <path
         id="svg_107"
         d="m 578.05,471.79 0.22,0.24 0.1,0.12 a 3.67,3.67 0 0 1 0.38,0.56 4.25,4.25 0 0 1 0.29,0.56 c 0,0 0.08,0.17 0,0.07 -0.08,-0.1 0,0.06 0,0.07 a 2.79,2.79 0 0 1 0.12,0.34 6.25,6.25 0 0 1 0.16,0.62 0.89,0.89 0 0 1 0.06,0.31 c 0,-0.06 0,-0.16 0,0 0,0.16 0,0.1 0,0.15 a 5.15,5.15 0 0 1 0,0.68 v 0.31 a 1,1 0 0 0 0,0.16 1.039471,1.039471 0 1 0 2.06,0.28 7,7 0 0 0 -2.24,-5.67 0.86,0.86 0 0 0 -1.21,1.21 z" />
      <path
         id="svg_109"
         d="M 367.32,319.85 A 157.67,157.67 0 0 0 420,321 c 1.35,-0.19 0.78,-2.24 -0.56,-2 a 163.78,163.78 0 0 1 -51.63,-0.89 c -1.15,-0.21 -1.65,1.53 -0.49,1.76 z" />
      <path
         id="svg_110"
         d="m 373.45,319.46 a 27.7,27.7 0 0 1 3,-8 33.86,33.86 0 0 1 5.19,-6.73 0.93,0.93 0 0 0 -1.32,-1.31 25.37,25.37 0 0 0 -5.42,7.13 29.57,29.57 0 0 0 -2.94,8.45 c -0.18,1 1.32,1.43 1.53,0.42 z" />
      <path
         id="svg_111"
         d="m 385.15,317.17 c 2.24,-5.53 4.83,-11.5 10.7,-13.95 1,-0.44 0.65,-2.13 -0.48,-1.74 -6.56,2.25 -9.52,9.32 -11.86,15.24 -0.41,1 1.24,1.45 1.64,0.45 z" />
      <path
         id="svg_112"
         d="m 366.55,456.94 c 15.47,-2.21 31.05,1.31 46.57,0.44 1.32,-0.07 1.32,-2.15 0,-2.05 -15.68,1.26 -31.37,-2.34 -47,0 -1.07,0.16 -0.62,1.77 0.44,1.62 z" />
      <path
         id="svg_113"
         d="m 323.63,503 a 28.13,28.13 0 0 0 2.44,16.19 c 0.54,1.1 2.15,0.14 1.65,-1 a 28.13,28.13 0 0 1 -2.44,-15 c 0.11,-0.93 -1.52,-1.16 -1.65,-0.23 z" />
      <path
         id="svg_114"
         fill="#f58220"
         d="m 827.51,516.43525 a 26.08,26.08 0 0 1 0.75,-18.53 52.43,52.43 0 0 1 -18.73,0.84 10.4,10.4 0 0 1 -4.56,-1.36 4,4 0 0 1 -1.9,-4.08 c 0.39,-1.55 2.49,-2.55 3.73,-1.54 -2,-0.86 -2.14,-3.88 -0.75,-5.54 1.39,-1.66 3.69,-2.22 5.85,-2.42 a 27.46,27.46 0 0 1 18.82,5.29 c 3.28,-1.41 7,0.35 10.1,2.08 4,2.19 8.09,4.52 10.58,8.31 3.32,5.07 3,11.86 0.65,17.46 -2.35,5.6 -6.41,10.26 -10.41,14.81 -1.29,1.47 -2.73,3 -4.66,3.38 -3.35,0.61 -6.14,-2.77 -7.1,-6 a 12.82,12.82 0 0 0 5.86,-6 7.83,7.83 0 0 0 -1,-8 c -1.87,-2.15 -5.48,-2.72 -7.64,-0.88" />
      <path
         id="svg_115"
         fill="#f58220"
         d="m 828.37,513.67 c -1.45,-5.93 -1.5,-12 1,-17.67 a 1.24,1.24 0 0 0 -1.38,-1.8 52.05,52.05 0 0 1 -15.6,1 c -2.13,-0.17 -4.9,-0.18 -6.71,-1.47 -0.78,-0.56 -1.65,-1.71 -1.25,-2.72 a 1.18,1.18 0 0 1 1.75,-0.62 l 1.34,-2.29 a 2.14,2.14 0 0 1 -0.84,-2.75 c 0.51,-1.44 2.09,-2.1 3.46,-2.43 a 22.2,22.2 0 0 1 9.93,0.22 26.54,26.54 0 0 1 9.34,4.12 2,2 0 0 0 2.11,0.47 6.81,6.81 0 0 1 2.49,-0.29 14.75,14.75 0 0 1 5.42,2 c 5.8,3.08 11.8,6.66 12.93,13.7 1.11,6.89 -2.22,13.44 -6.25,18.78 -1.16,1.53 -2.4,3 -3.65,4.44 a 25,25 0 0 1 -4,4.22 c -3.37,2.38 -6.31,-1.32 -7.25,-4.33 l -0.61,1.5 c 4.57,-2.56 8.37,-7.43 6.83,-12.94 -1.33,-4.78 -7.08,-7.15 -11.13,-4 -1.27,1 0.53,2.79 1.79,1.78 a 4.22,4.22 0 0 1 4.58,-0.14 5.15,5.15 0 0 1 2.48,4.16 c 0.36,4 -2.66,7 -5.89,8.85 a 1.33,1.33 0 0 0 -0.61,1.49 c 1.4,4.49 5.93,9.12 10.83,6.14 2.29,-1.4 4,-3.82 5.72,-5.83 a 65.11,65.11 0 0 0 5.44,-7.18 c 2.9,-4.57 4.87,-9.87 4.58,-15.35 a 17.6,17.6 0 0 0 -7.5,-13.43 50.84,50.84 0 0 0 -8.1,-4.81 c -2.86,-1.39 -6.1,-2.41 -9.21,-1.2 l 1,0.13 a 28.68,28.68 0 0 0 -19.5,-5.45 c -2.79,0.28 -6.09,1.11 -7.48,3.83 -1.14,2.25 -0.68,5.4 1.71,6.62 a 1.33,1.33 0 0 0 1.34,-2.29 c -2.21,-1.51 -5.32,0.17 -5.74,2.69 -0.54,3.19 2.29,5.53 5.07,6.27 a 39.83,39.83 0 0 0 10.73,0.92 49.74,49.74 0 0 0 11.06,-1.42 l -1.51,-1.5 c -2.44,5.91 -2.94,13.1 -0.43,19.09 a 0.89286057,0.89286057 0 0 0 1.72,-0.48 z" />
      <path
         id="svg_116"
         d="m 827.88,514 a 3.89,3.89 0 0 1 3.56,-0.69 4.14,4.14 0 0 1 2.84,2.51 5.47,5.47 0 0 1 -0.13,4.13 6.3,6.3 0 0 1 -3.21,3.08 7.92,7.92 0 0 1 -2.38,0.68 8.2,8.2 0 0 1 -1.31,0.05 1,1 0 0 1 -0.42,-0.08 c -0.16,0 -0.07,0 0,0 -0.26,0 0,0 0.07,0.15 a 1.34,1.34 0 0 0 -1.6,-0.91 1.31,1.31 0 0 0 -0.91,1.6 c 0.86,2.42 4.14,2 6.1,1.41 a 9.3,9.3 0 0 0 5.33,-3.83 8,8 0 0 0 1,-6.25 6.16,6.16 0 0 0 -4.06,-4.27 5.84,5.84 0 0 0 -6,1.28 c -0.75,0.76 0.37,1.84 1.15,1.15 z" />
      <path
         id="svg_117"
         d="m 827.83,519.06 1.84,-0.88 a 0.87,0.87 0 0 0 0.39,-0.51 0.84,0.84 0 0 0 -0.06,-0.67 0.85,0.85 0 0 0 -0.5,-0.39 1,1 0 0 0 -0.65,0.08 l -1.81,0.93 a 0.8,0.8 0 0 0 -0.37,0.49 0.81,0.81 0 0 0 0.08,0.63 0.8,0.8 0 0 0 0.49,0.37 0.84,0.84 0 0 0 0.62,-0.08 z" />
      <path
         id="svg_118"
         d="m 811.54,504.18 a 13.14,13.14 0 0 1 2.05,0.63 h -0.05 l 0.14,0.06 0.26,0.12 0.45,0.22 1,0.51 a 1,1 0 0 0 1,-1.64 8.76,8.76 0 0 0 -2.21,-1 13.49,13.49 0 0 0 -2.35,-0.51 0.82,0.82 0 0 0 -0.22,1.61 z" />
      <path
         id="svg_119"
         d="m 811.2,509.25 h -0.25 a 1.07,1.07 0 0 0 -0.4,0.23 v 0.05 l -0.09,0.1 a 2.25,2.25 0 0 0 -0.3,0.39 1.34,1.34 0 0 0 -0.13,0.23 4.14,4.14 0 0 0 -0.19,0.49 1,1 0 0 0 0.26,1 1,1 0 0 0 0.45,0.26 1,1 0 0 0 0.54,0 1.92,1.92 0 0 0 0.33,-0.14 3.4,3.4 0 0 0 0.28,-0.21 1.23,1.23 0 0 0 0.29,-0.35 1.78,1.78 0 0 0 0.18,-0.43 1.88,1.88 0 0 0 0,-0.47 1.21,1.21 0 0 0 -0.31,-0.76 1,1 0 0 0 -0.34,-0.22 1,1 0 0 0 -0.41,-0.09 h -0.29 a 1.11,1.11 0 0 0 -0.47,0.27 l -0.16,0.22 a 1,1 0 0 0 -0.15,0.54 0.38,0.38 0 0 1 0,0.15 v -0.28 a 0.55,0.55 0 0 1 -0.05,0.17 l 0.11,-0.25 a 1.32,1.32 0 0 1 -0.12,0.2 l 0.16,-0.21 a 0.52,0.52 0 0 1 -0.11,0.1 l 0.21,-0.16 1.53,0.88 a 1.36,1.36 0 0 1 0,-0.2 v 0.26 a 1.62,1.62 0 0 1 0.12,-0.43 l -0.1,0.22 0.09,-0.17 a 0.41,0.41 0 0 1 0,-0.09 0.87,0.87 0 0 0 0.15,-0.5 0.66,0.66 0 0 0 -0.08,-0.34 0.64,0.64 0 0 0 -0.18,-0.28 0.87,0.87 0 0 0 -0.62,-0.26 z" />
      <path
         id="svg_120"
         d="m 808,526.34 a 6.17,6.17 0 0 0 3.74,-1.32 0.83,0.83 0 0 0 0.06,-1.12 0.84,0.84 0 0 0 -1.1,-0.22 c -0.22,0.15 -0.44,0.3 -0.67,0.43 l -0.39,0.2 h -0.09 0.05 c 0,0 -0.13,0 -0.17,0.07 a 5,5 0 0 1 -0.78,0.22 c -0.12,0 -0.28,0 -0.39,0.07 0.13,0 0.15,0 0.06,0 H 808.21 808 a 0.82,0.82 0 1 0 0,1.63 z" />
      <path
         id="svg_121"
         d="m 807.26,542.07 a 42.06,42.06 0 0 1 2.18,5 c 0.29,0.85 0.55,1.72 0.77,2.6 0.11,0.43 0.2,0.86 0.3,1.28 a 0.94,0.94 0 0 1 0,0.42 c 0,-0.08 0,-0.06 0,0.08 0,0.14 0,0.15 0.05,-0.09 -0.72,0.69 0,2.18 1,1.78 1.19,-0.48 1.35,-1.56 1.07,-2.69 a 27.36,27.36 0 0 0 -1,-3.23 25.21,25.21 0 0 0 -3,-6 0.82,0.82 0 0 0 -1.41,0.82 z" />
      <path
         id="svg_122"
         d="m 810.53,553.89 c 0,-1 1.06,-1.32 1.82,-1.72 0.76,-0.4 1.6,-0.8 2.41,-1.18 1.67,-0.77 3.36,-1.5 5.08,-2.17 3.44,-1.35 6.95,-2.52 10.49,-3.6 a 87.79,87.79 0 0 1 10.79,-2.94 c 1.55,-0.26 4.27,-0.79 5.6,0.31 1.33,1.1 1.82,3.35 2.45,4.95 0.46,1.17 2.5,1.17 2.4,-0.33 a 11.15,11.15 0 0 0 -2.32,-5.79 c -1.34,-1.77 -3.32,-2.11 -5.42,-2.07 -4.63,0.1 -9.17,1.8 -13.55,3.14 a 108.92,108.92 0 0 0 -12.65,4.51 48.66,48.66 0 0 0 -5.92,3.16 c -1.46,0.93 -3.1,1.72 -2.83,3.69 0.13,1 1.7,1.1 1.65,0 z" />
      <path
         id="svg_123"
         d="m 815,552.24 c -9.43,1.21 -18.24,4.33 -26.8,8.38 -4.45,2.11 -8.78,4.44 -13.08,6.85 -3.56,2 -7.63,3.87 -10.18,7.18 -2.71,3.51 -2.61,8 -1.3,12.09 a 46.52,46.52 0 0 0 6.22,11.94 56.3,56.3 0 0 0 8.83,10.11 c 3.12,2.75 6.94,5.19 11.24,5.19 a 15.91,15.91 0 0 0 6.95,-2 c 2.51,-1.22 5,-2.56 7.43,-3.85 5.24,-2.73 10.68,-5.26 15.75,-8.3 1.33,-0.8 0.17,-2.63 -1.18,-2 -4.37,1.92 -8.57,4.3 -12.81,6.49 l -6.38,3.28 a 54.5,54.5 0 0 1 -6,2.91 c -8.22,3 -15.26,-5.15 -19.71,-11 a 57.6,57.6 0 0 1 -6.48,-10.72 c -1.63,-3.53 -3,-8.06 -0.87,-11.67 1.94,-3.26 5.92,-5 9.1,-6.81 3.81,-2.16 7.65,-4.28 11.53,-6.29 8.78,-4.54 18.16,-8.6 28,-10.16 0.91,-0.15 0.71,-1.75 -0.22,-1.63 z" />
      <path
         id="svg_124"
         d="m 641.33,534.08 c 4.1,11.37 16.25,15.46 24.79,22.68 4.58,3.88 8.25,8.68 11.69,13.57 3.44,4.89 6.8,9.82 10.44,14.56 A 153.82,153.82 0 0 0 713,611 a 70.91,70.91 0 0 0 15,9.86 45.85,45.85 0 0 0 17.85,4.14 c 6.93,0.2 13.7,-1.31 20.3,-3.29 a 81.52,81.52 0 0 0 19.85,-8.52 1.5101738,1.5101738 0 0 0 -1.52,-2.61 118.86,118.86 0 0 1 -17.25,7.42 70.24,70.24 0 0 1 -17.52,3.69 43.84,43.84 0 0 1 -17.37,-2.51 58.48,58.48 0 0 1 -15.19,-8.87 150.28,150.28 0 0 1 -24.6,-24.54 c -3.71,-4.57 -7.18,-9.32 -10.6,-14.11 a 105.76,105.76 0 0 0 -10.72,-13.34 c -4.63,-4.64 -10.22,-7.8 -15.68,-11.34 -5.15,-3.34 -10.3,-7.44 -12.58,-13.35 -0.39,-1 -2,-0.58 -1.64,0.46 z" />
      <path
         id="svg_125"
         d="m 644,524.77 a 20.37,20.37 0 0 0 6.94,9.42 1,1 0 0 0 1.39,-0.36 1,1 0 0 0 -0.36,-1.39 18.82,18.82 0 0 1 -6.3,-8.13 0.89,0.89 0 0 0 -1.07,-0.6 0.87,0.87 0 0 0 -0.6,1.06 z" />
      <path
         id="svg_126"
         d="m 650.61,518.94 a 15.28,15.28 0 0 0 6.8,9.23 c 1.08,0.67 2.08,-1 1,-1.71 a 14.08,14.08 0 0 1 -6.11,-8 0.88,0.88 0 0 0 -1.69,0.47 z" />
      <path
         id="svg_127"
         d="m 659.57,516.55 a 35.22,35.22 0 0 0 9.21,8 1.09,1.09 0 0 0 1.1,-1.88 40.91,40.91 0 0 1 -9.14,-7.28 0.83,0.83 0 1 0 -1.17,1.17 z" />
      <path
         id="svg_128"
         d="m 674.5,518.78 a 31.45,31.45 0 0 1 6.7,8.31 c 1.85,3.3 2.54,6.86 3.87,10.34 1.41,3.66 4,6.16 6.79,8.78 2.79,2.62 5.9,5.36 9,7.91 A 206.44,206.44 0 0 0 720,568.24 c 7.13,4.63 14.49,8.92 21.78,13.31 1.86,1.13 3.81,2.65 5.92,3.27 a 8.66,8.66 0 0 0 5.81,-0.66 c 2.09,-0.88 4,-2.06 6,-3.12 2.2,-1.18 4.41,-2.32 6.58,-3.56 1.39,-0.79 0.16,-2.86 -1.25,-2.13 -3.66,1.88 -7.19,4 -10.84,5.89 -1.64,0.84 -3.59,1.75 -5.48,1.28 -1.89,-0.47 -3.54,-1.88 -5.12,-2.83 -7,-4.24 -14.07,-8.38 -21,-12.81 a 200.79,200.79 0 0 1 -19,-13.81 q -4.44,-3.66 -8.67,-7.55 c -2.74,-2.53 -5.8,-5 -7.22,-8.56 -1.42,-3.56 -2.31,-7.41 -4.31,-10.85 a 30.37,30.37 0 0 0 -7.54,-8.58 c -0.88,-0.7 -2.14,0.49 -1.26,1.25 z" />
      <path
         id="svg_129"
         d="M 594.43,478.93 H 764.9 v 9.86 H 594.43 Z" />
      <path
         id="svg_130"
         d="M 764.9,486.42 H 601.33 c -2.19,0 -4.44,-0.16 -6.63,0 h -0.27 l 2.37,2.37 v -9.86 l -2.37,2.37 H 758 c 2.19,0 4.45,0.16 6.63,0 h 0.28 l -2.38,-2.37 v 9.86 c 0,3.06 4.75,3.06 4.75,0 v -9.86 a 2.4,2.4 0 0 0 -2.37,-2.38 H 615.37 c -6.88,0 -13.79,-0.2 -20.67,0 h -0.27 a 2.41,2.41 0 0 0 -2.38,2.38 v 9.86 a 2.42,2.42 0 0 0 2.38,2.38 H 744 c 6.88,0 13.79,0.2 20.66,0 h 0.28 c 3.06,0 3.06,-4.75 -0.04,-4.75 z" />
      <rect
         id="svg_131"
         y="503.39001"
         x="618.72998"
         width="9.8100004"
         stroke-width="1.58"
         stroke-miterlimit="10"
         stroke="#000000"
         rx="1.54"
         height="9.8100004" />
      <rect
         id="svg_132"
         y="503.39001"
         x="689.01001"
         width="9.8100004"
         stroke-width="1.58"
         stroke-miterlimit="10"
         stroke="#000000"
         rx="1.54"
         height="9.8100004" />
      <path
         id="svg_133"
         d="m 558.71,476.62 a 27.61,27.61 0 0 0 -7.05,5.32 l -7,6.56 c -2,1.9 -4.22,4.25 -3.86,7 a 5.83,5.83 0 0 0 3.25,4.2 14.92,14.92 0 0 0 5.32,1.36 3.25,3.25 0 0 0 3.92,-1.85 l 9.7,-14.53 a 8.86,8.86 0 0 0 1.5,-3 4.71,4.71 0 0 0 -4.5,-5.46" />
      <path
         id="svg_134"
         d="m 558.47,475.75 a 23.1,23.1 0 0 0 -6.4,4.2 c -2.22,2 -4.41,4 -6.57,6 -3.27,3.05 -8.23,7.4 -5.08,12.28 a 9.34,9.34 0 0 0 6.07,3.77 c 2.34,0.51 5.25,1.12 7.06,-0.85 a 25.21,25.21 0 0 0 2.27,-3.25 l 2.7,-4 5.11,-7.67 c 1.53,-2.29 3,-4.65 1.86,-7.44 a 5.61,5.61 0 0 0 -5.82,-3.68 1.24,1.24 0 0 0 0,2.37 c 1.61,0.31 3.11,1.07 3.49,2.81 0.43,2 -1.4,3.88 -2.4,5.38 l -8,11.91 c -0.52,0.77 -1.07,2 -2,2.22 a 8.76,8.76 0 0 1 -3.13,-0.3 c -1.88,-0.36 -3.9,-1 -5,-2.75 -2.29,-3.63 3.15,-7.46 5.38,-9.57 3.51,-3.32 6.83,-7.38 11.13,-9.72 0.87,-0.48 0.26,-2 -0.7,-1.65 z" />
      <path
         id="svg_135"
         d="m 574.24,454.31 a 82,82 0 0 0 8.34,-9.82 c 1.34,-2 2.56,-4.11 4.5,-5.49 1.94,-1.38 4.9,-1.7 6.55,0 1.65,1.7 1.31,4.18 0.25,6.07 -1.06,1.89 -2.8,3.28 -4.33,4.82 a 28,28 0 0 0 -5.09,7 c -0.32,0.63 -0.81,1.38 -1.51,1.27 a 1.79,1.79 0 0 1 -0.89,-0.61 11.5,11.5 0 0 0 -5.17,-2.95" />
      <path
         id="svg_136"
         d="m 574.86,454.93 a 64.26,64.26 0 0 0 7.95,-8.86 c 1.86,-2.54 3.58,-6.41 7,-7 a 3,3 0 0 1 3.45,1.6 4.8,4.8 0 0 1 -0.74,4.19 24.3,24.3 0 0 1 -3.68,3.91 29.74,29.74 0 0 0 -3.66,4.33 27.65,27.65 0 0 0 -1.66,2.71 7.55,7.55 0 0 0 -0.65,1.08 c 0.12,-0.42 0.37,0.23 0.09,-0.24 a 3.27,3.27 0 0 0 -0.7,-0.64 10.28,10.28 0 0 0 -5.41,-2.6 1.23,1.23 0 0 0 -0.61,2.28 c 1,0.45 2,0.76 2.86,1.3 a 18.36,18.36 0 0 1 2.39,1.91 2.34,2.34 0 0 0 2.79,0.24 5.94,5.94 0 0 0 1.75,-2.45 27.07,27.07 0 0 1 3.91,-5.42 43.44,43.44 0 0 0 4.44,-4.76 c 2,-2.89 2.3,-7.74 -1.46,-9.38 -3.76,-1.64 -7.48,1.19 -9.61,4.19 -1.45,2 -2.77,4.15 -4.34,6.11 -1.72,2.15 -3.63,4.13 -5.39,6.25 a 0.88,0.88 0 0 0 1.24,1.24 z" />
      <path
         id="svg_137"
         d="m 584.75,439.63 c -4.51,0.08 -0.93,-6.84 -4.2,-8.13 -1.4,-0.56 -2.7,0.23 -4,0.7 a 5.55,5.55 0 0 1 -3.73,0 c -3.74,-1.41 -1,-6 0.35,-8.31 1.78,-3.09 4.29,-6.76 7.88,-7.89 a 5.58,5.58 0 0 1 5.34,0.76 3.55,3.55 0 0 1 0.8,4.41 1.38,1.38 0 0 0 1.87,1.87 c 2,-1.32 4.45,-0.61 6.4,0.49 2.13,1.21 4,2.75 6.25,3.8 1.87,0.89 3.92,1.71 4.65,3.82 a 5.17,5.17 0 0 1 -1.14,5.33 1.4,1.4 0 0 0 1,2.36 6,6 0 0 1 5.29,9.82 c -0.5,0.59 -1.37,1.33 -2.22,1.1 -0.64,-0.17 -1.06,-0.87 -1.4,-1.39 -1.61,-2.5 -3.49,-4.39 -6.46,-5.17 a 10.1,10.1 0 0 0 -8.3,1.34 c -1.53,1.06 -0.06,3.58 1.46,2.5 a 7.49,7.49 0 0 1 9,0.3 c 1.37,1.15 1.93,2.93 3.24,4.12 a 4.21,4.21 0 0 0 5,0.45 c 3.31,-1.88 4.53,-6.56 3.3,-10 a 8.92,8.92 0 0 0 -9,-5.81 l 1,2.35 a 8,8 0 0 0 2.09,-7.06 c -0.52,-2.87 -2.57,-4.69 -5.08,-5.9 a 36.68,36.68 0 0 1 -4,-2.12 36,36 0 0 0 -4.31,-2.68 c -2.59,-1.23 -5.72,-1.64 -8.23,0 l 1.87,1.88 c 2.21,-3.63 -0.21,-8.21 -4.09,-9.32 -4.59,-1.31 -8.9,1.55 -11.68,5 a 32.74,32.74 0 0 0 -4,6.3 c -1,2.06 -2.06,4.44 -1.35,6.75 1.08,3.53 5.52,4.64 8.71,3.56 0.45,-0.16 0.87,-0.37 1.31,-0.56 a 4.44,4.44 0 0 1 0.64,-0.24 c 0.62,-0.18 0.31,-0.14 0.47,0.13 a 8.59,8.59 0 0 1 0.14,2.17 8.92,8.92 0 0 0 0.36,1.78 c 0.7,2 2.64,3.93 4.93,3.14 a 0.82,0.82 0 0 0 -0.22,-1.61 z" />
      <path
         id="svg_138"
         d="m 801.55,608.94 3.71,16.39 c 0.3,1.37 0.72,2.89 1.93,3.6 a 4.32,4.32 0 0 0 2.62,0.37 c 11.1,-1.08 24.77,-5.25 29,-17 5.27,-14.55 -1.48,-34.3 -3.4,-49 -0.6,-4.54 -2.86,-11.87 -8.43,-12.12 3.11,0 7.57,-3.18 10.53,-0.9 a 7,7 0 0 1 1.89,2.94 244.71,244.71 0 0 1 8.6,23.51 7.75,7.75 0 0 0 8.71,5.31 l 2.49,-0.39 a 7.78,7.78 0 0 0 6.48,-9.34 c -2.24,-10.55 -6.93,-21.32 -14.22,-25.49 4.23,-1.46 9,0.68 12,4 3,3.32 4.47,7.71 5.91,11.94 q 6.55,19.22 13.09,38.43 c 1.18,3.46 2.46,7.07 5.14,9.55 2.13,2 5,3.09 6.73,5.45 1.33,1.85 1.71,4.2 2,6.46 q 2.22,15 4,30 c 0.49,4.23 0.94,8.56 0,12.71 -1.17,5 -4.3,9.25 -7.88,12.88 -15.28,15.44 -38.34,20.12 -60,21 -4.16,0.17 -8.55,0.16 -12.16,-1.9 -5.23,-3 -7.33,-9.32 -8.84,-15.15 a 297.69,297.69 0 0 1 -7.55,-40.84 c -0.55,-4.85 -1.83,-10.29 1.44,-13.91" />
      <path
         id="svg_139"
         d="m 800.61,609.2 c 1.09,5.68 2.16,11.38 3.49,17 0.49,2 1.56,4 3.79,4.43 a 17.72,17.72 0 0 0 5.89,-0.38 c 7.51,-1.16 15.31,-3.72 20.92,-9.07 6.28,-6 7.77,-14.85 7.55,-23.19 -0.25,-9.64 -2.58,-19.07 -4.34,-28.51 -1.26,-6.74 -1.65,-19.12 -10.9,-19.74 v 2.87 c 2.82,-0.08 5.51,-2 8.31,-1.72 1.66,0.18 2.3,1.66 2.89,3 0.8,1.88 1.57,3.78 2.31,5.68 q 2.25,5.71 4.22,11.54 c 1.08,3.2 1.66,7.11 4.09,9.61 a 9.22,9.22 0 0 0 7.72,2.68 c 3.08,-0.38 6.11,-0.88 8.28,-3.31 a 9.4,9.4 0 0 0 2.2,-8 58.31,58.31 0 0 0 -2.83,-9.85 c -2.41,-6.37 -6,-13.06 -12.05,-16.61 l -0.32,2.46 c 4.25,-1.36 8.59,1 11.21,4.33 3.07,3.89 4.41,8.92 6,13.52 l 10.77,31.63 c 1.47,4.31 2.65,9.09 5.54,12.7 2.75,3.45 7.72,4.62 9,9.17 a 53,53 0 0 1 1.24,7.53 c 0.39,2.79 0.76,5.58 1.13,8.37 q 1.13,8.31 2.09,16.63 c 0.6,5.22 1.25,10.59 -0.69,15.62 -1.66,4.31 -4.8,7.92 -8.12,11 a 62.9,62.9 0 0 1 -22.43,13.19 109.22,109.22 0 0 1 -26,5.4 102.13,102.13 0 0 1 -13.42,0.65 c -4.56,-0.17 -8.63,-1.67 -11.25,-5.56 -2.39,-3.55 -3.46,-7.77 -4.5,-11.86 q -2,-8 -3.58,-16 -1.58,-8 -2.67,-16 c -0.36,-2.65 -0.66,-5.32 -1,-8 a 47.46,47.46 0 0 1 -0.59,-6.29 8.38,8.38 0 0 1 1.74,-5.62 c 1.26,-1.46 -0.86,-3.61 -2.13,-2.13 -3.11,3.62 -2.71,8.28 -2.14,12.71 0.72,5.52 1.36,11.05 2.25,16.55 q 1.39,8.58 3.28,17.09 a 121.63,121.63 0 0 0 4,15.14 c 1.46,4 3.62,8 7.31,10.37 4.2,2.74 9.47,2.65 14.29,2.43 a 134.37,134.37 0 0 0 28.08,-3.92 74.5,74.5 0 0 0 25.18,-11.46 c 7.72,-5.65 15.14,-13.37 15.83,-23.4 0.39,-5.75 -0.75,-11.67 -1.46,-17.36 q -1.1,-8.82 -2.39,-17.61 c -0.73,-4.91 -0.9,-10.37 -5.1,-13.7 -1.79,-1.42 -3.88,-2.46 -5.44,-4.15 a 18.4,18.4 0 0 1 -3.39,-6.22 c -4,-10.9 -7.51,-22 -11.25,-33 -1.74,-5.09 -3.19,-10.44 -5.62,-15.25 -2.11,-4.17 -5.41,-7.82 -10,-9.19 a 11,11 0 0 0 -6.48,0 1.37,1.37 0 0 0 -0.32,2.47 c 4.92,2.88 8,8.19 10.14,13.31 a 63.53,63.53 0 0 1 3,9.16 c 0.68,2.76 1.06,5.43 -1,7.74 a 6.32,6.32 0 0 1 -3,1.92 16.94,16.94 0 0 1 -4.54,0.65 6.39,6.39 0 0 1 -5.92,-4.24 c -1.23,-3.55 -2.28,-7.15 -3.54,-10.69 -1.26,-3.54 -2.56,-6.93 -4,-10.34 -1.23,-3 -2.3,-6.87 -6,-7.4 -3.13,-0.44 -5.81,1.56 -8.85,1.64 a 1.44,1.44 0 0 0 0,2.87 c 3.08,0.21 4.85,3.26 5.79,5.87 1.15,3.18 1.39,6.58 2,9.89 1.47,8.46 3.56,16.83 4.31,25.39 0.67,7.63 0.56,16.48 -4.22,22.89 -4.14,5.55 -11,8.43 -17.53,10 -1.89,0.44 -3.8,0.76 -5.73,1 a 12.2,12.2 0 0 1 -3,0.28 c -1.25,-0.13 -1.64,-1.2 -1.94,-2.27 -1.59,-5.6 -2.73,-11.35 -4.2,-17 -0.33,-1.23 -2.12,-0.7 -1.89,0.52 z" />
      <path
         id="svg_140"
         d="m 816.13,647.55 c -41,78.78 -77.73,179 -86.07,264.11 -1.71,17.5 -6.09,14.8 -17.32,28.32 a 218.91,218.91 0 0 0 37.8,3.47 c 2.74,0 5.61,-0.05 8,-1.38 4.87,-2.71 5.75,-9.19 6.46,-14.72 5.42,-42.22 32.68,-78.21 45.84,-118.7 3.42,-10.52 5.9,-21.39 10.46,-31.47 6.77,-15 17.52,-27.56 27.81,-40.21 10.29,-12.65 20.61,-25.42 30.91,-38.14 8.06,-10 18.5,-20.08 20.28,-33.38" />
      <path
         id="svg_141"
         d="m 815.2,647 q -15.11,28.34 -28,57.8 c -8.93,20.38 -17.19,41.06 -24.58,62.05 -7.39,20.99 -13.91,42 -19.42,63.41 a 573,573 0 0 0 -12.61,62.37 q -1,7.4 -1.8,14.83 c -0.45,4.34 -0.67,8.75 -1.93,12.95 -1.74,5.74 -6.58,9.17 -10.59,13.31 -1.61,1.66 -3.14,3.39 -4.6,5.17 -0.65,0.79 -0.57,2.35 0.68,2.56 a 216.07,216.07 0 0 0 39.42,3.3 c 5.09,-0.08 9.59,-1.72 11.92,-6.52 2.18,-4.5 2.3,-9.66 3.08,-14.51 3.7,-22.83 13.6,-44 23.58,-64.61 5.07,-10.49 10.22,-21 14.75,-31.68 2.24,-5.29 4.33,-10.64 6.18,-16.07 2.05,-6 3.73,-12.19 5.6,-18.28 a 120,120 0 0 1 6.79,-17.86 117.15,117.15 0 0 1 9.26,-15.39 c 7.12,-10.13 15.27,-19.53 23.09,-29.12 8.51,-10.44 17,-20.94 25.48,-31.36 6.71,-8.18 14.37,-16 18.33,-26 a 33.1,33.1 0 0 0 2,-7.53 c 0.28,-2 -2.77,-2.85 -3.06,-0.84 -1.51,10.67 -8.4,19.16 -15.14,27.15 -8.15,9.68 -16,19.65 -23.92,29.49 -7.81,9.67 -15.81,19.2 -23.39,29 -7.24,9.41 -13.77,19.35 -18.09,30.45 -4.48,11.5 -7.1,23.63 -11.41,35.2 -4,10.75 -8.84,21.17 -13.81,31.5 -9.77,20.34 -20.25,40.63 -26,62.58 a 138.9,138.9 0 0 0 -3.23,16.42 c -0.59,4.33 -1,9.71 -4.34,12.92 -2,1.94 -4.8,2.31 -7.48,2.35 -3.17,0.06 -6.35,-0.06 -9.51,-0.2 -6.59,-0.3 -13.16,-0.88 -19.69,-1.82 -3.23,-0.46 -6.45,-1 -9.65,-1.6 l 0.68,2.56 a 104.43,104.43 0 0 1 8.45,-8.77 33.7,33.7 0 0 0 5.51,-6.06 24.19,24.19 0 0 0 3.2,-8.92 c 0.89,-4.87 1.2,-9.85 1.81,-14.76 a 553.66,553.66 0 0 1 11.46,-61.94 c 5.21,-21.57 11.5,-42.89 18.59,-63.91 7.09,-21.02 15,-42.05 23.69,-62.63 q 12.56,-29.94 27,-59 c 1.15,-2.32 2.32,-4.65 3.5,-7 0.62,-1.23 -1.21,-2.32 -1.86,-1.09 z" />
      <path
         id="svg_142"
         d="m 801.6,480.65 a 5.82,5.82 0 0 0 -1.69,7.35 6.11,6.11 0 0 0 7.05,2.79 1.18,1.18 0 0 0 0,-2.26 5.51,5.51 0 0 0 -7.1,3.75 5.45,5.45 0 0 0 5.34,6.51 1.24,1.24 0 0 0 0,-2.47 2.89,2.89 0 1 1 1.14,-5.53 v -2.26 a 3.91,3.91 0 0 1 -4.51,-1.53 4.23,4.23 0 0 1 0.75,-5.08 c 0.63,-0.62 -0.23,-1.83 -1,-1.27 z" />
      <path
         id="svg_144"
         d="m 840.18,672.83 c 6.07,0.69 12.14,1.27 18.21,1.85 1.36,0.13 1.36,-2 0,-2.12 -6.07,-0.5 -12.13,-1 -18.21,-1.38 -1.08,-0.07 -1,1.54 0,1.65 z" />
      <path
         id="svg_145"
         d="m 884.83,675.34 a 42,42 0 0 0 7,0.21 29.36,29.36 0 0 0 6.92,-1 1.0007247,1.0007247 0 0 0 -0.53,-1.93 c -2.22,0.37 -4.4,0.86 -6.65,1 a 43.33,43.33 0 0 1 -6.74,0 c -1.1,-0.09 -1.07,1.58 0,1.7 z" />
      <path
         id="svg_146"
         d="m 868.37,713.5 c -2.92,5.2 -7.33,9.28 -11.52,13.45 a 76.21,76.21 0 0 0 -11.71,14.7 1.1560277,1.1560277 0 0 0 2,1.16 85.3,85.3 0 0 1 11.8,-15 c 4,-4.16 8.18,-8.29 10.85,-13.52 0.48,-0.93 -0.89,-1.75 -1.41,-0.82 z" />
      <path
         id="svg_147"
         d="m 734.34,880.94 a 214.35,214.35 0 0 0 40.9,5.34 c 1.42,0.06 1.42,-2.14 0,-2.2 a 302.22,302.22 0 0 1 -40.46,-4.71 c -1,-0.18 -1.47,1.33 -0.44,1.57 z" />
      <path
         id="svg_148"
         d="m 916.26,887.93 c 5.13,-3.65 10.34,-7.17 15.77,-10.37 5.16,-3 10.71,-6.6 16.86,-6.87 1.54,-0.07 1.55,-2.48 0,-2.4 -6.4,0.32 -12,3.73 -17.38,7 a 157.28,157.28 0 0 0 -16.24,11.34 c -0.71,0.58 0.23,1.82 1,1.29 z" />
      <path
         id="svg_149"
         d="m 940.17,937.28 c 1.63,-3 5.63,-3.61 8,-5.8 2.37,-2.19 3.8,-5.22 5.37,-8 a 17.45,17.45 0 0 1 7.18,-7.36 c 3.28,-1.75 7,-2.76 10.12,-4.86 a 1,1 0 0 0 -1,-1.65 c -3.44,1.79 -7.14,3 -10.52,4.95 a 18.57,18.57 0 0 0 -7.15,7.32 c -1.67,2.94 -3,6.29 -5.59,8.57 -2.59,2.28 -6.24,2.87 -7.9,6 -0.49,0.93 0.9,1.75 1.41,0.82 z" />
      <path
         id="svg_150"
         d="m 838.5,534 a 28.13,28.13 0 0 0 2.42,5.87 1,1 0 1 0 1.64,-1 35.46,35.46 0 0 1 -2.5,-5.34 0.81,0.81 0 0 0 -1.56,0.43 z" />
      <path
         id="svg_151"
         d="m 880.63,564.16 a 240.49,240.49 0 0 1 12.46,47.89 c 0.72,4.67 1.14,9.37 1.79,14.05 0.17,1.25 2.28,1 2.21,-0.3 A 172.48,172.48 0 0 0 893.33,601.25 237.59,237.59 0 0 0 887,577.07 q -2.16,-6.75 -4.72,-13.36 c -0.38,-1 -2,-0.56 -1.6,0.45 z" />
      <path
         id="svg_152"
         d="m 851.11,545.62 c 6.9,-1.53 13.74,-3.34 20.59,-5.08 6.14,-1.55 12.92,-4 18.56,0.13 4.62,3.42 7.28,9.27 9.13,14.53 a 55.69,55.69 0 0 1 2.38,9.26 36.34,36.34 0 0 1 0.63,9.76 7.29,7.29 0 0 1 -5.07,6.21 c -2.67,1 -5.39,0.94 -8.14,1.39 l 1,0.13 0.23,0.44 -0.37,0.89 0.14,-0.16 a 1.25,1.25 0 0 0 -1.77,-1.76 1.77,1.77 0 0 0 0.6,2.92 4.46,4.46 0 0 0 1.89,0 c 0.75,-0.06 1.5,-0.15 2.24,-0.25 a 17.21,17.21 0 0 0 8,-2.78 9.83,9.83 0 0 0 3.81,-7.9 48,48 0 0 0 -1.13,-11.35 c -1.4,-6.82 -4,-13.94 -8.32,-19.46 a 17.87,17.87 0 0 0 -7,-5.59 c -3.48,-1.44 -7.22,-1.12 -10.81,-0.3 -4.45,1 -8.84,2.34 -13.24,3.53 -4.61,1.24 -9.21,2.47 -13.77,3.85 a 0.82,0.82 0 0 0 0.43,1.58 z" />
      <path
         id="svg_153"
         d="m 829.88,447.44 c 11.42,-1.77 24.5,-3.86 35,2.25 5.48,3.18 9.49,8.25 13.57,13 q 6.79,7.9 13.61,15.77 c 15.16,17.56 32,36.91 35,60.82 a 30.69,30.69 0 0 1 0,10.21 14.85,14.85 0 0 1 -5,8.28 49.73,49.73 0 0 1 -8.28,5.37 c -3.37,1.91 -6.81,3.68 -10.27,5.41 -1.53,0.77 -0.19,3 1.34,2.29 3.29,-1.55 6.5,-3.24 9.67,-5 a 67.41,67.41 0 0 0 7.94,-4.93 19.13,19.13 0 0 0 5.9,-6.77 21.13,21.13 0 0 0 1.85,-8.93 c 0.11,-12.21 -4.65,-24.37 -10.64,-34.8 -6.23,-10.86 -14.23,-20.6 -22.35,-30.08 q -7,-8.12 -14,-16.18 c -4.35,-5 -8.54,-10.44 -13.87,-14.48 -11.57,-8.76 -26.73,-6.51 -40,-3.88 -1.12,0.22 -0.63,1.86 0.47,1.69 z" />
      <path
         id="svg_154"
         d="m 837.1,454.33 c 1.07,-0.27 2.14,-0.53 3.21,-0.82 a 1.0007247,1.0007247 0 0 0 -0.53,-1.93 c -1.07,0.29 -2.12,0.62 -3.18,0.93 a 0.94371606,0.94371606 0 0 0 0.5,1.82 z" />
      <path
         id="svg_155"
         d="m 848.75,451.6 c -2.67,0.37 -4.8,1.9 -6.82,3.59 -2.02,1.69 -4.16,3.59 -4.4,6.23 a 4.37,4.37 0 0 0 3.9,4.63 c 2.74,0.43 5,-1.23 7,-2.83 l -2.1,-0.56 c 0.9,2.63 1.76,5.35 3.72,7.41 a 14,14 0 0 0 6.33,3.42 c 2.34,0.7 4.84,1.13 7,2.32 2.54,1.4 3.81,3.9 5,6.45 a 336,336 0 0 0 16.38,32.5 128,128 0 0 0 11.24,16.5 c 0.75,0.9 2.33,-0.3 1.63,-1.26 a 221,221 0 0 1 -18.27,-30.66 c -2.69,-5.34 -5.22,-10.75 -7.68,-16.19 a 30.44,30.44 0 0 0 -3.84,-7.1 13.14,13.14 0 0 0 -6.28,-3.86 c -2.54,-0.82 -5.29,-1.21 -7.65,-2.51 -2.91,-1.61 -4.15,-4.66 -5.12,-7.68 a 1.26,1.26 0 0 0 -1.84,-0.75 c -1.39,1.05 -3.1,2.48 -5,2.25 -1.9,-0.23 -2.22,-1.85 -1.33,-3.32 a 18.88,18.88 0 0 1 3.62,-3.85 14.11,14.11 0 0 1 5,-3.08 0.86,0.86 0 0 0 -0.45,-1.65 z" />
      <path
         id="svg_156"
         d="m 903.25,528.33 c -3.37,1.28 -6.75,2.54 -10.11,3.85 l -5,1.94 c -1.66,0.63 -3.42,1.15 -5,1.94 -1.32,0.65 -0.4,2.76 1,2.35 a 49.41,49.41 0 0 0 5,-2 q 2.48,-1 4.93,-2.07 c 3.32,-1.41 6.59,-2.91 9.86,-4.44 0.85,-0.4 0.24,-1.87 -0.65,-1.54 z" />
      <path
         id="svg_158"
         d="m 118.89,302.34 c 21.82,0.32 43.64,0.28 65.47,0.36 q 9.24,0 18.49,0 a 1.18,1.18 0 0 0 0,-2.35 c -21.82,-0.13 -43.65,0.08 -65.47,0.15 -6.17,0 -12.33,0.11 -18.49,0.2 a 0.83,0.83 0 0 0 0,1.66 z" />
      <path
         id="svg_159"
         d="m 118.89,317.77 c 21.82,0.32 43.64,0.29 65.47,0.36 q 9.24,0 18.49,0 a 1.18,1.18 0 0 0 0,-2.35 c -21.82,-0.13 -43.65,0.07 -65.47,0.15 -6.17,0 -12.33,0.1 -18.49,0.19 a 0.83,0.83 0 0 0 0,1.66 z" />
      <path
         id="svg_160"
         d="m 118.89,333.21 c 21.82,0.32 43.64,0.28 65.47,0.36 q 9.24,0 18.49,0 a 1.18,1.18 0 0 0 0,-2.35 c -21.82,-0.13 -43.65,0.08 -65.47,0.15 -6.17,0 -12.33,0.11 -18.49,0.2 a 0.83,0.83 0 0 0 0,1.66 z" />
      <path
         id="svg_161"
         d="m 118.89,348.64 c 21.82,0.32 43.64,0.29 65.47,0.36 q 9.24,0 18.49,0 a 1.18,1.18 0 0 0 0,-2.35 c -21.82,-0.13 -43.65,0.07 -65.47,0.15 -6.17,0 -12.33,0.1 -18.49,0.19 a 0.83,0.83 0 0 0 0,1.66 z" />
      <path
         id="svg_162"
         d="m 118.89,396.46 c 21.82,0.32 43.64,0.28 65.47,0.36 q 9.24,0 18.49,0 a 1.18,1.18 0 0 0 0,-2.35 c -21.82,-0.13 -43.65,0.07 -65.47,0.14 -6.17,0 -12.33,0.11 -18.49,0.2 a 0.83,0.83 0 0 0 0,1.66 z" />
      <path
         id="svg_163"
         d="m 118.89,411.89 c 21.82,0.33 43.64,0.29 65.47,0.36 q 9.24,0 18.49,0 a 1.18,1.18 0 0 0 0,-2.35 c -21.82,-0.13 -43.65,0.07 -65.47,0.15 -6.17,0 -12.33,0.11 -18.49,0.2 a 0.83,0.83 0 0 0 0,1.65 z" />
      <path
         id="svg_164"
         d="m 118.89,427.33 c 21.82,0.32 43.64,0.28 65.47,0.36 q 9.24,0 18.49,0 a 1.18,1.18 0 0 0 0,-2.36 c -21.82,-0.12 -43.65,0.08 -65.47,0.15 -6.17,0 -12.33,0.11 -18.49,0.2 a 0.83,0.83 0 0 0 0,1.66 z" />
      <path
         id="svg_165"
         d="m 118.89,442.76 c 21.82,0.33 43.64,0.29 65.47,0.36 q 9.24,0 18.49,0 a 1.18,1.18 0 0 0 0,-2.35 c -21.82,-0.13 -43.65,0.07 -65.47,0.15 -6.17,0 -12.33,0.11 -18.49,0.2 a 0.83,0.83 0 0 0 0,1.65 z" />
      <path
         fill="#f58220"
         stroke="#f58220"
         id="svg_166"
         d="m 242.72,303.87 c -3.44,1 -6.89,2 -10.32,3 l -4.92,1.48 c -0.82,0.25 -1.65,0.57 -2.49,0.75 -0.84,0.18 -1.23,0 -1.54,-0.9 -2.34,-6.66 -4.43,-13.42 -6.65,-20.13 l -0.59,1.45 c 13.6,-5.93 27.77,-10.41 42,-14.7 q 22,-6.66 44,-13.22 l 24.79,-7.42 -1.45,-0.59 a 45.93,45.93 0 0 1 5.12,15.13 c 0.1,0.69 0.19,1.38 0.25,2.08 a 3.79,3.79 0 0 1 0,1.74 c -0.41,0.84 -2.79,1.19 -3.57,1.44 l -8.52,2.79 -34.11,11.14 -19.42,6.34 c -1.54,0.5 -0.88,2.94 0.67,2.43 l 37.03,-12.05 18.24,-5.94 c 3.08,-1 6.18,-2 9.24,-3 a 4.74,4.74 0 0 0 2.53,-1.55 5,5 0 0 0 0.49,-3.54 48.46,48.46 0 0 0 -5.69,-18.28 1.3,1.3 0 0 0 -1.45,-0.59 l -44.8,13.45 c -14.4,4.32 -28.88,8.46 -43.13,13.25 -7.93,2.67 -15.78,5.59 -23.46,8.93 a 1.29,1.29 0 0 0 -0.58,1.44 l 3.85,11.61 c 0.62,1.86 1.23,3.72 1.85,5.57 0.49,1.49 0.85,3.44 1.9,4.66 1.05,1.22 2.6,1.16 4.07,0.71 1.87,-0.56 3.73,-1.21 5.59,-1.81 3.88,-1.26 7.75,-2.56 11.62,-3.86 1.12,-0.38 0.66,-2.13 -0.5,-1.79 z" />
      <path
         id="svg_168"
         d="m 223.85,289.06 c 0.25,1 0.5,2 0.73,3 a 0.94,0.94 0 1 0 1.81,-0.5 c -0.34,-1 -0.66,-1.94 -1,-2.92 a 0.81,0.81 0 0 0 -1,-0.56 0.82,0.82 0 0 0 -0.56,1 z" />
      <path
         id="svg_169"
         d="m 231.57,285.78 c 0,0.11 -0.1,0.21 -0.13,0.32 a 1.86,1.86 0 0 0 0,0.34 v 0.31 l -0.06,0.61 a 0.73,0.73 0 0 0 0.08,0.36 0.67,0.67 0 0 0 0.19,0.3 0.7,0.7 0 0 0 0.3,0.19 0.64,0.64 0 0 0 0.36,0.08 0.92,0.92 0 0 0 0.93,-0.93 v -0.6 -0.43 A 1,1 0 0 0 233,286 a 1.1,1.1 0 0 0 -0.2,-0.35 l -0.17,-0.13 a 0.53,0.53 0 0 0 -0.3,-0.09 0.37,0.37 0 0 0 -0.21,0 0.46,0.46 0 0 0 -0.2,0.05 0.42,0.42 0 0 0 -0.18,0.11 0.56,0.56 0 0 0 -0.21,0.22 z" />
      <path
         id="svg_170"
         d="m 239.76,282.72 a 12.81,12.81 0 0 0 -0.21,2.31 v 1 a 4.51,4.51 0 0 0 0.21,1.28 0.94,0.94 0 0 0 1,0.67 1,1 0 0 0 0.81,-0.91 1.53,1.53 0 0 0 0,-0.37 1.49,1.49 0 0 0 0,-0.21 c 0,0.13 0,0.13 0,0 0,-0.13 0,-0.32 0,-0.48 0,-0.34 -0.06,-0.69 -0.07,-1 0,-0.7 -0.07,-1.38 0,-2.08 a 0.87,0.87 0 0 0 -0.74,-0.84 0.85,0.85 0 0 0 -0.94,0.61 z" />
      <path
         id="svg_171"
         d="m 248.62,280.22 0.21,1.2 a 0.73,0.73 0 0 0 0.16,0.3 0.62,0.62 0 0 0 0.25,0.23 0.76,0.76 0 0 0 0.33,0.11 0.69,0.69 0 0 0 0.35,0 0.89,0.89 0 0 0 0.54,-0.41 0.93,0.93 0 0 0 0.09,-0.69 l -0.38,-1.15 a 0.89,0.89 0 0 0 -0.37,-0.48 0.63,0.63 0 0 0 -0.3,-0.1 0.58,0.58 0 0 0 -0.32,0 0.78,0.78 0 0 0 -0.48,0.37 l -0.08,0.19 a 0.79,0.79 0 0 0 0,0.43 z" />
      <path
         id="svg_172"
         d="m 257.87,277.34 v 0.75 c 0,0.25 0,0.49 0.05,0.73 l 0.14,1.49 a 1,1 0 0 0 0.28,0.68 1,1 0 0 0 0.69,0.28 1,1 0 0 0 0.68,-0.28 0.91,0.91 0 0 0 0.28,-0.68 l -0.19,-1.52 a 7.62,7.62 0 0 0 -0.14,-0.94 l -0.19,-0.73 a 0.78,0.78 0 0 0 -0.88,-0.57 0.79,0.79 0 0 0 -0.69,0.79 z" />
      <path
         id="svg_173"
         d="m 265,275.58 -0.11,0.89 a 1,1 0 0 0 0.28,0.68 0.79,0.79 0 0 0 0.31,0.2 0.67,0.67 0 0 0 0.37,0.08 h 0.26 a 1,1 0 0 0 0.42,-0.25 l 0.15,-0.2 a 1,1 0 0 0 0.14,-0.48 l -0.12,-0.89 a 0.66,0.66 0 0 0 -0.07,-0.33 0.59,0.59 0 0 0 -0.18,-0.27 0.64,0.64 0 0 0 -0.27,-0.18 0.72,0.72 0 0 0 -0.33,-0.07 h -0.23 a 0.78,0.78 0 0 0 -0.37,0.22 l -0.14,0.17 a 1,1 0 0 0 -0.11,0.43 z" />
      <path
         id="svg_174"
         d="m 273.61,272.12 a 6.44,6.44 0 0 0 -0.11,1.64 5.66,5.66 0 0 0 0.13,0.92 c 0,0.11 0.05,0.23 0.08,0.35 a 1.58,1.58 0 0 0 0.14,0.36 1.15,1.15 0 0 0 0.4,0.39 0.92,0.92 0 0 0 1.33,-0.54 1.19,1.19 0 0 0 0,-0.72 c 0,-0.11 -0.08,-0.23 -0.11,-0.34 a 5.47,5.47 0 0 1 -0.14,-0.68 v 0.24 a 5.88,5.88 0 0 1 0,-1.39 0.84,0.84 0 0 0 -0.25,-0.62 0.9,0.9 0 0 0 -0.5,-0.24 0.87,0.87 0 0 0 -0.95,0.63 z" />
      <path
         id="svg_175"
         d="m 282.6,269.89 h -0.23 -0.22 a 1.1,1.1 0 0 0 -0.23,0.09 l -0.18,0.14 a 1.33,1.33 0 0 0 -0.14,0.19 1.22,1.22 0 0 0 -0.1,0.24 1.65,1.65 0 0 0 0,0.31 1.17,1.17 0 0 0 0,0.32 1,1 0 0 0 0.1,0.24 l 0.08,0.1 0.08,0.1 a 0.58,0.58 0 0 0 0.12,0.1 0.6,0.6 0 0 0 0.13,0.09 l 0.11,0.05 h 0.12 a 1.45,1.45 0 0 0 0.29,0 0.62,0.62 0 0 0 0.35,-0.08 0.68,0.68 0 0 0 0.29,-0.18 0.64,0.64 0 0 0 0.18,-0.29 0.62,0.62 0 0 0 0.08,-0.35 v -0.24 a 0.84,0.84 0 0 0 -0.23,-0.4 l -0.19,-0.14 a 0.9,0.9 0 0 0 -0.45,-0.13 h 0.24 -0.05 l 0.21,0.09 0.18,0.14 0.14,0.18 -0.17,-0.22 0.14,0.19 v -0.07 l 0.09,0.21 v -0.1 0.23 a 0.31,0.31 0 0 1 0,-0.1 v 0.23 -0.08 l -0.08,0.2 v -0.05 l -0.13,0.17 -0.16,0.13 c 0,0 0,0 0,0 l -0.2,0.08 h 0.05 l 0.19,-0.08 a 0.58,0.58 0 0 0 0.23,-0.21 0.4,0.4 0 0 0 0.1,-0.18 0.55,0.55 0 0 0 0.07,-0.31 v -0.21 l -0.08,-0.19 a 0.58,0.58 0 0 0 -0.21,-0.23 0.5,0.5 0 0 0 -0.27,-0.14 z" />
      <path
         id="svg_176"
         d="m 288.35,267.11 a 7.32,7.32 0 0 0 -0.17,1.87 7.78,7.78 0 0 0 0.31,1.86 1,1 0 0 0 1.18,0.68 1,1 0 0 0 0.68,-1.19 7.66,7.66 0 0 1 -0.28,-1.24 v 0.25 a 9.56,9.56 0 0 1 -0.05,-2 0.86,0.86 0 0 0 -0.25,-0.61 0.88,0.88 0 0 0 -1.45,0.38 z" />
      <path
         id="svg_177"
         d="m 295.82,266.26 0.15,0.09 -0.17,-0.13 a 1.1,1.1 0 0 1 0.21,0.22 l -0.14,-0.18 a 0.93,0.93 0 0 1 0.11,0.19 l -0.08,-0.2 a 1.29,1.29 0 0 1 0.05,0.21 v -0.23 a 0.61,0.61 0 0 1 0,0.19 v -0.23 a 1,1 0 0 0 0,0.48 l 0.09,0.21 a 1,1 0 0 0 0.32,0.32 0.64,0.64 0 0 0 0.33,0.1 0.63,0.63 0 0 0 0.36,0 0.73,0.73 0 0 0 0.3,-0.16 0.69,0.69 0 0 0 0.23,-0.25 0.89,0.89 0 0 0 0.12,-0.45 0.75,0.75 0 0 0 0,-0.15 1.59,1.59 0 0 0 -0.06,-0.37 2,2 0 0 0 -0.13,-0.34 0.57,0.57 0 0 0 -0.08,-0.13 1.62,1.62 0 0 0 -0.5,-0.51 1.92,1.92 0 0 0 -0.33,-0.14 h -0.15 a 1,1 0 0 0 -0.63,0.08 l -0.16,0.13 a 0.62,0.62 0 0 0 -0.17,0.26 0.42,0.42 0 0 0 -0.06,0.21 0.62,0.62 0 0 0 0,0.33 l 0.08,0.19 a 0.81,0.81 0 0 0 0.29,0.29 z" />
      <path
         id="svg_178"
         d="m 303.23,263.1 v 0.34 c 0,0 0,-0.17 0,0 a 1.1,1.1 0 0 1 0,0.18 v 0.68 a 8.87,8.87 0 0 1 -0.08,1.36 v -0.25 a 3.56,3.56 0 0 0 -0.05,0.47 v 0.27 a 0.91,0.91 0 0 0 1.79,0.25 4.81,4.81 0 0 0 0.09,-1.89 9.54,9.54 0 0 0 -0.35,-1.83 0.82,0.82 0 0 0 -1,-0.57 0.84,0.84 0 0 0 -0.56,1 z" />
      <path
         id="svg_179"
         d="m 309.85,261.15 -0.08,1.18 a 0.65,0.65 0 0 0 0.07,0.34 0.73,0.73 0 0 0 0.19,0.3 0.68,0.68 0 0 0 0.29,0.18 0.69,0.69 0 0 0 0.35,0.08 1,1 0 0 0 0.64,-0.26 0.92,0.92 0 0 0 0.26,-0.64 l -0.08,-1.18 a 0.61,0.61 0 0 0 -0.08,-0.32 0.54,0.54 0 0 0 -0.16,-0.26 0.86,0.86 0 0 0 -0.58,-0.24 0.84,0.84 0 0 0 -0.58,0.24 l -0.13,0.17 a 0.81,0.81 0 0 0 -0.11,0.41 z" />
      <path
         id="svg_180"
         d="m 317.74,259.58 a 0.79,0.79 0 0 0 0,-1.58 0.79,0.79 0 0 0 0,1.58 z" />
      <path
         id="svg_181"
         d="m 316.84,258.79 -0.16,1.62 -0.08,0.8 a 4.53,4.53 0 0 0 -0.06,0.82 0.92,0.92 0 0 0 0.79,0.89 0.91,0.91 0 0 0 1,-0.65 5.58,5.58 0 0 0 0.12,-1 l 0.07,-0.83 0.13,-1.65 a 0.9,0.9 0 0 0 -0.9,-0.9 0.92,0.92 0 0 0 -0.9,0.9 z" />
      <path
         id="svg_182"
         d="m 323.39,257 0.25,0.89 a 0.73,0.73 0 0 0 0.17,0.31 0.56,0.56 0 0 0 0.25,0.23 0.65,0.65 0 0 0 0.33,0.11 0.63,0.63 0 0 0 0.36,0 l 0.22,-0.09 a 0.89,0.89 0 0 0 0.32,-0.32 l 0.1,-0.22 a 1,1 0 0 0 0,-0.48 l -0.33,-0.87 a 1,1 0 0 0 -0.4,-0.52 0.63,0.63 0 0 0 -0.32,-0.1 0.69,0.69 0 0 0 -0.35,0 l -0.21,0.09 a 0.92,0.92 0 0 0 -0.31,0.31 0.87,0.87 0 0 0 -0.08,0.67 z" />
      <path
         id="svg_183"
         d="M 708.13,371.92 H 487 c -3,0 -6,-0.14 -9,0 h -0.39 l 2.37,2.37 V 252.21 c 0,-1.64 0.14,-3.35 0,-5 V 247 l -2.37,2.37 h 221.1 c 3,0 6,0.14 9,0 h 0.39 L 705.76,247 v 111.62 c 0,5.14 -0.18,10.32 0,15.45 v 0.22 c 0,3.06 4.75,3.07 4.75,0 V 262.68 c 0,-5.14 0.17,-10.31 0,-15.45 a 1.61,1.61 0 0 1 0,-0.22 2.41,2.41 0 0 0 -2.38,-2.38 H 487 c -3,0 -6,-0.06 -9,0 h -0.39 a 2.41,2.41 0 0 0 -2.38,2.38 v 111.61 c 0,5.14 -0.17,10.32 0,15.45 a 1.61,1.61 0 0 1 0,0.22 2.41,2.41 0 0 0 2.38,2.38 h 221.1 c 3,0 6,0.06 9,0 h 0.39 c 3.09,0 3.09,-4.75 0.03,-4.75 z" />
      <path
         id="svg_184"
         fill="#ffffff"
         d="m 491.53,261.32 h 202.74 v 98.67 H 491.53 Z" />
      <path
         id="svg_186"
         d="m 529.87,302.34 c 0.86,6.06 1.93,12.12 2.6,18.2 l 1.07,-1.41 c -2.35,0.68 -4.65,1.71 -6.94,2.57 -1.67,0.64 -3.42,1.36 -3.91,3.27 a 5.25,5.25 0 0 0 0.38,3 2.07,2.07 0 0 1 -0.08,2.15 c -1.24,1.74 -3.72,1.32 -5.51,1 a 1.69,1.69 0 0 0 -2.06,2.06 c 0.8,2.91 -1.45,5.35 -3.5,7.09 -2.52,2.13 -5.2,4.07 -7.74,6.18 -2.54,2.11 -5.06,4.28 -7.55,6.47 -1.24,1.1 -2.49,2.19 -3.72,3.3 a 29.86,29.86 0 0 0 -3.75,3.62 c -0.85,1.08 0.23,3 1.6,2.08 a 39.43,39.43 0 0 0 4.24,-3.61 c 1.36,-1.21 2.72,-2.41 4.12,-3.58 q 4.28,-3.57 8.69,-7 c 4.72,-3.66 12.94,-8.21 10.83,-15.45 l -2,2.05 c 2.25,0.4 4.66,0.65 6.8,-0.34 a 5.62,5.62 0 0 0 3.35,-4.58 9.25,9.25 0 0 0 -0.68,-3.07 c -0.25,-0.9 0.63,-1.08 1.36,-1.4 2.39,-1.05 4.93,-1.9 7.24,-3.11 a 1.47,1.47 0 0 0 0.67,-1.65 c -1.42,-6 -2.46,-12.21 -3.69,-18.3 -0.24,-1.18 -1.93,-0.65 -1.77,0.49 z" />
      <path
         id="svg_187"
         d="m 563.76,326.18 c -1.67,-3.53 -3.77,-7.06 -5,-10.81 a 1.28,1.28 0 0 0 -1.2,-0.91 c -3.05,0.06 -4.91,2.6 -6.71,4.72 a 12.25,12.25 0 0 1 -1.46,1.51 l -0.3,0.24 c -0.48,0.21 -0.42,0.3 0.18,0.25 a 9.14,9.14 0 0 1 -0.89,-0.87 l -4.1,-4 a 1.52,1.52 0 0 0 -2.37,0.31 l -3.35,5.53 2.16,-0.57 a 10.11,10.11 0 0 0 -5.9,-1.43 c -2,0.14 -2,3.33 0,3.19 a 7.41,7.41 0 0 1 4.3,1 1.62,1.62 0 0 0 2.17,-0.57 l 3.23,-5.6 -2.37,0.31 4.5,4.29 c 1.41,1.33 2.59,1.7 4.21,0.47 2.54,-1.94 3.68,-5.52 7,-6.3 l -1.41,-0.58 c 2,3.54 3.52,7.29 5.78,10.7 a 0.84038682,0.84038682 0 0 0 1.45,-0.85 z" />
      <path
         id="svg_188"
         d="m 545.47,337.34 c 0.25,-1.14 0.51,-2.28 0.74,-3.43 0.19,-1 0.75,-2.4 0.19,-3.33 -0.56,-0.93 -1.84,-0.87 -2.82,-0.83 -1.21,0 -2.42,0.08 -3.63,0.15 l 1.3,1.3 a 35.5,35.5 0 0 0 -1.61,-8.48 1.35,1.35 0 0 0 -2.59,0 l -0.2,0.83 a 1.2919172,1.2919172 0 0 0 2.49,0.69 l 0.3,-0.8 h -2.59 a 58.7,58.7 0 0 1 1.6,7.76 1.32,1.32 0 0 0 1.3,1.3 c 0.9,-0.07 1.79,-0.17 2.69,-0.25 l 1.2,-0.12 c 0.23,0 0.45,-0.07 0.68,-0.08 h 0.18 q 0.39,0 0,0 l -0.29,-0.49 a 3.24,3.24 0 0 1 -0.1,1.19 c -0.06,0.49 -0.12,1 -0.17,1.47 -0.11,1 -0.18,2 -0.27,2.95 -0.09,0.95 1.4,1.11 1.6,0.22 z" />
      <path
         id="svg_189"
         d="m 536.29,338.92 v -0.29 a 0.92,0.92 0 0 0 -0.1,-0.44 0.82,0.82 0 0 0 -0.24,-0.37 0.77,0.77 0 0 0 -0.36,-0.23 0.84,0.84 0 0 0 -0.44,-0.1 h -0.3 a 1.13,1.13 0 0 0 -0.51,0.29 l -0.17,0.23 a 1.08,1.08 0 0 0 -0.16,0.58 v 0.29 a 1,1 0 0 0 0.1,0.44 1,1 0 0 0 0.23,0.37 0.85,0.85 0 0 0 0.37,0.23 0.84,0.84 0 0 0 0.44,0.1 h 0.3 a 1.2,1.2 0 0 0 0.5,-0.29 l 0.18,-0.23 a 1.18,1.18 0 0 0 0.16,-0.58 z" />
      <path
         id="svg_190"
         d="m 553.27,334.51 -0.3,-0.88 a 0.78,0.78 0 0 0 -0.18,-0.35 0.73,0.73 0 0 0 -0.29,-0.26 1.11,1.11 0 0 0 -0.78,-0.1 l -0.24,0.1 a 1,1 0 0 0 -0.36,0.36 l -0.11,0.25 a 1,1 0 0 0 0,0.54 l 0.28,0.89 a 0.78,0.78 0 0 0 0.18,0.35 0.73,0.73 0 0 0 0.29,0.26 0.74,0.74 0 0 0 0.38,0.12 0.72,0.72 0 0 0 0.41,0 l 0.25,-0.1 a 1,1 0 0 0 0.36,-0.37 l 0.11,-0.24 a 1,1 0 0 0 0,-0.55 z" />
      <path
         id="svg_191"
         d="m 544.87,311.37 a 1.025,1.025 0 0 0 0,-2.05 1.025,1.025 0 0 0 0,2.05 z" />
      <path
         id="svg_192"
         d="m 517.53,308.58 a 22.46,22.46 0 0 0 5.79,0.23 l -1.15,-1.16 c -0.13,1.72 0,3.44 -0.22,5.15 a 6.86,6.86 0 0 1 -0.14,1.12 c -0.1,0.33 -0.26,0.41 -0.49,0.66 a 2.66,2.66 0 0 0 -0.71,2.21 c 0.22,1.5 1.49,2.48 2.28,3.68 a 10,10 0 0 1 1.56,4.21 l 1.76,-1.33 a 6.63,6.63 0 0 0 -1.66,-0.11 c -1.08,0.05 -1.8,1.74 -0.61,2.26 a 6.91,6.91 0 0 0 1.53,0.52 c 0.77,0.13 1.88,-0.37 1.75,-1.34 a 13.6,13.6 0 0 0 -1.39,-4.61 13,13 0 0 0 -1.26,-1.92 c -0.31,-0.4 -1.22,-1.14 -1.25,-1.68 0,-0.25 0.73,-1 0.88,-1.36 a 8.16,8.16 0 0 0 0.33,-2.31 23.65,23.65 0 0 0 -0.1,-5.45 1.16,1.16 0 0 0 -1.42,-0.81 10.39,10.39 0 0 1 -5,0.35 c -1.08,-0.16 -1.59,1.45 -0.46,1.69 z" />
      <path
         id="svg_193"
         d="m 518.65,331.55 a 1.18,1.18 0 0 0 0,-2.35 1.18,1.18 0 0 0 0,2.35 z" />
      <path
         id="svg_194"
         d="m 531.87,348.9 a 26,26 0 0 1 -9.53,-1 c -1.22,-0.38 -2.29,-0.79 -3.41,0.1 -1,0.78 -1.42,2.12 -2.14,3.12 a 13.74,13.74 0 0 1 -2.67,2.77 9.63,9.63 0 0 1 -3.29,1.91 c -0.63,0.14 -0.87,-0.09 -1.42,-0.46 a 13,13 0 0 1 -1.67,-1.38 22.7,22.7 0 0 1 -2.58,-3.23 1.6,1.6 0 0 0 -2.76,1.61 15,15 0 0 0 6.24,6.25 c 2.63,1.36 5.65,-0.91 7.63,-2.56 a 17.1,17.1 0 0 0 2.84,-3.11 15.77,15.77 0 0 0 1.12,-1.79 c 0.41,-0.77 0.35,-0.94 1.19,-0.78 a 33.05,33.05 0 0 0 10.45,0.44 c 1.15,-0.15 1.22,-1.94 0,-1.86 z" />
      <path
         id="svg_195"
         d="m 507.86,318.32 c -0.14,1.87 -0.26,3.73 -0.36,5.6 a 4.46,4.46 0 0 0 0.21,2.43 5.13,5.13 0 0 0 1.81,1.65 11.73,11.73 0 0 0 2.19,1.08 c 0.72,0.27 1.48,0.41 2.21,0.68 a 2.06,2.06 0 0 1 1.27,1.11 c 0.28,0.64 0,1.28 0.17,1.94 a 1.25,1.25 0 0 0 2.07,0.54 c 1.08,-1.3 0.44,-3.37 -0.54,-4.55 -1.11,-1.34 -2.77,-1.49 -4.32,-2 a 9.53,9.53 0 0 1 -2.09,-0.93 c -0.26,-0.15 -0.75,-0.36 -0.88,-0.64 a 2.89,2.89 0 0 1 0,-1.06 c 0,-2 -0.05,-3.91 -0.1,-5.87 a 0.81,0.81 0 0 0 -1.61,0 z" />
      <path
         id="svg_196"
         d="m 503.92,337.94 a 1.08,1.08 0 0 0 0,-2.16 1.08,1.08 0 0 0 0,2.16 z" />
      <path
         id="svg_197"
         d="m 596.12,300.86 a 73.7,73.7 0 0 1 16.87,8 1.5,1.5 0 0 0 1.79,-0.23 33.77,33.77 0 0 0 7.51,-9.18 33.62,33.62 0 0 1 2.79,-4.93 9,9 0 0 1 4.37,-2.81 27.31,27.31 0 0 1 5.14,-1 c 1.88,-0.21 3.68,-0.38 4.88,-2 a 38.44,38.44 0 0 0 3,-5.85 l 3.06,-6.17 q 3.54,-7.17 7.07,-14.35 c 0.84,-1.72 -1.72,-3.24 -2.59,-1.51 q -6.18,12.31 -12.32,24.64 c -0.4,0.8 -0.67,1.64 -1.58,1.91 a 18.12,18.12 0 0 1 -2.65,0.34 25.66,25.66 0 0 0 -5.21,1.08 c -3.66,1.25 -5.89,3.73 -7.59,7.13 a 34,34 0 0 1 -8,10.64 l 1.78,-0.23 a 132.9,132.9 0 0 0 -17.72,-7.77 c -1.48,-0.49 -2.09,1.81 -0.64,2.31 z" />
      <path
         id="svg_198"
         d="m 645,322.52 c 1.78,-4.12 3.34,-8.46 5.47,-12.41 a 1.28,1.28 0 0 0 -0.46,-1.75 c -1.4,-0.6 -2.85,-1.08 -4.29,-1.6 L 643.61,306 c -0.48,-0.18 -1.58,-0.37 -1.86,-0.82 a 4.7,4.7 0 0 1 0,-1.76 18.92,18.92 0 0 1 0.17,-2.12 20.25,20.25 0 0 1 0.94,-3.91 23.23,23.23 0 0 1 1.65,-3.45 2.47,2.47 0 0 0 -0.3,-3.26 10.83,10.83 0 0 0 -3.07,-1.4 12.41,12.41 0 0 1 -2.85,-1.95 1.37,1.37 0 0 0 -2.27,1.33 4.58,4.58 0 0 0 2.42,2.74 14.17,14.17 0 0 0 1.67,0.79 8.77,8.77 0 0 0 1.87,0.74 l 0.25,0.12 -0.39,-0.67 a 5.85,5.85 0 0 0 -0.63,1.1 c -0.32,0.62 -0.6,1.26 -0.87,1.91 a 20.82,20.82 0 0 0 -1.24,4.26 20.35,20.35 0 0 0 -0.33,4.2 c 0,1.28 0.07,2.68 1.1,3.59 1.03,0.91 2.71,1.18 4,1.59 1.73,0.56 3.46,1.21 5.22,1.66 l -0.89,-1.57 c -1.33,4.29 -3.34,8.45 -5,12.6 -0.44,1.08 1.44,1.88 1.9,0.8 z" />
      <path
         id="svg_199"
         d="m 663.26,283 a 10.25,10.25 0 0 0 -5,2.25 14,14 0 0 0 -1.09,0.95 9,9 0 0 1 -0.72,0.87 c -0.27,0.11 -1.22,-0.28 -1.48,-0.34 l -1.69,-0.35 a 11.33,11.33 0 0 0 -2.87,-0.47 4.18,4.18 0 0 0 -2.54,1.4 12.16,12.16 0 0 1 -2.52,1.62 12.65,12.65 0 0 0 -2.83,1.33 1.22,1.22 0 0 0 0.54,2 c 1.87,0.33 4.07,-1 5.54,-2.11 0.6,-0.45 1.5,-1.62 2.24,-1.6 a 21.4,21.4 0 0 1 3.25,0.62 7.11,7.11 0 0 0 2.81,0.29 c 0.91,-0.22 1.35,-1 1.94,-1.63 a 13.79,13.79 0 0 1 4.91,-3.22 c 0.78,-0.35 0.41,-1.75 -0.44,-1.64 z" />
      <path
         id="svg_200"
         d="m 626.77,275.9 a 1.2,1.2 0 0 0 0,-2.4 1.2,1.2 0 0 0 0,2.4 z" />
    </g>
  </g>
</svg>
