<?xml version="1.0" encoding="UTF-8" standalone="no"?>
<svg
   xmlns:dc="http://purl.org/dc/elements/1.1/"
   xmlns:cc="http://creativecommons.org/ns#"
   xmlns:rdf="http://www.w3.org/1999/02/22-rdf-syntax-ns#"
   xmlns:svg="http://www.w3.org/2000/svg"
   xmlns="http://www.w3.org/2000/svg"
   xmlns:sodipodi="http://sodipodi.sourceforge.net/DTD/sodipodi-0.dtd"
   xmlns:inkscape="http://www.inkscape.org/namespaces/inkscape"
   width="1000px"
   height="600px"
   viewBox="0 0 1000 600"
   version="1.1"
   id="SVGRoot"
   sodipodi:docname="strategia-marki.svg"
   inkscape:version="1.0.2 (e86c870879, 2021-01-15, custom)">
  <defs
     id="defs209" />
  <sodipodi:namedview
     id="base"
     pagecolor="#ffffff"
     bordercolor="#666666"
     borderopacity="1.0"
     inkscape:pageopacity="0.0"
     inkscape:pageshadow="2"
     inkscape:zoom="0.7"
     inkscape:cx="687.3884"
     inkscape:cy="310.14134"
     inkscape:document-units="px"
     inkscape:current-layer="g98"
     inkscape:document-rotation="0"
     showgrid="false"
     inkscape:window-width="1366"
     inkscape:window-height="728"
     inkscape:window-x="0"
     inkscape:window-y="0"
     inkscape:window-maximized="0" />
  <metadata
     id="metadata212">
    <rdf:RDF>
      <cc:Work
         rdf:about="">
        <dc:format>image/svg+xml</dc:format>
        <dc:type
           rdf:resource="http://purl.org/dc/dcmitype/StillImage" />
        <dc:title></dc:title>
      </cc:Work>
    </rdf:RDF>
  </metadata>
  <g
     inkscape:label="Warstwa 1"
     inkscape:groupmode="layer"
     id="layer1">
    <g
       id="g98"
       transform="matrix(0.74775674,0,0,0.74775674,127.29217,-74.611166)">
      <title
         id="title7">Layer 1</title>
      <circle
         id="svg_1"
         r="98.629997"
         fill="#f58220"
         cy="252.34062"
         cx="468.81281" />
      <path
         stroke="null"
         style="vector-effect:non-scaling-stroke"
         id="svg_4"
         d="m 655.12944,116.46452 1.25196,73.70288 c 0.0577,3.39919 -0.0148,6.83731 0.17385,10.23428" />
      <path
         id="svg_5"
         d="m 50.532636,712.26182 c -3.46,31.55 -4.44,63.3 -4.92,95 -0.12,8 -0.22,16.09 -0.35,24.14 -0.06,3.92 -0.12,7.84 -0.2,11.75 -0.06,3.35 0,6.71 -0.42,10 a 66.21,66.21 0 0 1 -4.43,17.6 43.81,43.81 0 0 1 -4.16,7.94 c -1.69,2.5 -4.12,4.49 -5.55,7.16 -1.43,2.67 -1.46,5.72 1.45,7.24 2.3,1.2 5,1.38 7.52,1.72 3.63,0.49 7.21,1.1 10.87,1.35 a 92.64,92.64 0 0 0 10.8,0.11 c 4,-0.2 8.46,-0.62 12,-2.72 a 6.71,6.71 0 0 0 3.39,-4.45 14.84,14.84 0 0 0 -0.23,-4.2 c -0.23,-1.95 -0.46,-3.91 -0.66,-5.86 -0.83,-8 -1.31,-16.17 -0.36,-24.22 0.9,-7.6 3.2,-15 5.64,-22.2 2.44,-7.2 5.22,-14.65 7.17,-22.18 1.95,-7.53 3.44,-15.44 5.05,-23.21 3.15,-15.56 5.8,-31.24 7.680004,-47 1.79,-15 2.63,-30.31 -0.28,-45.22 a 80.56,80.56 0 0 0 -2.810004,-10.59 c -0.51,-1.51 -2.91,-0.87 -2.41,0.66 4.680004,14.23 5.230004,29.24 4.1,44.07 a 433.79,433.79 0 0 1 -6.33,45.39 c -1.41,7.72 -3,15.42 -4.63,23.1 a 218.38,218.38 0 0 1 -5.68,22 c -2.37,7.2 -5,14.31 -7.12,21.6 a 83.7,83.7 0 0 0 -3.35,22.39 c -0.06,7.83 0.9,15.6 1.8,23.35 a 4.2,4.2 0 0 1 -2,4.54 16.19,16.19 0 0 1 -5.79,2 67.18,67.18 0 0 1 -16.46,0.43 c -3.5,-0.25 -6.92,-0.85 -10.39,-1.31 -1.32,-0.17 -2.64,-0.32 -3.93,-0.61 a 6.6,6.6 0 0 1 -3.32,-1.38 c -1.17,-1.27 0.12,-3.42 0.89,-4.55 0.77,-1.13 2,-2.33 3,-3.51 a 37.13,37.13 0 0 0 4.33,-6.89 64.05,64.05 0 0 0 5.59,-17.06 c 1.2,-6.42 1.16,-12.88 1.26,-19.39 q 0.18,-11.65 0.3,-23.32 c 0.36,-30.65 0.74,-61.33 3.34,-91.9 q 0.51,-5.88 1.11,-11.76 c 0.1,-1 -1.42,-1 -1.53,0 z" />
      <path
         id="svg_6"
         d="m 43.182636,869.90182 c 2.9,0.29 5.81,0.59 8.72,0.86 1.45,0.13 2.91,0.24 4.36,0.36 1.45,0.12 2.84,0 3.84,1 0.8,0.79 1.33,1.82 2.18,2.58 a 7.63,7.63 0 0 0 2.89,1.61 c 2.64,0.79 5.09,-0.52 7.73,-0.4 a 0.91,0.91 0 0 0 0.24,-1.78 c -2.59,-0.77 -5.2,1 -7.77,-0.18 -2.24,-1 -2.89,-3.71 -5.15,-4.67 a 10.23,10.23 0 0 0 -3.48,-0.5 c -1.45,-0.08 -2.9,-0.17 -4.36,-0.24 -3.06,-0.16 -6.13,-0.25 -9.2,-0.37 -1.13,0 -1.09,1.62 0,1.73 z" />
      <path
         id="svg_7"
         d="m 252.70264,712.26182 c 3.17,30.78 3.9,61.7 4.31,92.63 q 0.15,11.55 0.28,23.12 c 0.1,7.49 0,15 0.4,22.52 a 67.46,67.46 0 0 0 3.34,17.17 44.72,44.72 0 0 0 7.87,15 40.53,40.53 0 0 1 2.74,3.27 c 0.83,1.21 2.16,3.5 0.7,4.72 -1.85,1.55 -5.09,1.56 -7.35,1.86 -3.53,0.47 -7,1.06 -10.57,1.3 a 91.61,91.61 0 0 1 -10.61,0.1 c -3.74,-0.18 -8.19,-0.48 -11.36,-2.67 -1.85,-1.27 -2,-2.8 -1.76,-4.9 0.47,-3.9 0.92,-7.8 1.25,-11.71 a 94.55,94.55 0 0 0 -0.47,-23 c -1.2,-7.4 -3.53,-14.56 -5.95,-21.64 -2.42,-7.08 -5,-14.19 -6.8,-21.5 -1.84,-7.59 -3.41,-15.27 -4.95,-22.93 -3,-15.18 -5.62,-30.47 -7.42,-45.85 -1.71,-14.6 -2.56,-29.58 0.29,-44.09 a 87.82,87.82 0 0 1 2.77,-10.6 c 0.5,-1.53 -1.89,-2.17 -2.4,-0.66 -4.88,14.34 -5.35,29.75 -4.2,44.73 a 441.88,441.88 0 0 0 6.54,46.57 q 2.24,12 4.89,24 a 209.22,209.22 0 0 0 6,22.29 c 2.44,7.25 5.13,14.43 7.1,21.83 a 81.74,81.74 0 0 1 2.68,23.61 c -0.12,4.06 -0.46,8.11 -0.89,12.14 -0.18,1.8 -0.39,3.59 -0.6,5.38 a 13.74,13.74 0 0 0 -0.19,4.43 c 0.9,4.24 6.09,5.72 9.77,6.35 a 70.11,70.11 0 0 0 16.82,0.45 c 3.59,-0.27 7.12,-0.89 10.69,-1.36 2.49,-0.33 5.25,-0.52 7.47,-1.82 6.37,-3.72 -2.26,-11.09 -4.54,-14.54 a 53.21,53.21 0 0 1 -6.85,-16.62 c -1.57,-6.37 -1.86,-12.65 -2,-19.18 q -0.22,-11.93 -0.37,-23.86 c -0.44,-31.63 -1,-63.28 -3.9,-94.8 q -0.54,-5.88 -1.18,-11.76 c -0.11,-1 -1.64,-1 -1.53,0 z" />
      <path
         id="svg_8"
         d="m 261.53264,868.17182 c -3,0.12 -6,0.21 -9,0.35 -1.46,0.07 -2.91,0.16 -4.36,0.24 a 11.06,11.06 0 0 0 -3.72,0.52 c -2.19,0.93 -2.84,3.51 -4.94,4.57 -2.62,1.32 -5.31,-0.51 -8,0.28 -0.95,0.28 -0.81,1.83 0.24,1.78 2.58,-0.11 5,1.15 7.55,0.46 a 7.79,7.79 0 0 0 2.93,-1.54 c 0.92,-0.78 1.47,-1.87 2.32,-2.71 0.85,-0.84 2.35,-0.88 3.61,-1 l 4.36,-0.36 c 3,-0.27 6,-0.59 9,-0.88 1.08,-0.11 1.13,-1.77 0,-1.73 z" />
      <path
         id="svg_9"
         fill="#f58220"
         d="m 76.832636,393.46182 2,10.8 c -3.75,1.87 -5,6.54 -5.76,10.66 -20.05,104.3 -27.94,210.5 -35.79,316.42 -0.58,7.76 -1.12,15.8 1.55,23.11 5.06,13.82 20,21.2 34.05,25.51 40.350004,12.39 83.530004,10.67 125.660004,8 16.93,-1.09 34.26,-2.41 49.74,-9.37 4.59,-2.06 9.1,-4.72 12.06,-8.8 5.2,-7.16 4.53,-16.86 3.62,-25.67 -4.52,-44.08 -9.06,-88.24 -18,-131.65 -15.83,-77.12 -45.27,-151 -59.58,-228.46" />
      <path
         id="svg_10"
         fill="#f58220"
         d="m 76.042636,393.70182 c 0.61,3.61 1.21,7.23 1.85,10.84 l 0.46,-1.12 c -5.68,3 -6.22,10.68 -7.29,16.28 q -2.43,12.64 -4.63,25.33 c -2.92,16.77 -5.48,33.61 -7.83,50.47 -4.71,33.74 -8.5,67.59 -11.72,101.5 -3.25,34.21 -6,68.47 -8.55,102.74 l -1.89,25.3 c -0.58,7.88 -1.6,15.94 -0.37,23.82 2.05,13.07 12,22 23.45,27.41 13.42,6.39 28.59,9.55 43.200004,11.76 a 319.67,319.67 0 0 0 48.68,3.17 c 16.34,-0.06 32.67,-1 49,-2.06 15.4,-1 31.16,-2.33 45.6,-8.16 6.4,-2.58 13,-6 16.58,-12.15 3.4,-5.85 3.65,-12.92 3.21,-19.5 -0.54,-8.18 -1.6,-16.36 -2.46,-24.52 q -1.33,-12.78 -2.78,-25.57 c -3.85,-33.64 -8.65,-67.19 -16.1,-100.24 -7.28,-32.31 -16.68,-64.09 -26,-95.84 -9.32,-31.75 -18.72,-63.52 -25.92,-95.84 q -2.62,-11.79 -4.83,-23.65 c -0.29,-1.55 -2.65,-0.9 -2.37,0.65 5.9,31.79 14.32,63 23.31,94.08 8.99,31.08 18.43,61.77 26.52,93 a 831.91,831.91 0 0 1 19,96.81 c 2.26,16.61 4.15,33.27 5.93,49.94 q 1.32,12.4 2.58,24.8 c 0.7,6.87 1.57,14.16 -0.62,20.86 -2.38,7.29 -8.76,11.3 -15.47,14.17 a 96,96 0 0 1 -22.12,6.12 c -15.48,2.55 -31.4,3 -47,3.77 -32,1.51 -64.5,1.27 -95.680004,-6.77 -12.41,-3.2 -25.87,-7.39 -35,-16.87 a 29.71,29.71 0 0 1 -8.25,-18.21 c -0.73,-7.85 0.36,-15.89 0.94,-23.72 2.47,-33.35 5,-66.69 7.91,-100 2.91,-33.16 6.24,-66.3 10.33,-99.33 4.09,-33.03 8.82,-66.27 14.82,-99.19 0.67,-3.67 1.23,-7.4 2.11,-11 0.74,-3 1.85,-6 4.68,-7.64 a 1,1 0 0 0 0.46,-1.12 c -0.71,-3.59 -1.46,-7.17 -2.19,-10.75 -0.21,-1 -1.76,-0.59 -1.58,0.44 z" />
      <path
         id="svg_11"
         d="m 38.062636,754.70182 c 3.73,12.6 16.44,19.9 28,24.32 a 154.5,154.5 0 0 0 22.14,6.33 237.35,237.35 0 0 0 24.740004,4 368.75,368.75 0 0 0 50.4,1.66 c 8.48,-0.23 17,-0.65 25.42,-1.15 8.25,-0.48 16.51,-1 24.73,-1.79 a 139.73,139.73 0 0 0 23.59,-4.15 c 7.2,-2 14.9,-4.74 20.72,-9.61 a 22.72,22.72 0 0 0 3.67,-3.92 c 0.94,-1.26 -1.19,-2.49 -2.12,-1.24 -4.4,5.92 -12.09,8.92 -18.86,11.16 a 116.58,116.58 0 0 1 -23.18,4.8 c -7.84,0.91 -15.74,1.36 -23.62,1.83 -8.23,0.5 -16.46,1 -24.69,1.25 a 408.31,408.31 0 0 1 -48.85,-0.78 220.38,220.38 0 0 1 -47.710004,-9 c -11.82,-3.71 -24.11,-9.39 -30.73,-20.34 a 39.07,39.07 0 0 1 -2.15,-4 c -0.38,-0.85 -1.76,-0.24 -1.5,0.64 z" />
      <path
         id="svg_12"
         d="m 211.20264,311.70182 c -3,-7.62 -10.56,-12.32 -17.72,-16.3 q -18.64,-10.38 -38.08,-19.22 a 39.27,39.27 0 0 1 2.59,3.68 6.08,6.08 0 0 1 1.12,2.94 5.85,5.85 0 0 1 -0.84,2.82 25.63,25.63 0 0 1 -8.2,9.2 7.44,7.44 0 0 1 2.57,4.33 c 0.6,3.19 -0.91,6.34 -2.4,9.23 -4.75,9.25 -9.6,18.51 -15.52,27.07 a 5.41,5.41 0 0 1 -2.63,2.38 c -1.73,0.5 -3.43,-0.75 -4.79,-1.94 -7.06,-6.21 -13.85,-12.9 -18.69,-21 a 18.92,18.92 0 0 1 -2.67,-6.38 c -0.62,-3.61 0.54,-7.26 1.73,-10.71 0.37,-1.06 0.73,-2.27 0.17,-3.24 a 4.09,4.09 0 0 0 -2,-1.45 19.23,19.23 0 0 1 -7.000004,-4.95 8.86,8.86 0 0 1 -1.92,-8.12 c 0.87,-2.64 3.210004,-4.46 5.450004,-6.12 h -1.47 a 249,249 0 0 0 -42.710004,22.18 14.47,14.47 0 0 0 -4.24,3.65 c -1.37,2 -1.68,4.5 -1.89,6.91 -2.35,27.58 4,55.13 11.52,81.78 1,3.5 2.15,7.23 5,9.48 2.47,1.94 5.76,2.41 8.88,2.77 a 402.67,402.67 0 0 0 96.210004,-0.36 c 6.92,-0.86 14.17,-2 19.62,-6.38 5.45,-4.38 -6.78,-13.56 -4.59,-20.18 5.45,-16.46 6.47,-36.5 7,-53.83 0.14,-4.51 17.17,-3.99 15.5,-8.24 z" />
      <path
         id="svg_13"
         fill="#ffffff"
         d="m 122.87264,388.36182 a 2,2 0 0 0 -0.09,-1.36 1.89,1.89 0 0 0 -1.18,-0.66 l -24.470004,-6.88 a 4.29,4.29 0 0 0 -2.57,-0.18 4,4 0 0 0 -1.82,1.79 c -2.6,4.15 -4.14,8.85 -5.65,13.5 l -7.83,24.06 19.91,29.35 c 6.000004,0.87 11.790004,2.83 17.740004,4 5.95,1.17 12.33,1.37 17.87,-1.08 3.45,-1.52 6.38,-4 9.62,-5.89 a 66.69,66.69 0 0 1 11.38,-4.91 c 2.83,-1 4.06,0.14 6.9,-0.87 0.86,-0.31 3,-0.75 2.84,0.14 a 79.74,79.74 0 0 0 4.31,-11.9 q 1.88,-7 3.76,-14.06 a 5.43,5.43 0 0 0 -3.86,-6.71 c -15,-4 -34.6,-10.21 -44.65,-12.78 a 3.39,3.39 0 0 1 -2.51,-3.89 z" />
      <path
         id="svg_14"
         d="m 111.97264,265.78182 c -2.42,1.59 -4.82,3.19 -7.18,4.86 a 69.87,69.87 0 0 0 -6.060004,4.5 9.51,9.51 0 0 0 -2.44,11.76 14.11,14.11 0 0 0 4.680004,5.15 25.76,25.76 0 0 0 3,1.79 c 0.78,0.39 2.5,0.82 2.69,1.79 0.19,0.97 -0.64,2.27 -0.94,3.11 a 29.14,29.14 0 0 0 -1.11,4 15.94,15.94 0 0 0 0.09,7.49 c 1.35,4.76 4.7,9.08 7.75,12.88 a 94.16,94.16 0 0 0 10.2,10.65 c 3,2.72 7.81,8.19 11.88,4.13 a 35.54,35.54 0 0 0 4.23,-6.06 c 1.44,-2.26 2.82,-4.56 4.15,-6.88 3.07,-5.33 5.92,-10.78 8.7,-16.25 1.24,-2.43 2.45,-5 2.54,-7.8 a 9.07,9.07 0 0 0 -3.09,-7.09 l -0.3,2.27 a 28,28 0 0 0 7.2,-7.12 16.26,16.26 0 0 0 2.4,-4.5 6.27,6.27 0 0 0 -0.89,-5 39.35,39.35 0 0 0 -6.24,-7.9 30.72,30.72 0 0 0 -8.4,-6.19 1.32,1.32 0 0 0 -1.33,2.28 67.15,67.15 0 0 1 6.87,5.34 37.75,37.75 0 0 1 5.61,6.63 c 0.74,1.11 1.79,2.43 1.51,3.84 a 11.83,11.83 0 0 1 -2,3.84 23.93,23.93 0 0 1 -6.2,6.29 1.46,1.46 0 0 0 -0.29,2.27 c 4,3.45 1.77,8.35 -0.23,12.25 -2.23,4.35 -4.49,8.69 -6.87,13 -2.38,4.31 -4.89,8.47 -7.63,12.52 a 13,13 0 0 1 -1.73,2.31 c -0.91,0.86 -1.86,0.67 -2.86,0.05 a 35.24,35.24 0 0 1 -5.24,-4.61 110.17,110.17 0 0 1 -9.13,-9.58 c -2.78,-3.36 -5.78,-7.19 -7.31,-11.32 a 12.43,12.43 0 0 1 -0.44,-6.89 c 0.44,-2.24 1.42,-4.36 1.82,-6.6 a 4.12,4.12 0 0 0 -2.21,-4.7 36.71,36.71 0 0 1 -5.36,-3 9.81,9.81 0 0 1 -3.830004,-5.83 6.8,6.8 0 0 1 2.320004,-6.08 57.93,57.93 0 0 1 5.88,-4.7 c 2.31,-1.76 4.56,-3.59 6.81,-5.43 0.78,-0.63 -0.23,-1.94 -1.07,-1.39 z" />
      <path
         fill="#f58220"
         id="svg_16"
         d="m 110.93264,246.06182 c -9,-7.82 -10.69,-15.34 -11.000004,-27.11 l -4.44,-0.39 c 0.9,7.95 -2.9,12.73 -7.84,19 -1.83,2.32 -3.87,4.63 -4.59,7.49 -0.72,2.86 0.46,6.47 3.3,7.3 1.17,0.34 2.88,0.62 2.79,1.84 a 2.29,2.29 0 0 1 -0.54,1.09 8.37,8.37 0 0 0 -1.26,7.6 6.09,6.09 0 0 0 6.26,4 10.43,10.43 0 0 0 8.290004,14 5.13,5.13 0 0 0 3.39,-0.47 6,6 0 0 0 1.79,-1.9 c 3.27,-4.87 4.66,-10.75 5.64,-16.55 q 1.09,-6.58 1.57,-13.27 c -1.22,-0.85 -2.33,-1.74 -3.36,-2.63 z" />
      <path
         fill="#f58220"
         id="svg_17"
         d="m 170.79264,243.10182 a 8,8 0 0 0 -0.35,-5.21 c -1.76,-5.3 -5,-10 -8.15,-14.59 -1.9,-2.74 -1.46,-1.58 -3.35,-4.32 l -4.84,2.09 c 0,0.87 -0.1,1.71 -0.16,2.53 -0.65,8.54 -2.18,14.39 -8,21 -0.35,0.39 -0.71,0.78 -1.08,1.16 q -0.22,10.22 0.26,20.42 a 30.66,30.66 0 0 0 1.56,9.58 c 1.16,3 3.41,5.81 6.49,6.84 5.17,1.73 10.95,-2.23 12.8,-7.37 1.85,-5.14 0.61,-10.87 -1.47,-15.91 3.08,0.72 6,-2.53 6,-5.69 0,-3.16 -1.86,-6 -3.89,-8.43 1.54,0.79 3.55,-0.44 4.18,-2.1 z" />
      <path
         fill="#f58220"
         id="svg_18"
         d="m 97.032636,206.24182 c 13.780004,-7.17 25.240004,-18 36.500004,-28.7 a 39.73,39.73 0 0 0 -2.59,7.95 c -0.28,1.31 -0.39,2.91 0.67,3.73 1.35,1 3.26,-0.11 4.51,-1.27 a 83.25,83.25 0 0 0 6.37,-6.51 c 2.75,6.42 5.56,12.94 9.94,18.39 1.7,2.13 3.73,4.3 3.89,7 2,-0.73 2.43,-3.35 2.51,-5.5 0.25,-6.84 0.3,-13.89 -2.22,-20.26 -2.52,-6.37 -8.24,-11.94 -15.08,-12.24 a 19.29,19.29 0 0 1 -2.74,-0.16 c -1.82,-0.35 -3.34,-1.54 -5,-2.4 -5.49,-2.89 -12.39,-1.88 -17.86,1 -5.47,2.88 -9.83,7.54 -14.09,12.07 -2.420004,2.59 -4.890004,5.22 -6.500004,8.39 a 19.14,19.14 0 0 0 0.34,17.68" />
      <path
         fill="#f58220"
         id="svg_19"
         d="m 97.402636,206.88182 c 14.000004,-7.13 25.560004,-17.88 36.920004,-28.55 l -1.79,-1.36 a 40.33,40.33 0 0 0 -2.67,8 c -0.42,2 -0.54,4.48 1.57,5.5 2.11,1.02 4.32,-0.62 5.82,-2 a 82.09,82.09 0 0 0 6,-6.2 l -1.83,-0.23 a 112.68,112.68 0 0 0 6.32,13.21 48.87,48.87 0 0 0 4,5.76 c 1.38,1.72 3.06,3.55 3.27,5.85 a 1.27,1.27 0 0 0 1.87,1.08 c 3.57,-1.53 3.17,-6.62 3.22,-9.78 a 51.72,51.72 0 0 0 -1.25,-13.93 c -1.85,-7.23 -6.95,-14.43 -14.59,-16.21 -2,-0.47 -4.23,-0.07 -6.16,-0.76 -1.93,-0.69 -3.58,-2.07 -5.52,-2.81 a 19.5,19.5 0 0 0 -12.38,-0.16 c -8.55,2.51 -14.87,9.48 -20.700004,15.85 -3.27,3.57 -6.14,7.5 -7,12.37 a 20.69,20.69 0 0 0 2.14,13.59 c 0.74,1.35 2.8,0.14 2.06,-1.21 a 18,18 0 0 1 -2,-11.1 20.31,20.31 0 0 1 5.11,-10.36 114.78,114.78 0 0 1 8.190004,-8.61 37.1,37.1 0 0 1 9.64,-7 19.72,19.72 0 0 1 11.38,-1.84 14.92,14.92 0 0 1 5.19,1.95 12.75,12.75 0 0 0 5,2.05 28.3,28.3 0 0 1 5.28,0.62 14.54,14.54 0 0 1 4.43,2.27 19.9,19.9 0 0 1 6.17,7.84 c 1.9,4.22 2.45,9 2.56,13.54 0,2.36 0,4.74 -0.09,7.1 -0.08,1.62 -0.21,3.71 -1.9,4.43 l 1.87,1.07 a 11.09,11.09 0 0 0 -2.65,-5.89 70.55,70.55 0 0 1 -4.56,-6.2 103.12,103.12 0 0 1 -6.79,-13.91 1.18,1.18 0 0 0 -1.84,-0.24 q -1.95,2.24 -4,4.32 c -1.15,1.15 -2.81,3.31 -4.55,3.52 -2.91,0.34 0.92,-9.14 1.44,-10.34 0.52,-1.2 -0.78,-2.31 -1.76,-1.36 -11.11,10.66 -22.42,21.49 -36.090004,28.85 -0.85,0.45 -0.1,1.71 0.75,1.28 z" />
      <path
         fill="#f58220"
         id="svg_20"
         d="M 962.97267,571.36182 H 308.12264 c -6,0 -12,0.22 -18,0 -3.36,-0.13 -5,-2.52 -5.07,-5.62 -0.07,-3.1 0,-6.15 0,-9.22 v -436.74 c 0,-3.5 -0.44,-7.61 4.47,-8.1 1.15,-0.11 2.38,0 3.54,0 h 663.65003 c 1.92,0 3.85,-0.08 5.77,0 3.49,0.15 4.91,2.7 4.95,5.78 0.13,9.12 0,18.27 0,27.39 v 418.34 c 0,3.44 0.5,7.83 -4.46,8.17 -2.69,0.18 -2.71,4.38 0,4.2 6.56,-0.44 8.66,-5.59 8.66,-11.17 v -419.69 c 0,-9.13 0.08,-18.26 0,-27.39 -0.05,-5.3 -3.16,-9.59 -8.83,-9.81 -1.61,-0.06 -3.23,0 -4.84,0 H 292.66264 a 27.62,27.62 0 0 0 -4.55,0.13 c -6,1 -7.22,6.26 -7.22,11.27 v 437.8 c 0,7.28 -1.7,18.44 8.9,18.82 5.42,0.19 10.88,0 16.3,0 h 656.88003 c 2.7,0.04 2.7,-4.16 0,-4.16 z" />
      <path
         id="svg_21"
         d="m 98.902636,202.83182 a 108.06,108.06 0 0 0 -0.27,11.94 79.38,79.38 0 0 0 1.07,12.22 c 1.420004,8.08 4.830004,15.5 11.260004,20.79 a 35.16,35.16 0 0 0 12.66,7.06 18.14,18.14 0 0 0 13.46,-1.58 33.45,33.45 0 0 0 16.45,-19.73 c 1.34,-4.68 1.6,-9.65 1.77,-14.49 a 157.65,157.65 0 0 0 -0.05,-16.84 1,1 0 0 0 -2,0 c -0.4,8.91 0.37,17.92 -1.18,26.77 a 31.14,31.14 0 0 1 -12.76,19.88 c -3.56,2.56 -7.81,4.55 -12.29,4.06 -4.67,-0.5 -9,-3 -12.71,-5.73 a 29.12,29.12 0 0 1 -8,-8.61 37.43,37.43 0 0 1 -4,-10.32 72.15,72.15 0 0 1 -1.67,-12.77 c -0.22,-4.21 -0.08,-8.45 -0.41,-12.65 a 0.72,0.72 0 0 0 -1.440004,0 z" />
      <path
         id="svg_22"
         d="m 99.962636,209.52182 a 3.9,3.9 0 0 0 -2.4,-4.15 4.72,4.72 0 0 0 -5,1.1 7.08,7.08 0 0 0 -2,5.38 8.66,8.66 0 0 0 1.91,5.57 9.39,9.39 0 0 0 2.93,2.05 c 0.51,0.25 1,0.48 1.58,0.69 a 4.45,4.45 0 0 0 1.88,0.46 1,1 0 0 0 0.52,-1.92 5.41,5.41 0 0 0 -1.48,-0.57 13.88,13.88 0 0 1 -1.38,-0.58 8.83,8.83 0 0 1 -2.33,-1.52 6.68,6.68 0 0 1 -1.41,-5.08 4.14,4.14 0 0 1 2.62,-3.69 2.33,2.33 0 0 1 3.12,2.06 c 0,0.81 1.33,1 1.46,0.2 z" />
      <path
         id="svg_23"
         d="m 96.772636,212.11182 h 0.23 0.11 0.09 c -0.17,0 -0.11,-0.05 0,0 l 0.19,0.12 c 0.08,0.05 -0.15,-0.13 0,0 l 0.07,0.06 0.08,0.08 c 0.09,0.11 0,0 0,0 a 1.34,1.34 0 0 1 0.24,0.44 l -0.09,-0.22 0.18,0.41 -0.1,-0.22 a 4.91,4.91 0 0 1 0.3,1 v -0.25 0.05 -0.25 l 0.09,-0.23 a 0.15,0.15 0 0 1 0,0.07 l 0.15,-0.2 a 1.6,1.6 0 0 0 -0.45,0.69 1.4,1.4 0 0 0 0.14,1 1.37,1.37 0 0 0 1.17,0.73 1.1,1.1 0 0 0 0.53,-0.14 1.41,1.41 0 0 0 0.360004,-0.37 1,1 0 0 0 0.1,-0.73 1.14,1.14 0 0 0 -0.440004,-0.57 1.08,1.08 0 0 0 -0.58,-0.16 h 0.26 -0.09 l 0.23,0.1 -0.08,-0.05 0.19,0.15 -0.09,-0.09 0.15,0.2 v -0.09 l 0.1,0.23 a 0.5,0.5 0 0 1 0,-0.13 v 0.26 a 0.31,0.31 0 0 1 0,-0.1 v 0.26 c 0,0 0,-0.06 0,-0.09 l -0.09,0.23 v -0.06 l -0.15,0.19 c 0.06,-0.08 0.14,-0.15 0.2,-0.23 a 1.19,1.19 0 0 0 0.250004,-0.7 2.69,2.69 0 0 0 -0.180004,-0.73 5.66,5.66 0 0 0 -0.27,-0.68 2.86,2.86 0 0 0 -0.4,-0.62 2.29,2.29 0 0 0 -2.36,-0.82 0.75,0.75 0 0 0 -0.52,0.8 0.71,0.71 0 0 0 0.71,0.62 z" />
      <path
         id="svg_24"
         d="m 155.44264,209.32182 a 2.34,2.34 0 0 1 3.12,-2.06 4.13,4.13 0 0 1 2.62,3.69 6.72,6.72 0 0 1 -1.41,5.08 8.83,8.83 0 0 1 -2.33,1.52 c -0.41,0.2 -0.84,0.38 -1.27,0.54 a 6.47,6.47 0 0 0 -1.59,0.61 1,1 0 0 0 0.52,1.92 6.85,6.85 0 0 0 3,-0.95 12.42,12.42 0 0 0 2.77,-1.68 7.81,7.81 0 0 0 2.45,-5.35 7.57,7.57 0 0 0 -1.48,-5.66 5,5 0 0 0 -4.83,-1.83 4,4 0 0 0 -3.06,4.37 c 0.12,0.84 1.47,0.62 1.46,-0.2 z" />
      <path
         id="svg_25"
         d="m 157.36264,210.70182 a 2.29,2.29 0 0 0 -2.36,0.82 2.87,2.87 0 0 0 -0.39,0.59 c -0.1,0.23 -0.2,0.45 -0.28,0.69 a 2.83,2.83 0 0 0 -0.18,0.75 1.16,1.16 0 0 0 0.17,0.6 3.22,3.22 0 0 0 0.28,0.33 l -0.15,-0.19 v 0.06 l -0.09,-0.23 c 0,0 0,0.06 0,0.09 v -0.26 a 0.31,0.31 0 0 1 0,0.1 v -0.26 a 0.5,0.5 0 0 1 0,0.13 l 0.1,-0.23 -0.05,0.09 0.15,-0.2 -0.03,0.12 0.19,-0.15 -0.08,0.05 0.23,-0.1 h -0.09 0.26 a 1.1,1.1 0 0 0 -0.58,0.16 1,1 0 0 0 -0.44,0.57 0.93,0.93 0 0 0 0.1,0.73 1.27,1.27 0 0 0 0.36,0.37 1.1,1.1 0 0 0 0.53,0.14 1.25,1.25 0 0 0 0.6,-0.16 1.42,1.42 0 0 0 0.57,-0.57 1.45,1.45 0 0 0 0.14,-1 1.57,1.57 0 0 0 -0.45,-0.71 l 0.15,0.2 a 0.15,0.15 0 0 1 0,-0.07 l 0.09,0.23 v 0.25 -0.05 0.25 a 4.91,4.91 0 0 1 0.3,-1 l -0.1,0.22 0.18,-0.41 -0.09,0.22 a 2.56,2.56 0 0 1 0.11,-0.24 c 0,0 0.09,-0.19 0.13,-0.2 0.04,-0.01 -0.13,0.15 -0.05,0.06 l 0.08,-0.08 0.09,-0.08 c 0.1,-0.1 -0.12,0.08 0,0 l 0.17,-0.11 c 0,0 0.16,-0.07 0,0 -0.16,0.07 0,0 0,0 h 0.11 -0.05 0.23 a 0.71,0.71 0 0 0 0.51,-0.21 0.79,0.79 0 0 0 0.2,-0.41 0.75,0.75 0 0 0 -0.52,-0.8 z" />
      <path
         id="svg_26"
         d="m 114.85264,211.80182 a 1.2,1.2 0 0 0 -0.38,0 1.53,1.53 0 0 0 -0.55,0.32 l -0.1,0.1 a 3.71,3.71 0 0 0 -0.23,0.32 1.57,1.57 0 0 0 -0.14,0.38 2,2 0 0 0 0,0.35 1.79,1.79 0 0 0 0,0.36 1,1 0 0 0 0.15,0.36 1.26,1.26 0 0 0 0.25,0.32 2.55,2.55 0 0 0 0.31,0.24 1.66,1.66 0 0 0 0.39,0.15 1.33,1.33 0 0 0 0.4,0.05 2.21,2.21 0 0 0 0.35,0 h 0.06 a 1.35,1.35 0 0 0 0.59,-0.34 1.22,1.22 0 0 0 0.25,-0.31 1.38,1.38 0 0 0 0.18,-0.68 1.5,1.5 0 0 0 0,-0.42 c 0,0 0,0 0,-0.06 a 1.83,1.83 0 0 0 -0.14,-0.32 1.19,1.19 0 0 0 -0.26,-0.33 1.26,1.26 0 0 0 -0.61,-0.35 1.12,1.12 0 0 0 -0.36,-0.05 1.28,1.28 0 0 0 -0.64,0.17 l -0.24,0.18 a 0.82,0.82 0 0 0 -0.24,0.38 0.62,0.62 0 0 0 -0.09,0.3 0.94,0.94 0 0 0 0,0.47 l 0.11,0.28 0.19,0.24 a 0.77,0.77 0 0 0 0.38,0.24 0.88,0.88 0 0 0 0.45,0.11 h -0.32 0.06 l -0.29,-0.12 0.09,0.05 -0.24,-0.18 0.06,0.06 -0.19,-0.24 a 0.22,0.22 0 0 1 0,0.08 l -0.12,-0.28 v 0.09 -0.31 0.08 -0.31 c 0,0 0,0 0,0 l 0.12,-0.27 0.18,-0.24 0.24,-0.18 h -0.07 l 0.28,-0.12 h -0.08 0.3 -0.1 0.31 a 0.5,0.5 0 0 1 -0.13,0 l 0.28,0.11 a 0.31,0.31 0 0 1 -0.1,0 l 0.23,0.18 -0.07,-0.08 0.17,0.23 -0.07,-0.12 0.11,0.27 v -0.11 0.29 -0.14 0.28 c 0,0 0,-0.1 0,-0.14 l -0.1,0.24 a 1,1 0 0 1 0.08,-0.14 l -0.15,0.2 0.16,-0.21 a 0.61,0.61 0 0 0 0,-0.12 l 0.07,-0.16 -0.1,0.23 v -0.06 a 0.91,0.91 0 0 0 0,-0.93 0.87,0.87 0 0 0 -0.33,-0.33 1.06,1.06 0 0 0 -0.46,-0.13 z" />
      <path
         id="svg_27"
         d="m 111.69264,208.88182 c 0.27,-0.11 0.55,-0.19 0.82,-0.28 l 0.45,-0.12 h 0.2 0.17 0.12 0.26 0.42 1 l 1.84,0.05 a 3.67,3.67 0 0 0 1.1,-0.09 1.33,1.33 0 0 0 1,-1.6 1.15,1.15 0 0 0 -1.06,-0.81 1.26,1.26 0 0 0 -0.73,0.18 c 0,0 0.23,0 0.26,-0.07 a 1,1 0 0 1 -0.25,0 h -0.86 c -0.61,0 -1.23,0 -1.84,0.06 a 10.09,10.09 0 0 0 -1.89,0.32 4.69,4.69 0 0 0 -1.78,1 0.9,0.9 0 0 0 -0.13,1.07 0.87,0.87 0 0 0 1,0.4 z" />
      <path
         id="svg_28"
         d="m 138.30264,213.19182 v 0.06 l -0.1,-0.23 0.07,0.16 a 0.5,0.5 0 0 0 0.13,0.22 1.25,1.25 0 0 0 0.09,0.12 l -0.15,-0.2 a 1,1 0 0 1 0.08,0.14 l -0.11,-0.24 a 0.58,0.58 0 0 1 0.05,0.14 v -0.28 0.14 -0.29 0.11 l 0.11,-0.27 -0.08,0.12 0.14,-0.19 0.23,-0.18 h -0.1 l 0.27,-0.11 a 0.35,0.35 0 0 1 -0.12,0 h 0.31 -0.11 0.31 -0.08 l 0.28,0.12 h -0.07 l 0.24,0.18 0.18,0.24 0.12,0.27 c 0,0 0,0 0,0 v 0.31 -0.08 0.31 -0.09 l -0.12,0.28 a 0.59,0.59 0 0 1 0,-0.08 l -0.18,0.24 0.06,-0.06 -0.24,0.18 0.09,-0.05 -0.29,0.12 h 0.06 -0.32 0.31 a 0.78,0.78 0 0 0 0.4,-0.21 0.53,0.53 0 0 0 0.21,-0.21 0.78,0.78 0 0 0 0.21,-0.4 l 0.05,-0.31 -0.05,-0.32 a 0.82,0.82 0 0 0 -0.21,-0.4 0.8,0.8 0 0 0 -0.33,-0.3 1.27,1.27 0 0 0 -0.63,-0.17 2.12,2.12 0 0 0 -0.35,0 1.42,1.42 0 0 0 -0.61,0.34 1.53,1.53 0 0 0 -0.26,0.31 1.73,1.73 0 0 0 -0.16,0.37 1.17,1.17 0 0 0 -0.06,0.41 1,1 0 0 0 0.05,0.42 1.4,1.4 0 0 0 0.65,0.84 1.51,1.51 0 0 0 0.37,0.15 1.46,1.46 0 0 0 0.42,0 2.16,2.16 0 0 0 0.4,-0.06 2.48,2.48 0 0 0 0.37,-0.17 1.54,1.54 0 0 0 0.31,-0.25 1.58,1.58 0 0 0 0.39,-0.64 1.5,1.5 0 0 0 0,-0.84 1.8,1.8 0 0 0 -0.16,-0.38 1.64,1.64 0 0 0 -0.27,-0.32 1.21,1.21 0 0 0 -0.95,-0.39 1,1 0 0 0 -0.46,0.13 0.87,0.87 0 0 0 -0.33,0.33 0.91,0.91 0 0 0 0,0.93 z" />
      <path
         id="svg_29"
         d="m 143.10264,207.41182 a 4.41,4.41 0 0 0 -1.72,-1 9.86,9.86 0 0 0 -1.94,-0.34 c -0.59,-0.06 -1.19,0 -1.78,-0.06 h -0.86 -0.27 0.15 c 0.2,0 -0.24,-0.1 -0.27,-0.1 a 1.37,1.37 0 0 0 -0.4,-0.05 1.15,1.15 0 0 0 -1.06,0.81 1.29,1.29 0 0 0 0.8,1.54 3,3 0 0 0 1.2,0.15 l 1.89,-0.05 a 13.53,13.53 0 0 1 1.8,0.05 h 0.08 0.2 l 0.45,0.12 c 0.29,0.09 0.59,0.18 0.87,0.29 0.83,0.32 1.48,-0.9 0.85,-1.47 z" />
      <path
         id="svg_30"
         d="m 98.152636,213.08182 c -1.15,0.66 -2.28,2 -1.76,3.37 a 2,2 0 0 0 2.92,1.15 l -1.65,-1.27 a 147.6,147.6 0 0 0 -2.49,14.76 69.78,69.78 0 0 0 -0.4,7.78 c 0,2 0,4.12 1.33,5.78 1.74,2.16 7.940004,5.74 9.290004,1.43 a 3,3 0 0 0 -2.36,-3.77 c -2.12,-0.34 -2.7,2.54 -1.36,3.76 0.85,0.75 2.53,0.3 2.43,-1 a 6.19,6.19 0 0 0 -0.25,-1.54 c -0.38,-1.1 -2.35,-1.4 -2.56,0 a 5.68,5.68 0 0 0 0,1.54 l 2.42,-1 v 0.59 l -1.36,0.36 c 0.57,0.09 0.68,0.44 0.06,0.48 a 4.19,4.19 0 0 1 -1.8,-0.66 6.27,6.27 0 0 1 -2.670004,-2 c -0.72,-1.13 -0.59,-2.69 -0.6,-4 0,-1.46 0,-2.92 0.11,-4.38 a 165.11,165.11 0 0 1 2.44,-17.56 c 0.150004,-0.87 -0.76,-1.87 -1.64,-1.27 a 9.63,9.63 0 0 0 1,-1.24 0.86,0.86 0 0 0 -1,-1.34 z" />
      <path
         fill="#f58220"
         id="svg_32"
         d="m 908.53267,354.23182 c -25.53,-0.37 -51.06002,-0.26 -76.59002,-0.33 -25.53001,-0.07 -51.06001,-0.2 -76.59001,-0.33 -14.3,-0.07 -28.62,-0.26 -42.91,0.11 a 1.31,1.31 0 0 0 0,2.61 c 12.79,0.33 25.61,0.13 38.42,0.12 12.81,-0.01 25.44,-0.12 38.17,-0.18 q 38.29001,-0.19 76.59001,-0.25 c 14.30002,0 28.61002,0 42.91002,-0.24 a 0.76,0.76 0 0 0 0,-1.51 z" />
      <path
         fill="#f58220"
         id="svg_33"
         d="m 908.53267,373.81182 c -25.53,-0.37 -51.06002,-0.27 -76.59002,-0.34 -25.53001,-0.07 -51.06001,-0.2 -76.59001,-0.32 -14.3,-0.07 -28.62,-0.26 -42.91,0.11 a 1.3,1.3 0 0 0 0,2.6 c 12.79,0.34 25.61,0.14 38.42,0.13 12.81,-0.01 25.44,-0.12 38.17,-0.18 q 38.29001,-0.19 76.59001,-0.26 c 14.30002,0 28.61002,0 42.91002,-0.23 a 0.76,0.76 0 0 0 0,-1.51 z" />
      <path
         fill="#f58220"
         id="svg_34"
         d="m 908.53267,393.38182 c -25.53,-0.37 -51.06002,-0.26 -76.59002,-0.33 -25.53001,-0.07 -51.06001,-0.2 -76.59001,-0.33 -14.3,-0.07 -28.62,-0.26 -42.91,0.11 a 1.31,1.31 0 0 0 0,2.61 c 12.79,0.33 25.61,0.13 38.42,0.12 12.81,-0.01 25.44,-0.11 38.17,-0.18 q 38.29001,-0.18 76.59001,-0.25 c 14.30002,0 28.61002,0 42.91002,-0.24 a 0.76,0.76 0 0 0 0,-1.51 z" />
      <path
         fill="#f58220"
         id="svg_35"
         d="m 908.53267,412.96182 c -25.53,-0.37 -51.06002,-0.26 -76.59002,-0.33 -25.53001,-0.07 -51.06001,-0.2 -76.59001,-0.33 -14.3,-0.07 -28.62,-0.26 -42.91,0.11 a 1.31,1.31 0 0 0 0,2.61 c 12.79,0.33 25.61,0.13 38.42,0.12 12.81,-0.01 25.44,-0.12 38.17,-0.18 q 38.29001,-0.19 76.59001,-0.25 c 14.30002,0 28.61002,0 42.91002,-0.24 a 0.76,0.76 0 0 0 0,-1.51 z" />
      <path
         fill="#f58220"
         id="svg_36"
         d="m 908.53267,444.42182 c -25.53,-0.37 -51.06002,-0.27 -76.59002,-0.34 -25.53001,-0.07 -51.06001,-0.2 -76.59001,-0.32 -14.3,-0.07 -28.62,-0.26 -42.91,0.11 a 1.3,1.3 0 0 0 0,2.6 c 12.79,0.34 25.61,0.14 38.42,0.13 12.81,-0.01 25.44,-0.12 38.17,-0.18 q 38.29001,-0.2 76.59001,-0.26 c 14.30002,0 28.61002,0 42.91002,-0.23 a 0.76,0.76 0 0 0 0,-1.51 z" />
      <path
         fill="#f58220"
         id="svg_37"
         d="m 908.53267,463.99182 c -25.53,-0.37 -51.06002,-0.26 -76.59002,-0.33 -25.53001,-0.07 -51.06001,-0.2 -76.59001,-0.33 -14.3,-0.07 -28.62,-0.26 -42.91,0.12 a 1.3,1.3 0 0 0 0,2.6 c 12.79,0.33 25.61,0.13 38.42,0.12 12.81,-0.01 25.44,-0.11 38.17,-0.18 q 38.29001,-0.18 76.59001,-0.25 c 14.30002,0 28.61002,0 42.91002,-0.24 a 0.76,0.76 0 0 0 0,-1.51 z" />
      <path
         fill="#f58220"
         id="svg_38"
         d="m 908.53267,483.57182 c -25.53,-0.37 -51.06002,-0.26 -76.59002,-0.33 -25.53001,-0.07 -51.06001,-0.2 -76.59001,-0.33 -14.3,-0.07 -28.62,-0.26 -42.91,0.11 a 1.31,1.31 0 0 0 0,2.61 c 12.79,0.33 25.61,0.13 38.42,0.12 12.81,-0.01 25.44,-0.12 38.17,-0.18 q 38.29001,-0.19 76.59001,-0.25 c 14.30002,0 28.61002,0 42.91002,-0.24 a 0.76,0.76 0 0 0 0,-1.51 z" />
      <path
         fill="#f58220"
         id="svg_39"
         d="m 908.53267,503.15182 c -25.53,-0.37 -51.06002,-0.27 -76.59002,-0.34 -25.53001,-0.07 -51.06001,-0.2 -76.59001,-0.32 -14.3,-0.07 -28.62,-0.26 -42.91,0.11 a 1.3,1.3 0 0 0 0,2.6 c 12.79,0.34 25.61,0.14 38.42,0.13 12.81,-0.01 25.44,-0.12 38.17,-0.18 q 38.29001,-0.19 76.59001,-0.26 c 14.30002,0 28.61002,0 42.91002,-0.23 a 0.76,0.76 0 0 0 0,-1.51 z" />
      <path
         id="svg_40"
         d="m 621.83264,573.46182 h 8.86 v 314.57 h -8.86 z" />
      <path
         id="svg_41"
         d="m 569.92264,874.09182 h 112.69 v 21.73 h -112.69 z" />
      <path
         id="svg_42"
         d="m 124.70264,225.38182 a 4.43,4.43 0 0 0 2.58,1.13 3.88,3.88 0 0 0 1.36,-0.11 3.65,3.65 0 0 0 0.66,-0.22 1.5,1.5 0 0 0 0.84,-0.64 0.9,0.9 0 0 0 0,-0.9 0.88,0.88 0 0 0 -0.77,-0.45 2.08,2.08 0 0 0 -0.84,0.31 2.26,2.26 0 0 0 -0.22,0.11 c 0.17,-0.11 0.09,0 0,0 h -0.11 a 3.71,3.71 0 0 1 -0.53,0.13 c -0.13,0 0.17,0 0.05,0 h -0.15 -0.28 -0.24 a 1.27,1.27 0 0 0 -0.27,0 c 0,0 0.16,0 0,0 h -0.12 l -0.27,-0.06 -0.25,-0.09 h -0.05 a 4.14,4.14 0 0 1 -0.5,-0.3 0.71,0.71 0 0 0 -0.86,1.12 z" />
      <path
         id="svg_43"
         d="m 131.25264,234.18182 a 44.15,44.15 0 0 1 -8,-1 1.79,1.79 0 0 0 -1.44,0.08 c -0.51,0.37 -0.45,1.16 -0.25,1.76 a 6.07,6.07 0 0 0 5.43,4 3.31,3.31 0 0 0 2.15,-0.6 c 1.09,-0.85 1.18,-2.42 1.19,-3.8" />
      <path
         id="svg_44"
         d="m 131.25264,233.33182 a 43.52,43.52 0 0 1 -6.52,-1 c -1,-0.23 -2.11,-0.69 -3.12,-0.34 a 2.39,2.39 0 0 0 -1.37,2.81 6.79,6.79 0 0 0 3.16,4.27 6.43,6.43 0 0 0 5.4,0.81 c 2.25,-0.85 2.72,-3.18 2.64,-5.34 a 1.12,1.12 0 0 0 -2.23,0 9.24,9.24 0 0 1 -0.21,1.79 1.57,1.57 0 0 1 -0.79,1.18 3.71,3.71 0 0 1 -3.28,-0.38 4.66,4.66 0 0 1 -2.18,-2.48 c 0,-0.1 -0.17,-0.71 -0.11,-0.7 0.06,0.01 -0.1,0.2 -0.1,0.21 0,0.01 0,0 0,0 h 0.2 c 0.77,0.07 1.58,0.27 2.37,0.38 a 43.93,43.93 0 0 0 6.17,0.44 0.85,0.85 0 0 0 0,-1.7 z" />
      <path
         id="svg_45"
         fill="#f58220"
         d="m 123.82264,236.58182 0.74,-0.21 h 0.16 c 0,0 0.23,0 0.14,0 -0.09,0 0.08,0 0.1,0 h 0.19 0.13 c 0,0 0.19,0.07 0.08,0 -0.11,-0.07 0,0 0,0 l 0.09,0.08 c 0.11,0.11 0,-0.09 0,0 0,0.09 0.06,0.18 0,0 a 0.9,0.9 0 0 0 1.1,0.62 l 0.27,-0.11 a 2.11,2.11 0 0 0 0.23,-0.19 c -0.22,0.14 0,0 0.08,0 0.08,0 0.08,0 -0.05,0 h 0.12 c 0,0 0.29,-0.06 0.13,0 -0.16,0.06 0.1,0 0.13,0 h 0.13 q -0.23,0 -0.06,0 c 0.06,0 0.33,0.12 0.07,0 l 0.41,0.16 a 0.93,0.93 0 0 0 0.9,-1.55 2.18,2.18 0 0 0 -1.92,-0.46 2,2 0 0 0 -1.54,1.14 l 1.63,-0.21 a 2.12,2.12 0 0 0 -1.75,-1.11 3.21,3.21 0 0 0 -2.08,0.64 0.72,0.72 0 0 0 -0.29,0.9 0.71,0.71 0 0 0 0.85,0.42 z" />
      <path
         id="svg_46"
         d="m 112.53264,273.25182 a 86,86 0 0 0 1.77,-14.55 c 0.08,-2.45 0,-4.9 -0.15,-7.34 -0.11,-1.77 -0.35,-3.52 -1.93,-4.58 -1.18,-0.79 -2.22,1.08 -1.1,1.89 0.65,0.47 0.56,1.74 0.61,2.44 0.06,1 0.11,2 0.14,2.94 0.07,2.11 0.1,4.24 0.08,6.36 a 116.72,116.72 0 0 1 -0.88,12.66 c -0.11,0.84 1.31,1 1.48,0.2 z" />
      <path
         id="svg_47"
         d="m 143.77264,274.17182 c 0.33,-4.72 0.57,-9.46 0.79,-14.19 0.11,-2.22 0.19,-4.43 0.28,-6.65 a 18,18 0 0 1 1.35,-6.2 c 0.51,-1.28 -1.43,-1.93 -2.12,-0.9 a 12.44,12.44 0 0 0 -1.59,5.82 c -0.2,2.39 -0.17,4.8 -0.2,7.2 -0.06,5 -0.11,9.95 -0.06,14.92 a 0.78,0.78 0 0 0 1.55,0 z" />
      <path
         id="svg_48"
         d="m 109.30264,271.86182 c 0.56,3.51 4.19,5.88 6.74,8 a 36.88,36.88 0 0 0 10,6.15 c 1.77,0.68 3.65,1.2 5.48,0.44 a 21.09,21.09 0 0 0 4.73,-3.31 77.28,77.28 0 0 0 9.21,-8.79 c 1,-1.14 -0.66,-2.83 -1.69,-1.68 a 76.87,76.87 0 0 1 -7.8,7.62 48,48 0 0 1 -4.31,3.37 c -1.69,1.14 -3.19,0.74 -5,0.08 a 36.75,36.75 0 0 1 -9,-5.3 c -2.49,-1.84 -5.89,-3.85 -6.92,-6.95 a 0.76,0.76 0 0 0 -1.46,0.4 z" />
      <path
         id="svg_49"
         d="m 64.792636,294.15182 a 0.7,0.7 0 0 0 0,-1.4 0.7,0.7 0 0 0 0,1.4 z" />
      <path
         id="svg_50"
         d="m 61.452636,295.36182 c -7.73,3.49 -13.52,10.34 -17.34,17.92 -3.82,7.58 -5.87,15.87 -7.9,24.1 l -10.56,42.93 a 238.41,238.41 0 0 0 -5.43,26.39 c -1.43,11.15 -1.05,23.2 5.1,32.61 7,10.7 19.85,15.8 32.16,19.2 a 227.65,227.65 0 0 0 84.570004,6.92 5.8,5.8 0 0 0 3.41,-1.14 5.65,5.65 0 0 0 1.38,-3 56.44,56.44 0 0 0 1.4,-12.62 9.7,9.7 0 0 0 -0.87,-4.66 c -1,-1.74 -2.79,-2.78 -4.58,-3.64 -6.86,-3.32 -14.28,-5.29 -21.56,-7.54 -22.160004,-6.86 -43.350004,-16.5 -64.460004,-26.11 -1.3,0.72 -0.55,3.17 0.92,3.05 q 8.61,-27.78 16.13,-55.86" />
      <path
         id="svg_51"
         d="m 61.082636,294.70182 a 33.78,33.78 0 0 0 -13.84,11.27 60.23,60.23 0 0 0 -8.54,17.73 c -2.17,6.89 -3.79,14 -5.53,21.08 l -5.46,22.19 c -3.53,14.29 -7.82,28.71 -9.1,43.43 -1.08,12.3 0.72,25.3 9.57,34.46 8.23,8.56 20.08,12.5 31.26,15.47 a 229.22,229.22 0 0 0 43.310004,7.12 c 7.25,0.49 14.53,0.64 21.8,0.43 q 5.44,-0.17 10.89,-0.58 c 1.73,-0.14 3.46,-0.29 5.19,-0.47 a 13.33,13.33 0 0 0 4.56,-0.87 c 2.86,-1.4 3.13,-5.24 3.56,-8 a 48.61,48.61 0 0 0 0.69,-10.57 8.41,8.41 0 0 0 -4.36,-7.18 55,55 0 0 0 -9.72,-4.18 c -6.8,-2.42 -13.81,-4.26 -20.65,-6.57 -6.84,-2.31 -13.86,-4.94 -20.670004,-7.7 -6.81,-2.76 -13.69,-5.73 -20.46,-8.74 -3.37,-1.5 -6.72,-3 -10.08,-4.53 l -4.8,-2.19 c -1.33,-0.6 -2.58,-1.23 -3.48,0.33 a 3,3 0 0 0 2.47,4.4 1.24,1.24 0 0 0 1.18,-0.9 c 5.73,-18.51 11.17,-37.12 16.18,-55.84 a 1.28,1.28 0 0 0 -2.46,-0.68 q -7.53,28.09 -16.06,55.86 l 1.18,-0.9 c -0.25,0 -0.55,-0.59 -0.31,-0.76 h -1.25 c 12.48,5.68 25,11.36 37.68,16.49 6.220004,2.51 12.510004,4.89 18.860004,7.07 6.35,2.18 12.94,4 19.37,6.12 a 86.36,86.36 0 0 1 9.48,3.67 15.84,15.84 0 0 1 3.56,2.07 5.61,5.61 0 0 1 1.86,4.15 45.09,45.09 0 0 1 -0.62,9.91 37.19,37.19 0 0 1 -0.89,4.42 c -0.5,1.74 -1.5,2.23 -3.22,2.44 a 210.87,210.87 0 0 1 -40.43,0.72 225.82,225.82 0 0 1 -39.860004,-6.46 c -10.65,-2.72 -22,-6.08 -30.29,-13.61 a 31.3,31.3 0 0 1 -8.93,-13.89 50.1,50.1 0 0 1 -1.89,-17.61 c 0.67,-13.37 4.46,-26.49 7.64,-39.42 3.36,-13.71 6.62,-27.45 10.11,-41.13 a 96.44,96.44 0 0 1 6.32,-18.48 46.3,46.3 0 0 1 10.09,-13.57 27.78,27.78 0 0 1 6.82,-4.69 c 0.85,-0.42 0.11,-1.61 -0.73,-1.25 z" />
      <path
         id="svg_52"
         d="m 169.15264,439.70182 c -3.9,-2.17 -8.56,-1.53 -12.73,-0.54 a 34.8,34.8 0 0 0 -12.74,5.54 c -1.32,1 -0.18,3.2 1.35,2.3 1.85,-1.08 3.59,-2.27 5.53,-3.22 a 40.94,40.94 0 0 1 5.65,-2.23 c 3.82,-1.19 8.32,-2.35 12.11,-0.51 0.94,0.46 1.77,-0.9 0.83,-1.41 z" />
      <path
         id="svg_53"
         d="m 181.23264,446.35182 c -3.88,0.06 -7.75,-0.07 -11.62,-0.3 -1.9,-0.11 -3.79,-0.26 -5.69,-0.45 -1.9,-0.19 -3.94,-0.64 -5.89,-0.66 a 1.05,1.05 0 0 0 -0.28,2.06 34.32,34.32 0 0 0 5.72,0.65 q 3,0.24 5.91,0.35 c 4,0.14 7.91,0.05 11.85,-0.18 a 0.74,0.74 0 0 0 0,-1.47 z" />
      <path
         id="svg_54"
         d="m 175.39264,468.54182 a 48.79,48.79 0 0 1 -17.12,-0.61 c -2.74,-0.53 -5.43,-1.23 -8.11,-2 -2.68,-0.77 -5.42,-1.9 -8.17,-2.69 -1.38,-0.41 -2.39,1.77 -1,2.4 a 60.26,60.26 0 0 0 8.48,2.83 69.2,69.2 0 0 0 8.87,1.86 51.84,51.84 0 0 0 17.44,-0.4 c 0.9,-0.18 0.51,-1.52 -0.38,-1.37 z" />
      <path
         id="svg_55"
         d="m 181.20264,453.17182 a 21.91,21.91 0 0 1 -3.78,0.53 c -0.63,0 -1.27,0 -1.91,0 a 4,4 0 0 0 -2.15,0.12 0.91,0.91 0 0 0 -0.19,1.41 3.33,3.33 0 0 0 2.36,0.47 17.34,17.34 0 0 0 6.06,-1.18 0.71,0.71 0 0 0 -0.37,-1.37 z" />
      <path
         id="svg_56"
         d="m 180.85264,460.97182 c -1.55,0 -3.09,-0.12 -4.63,-0.23 -0.76,-0.05 -1.52,-0.1 -2.27,-0.18 a 23.39,23.39 0 0 0 -2.35,-0.24 1.06,1.06 0 0 0 -0.29,2.08 14.41,14.41 0 0 0 2.46,0.2 c 0.78,0 1.57,0.05 2.36,0.05 1.57,0 3.15,-0.11 4.72,-0.26 a 0.71,0.71 0 0 0 0,-1.42 z" />
      <path
         id="svg_57"
         d="m 187.82264,293.96182 48,24.6 c 5.62,2.88 11.35,5.79 17.59,6.81 8.29,1.35 16.74,-0.78 24.73,-3.39 16.79,-5.49 32.77,-13.15 48.77,-20.64 4.09,-1.91 8.55,-3.87 13,-2.91 5.28,1.15 8.79,6.09 11.3,10.88 1.38,2.63 2.64,5.46 2.55,8.43 -0.18,5.45 -4.75,9.61 -9,13 -14.08,11.45 -28.58,22.68 -45,30.38 -20.36,9.54 -43.27,8.89 -64.89,4.69 -21.23,-4.12 -43.78,-9.89 -62.25,-21.5" />
      <path
         id="svg_58"
         d="m 187.46264,294.59182 c 12.38,6.67 24.89,13.09 37.39,19.54 6,3.1 12,6.45 18.15,9.16 a 38.88,38.88 0 0 0 18.29,3.61 c 6.52,-0.42 12.84,-2.29 19,-4.36 6.16,-2.07 12.46,-4.53 18.56,-7.1 6.1,-2.57 12.25,-5.37 18.31,-8.19 3,-1.41 6.06,-2.83 9.09,-4.25 a 37.45,37.45 0 0 1 9.12,-3.41 c 6,-1.06 10.34,3 13.28,7.74 a 26.08,26.08 0 0 1 3.64,8.11 10.14,10.14 0 0 1 -1.81,7.88 29.63,29.63 0 0 1 -5.71,5.86 c -2.38,2 -4.8,3.89 -7.21,5.81 -5,4 -10.15,7.89 -15.43,11.56 -10.33,7.15 -21.44,13.93 -33.6,17.39 -12,3.4 -24.59,3.87 -36.92,2.75 -12.17,-1.1 -24.26,-3.75 -36.07,-6.82 a 164.85,164.85 0 0 1 -34.14,-12.67 c -2.67,-1.37 -5.29,-2.86 -7.83,-4.45 -2,-1.27 -3.9,1.94 -1.88,3.21 10.68,6.71 22.46,11.34 34.54,14.85 a 268.52,268.52 0 0 0 36.78,8 c 12.64,1.81 25.51,2.19 38.1,-0.25 12.59,-2.44 24.33,-8.24 35.21,-15.13 a 273.27,273.27 0 0 0 30.83,-23 c 4,-3.42 8.16,-7.92 7.85,-13.59 -0.18,-3.15 -1.58,-6.08 -3.06,-8.81 a 30,30 0 0 0 -4.71,-6.67 14.53,14.53 0 0 0 -6.27,-3.94 15.48,15.48 0 0 0 -9.27,0.6 89.19,89.19 0 0 0 -9,4 c -3.1,1.45 -6.2,2.91 -9.31,4.34 -12.57,5.82 -25.33,11.46 -38.62,15.46 -6.42,1.93 -13.16,3.35 -19.9,2.57 -6.58,-0.75 -12.59,-3.83 -18.41,-6.78 q -19.38,-9.86 -38.78,-19.64 c -3.13,-1.57 -6.28,-3.09 -9.43,-4.62 -0.83,-0.4 -1.56,0.8 -0.73,1.25 z" />
      <path
         id="svg_59"
         d="m 338.53264,301.70182 c 1.19,-4 1.57,-8.31 3.12,-12.23 a 14.7,14.7 0 0 1 9.31,-8.4 35.58,35.58 0 0 1 7,-1.47 c 1.19,-0.14 2.4,-0.29 3.59,-0.38 1.19,-0.09 2.4,-0.06 2.53,1.33 0.21,2.14 -2.72,3.93 -4.25,4.91 a 23.46,23.46 0 0 1 -6.34,2.84 1.18,1.18 0 0 0 -0.51,1.94 7,7 0 0 1 1.12,6.78 c -0.35,1.18 1.51,2 2,0.86 a 8.84,8.84 0 0 0 -1.52,-9.28 l -0.51,1.94 c 3.93,-1.12 8.32,-3.24 10.95,-6.49 a 4.88,4.88 0 0 0 1,-4.9 c -0.77,-1.87 -2.66,-2.32 -4.51,-2.19 -8.31,0.59 -17.89,2.48 -21.48,11 -1.79,4.23 -2,8.89 -3.08,13.31 a 0.81873378,0.81873378 0 0 0 1.58,0.43 z" />
      <path
         id="svg_60"
         d="m 374.28264,268.91182 a 29.05,29.05 0 0 0 -9.8,3.13 56.9,56.9 0 0 0 -8.95,5.66 c -0.91,0.72 0.26,2.15 1.22,1.58 1.44,-0.83 2.78,-1.86 4.18,-2.76 1.4,-0.9 2.83,-1.76 4.3,-2.56 a 35.47,35.47 0 0 1 9.23,-3.65 c 0.77,-0.17 0.62,-1.5 -0.19,-1.4 z" />
      <path
         id="svg_61"
         d="m 369.20264,282.13182 a 3.6,3.6 0 0 1 1.95,2.74 5.65,5.65 0 0 1 -0.09,1.95 10.58,10.58 0 0 1 -0.79,2.23 1.07,1.07 0 0 0 0.38,1.43 1.05,1.05 0 0 0 1.44,-0.37 9,9 0 0 0 0.92,-5.81 4.68,4.68 0 0 0 -3.24,-3.51 c -0.78,-0.21 -1.35,1 -0.57,1.34 z" />
      <path
         id="svg_62"
         d="m 376.38264,288.77182 a 10.24,10.24 0 0 1 -0.89,5.29 12.62,12.62 0 0 1 -3.44,4.21 c -0.81,0.7 0.24,2 1.14,1.47 a 10.3,10.3 0 0 0 3.94,-5 11.63,11.63 0 0 0 0.69,-6.18 c -0.13,-0.8 -1.53,-0.62 -1.44,0.2 z" />
      <path
         id="svg_63"
         d="m 377.05264,299.31182 c 0.62,2.25 -1.17,4.23 -2.43,5.95 a 27.94,27.94 0 0 1 -2.16,2.69 3,3 0 0 1 -1.35,1 c -0.26,0 -1.08,0 -1,-0.47 0.26,-1.09 -1.17,-2.09 -2,-1.16 a 28.83,28.83 0 0 1 -7.59,6.46 16.09,16.09 0 0 1 -9.72,1.83 c -1.38,-0.15 -1.63,2.06 -0.32,2.39 7.62,1.94 14.73,-3.49 19.31,-9 l -2,-1.15 a 2.84,2.84 0 0 0 2.27,3.37 c 1.93,0.44 3.46,-1.11 4.53,-2.48 a 30.94,30.94 0 0 0 3.6,-5.35 c 0.73,-1.51 1.16,-3.38 0,-4.79 -0.48,-0.59 -1.41,0.05 -1.22,0.72 z" />
      <path
         id="svg_65"
         d="m 129.94264,293.86182 a 5.07,5.07 0 0 0 -1.48,0.81 2,2 0 0 0 -0.71,1.64 2,2 0 0 0 1,1.65 1.78,1.78 0 0 0 1.28,0.15 2.75,2.75 0 0 0 1,-0.62 1.71,1.71 0 0 0 0.58,-1.48 2.29,2.29 0 0 0 -0.59,-1.13 l 0.17,0.23 a 0.55,0.55 0 0 1 -0.09,-0.14 l 0.11,0.26 c 0,0 0,0 0,0 v 0.29 -0.07 0.29 l -0.1,0.26 a 1,1 0 0 0 0.11,-0.83 1.11,1.11 0 0 0 -0.38,-0.57 1.1,1.1 0 0 0 -1.43,0.09 1.31,1.31 0 0 0 -0.32,1.28 2.21,2.21 0 0 0 0.48,0.79 l -0.17,-0.22 a 1.2,1.2 0 0 1 0.13,0.21 l -0.11,-0.26 a 0.54,0.54 0 0 1 0,0.1 v -0.29 0.11 -0.29 0.1 l 0.11,-0.26 a 0.91,0.91 0 0 1 -0.09,0.17 l 0.17,-0.22 a 1.53,1.53 0 0 1 -0.29,0.28 l 0.22,-0.17 a 1.32,1.32 0 0 1 -0.32,0.2 l 0.27,-0.11 -0.23,0.07 h 0.29 -0.17 0.29 -0.16 l 0.25,0.1 a 0.54,0.54 0 0 1 -0.16,-0.1 l 0.21,0.17 a 0.87,0.87 0 0 1 -0.16,-0.17 l 0.16,0.21 a 1.71,1.71 0 0 1 -0.13,-0.23 l 0.1,0.25 c 0,-0.1 -0.06,-0.2 -0.08,-0.3 v 0.27 a 1.22,1.22 0 0 1 0,-0.27 v 0.26 a 2.85,2.85 0 0 1 0.11,-0.39 l -0.1,0.23 a 1.83,1.83 0 0 1 0.23,-0.38 l -0.14,0.18 a 4.48,4.48 0 0 1 0.81,-0.76 0.64,0.64 0 0 0 0.2,-0.42 0.74,0.74 0 0 0 -0.08,-0.46 0.88,0.88 0 0 0 -0.26,-0.25 0.73,0.73 0 0 0 -0.56,-0.08 z" />
      <path
         id="svg_66"
         d="m 129.94264,305.31182 a 5.07,5.07 0 0 0 -1.48,0.81 2,2 0 0 0 -0.71,1.64 2,2 0 0 0 1,1.65 1.78,1.78 0 0 0 1.28,0.15 2.75,2.75 0 0 0 1,-0.62 1.71,1.71 0 0 0 0.58,-1.48 2.29,2.29 0 0 0 -0.59,-1.13 l 0.17,0.23 a 0.55,0.55 0 0 1 -0.09,-0.14 l 0.11,0.26 c 0,0 0,0 0,-0.05 v 0.29 -0.07 0.29 c 0,0 0,0 0,0 l -0.1,0.26 a 0.08,0.08 0 0 1 0,-0.05 1,1 0 0 0 0.11,-0.83 1.11,1.11 0 0 0 -0.38,-0.57 1.1,1.1 0 0 0 -1.43,0.09 1.31,1.31 0 0 0 -0.32,1.28 2.21,2.21 0 0 0 0.48,0.79 l -0.17,-0.22 a 1.2,1.2 0 0 1 0.13,0.21 l -0.11,-0.26 a 0.54,0.54 0 0 1 0,0.1 v -0.29 0.05 -0.29 0.1 l 0.11,-0.26 a 0.91,0.91 0 0 1 -0.09,0.17 l 0.17,-0.22 a 1.53,1.53 0 0 1 -0.29,0.28 l 0.22,-0.17 a 1.32,1.32 0 0 1 -0.32,0.2 l 0.27,-0.11 -0.23,0.07 h 0.29 -0.17 0.29 -0.16 l 0.25,0.1 a 0.54,0.54 0 0 1 -0.16,-0.1 l 0.21,0.17 a 0.87,0.87 0 0 1 -0.16,-0.17 l 0.16,0.21 a 1.71,1.71 0 0 1 -0.13,-0.23 l 0.1,0.25 c 0,-0.1 -0.06,-0.2 -0.08,-0.3 v 0.27 a 1.22,1.22 0 0 1 0,-0.27 v 0.26 a 2.85,2.85 0 0 1 0.11,-0.39 l -0.1,0.23 a 1.83,1.83 0 0 1 0.23,-0.38 l -0.14,0.18 a 4.48,4.48 0 0 1 0.81,-0.76 0.64,0.64 0 0 0 0.2,-0.42 0.74,0.74 0 0 0 -0.08,-0.46 0.88,0.88 0 0 0 -0.26,-0.25 0.73,0.73 0 0 0 -0.56,-0.08 z" />
      <path
         id="svg_67"
         d="m 129.94264,316.76182 a 5.07,5.07 0 0 0 -1.48,0.81 2,2 0 0 0 -0.71,1.64 2,2 0 0 0 1,1.65 1.78,1.78 0 0 0 1.28,0.15 2.75,2.75 0 0 0 1,-0.62 1.71,1.71 0 0 0 0.58,-1.48 2.29,2.29 0 0 0 -0.59,-1.13 l 0.17,0.23 a 0.55,0.55 0 0 1 -0.09,-0.14 l 0.11,0.26 c 0,0 0,0 0,-0.05 v 0.29 -0.07 0.29 l -0.1,0.26 a 0.08,0.08 0 0 1 0,-0.05 1,1 0 0 0 0.11,-0.83 1.11,1.11 0 0 0 -0.38,-0.57 1.1,1.1 0 0 0 -1.43,0.09 1.31,1.31 0 0 0 -0.32,1.28 2.21,2.21 0 0 0 0.48,0.79 l -0.17,-0.22 a 1.2,1.2 0 0 1 0.13,0.21 l -0.11,-0.26 a 0.54,0.54 0 0 1 0,0.1 v -0.29 0.11 -0.29 0.1 l 0.11,-0.32 a 0.91,0.91 0 0 1 -0.09,0.17 l 0.17,-0.22 a 1.53,1.53 0 0 1 -0.29,0.28 l 0.22,-0.17 a 1.32,1.32 0 0 1 -0.32,0.2 l 0.27,-0.11 -0.23,0.07 h 0.29 -0.17 0.29 -0.16 l 0.25,0.1 a 0.54,0.54 0 0 1 -0.16,-0.1 l 0.21,0.17 a 0.87,0.87 0 0 1 -0.16,-0.17 l 0.16,0.21 a 1.71,1.71 0 0 1 -0.13,-0.23 l 0.1,0.25 c 0,-0.1 -0.06,-0.2 -0.08,-0.3 v 0.27 a 1.22,1.22 0 0 1 0,-0.27 v 0.26 a 2.85,2.85 0 0 1 0.11,-0.39 l -0.1,0.23 a 1.83,1.83 0 0 1 0.23,-0.38 l -0.14,0.18 a 4.48,4.48 0 0 1 0.81,-0.76 0.64,0.64 0 0 0 0.2,-0.42 0.74,0.74 0 0 0 -0.08,-0.46 0.88,0.88 0 0 0 -0.26,-0.25 0.73,0.73 0 0 0 -0.56,-0.08 z" />
      <path
         id="svg_68"
         d="m 648.53264,312.52182 a 305.86,305.86 0 0 1 55.75,-59.63 c 9.09,-7.43 20.85,-14.71 31.85,-10.61 4,1.47 7.74,4.38 11.88,3.64 2.18,-0.39 4,-1.77 5.8,-3.12 a 335.13,335.13 0 0 0 54.2,-52.34 37.56,37.56 0 0 0 -9.23,-10.88 361.28,361.28 0 0 1 59.00001,-19.15 366,366 0 0 1 -15.88,56.76 42.8,42.8 0 0 1 -12.06,-8.59 c -11.64,19.83 -24.00001,39.55 -40.24001,55.79 -5.51,5.49 -18.16,15.48 -25.38,18.38 -7.78,3.14 -20.76,-5.58 -28.13,-1.56 -21.21,11.57 -35.18,31.73 -52.39,53 -2.07,2.56 -4.4,5.27 -7.62,6 -3.53,0.76 -7.07,-1.14 -10,-3.3 a 48.68,48.68 0 0 1 -15.82,-20.21" />
      <path
         id="svg_69"
         d="m 649.23264,312.96182 a 305.41,305.41 0 0 1 27,-32.46 281.62,281.62 0 0 1 30.57,-28 c 5.27,-4.09 11.17,-7.94 17.75,-9.45 a 19.72,19.72 0 0 1 9.23,0 c 3.23,0.82 6,2.73 9.16,3.77 a 10.35,10.35 0 0 0 8.8,-0.85 71.4,71.4 0 0 0 8.33,-6.3 q 8.25,-6.6 16.06,-13.71 a 337.25,337.25 0 0 0 32.84,-34.46 1.46,1.46 0 0 0 0.22,-1.68 39.74,39.74 0 0 0 -9.45,-11.16 l -0.28,2.18 a 358.83,358.83 0 0 1 45.32001,-15.65 q 6.63,-1.8 13.33,-3.36 l -1.71,-1.71 a 369.68,369.68 0 0 1 -15.87,56.7 l 2,-0.83 a 42.57,42.57 0 0 1 -11.78,-8.38 1.41,1.41 0 0 0 -2.19,0.28 c -9.34,15.91 -19.03,31.74 -31.03001,45.81 a 126.24,126.24 0 0 1 -16.27,16.18 c -2.91,2.36 -5.9,4.61 -9,6.7 a 46.91,46.91 0 0 1 -8.3,4.78 c -2.71,1.12 -5.75,0.7 -8.54,0.13 -3.38,-0.68 -6.68,-1.72 -10.08,-2.32 -2.92,-0.52 -6.09,-0.81 -8.91,0.33 a 33.81,33.81 0 0 0 -5,2.8 c -1.73,1.07 -3.43,2.22 -5.08,3.41 -13.75,10 -24.43,23.36 -34.89,36.54 -2.82,3.55 -5.62,7.11 -8.47,10.63 -2.49,3.08 -5.44,6.79 -9.89,5.95 -4.21,-0.79 -8,-4.25 -10.91,-7.15 a 47.4,47.4 0 0 1 -7.74,-9.92 46.61,46.61 0 0 1 -2.75,-5.47 c -0.7,-1.64 -3.43,-0.92 -2.72,0.75 a 50.35,50.35 0 0 0 15.34,20.24 c 3.42,2.67 7.61,5.26 12.15,4.28 4.15,-0.9 6.87,-4.63 9.37,-7.74 11.12,-13.85 21.68,-28.48 35.11,-40.23 a 93.39,93.39 0 0 1 9.9,-7.59 c 2.82,-1.86 5.94,-4.31 9.45,-4.46 6.81,-0.31 13.18,3.38 20,3.32 3.12,0 5.79,-1.27 8.47,-2.77 a 89.43,89.43 0 0 0 9.06,-6 121.44,121.44 0 0 0 16.66,-14.73 c 12.88,-13.82 23.25001,-29.72 32.92001,-45.89 q 1.83,-3.08 3.65,-6.17 l -2.19,0.28 a 44.9,44.9 0 0 0 12.34,8.82 1.43,1.43 0 0 0 2,-0.84 369.64,369.64 0 0 0 15.87,-56.76 1.41,1.41 0 0 0 -1.71,-1.71 361.33,361.33 0 0 0 -46.44,14.13 q -6.50001,2.46 -12.87001,5.16 a 1.39,1.39 0 0 0 -0.28,2.18 37.63,37.63 0 0 1 9,10.6 l 0.21,-1.68 a 338,338 0 0 1 -29.2,31.11 q -7.71,7.22 -15.86,14 -4.18,3.47 -8.5,6.79 c -2.73,2.11 -5.41,4 -9,3 -3.06,-0.83 -5.73,-2.69 -8.75,-3.66 a 21.22,21.22 0 0 0 -9.47,-0.69 c -6.55,0.93 -12.56,4.33 -17.86,8.15 a 182,182 0 0 0 -15.72,13.11 c -5.25,4.74 -10.35,9.67 -15.24,14.78 a 309.2,309.2 0 0 0 -29.65,36.05 c -0.65,0.93 0.86,1.79 1.51,0.88 z" />
      <path
         id="svg_70"
         d="m 356.25264,407.04182 h 265.58 v 19.35 h -265.58 z" />
      <path
         id="svg_71"
         d="m 621.83264,424.29182 h -254.8 c -3.43,0 -6.9,-0.17 -10.33,0 h -0.45 l 2.1,2.1 v -19.35 l -2.1,2.1 h 254.8 c 3.43,0 6.91,0.17 10.33,0 h 0.45 l -2.1,-2.1 v 19.35 c 0,2.7 4.2,2.7 4.2,0 v -19.35 a 2.13,2.13 0 0 0 -2.1,-2.1 h -254.8 c -3.44,0 -6.89,-0.07 -10.33,0 h -0.45 a 2.13,2.13 0 0 0 -2.1,2.1 v 19.35 a 2.13,2.13 0 0 0 2.1,2.1 h 254.8 c 3.44,0 6.89,0.06 10.33,0 h 0.45 c 2.7,0 2.7,-4.2 0,-4.2 z" />
      <path
         id="svg_72"
         d="m 621.83264,511.13182 h -254.8 c -3.43,0 -6.9,-0.17 -10.33,0 h -0.45 l 2.1,2.1 v -101.86 a 38.3,38.3 0 0 0 0,-4.15 v -0.18 l -2.1,2.1 h 254.8 c 3.43,0 6.91,0.17 10.33,0 h 0.45 l -2.1,-2.1 v 93.12 c 0,4.28 -0.17,8.6 0,12.88 a 1.21,1.21 0 0 1 0,0.19 c 0,2.7 4.2,2.7 4.2,0 v -93.13 c 0,-4.28 0.18,-8.6 0,-12.88 v -0.18 a 2.13,2.13 0 0 0 -2.1,-2.1 h -254.8 c -3.44,0 -6.89,-0.07 -10.33,0 h -0.45 a 2.13,2.13 0 0 0 -2.1,2.1 v 93.12 c 0,4.28 -0.17,8.6 0,12.88 v 0.19 a 2.13,2.13 0 0 0 2.1,2.1 h 254.8 c 3.44,0 6.89,0.06 10.33,0 h 0.45 c 2.7,0 2.7,-4.2 0,-4.2 z" />
      <path
         id="svg_73"
         d="m 487.25264,511.13182 h -44.86 l 2.1,2.1 v -101.87 c 0,-1.35 0.13,-2.79 0,-4.14 a 1.08,1.08 0 0 1 0,-0.18 l -2.1,2.1 h 44.86 l -2.1,-2.1 v 93.09 c 0,4.29 -0.17,8.62 0,12.91 v 0.19 c 0,2.7 4.2,2.7 4.2,0 v -93.1 c 0,-4.29 0.17,-8.62 0,-12.91 v -0.18 a 2.13,2.13 0 0 0 -2.1,-2.1 h -44.86 a 2.13,2.13 0 0 0 -2.11,2.1 v 93.09 c 0,4.29 -0.17,8.62 0,12.91 a 1.21,1.21 0 0 1 0,0.19 2.14,2.14 0 0 0 2.11,2.1 h 44.86 c 2.7,0 2.7,-4.2 0,-4.2 z" />
      <path
         id="svg_74"
         d="m 532.11264,511.13182 h -44.86 l 2.1,2.1 v -101.87 a 40.83,40.83 0 0 0 0,-4.14 1.08,1.08 0 0 1 0,-0.18 l -2.1,2.1 h 44.86 l -2.1,-2.1 v 93.09 c 0,4.29 -0.17,8.62 0,12.91 v 0.19 c 0,2.7 4.2,2.7 4.2,0 v -93.1 c 0,-4.29 0.17,-8.62 0,-12.91 v -0.18 a 2.13,2.13 0 0 0 -2.1,-2.1 h -44.86 a 2.13,2.13 0 0 0 -2.1,2.1 v 93.09 c 0,4.29 -0.17,8.62 0,12.91 v 0.19 a 2.13,2.13 0 0 0 2.1,2.1 h 44.86 c 2.7,0 2.71,-4.2 0,-4.2 z" />
      <path
         id="svg_75"
         d="m 576.97264,511.13182 h -44.86 l 2.1,2.1 v -101.87 a 40.83,40.83 0 0 0 0,-4.14 1.08,1.08 0 0 1 0,-0.18 l -2.1,2.1 h 44.86 l -2.1,-2.1 v 93.09 c 0,4.29 -0.17,8.62 0,12.91 v 0.19 c 0,2.7 4.2,2.7 4.2,0 v -93.1 c 0,-4.29 0.17,-8.62 0,-12.91 v -0.18 a 2.13,2.13 0 0 0 -2.1,-2.1 h -44.86 a 2.13,2.13 0 0 0 -2.1,2.1 v 93.09 c 0,4.29 -0.17,8.62 0,12.91 v 0.19 a 2.13,2.13 0 0 0 2.1,2.1 h 44.86 c 2.7,0 2.71,-4.2 0,-4.2 z" />
      <path
         id="svg_76"
         d="m 621.83264,511.13182 h -44.86 l 2.1,2.1 v -101.87 a 40.83,40.83 0 0 0 0,-4.14 v -0.18 l -2.1,2.1 h 44.86 l -2.1,-2.1 v 93.09 c 0,4.29 -0.17,8.62 0,12.91 a 1.21,1.21 0 0 1 0,0.19 c 0,2.7 4.2,2.7 4.2,0 v -93.1 c 0,-4.29 0.17,-8.62 0,-12.91 v -0.18 a 2.13,2.13 0 0 0 -2.1,-2.1 h -44.86 a 2.13,2.13 0 0 0 -2.1,2.1 v 93.09 c 0,4.29 -0.17,8.62 0,12.91 v 0.19 a 2.13,2.13 0 0 0 2.1,2.1 h 44.86 c 2.7,0 2.7,-4.2 0,-4.2 z" />
      <path
         id="svg_77"
         d="m 173.66264,409.82182 c -3.14,9.37 -6.09,18.79 -9,28.23 -0.42,1.36 1.72,1.95 2.13,0.58 2.84,-9.45 5.63,-18.91 8.22,-28.43 a 0.71086215,0.71086215 0 0 0 -1.37,-0.38 z" />
      <path
         id="svg_79"
         d="m 76.432636,348.31182 a 375,375 0 0 0 -11.35,36.46 l 0.45,-0.58 -0.84,0.54 a 1,1 0 0 0 1,1.68 3,3 0 0 0 1.26,-1 11.88,11.88 0 0 0 0.65,-2.46 c 0.4,-1.56 0.81,-3.11 1.23,-4.67 0.91,-3.34 1.82,-6.69 2.79,-10 q 2.88,-9.87 6.26,-19.56 c 0.32,-0.91 -1.11,-1.29 -1.43,-0.4 z" />
      <path
         id="svg_80"
         d="m 65.392636,391.23182 0.8,-0.77 a 0.75,0.75 0 0 0 0.18,-0.28 0.65,0.65 0 0 0 0.07,-0.34 0.62,0.62 0 0 0 -0.07,-0.33 0.68,0.68 0 0 0 -0.18,-0.28 l -0.18,-0.14 a 0.86,0.86 0 0 0 -0.44,-0.12 h -0.23 a 0.86,0.86 0 0 0 -0.39,0.23 l -0.77,0.79 a 1.09,1.09 0 0 0 -0.25,0.61 0.61,0.61 0 0 0 0.08,0.32 0.62,0.62 0 0 0 0.17,0.28 l 0.18,0.13 a 0.8,0.8 0 0 0 0.43,0.12 h 0.22 a 0.91,0.91 0 0 0 0.38,-0.22 z" />
      <path
         id="svg_81"
         d="m 185.05264,316.20182 c 2,5.94 4.86,11.54 6.86,17.48 a 43.13,43.13 0 0 1 2.11,9 29.34,29.34 0 0 1 -0.66,9.34 0.92,0.92 0 0 0 1.77,0.49 c 2.11,-5.8 0.76,-12.86 -1.17,-18.51 -2.12,-6.23 -5.27,-12 -7.49,-18.23 -0.32,-0.88 -1.72,-0.52 -1.42,0.38 z" />
      <path
         id="svg_82"
         d="m 128.72264,335.70182 q 4,5.11 8.18,10.17 a 23,23 0 0 1 1.89,2.41 3.22,3.22 0 0 1 0.15,3.22 c -0.76,1.81 -1.65,3.57 -2.39,5.4 a 80.35,80.35 0 0 0 -5.53,23.07 84.43,84.43 0 0 0 -0.15,13.77 c 0.09,1.18 1.91,1.21 1.86,0 a 88.35,88.35 0 0 1 2.48,-25 89.3,89.3 0 0 1 3.87,-12 c 0.75,-1.86 1.94,-3.76 2.31,-5.75 a 5.56,5.56 0 0 0 -1.57,-4.69 c -3.24,-3.95 -6.69,-7.73 -10.08,-11.54 -0.63,-0.71 -1.58,0.31 -1,1 z" />
      <path
         id="svg_84"
         d="m 48.202636,718.28182 a 26.57,26.57 0 0 0 25.33,12.84 c 2.19,-0.19 4.42,-0.5 6.56,0.17 a 15.7,15.7 0 0 1 4.21,2.3 c 2.53,1.8 5,4 8.15,4.59 3.52,0.7 6.88,-0.58 10.000004,-2 3.12,-1.42 6.5,-3.14 10.19,-3.3 a 28.93,28.93 0 0 1 9.92,1.64 c 6.33,2 12.55,5.05 19.29,5.26 a 22.82,22.82 0 0 0 9.88,-2.15 c 3.28,-1.42 6.45,-3.27 10,-4 7,-1.53 12.76,3.44 19,5.49 a 14.28,14.28 0 0 0 9.65,-0.08 c 3.42,-1.3 6.48,-3.54 10.15,-4.11 6.93,-1.09 14.55,2.54 21,-1.32 1.47,-0.87 2.71,-2.09 4.21,-2.91 1.88,-1 3.42,-0.47 5.18,0.49 a 13.24,13.24 0 0 0 9.65,1.47 12.59,12.59 0 0 0 4.45,-2.07 c 1,-0.72 0,-2.39 -1,-1.66 a 11,11 0 0 1 -9.78,1.68 c -1.67,-0.52 -3.06,-1.64 -4.72,-2.18 a 5.87,5.87 0 0 0 -4.46,0.44 39.5,39.5 0 0 0 -4.06,2.79 11,11 0 0 1 -5,1.75 c -3.51,0.37 -7,-0.31 -10.54,-0.52 a 20.42,20.42 0 0 0 -10.06,1.7 c -3.33,1.51 -6.5,3.62 -10.3,3.45 -6.49,-0.29 -11.69,-5.31 -18,-6.39 -7.21,-1.24 -12.89,3.56 -19.45,5.5 -6.56,1.94 -13.2,-0.47 -19.38,-2.7 -6,-2.17 -12.45,-4.52 -18.93,-3.1 -3.5,0.76 -6.58,2.69 -9.900004,4 -3.32,1.31 -6.58,1.49 -9.76,-0.38 -2.75,-1.62 -5,-3.93 -8,-5.18 -3.59,-1.52 -7.29,-0.42 -11,-0.43 a 25.77,25.77 0 0 1 -18,-7.68 24.73,24.73 0 0 1 -3.2,-4.07 c -0.51,-0.8 -1.78,-0.07 -1.28,0.75 z" />
      <path
         id="svg_85"
         d="m 252.45264,729.22182 a 1.76,1.76 0 0 0 0.92,1.17 2,2 0 0 0 0.84,0.24 2.09,2.09 0 0 0 0.43,0 1.57,1.57 0 0 0 0.43,-0.15 0.8,0.8 0 0 0 -0.19,-1.46 0.86,0.86 0 0 0 -0.61,0.08 h -0.09 l 0.19,-0.08 a 0.77,0.77 0 0 1 -0.26,0.07 h 0.21 a 0.88,0.88 0 0 1 -0.28,0 h 0.2 a 1.11,1.11 0 0 1 -0.3,-0.08 l 0.18,0.08 a 1.61,1.61 0 0 1 -0.28,-0.17 l 0.15,0.12 -0.19,-0.19 0.11,0.15 a 0.94,0.94 0 0 1 -0.12,-0.22 l 0.07,0.17 a 0.42,0.42 0 0 1 0,-0.1 0.72,0.72 0 0 0 -0.33,-0.43 0.71,0.71 0 0 0 -1,0.26 0.78,0.78 0 0 0 -0.07,0.54 z" />
      <path
         id="svg_86"
         d="m 53.452636,668.70182 a 36.2,36.2 0 0 0 33.36,12.22 c 7.17,-1.23 14.630004,-5.18 22.000004,-2.6 5.54,1.94 10,6.87 16.16,7 3.3,0.08 6.26,-1.47 9.17,-2.84 a 18.83,18.83 0 0 1 9.66,-2 c 6.35,0.44 12.38,3.26 18.81,3.05 a 16.84,16.84 0 0 0 8.32,-2.55 c 2.44,-1.48 4.66,-3.36 7.24,-4.6 a 9,9 0 0 1 4,-1 10.79,10.79 0 0 1 4.93,1.71 c 3.06,1.7 5.85,2.89 9.44,2.41 4.25,-0.58 8.23,-2.63 12.28,-4 a 104.42,104.42 0 0 1 12.55,-3.32 106.24,106.24 0 0 1 26,-1.89 c 1.29,0.06 1.28,-1.93 0,-2 a 107.54,107.54 0 0 0 -44.73,7.45 c -3.43,1.33 -7.27,2.8 -11,1.58 -3.08,-1 -5.53,-3.41 -8.87,-3.74 -5.89,-0.6 -10.09,4.76 -15,6.95 -5.93,2.63 -12.56,0.2 -18.5,-1.06 a 28.89,28.89 0 0 0 -9.26,-0.76 c -3.14,0.37 -5.85,1.76 -8.68,3.08 -3.16,1.47 -6.25,2.25 -9.66,1.13 -2.84,-0.94 -5.33,-2.7 -7.92,-4.17 a 20.68,20.68 0 0 0 -8.84,-3 31.7,31.7 0 0 0 -10.270004,1.48 c -3.9,1 -7.76,2.24 -11.82,2.48 a 34.05,34.05 0 0 1 -10.3,-1 34.71,34.71 0 0 1 -17.99,-11.01 c -0.61,-0.72 -1.63,0.32 -1,1 z" />
      <path
         id="svg_87"
         d="m 54.452636,621.50182 a 27.48,27.48 0 0 0 19.34,2.57 c 3.5,-0.77 7.07,-2 10.7,-1.68 3.63,0.32 6.22,2.82 9.36,4.26 5.58,2.58 11.560004,1 17.140004,-0.72 a 56.42,56.42 0 0 1 9.39,-2.38 22.31,22.31 0 0 1 9.72,1.14 c 3.18,1 6.3,2.27 9.62,2.74 3.32,0.47 6.59,-0.24 9.87,-1.25 a 26.46,26.46 0 0 1 9.82,-1.43 78.57,78.57 0 0 1 9,1.38 c 5.6,1 11.78,2 16.92,-1.12 2.45,-1.47 4.35,-3.93 7,-5 3.22,-1.28 6,1.33 9.12,1.77 3.12,0.44 6.27,-0.66 9.24,-1.66 3.53,-1.18 6.77,-2 10.36,-0.63 a 20.57,20.57 0 0 0 5.17,1.62 12.86,12.86 0 0 0 5.43,-0.68 c 3.53,-1.2 6.57,-3.45 9.49,-5.72 1,-0.75 -0.39,-2.09 -1.35,-1.35 -2.74,2.14 -5.68,4.32 -9,5.36 a 10.61,10.61 0 0 1 -4.68,0.46 25.06,25.06 0 0 1 -4.92,-1.68 13.36,13.36 0 0 0 -8.41,0 c -2.93,0.82 -5.8,2.2 -8.86,2.47 a 9.36,9.36 0 0 1 -4.19,-0.6 21.72,21.72 0 0 0 -4.49,-1.56 c -2.79,-0.38 -5.09,1.09 -7.17,2.76 -2.34,1.88 -4.47,3.64 -7.47,4.32 a 23.73,23.73 0 0 1 -8.61,0 c -5.87,-0.89 -11.8,-2.68 -17.78,-1.79 -3.38,0.51 -6.52,2 -9.89,2.54 -3.37,0.54 -6.86,-0.44 -10.13,-1.52 a 45.83,45.83 0 0 0 -9.12,-2.44 25.29,25.29 0 0 0 -8.82,0.84 c -5.82,1.46 -11.89,4.52 -18.000004,3.64 -3.64,-0.53 -6.35,-2.92 -9.6,-4.38 -3.25,-1.46 -6.93,-1.29 -10.46,-0.51 -3.84,0.85 -7.51,2 -11.48,2 a 25.32,25.32 0 0 1 -11.49,-3 c -0.83,-0.43 -1.57,0.82 -0.74,1.27 z" />
      <path
         id="svg_88"
         d="m 58.592636,568.92182 c 2.08,4.71 8.32,4.83 12.58,3.62 3.45,-1 6.91,-2.74 10.57,-2.51 3.27,0.21 5.66,2.48 8.2,4.28 a 14.73,14.73 0 0 0 8.11,2.81 32.74,32.74 0 0 0 8.900004,-1.24 58.13,58.13 0 0 1 9.41,-1.82 20.23,20.23 0 0 1 9.17,1.74 c 3.1,1.28 6.11,2.88 9.42,3.53 a 24.47,24.47 0 0 0 9.53,-0.28 c 6.59,-1.3 13,-4 19.79,-2.24 3.31,0.85 6.59,2.21 10.07,1.79 2.91,-0.36 5.51,-1.8 8.14,-3 2.78,-1.23 5.56,-2 8.46,-0.67 2.63,1.21 5.14,2.89 8.11,1.73 a 27.72,27.72 0 0 0 4.1,-2.5 11.47,11.47 0 0 1 4.18,-1.46 35.29,35.29 0 0 1 8.53,0.08 c 5.14,0.43 11.32,1 14.88,-3.53 0.73,-0.93 -0.58,-2.25 -1.31,-1.31 -3.13,4 -8.55,3.4 -13.07,3 -4.85,-0.4 -10.16,-0.95 -14.46,1.82 a 18.34,18.34 0 0 1 -3.68,2.25 c -1.63,0.56 -3.17,-0.08 -4.63,-0.81 -2.54,-1.27 -4.81,-2.21 -7.7,-1.68 -2.89,0.53 -5.3,2 -7.89,3.12 a 13.67,13.67 0 0 1 -9.39,0.49 c -3.18,-0.86 -6.23,-1.87 -9.56,-1.79 a 41.85,41.85 0 0 0 -9.3,1.55 53.65,53.65 0 0 1 -9.63,1.91 20.85,20.85 0 0 1 -9.46,-1.79 c -3,-1.22 -5.84,-2.74 -9,-3.43 a 22.18,22.18 0 0 0 -8.63,0 c -5.7,1 -11.79,3.72 -17.620004,2.28 -3.4,-0.84 -5.71,-3.39 -8.63,-5.12 -3.15,-1.87 -6.59,-1.82 -10,-0.85 -3.41,0.97 -6.44,2.55 -9.93,2.63 -2.77,0.07 -5.72,-0.7 -7,-3.42 -0.4,-0.87 -1.66,-0.12 -1.28,0.75 z" />
      <path
         id="svg_89"
         d="m 67.242636,525.07182 c 3.39,3.82 8.78,4.25 13.54,3.53 6.21,-0.95 12.28,-4.45 18.7,-3.26 5.530004,1 10.060004,5.06 15.940004,4.52 5.88,-0.54 10.71,-4.24 16.49,-4.39 5.78,-0.15 11.36,3.35 17.33,2.7 2.8,-0.3 5.27,-1.6 7.84,-2.65 a 11,11 0 0 1 8.1,-0.59 c 2.47,0.85 4.7,2.28 7.2,3 a 10.44,10.44 0 0 0 6.74,-0.13 c 4.13,-1.51 7.23,-5 11.36,-6.43 2.67,-1 4.62,-0.09 6.85,1.47 a 7,7 0 0 0 6.6,1.24 28.14,28.14 0 0 0 5.91,-3.42 c 1.7,-1.1 3.84,-2.43 5.91,-1.54 1.09,0.46 2,-1.14 0.94,-1.61 -3.9,-1.66 -7.24,1.28 -10.35,3.28 -1.57,1 -3.42,2.12 -5.36,1.81 -2.49,-0.41 -4.14,-2.82 -6.65,-3.35 -4.17,-0.87 -7.87,2.13 -11.12,4.28 a 18.69,18.69 0 0 1 -5.86,2.91 c -2.59,0.6 -5,-0.33 -7.37,-1.41 -2.37,-1.08 -4.53,-2.24 -7,-2.5 -2.7,-0.28 -5.23,0.71 -7.65,1.77 -2.78,1.2 -5.4,2.27 -8.48,2.08 -3.08,-0.19 -5.83,-1.2 -8.7,-1.91 a 21.19,21.19 0 0 0 -8.23,-0.64 41.93,41.93 0 0 0 -8.12,2.51 20.8,20.8 0 0 1 -8.31,1.76 c -3,-0.16 -5.67,-1.55 -8.33,-2.7 a 19.94,19.94 0 0 0 -9.500004,-2 50.33,50.33 0 0 0 -10.19,2.33 c -5.47,1.6 -12.73,3 -17,-1.85 -0.68,-0.77 -1.81,0.36 -1.13,1.12 z" />
      <path
         id="svg_90"
         d="m 75.632636,487.06182 c 5.49,4.2 12.82,-0.42 18.39,-2.05 3.55,-1 6.760004,-1.12 9.760004,1.28 1.57,1.24 3.11,2.38 5.2,2.31 a 15.11,15.11 0 0 0 5.46,-1.7 c 2,-0.9 4.06,-1.59 6.28,-0.86 2,0.67 3.79,2 5.87,2.53 4.66,1.19 8.33,-2.79 12.72,-3.5 4.64,-0.76 9.37,0.73 13.85,1.74 4.48,1.01 9,1.66 13.55,0.4 2.77,-0.77 5.67,-2.1 8.59,-1.46 2.69,0.58 4.85,2 7.68,1.06 2.83,-0.94 5.26,-2.66 8.06,-3.63 a 33,33 0 0 1 8.91,-1.71 c 1.16,-0.06 1.17,-1.88 0,-1.81 a 34.9,34.9 0 0 0 -14.42,4.04 15.77,15.77 0 0 1 -3.38,1.52 7.08,7.08 0 0 1 -4.3,-0.53 11.89,11.89 0 0 0 -6.93,-0.51 c -2.43,0.54 -4.74,1.58 -7.23,1.9 a 23.24,23.24 0 0 1 -6.91,-0.32 c -4.46,-0.78 -8.81,-2.24 -13.35,-2.56 a 17.73,17.73 0 0 0 -6.36,0.62 c -2.22,0.68 -4.11,2.06 -6.28,2.83 -2.46,0.88 -4.46,0.13 -6.68,-1 -1.8,-0.9 -3.67,-1.81 -5.73,-1.68 -3.83,0.24 -7.93,4.43 -11.71,2.31 -1.68,-0.94 -2.92,-2.4 -4.76,-3.1 a 10,10 0 0 0 -4.480004,-0.5 c -3.78,0.38 -7.25,2.08 -10.79,3.31 -3.36,1.17 -7.14,2.14 -10.23,-0.18 -0.74,-0.57 -1.45,0.69 -0.73,1.24 z" />
      <path
         id="svg_91"
         d="m 203.12264,482.15182 h 1.56 a 0.91,0.91 0 0 0 0.61,-0.25 0.87,0.87 0 0 0 -0.61,-1.48 h -1.56 a 0.93,0.93 0 0 0 -0.61,0.25 0.88,0.88 0 0 0 0,1.23 0.93,0.93 0 0 0 0.61,0.25 z" />
      <path
         id="svg_92"
         d="m 171.75264,428.26182 a 13.27,13.27 0 0 0 9.57,0.86 30.34,30.34 0 0 0 4.35,-2.06 c 1.12,-0.54 4,-1.05 3.87,1.06 a 0.88,0.88 0 0 0 1.09,0.83 c 1.12,-0.23 2.23,-0.48 3.34,-0.74 1.11,-0.26 0.59,-1.78 -0.43,-1.58 -1.02,0.2 -2.25,0.43 -3.37,0.67 l 1.09,0.82 a 3.17,3.17 0 0 0 -2.3,-3 c -1.66,-0.58 -3.29,0.09 -4.74,0.91 a 13.85,13.85 0 0 1 -5.55,2.07 11.66,11.66 0 0 1 -6.18,-1.07 c -0.85,-0.4 -1.59,0.85 -0.74,1.27 z" />
      <path
         id="svg_93"
         d="m 191.20264,456.99182 a 15.59,15.59 0 0 0 10,-1.47 c 1,-0.51 0.11,-2 -0.86,-1.48 a 13.72,13.72 0 0 1 -8.76,1.41 0.81,0.81 0 0 0 -1,0.56 0.8,0.8 0 0 0 0.56,1 z" />
      <path
         stroke="null"
         d="m 457.73475,372.31865 c 34.00426,0 49.60505,1.72062 68.00761,4.96258 13.01258,2.29244 34.00335,4.96262 34.00335,7.4439 0,2.4813 0,7.44389 0,9.9252 0,2.48128 0,4.96258 0,9.92517 0,2.48131 0,4.96259 0,7.4439 0,2.4813 0,4.96258 0,7.44389 0,4.96259 0,7.4439 0,9.92517 0,2.48131 0,4.96262 0,7.4439 0,2.48131 -34.00427,7.44389 0,7.44389 34.00427,0 0,-4.96258 0,-12.40648 0,-4.96258 -50.78277,-22.03036 -68.0067,-29.77558 -10.89361,-4.89851 0,-9.92517 0,-17.36906 0,-4.96259 0,-9.92517 0,-17.36907 0,-2.48131 0,-7.44389 0,-9.9252 0,-2.48128 0,-7.4439 0,-9.92517 0,-9.92521 0,-12.40648 0,-14.88779 v -4.96259"
         id="svg_94"
         fill-opacity="null"
         stroke-opacity="null"
         stroke-width="null"
         fill="none" />
      <rect
         id="svg_95"
         height="87.182648"
         width="89.447128"
         y="154.42227"
         x="483.77631"
         stroke-opacity="null"
         stroke-width="null"
         stroke="null"
         fill="#ffffff" />
      <path
         stroke="null"
         id="svg_3"
         d="m 480.13523,162.72994 v 80.55274 h 77.15601 a 77.156011,80.552736 0 0 0 -77.15601,-80.55274 z" />
    </g>
  </g>
</svg>
