<?xml version="1.0" encoding="UTF-8" standalone="no"?>
<svg
   xmlns:dc="http://purl.org/dc/elements/1.1/"
   xmlns:cc="http://creativecommons.org/ns#"
   xmlns:rdf="http://www.w3.org/1999/02/22-rdf-syntax-ns#"
   xmlns:svg="http://www.w3.org/2000/svg"
   xmlns="http://www.w3.org/2000/svg"
   xmlns:sodipodi="http://sodipodi.sourceforge.net/DTD/sodipodi-0.dtd"
   xmlns:inkscape="http://www.inkscape.org/namespaces/inkscape"
   width="1000px"
   height="600px"
   viewBox="0 0 1000 600"
   version="1.1"
   id="SVGRoot"
   sodipodi:docname="iconfinder-icon.svg"
   inkscape:version="1.0.2 (e86c870879, 2021-01-15, custom)">
  <defs
     id="defs756" />
  <sodipodi:namedview
     id="base"
     pagecolor="#ffffff"
     bordercolor="#666666"
     borderopacity="1.0"
     inkscape:pageopacity="0.0"
     inkscape:pageshadow="2"
     inkscape:zoom="0.7"
     inkscape:cx="806.42857"
     inkscape:cy="339.11661"
     inkscape:document-units="px"
     inkscape:current-layer="layer1"
     inkscape:document-rotation="0"
     showgrid="false"
     inkscape:window-width="1366"
     inkscape:window-height="728"
     inkscape:window-x="0"
     inkscape:window-y="0"
     inkscape:window-maximized="0" />
  <metadata
     id="metadata759">
    <rdf:RDF>
      <cc:Work
         rdf:about="">
        <dc:format>image/svg+xml</dc:format>
        <dc:type
           rdf:resource="http://purl.org/dc/dcmitype/StillImage" />
        <dc:title></dc:title>
      </cc:Work>
    </rdf:RDF>
  </metadata>
  <g
     inkscape:label="Warstwa 1"
     inkscape:groupmode="layer"
     id="layer1">
    <g
       id="g150"
       transform="translate(3.634441,-200.30142)">
      <title
         id="title7">Layer 1</title>
      <path
         id="svg_1"
         fill="#f58220"
         d="m 119.18,605.1 c -1.29,7.71 -2.27,15.47 -3.65,23.16 -1.38,7.69 -2.91,15 -4.66,22.5 a 437.19,437.19 0 0 1 -12.78,44 q -4.29,12.36 -9.34,24.43 c -0.4,1 1.19,1.4 1.59,0.44 a 434.68,434.68 0 0 0 26.2,-88.7 c 1.55,-8.5 3.07,-17.1 3.78,-25.71 0.05,-0.65 -1,-0.81 -1.14,-0.16 z" />
      <path
         id="svg_3"
         d="m 252.89,552.64 c -2.78,-8 -5,-16.25 -7.39,-24.41 -3.44,-11.81 -6.9,-23.62 -10.62,-35.35 -3.77,-11.92 -7.74,-23.83 -12.48,-35.42 -3.55,-8.68 -7.36,-17.77 -13.22,-25.19 -3.43,-4.36 -8.27,-7.45 -13.11,-10.06 A 60.2,60.2 0 0 0 171.3,415 a 52.38,52.38 0 0 0 -6.63,0 c -1.14,0.08 -1.16,1.85 0,1.79 a 57.37,57.37 0 0 1 25.75,4.68 63.07,63.07 0 0 1 11.58,6.53 27.59,27.59 0 0 1 4.74,4.09 51.63,51.63 0 0 1 6.43,9.65 c 2.43,4.45 4.54,9.08 6.52,13.75 4.78,11.3 8.83,22.9 12.65,34.55 3.82,11.65 7.36,23.35 10.86,35.09 2.56,8.6 5,17.25 7.85,25.76 0.23,0.68 0.46,1.35 0.7,2 0.24,0.65 1.39,0.41 1.14,-0.32 z" />
      <path
         id="svg_4"
         d="m 236,565.68 a 133.46,133.46 0 0 0 16.49,-8.13 0.69,0.69 0 0 0 -0.69,-1.19 154,154 0 0 1 -16.21,8.35 c -0.55,0.24 -0.15,1.2 0.41,1 z" />
      <path
         id="svg_6"
         d="m 727.15,454.12 -3.8,-1.29 c -0.1,0 -0.21,-0.08 -0.24,-0.18 -0.03,-0.1 0.06,-0.25 0.16,-0.35 l 7.61,-7.05 a 8.35,8.35 0 0 0 9.55,1.05 0.77,0.77 0 0 1 0.64,-0.16 0.75,0.75 0 0 1 0.35,0.43 c 1.06,2.4 2,4.91 3.72,6.91 0.12,0.14 0.25,0.31 0.19,0.49 a 0.47,0.47 0 0 1 -0.26,0.26 26.47,26.47 0 0 1 -5.38,2.74 27,27 0 0 1 -4.27,0.89 19,19 0 0 1 -4.11,0.32 6.75,6.75 0 0 1 -1.94,-0.38 10.26,10.26 0 0 1 -2.23,-1.21 c -1.64,-1.09 -3.23,-2.26 -4.76,-3.49" />
      <path
         id="svg_7"
         d="m 727.32,453.5 -1.87,-0.73 c -0.42,-0.16 -1.47,-0.37 -1.74,-0.72 l 0.21,0.83 c 0.06,-0.28 1.27,-1.16 1.63,-1.49 l 2,-1.83 c 1.33,-1.21 2.65,-2.45 4,-3.65 h -1.32 a 9.2,9.2 0 0 0 5.27,2.36 9.68,9.68 0 0 0 2.89,-0.15 8.59,8.59 0 0 0 1.42,-0.42 c 0.38,-0.16 0.87,-0.56 1.27,-0.56 l -0.71,-0.29 a 4.79,4.79 0 0 1 0.82,1.68 c 0.26,0.6 0.53,1.21 0.81,1.8 a 11,11 0 0 0 1.9,3.21 c 0.06,0.09 0.13,0.17 0.2,0.26 0.16,0.28 0.32,0.13 0.46,-0.45 a 4.91,4.91 0 0 0 -0.69,0.42 c -0.58,0.34 -1.16,0.69 -1.75,1 a 16.06,16.06 0 0 1 -4,1.55 c -2.43,0.58 -5.65,1.25 -8.1,0.49 a 12.76,12.76 0 0 1 -3.35,-2 c -1.18,-0.83 -2.31,-1.72 -3.42,-2.64 a 1.27,1.27 0 1 0 -1.55,2 q 2.17,1.65 4.46,3.17 a 10.18,10.18 0 0 0 4.18,1.83 16.26,16.26 0 0 0 4.92,-0.26 26.62,26.62 0 0 0 5.43,-1.27 28,28 0 0 0 4.35,-2.25 c 1.28,-0.77 1.63,-1.58 0.67,-2.82 a 22.26,22.26 0 0 1 -2.5,-4.37 c -0.49,-1.09 -0.93,-3.27 -2.5,-3.1 a 11.37,11.37 0 0 0 -2.09,0.86 7.42,7.42 0 0 1 -2.34,0.35 7.61,7.61 0 0 1 -4.77,-1.75 1,1 0 0 0 -1.32,0 c -2.38,2.29 -4.89,4.45 -7.23,6.78 -0.6,0.59 -1.15,1.5 -0.21,2.11 a 6.23,6.23 0 0 0 1.64,0.5 l 2.56,0.74 c 0.81,0.24 1.1,-0.94 0.34,-1.23 z" />
      <path
         fill="#f58220"
         id="svg_8"
         d="m 839.82,703.08 c -45.56,11.58 -90.76,10.67 -136.27,-1.1 -1.72,-0.45 -3.46,-0.93 -5.17,-1.49 v 12.69 c 0,0 -11.14,34.82 -22,81.87 h 242 c 0,0 -6,-36.55 -11.2,-79.33 q -5.7,6.63 -11.66,13 c -9.89,10.62 -22.87,21.59 -37.11,18.79 -8.6,-1.68 -15.37,-8.1 -21.62,-14.24 -1.84,-1.81 -3.77,-3.76 -4.38,-6.28 -0.71,-2.92 0.5,-5.94 1.7,-8.7" />
      <path
         id="svg_9"
         d="m 839.4,701.56 a 263.93,263.93 0 0 1 -55,8 270,270 0 0 1 -54.9,-3.62 q -7.62,-1.29 -15.17,-3 c -5.21,-1.16 -10.46,-2.33 -15.54,-4 a 1.59,1.59 0 0 0 -2,1.52 v 10 a 15.75,15.75 0 0 0 0,2.57 c 0.06,0.29 0.21,-0.54 0,0 -0.13,0.31 -0.21,0.66 -0.31,1 -0.42,1.35 -0.84,2.7 -1.25,4.06 -4.13,13.53 -7.94,27.17 -11.54,40.85 q -4.68,17.8 -8.83,35.76 a 1.6,1.6 0 0 0 1.52,2 h 232.16 c 3.13,0 6.27,0.06 9.4,0 h 0.4 a 1.6,1.6 0 0 0 1.52,-2 c -0.8,-4.92 -1.56,-9.84 -2.31,-14.77 q -2.84,-18.57 -5.36,-37.19 -1.82,-13.47 -3.47,-26.95 c -0.15,-1.2 -1.7,-2.26 -2.7,-1.11 -4.73,5.49 -9.51,11 -14.62,16.13 a 66.71,66.71 0 0 1 -15,11.89 c -5.21,2.84 -11.23,4.54 -17.18,3.48 -6.16,-1.1 -11.38,-4.77 -16,-8.86 a 67.79,67.79 0 0 1 -7.61,-7.45 7.22,7.22 0 0 1 -1.86,-5 17.17,17.17 0 0 1 1.69,-5.71 1.62,1.62 0 0 0 -0.57,-2.15 1.57,1.57 0 0 0 -2.15,0.56 c -1.44,3.34 -2.92,7.07 -1.62,10.7 1.17,3.28 4,5.68 6.44,8 4.88,4.7 10.14,9.3 16.58,11.71 13.53,5.07 26.71,-3 36.38,-12 a 231.64,231.64 0 0 0 17.76,-19.17 l -2.69,-1.12 q 2.81,22.88 6.09,45.68 2.1,14.52 4.37,29 c 0.26,1.68 0.53,3.36 0.8,5 l 1.52,-2 H 686.19 c -3.12,0 -6.29,-0.19 -9.4,0 h -0.41 l 1.52,2 q 6.75,-29.25 14.94,-58.13 2.45,-8.61 5,-17.19 c 0.66,-2.15 1.56,-4.34 2,-6.54 a 9.52,9.52 0 0 0 0.06,-1.85 V 700.49 L 698,702 a 211.72,211.72 0 0 0 27.82,6.45 c 9.14,1.63 18.36,2.84 27.61,3.57 a 264.08,264.08 0 0 0 55.57,-1.4 275.26,275.26 0 0 0 31.28,-6 c 2,-0.5 1.13,-3.54 -0.84,-3 z" />
      <path
         id="svg_10"
         d="m 249.06,584.33 q 4.55,-38.39 12.27,-76.31 a 10,10 0 0 1 1.55,-4.21 c 1.46,-1.89 4,-2.48 6.36,-2.91 a 207.06,207.06 0 0 1 41.21,-3.27 c 2.1,0 4.47,0.24 5.79,1.87 a 7.34,7.34 0 0 1 1.25,3.62 l 2.2,13.81 a 4.35,4.35 0 0 1 -2.48,-4.27 l 87.12,2.12 c 2.4,0.06 5,0.21 6.79,1.84 1.79,1.63 2.07,3.86 2.29,6.06 1.06,10.57 -0.91,21.18 -3,31.6 q -7.32,37.15 -16.24,74 a 7.62,7.62 0 0 1 -1.38,3.28 6.48,6.48 0 0 1 -4.47,2 c -36.05,2.22 -94.27,1.92 -136.65,-5.42 a 6.68,6.68 0 0 1 -3.56,-1.68 c -1.38,-1.37 -1.55,-3.5 -1.61,-5.44 -0.33,-11.22 0.85,-22.74 2.53,-36.61" />
      <path
         fill="#f58220"
         id="svg_11"
         d="m 249.65,584.33 c 2.62,-20.28 5.73,-40.5 9.5,-60.61 q 1.39,-7.5 2.93,-15 c 0.45,-2.19 0.88,-4.43 3,-5.63 a 17.73,17.73 0 0 1 5.86,-1.6 206.32,206.32 0 0 1 30.28,-3 q 4.26,-0.1 8.52,0 c 2.11,0 5,-0.06 6.16,2.07 a 10.89,10.89 0 0 1 0.86,3.51 l 0.66,4.19 1.41,8.88 1.34,-1 a 3.57,3.57 0 0 1 -2,-3.49 l -0.91,0.91 c 29,0.72 58.08,1.35 87.12,2.16 3,0.08 6.2,0.38 7.43,3.57 1.14,3 1,6.61 1,9.73 a 116.81,116.81 0 0 1 -2.58,21.63 c -2.69,14.08 -5.66,28.12 -8.75,42.13 q -2.34,10.63 -4.82,21.23 -1.25,5.31 -2.51,10.6 c -0.38,1.57 -0.67,3.19 -1.18,4.73 a 4.52,4.52 0 0 1 -3.66,3.06 49.89,49.89 0 0 1 -7.23,0.47 l -7.41,0.33 q -7.91,0.3 -15.81,0.43 c -23.74,0.39 -47.54,-0.17 -71.21,-2.12 -11.44,-0.94 -22.87,-2.22 -34.2,-4.12 a 9.41,9.41 0 0 1 -4.07,-1.26 c -1.34,-1 -1.68,-2.54 -1.79,-4.09 a 85.93,85.93 0 0 1 -0.06,-8.79 c 0.16,-6.25 0.69,-12.49 1.35,-18.71 0.36,-3.4 0.71,-6.82 1.13,-10.22 0.13,-1.13 -1.64,-1.12 -1.78,0 -0.84,7 -1.7,14 -2.19,21 -0.22,3.18 -0.38,6.36 -0.42,9.55 a 48.35,48.35 0 0 0 0.24,8.51 6.44,6.44 0 0 0 5.26,5.49 c 2.78,0.62 5.67,1 8.49,1.37 q 8.73,1.28 17.53,2.17 a 677.15,677.15 0 0 0 74.41,3.19 c 10.88,-0.08 21.76,-0.36 32.63,-1 2.4,-0.13 5.12,0 7.34,-1 3.08,-1.44 3.52,-4.6 4.24,-7.59 q 2.66,-11.07 5.18,-22.17 5,-22 9.43,-44 c 1.43,-7.16 2.94,-14.33 3.77,-21.59 a 79.35,79.35 0 0 0 0.56,-11.22 c -0.09,-3 -0.09,-6.43 -1.43,-9.18 -1.21,-2.46 -3.58,-3.56 -6.19,-3.88 -3.5,-0.43 -7.13,-0.28 -10.66,-0.36 l -22.9,-0.55 -45.36,-1.06 -11,-0.27 a 0.93,0.93 0 0 0 -0.91,0.91 5.34,5.34 0 0 0 2.93,5.05 0.92,0.92 0 0 0 1.34,-1 l -1.34,-8.39 A 53.21,53.21 0 0 0 318,501 c -1.39,-4.53 -6.32,-4.26 -10.2,-4.28 a 209.29,209.29 0 0 0 -32,2.24 c -2.49,0.37 -5,0.75 -7.44,1.24 a 11.22,11.22 0 0 0 -5.32,2.24 c -1.64,1.45 -2.13,3.57 -2.55,5.62 -0.54,2.66 -1.06,5.31 -1.58,8 -2.05,10.64 -4,21.31 -5.59,32 -1.84,12.07 -3.48,24.17 -4.79,36.31 -0.09,0.76 1.08,0.74 1.18,0 z" />
      <path
         id="svg_12"
         d="m 113.68,366.89 c -2.12,7.76 -3.83,15.62 -5.86,23.4 -1,3.94 -2.1,7.87 -3.38,11.74 -1.28,3.87 -2.75,7.34 -4.22,11 -0.35,0.89 1.09,1.47 1.53,0.65 a 61.6,61.6 0 0 0 4.32,-11 c 1.22,-3.89 2.27,-7.83 3.22,-11.79 1.9,-7.89 3.42,-15.86 5.48,-23.71 a 0.57,0.57 0 0 0 -1.09,-0.31 z" />
      <path
         id="svg_13"
         fill="#f58220"
         d="m 183.37,288.81 a 74.27,74.27 0 0 1 -29,33.7 2.81,2.81 0 0 1 -2.48,0.58 c -0.81,-0.36 -0.75,-1.94 0.13,-1.85 a 10,10 0 0 1 -6,9.39 c -3.66,-4.41 -11.8,-2.79 -14.23,2.4 -2.43,5.19 0.65,11.9 5.83,14.33 0.16,0.47 -1.56,2.73 -1.8,3.14 -4.75,8.15 -9.57,17.59 -16.18,24.41 a 10.42,10.42 0 0 1 -5,3.06 c -7.52,1.79 -13.23,-7.36 -15.84,-13.06 -7.15,-15.59 -20,-30.91 -18.16,-49.22 1.66,-16.21 11.54,-30.78 25.48,-39 a 55.25,55.25 0 0 1 22.28,-7.34 77.28,77.28 0 0 1 36.18,4.9 c 5.77,2.26 10.35,6.79 16.06,9.19 2.78,1.16 5.74,1.15 8.59,2.06 a 18.77,18.77 0 0 1 9.49,6.42 33.57,33.57 0 0 1 3.75,7.77 35.57,35.57 0 0 0 1.74,3.88 c 0.61,1.12 1.43,2.39 0.24,3.47 -1.19,1.08 -3.06,1 -4.41,0.74 -4.24,-0.69 -8.64,-1.43 -12.21,-3.81 -3.57,-2.38 -6.85,-7.51 -5.56,-11.61" />
      <path
         id="svg_14"
         fill="#f58220"
         d="m 182.87,288.52 a 80.45,80.45 0 0 1 -12.71,19.48 74.91,74.91 0 0 1 -8.31,7.92 c -1.53,1.25 -3.11,2.41 -4.72,3.54 -1.61,1.13 -3.31,2.62 -5.15,2.76 l -1,-1 a 9.15,9.15 0 0 1 -5.49,8.55 l 1.17,0.15 c -4,-4.6 -11.91,-3.21 -15.13,1.6 -3.86,5.74 -0.14,13.79 5.6,16.6 l -0.45,-0.78 c 0,0.36 -0.68,1.21 -0.93,1.58 -0.45,0.65 -0.87,1.29 -1.27,2 -1.28,2.23 -2.54,4.47 -3.83,6.69 a 103.16,103.16 0 0 1 -8.59,13.09 c -2.8,3.49 -6.4,7.7 -11.4,6.28 -3.81,-1.09 -6.58,-4.64 -8.59,-7.85 -2.24,-3.58 -3.82,-7.55 -5.82,-11.27 -2.25,-4.21 -4.66,-8.34 -6.9,-12.57 -4.57,-8.64 -8.5,-18 -7.94,-28 1.07,-19.17 14.75,-36.33 32.29,-43.39 10.41,-4.18 22,-4.91 33,-3.39 a 76.66,76.66 0 0 1 16.08,4 c 5,1.85 9.05,5.08 13.58,7.76 a 23.34,23.34 0 0 0 7.16,2.94 34.67,34.67 0 0 1 7.7,2 17.54,17.54 0 0 1 5.77,4.09 22.42,22.42 0 0 1 3.94,7.15 c 0.44,1.13 0.88,2.27 1.37,3.39 q 0.47,1.08 1,2.13 c 0.24,0.47 0.79,1.18 0.71,1.74 -0.34,2.15 -5.6,0.69 -6.76,0.47 -5.1,-1 -9.9,-2.78 -12.75,-7.39 a 7.88,7.88 0 0 1 -1.28,-6.23 1.0735222,1.0735222 0 0 0 -2.07,-0.57 c -1.53,5.41 2.58,11 7.14,13.51 a 28.18,28.18 0 0 0 8.84,2.76 c 2.37,0.41 5.59,1.26 7.69,-0.42 2.46,-2 0,-4.86 -0.88,-7 -1.32,-3.08 -2.28,-6.39 -4.22,-9.16 a 18.18,18.18 0 0 0 -6.34,-5.54 29.29,29.29 0 0 0 -8.73,-2.68 c -6.52,-1.21 -11.3,-5.9 -17,-8.89 -5.7,-2.99 -12.65,-4.57 -19.09,-5.63 -13.29,-2.09 -27.26,-1 -39.44,5 -20.3,10.05 -34.4,34 -28,56.65 3.23,11.52 10.24,21.44 15.52,32 2.17,4.35 4.12,8.75 7.56,12.29 3.26,3.35 7.86,5.44 12.4,3.36 2.78,-1.27 4.82,-3.77 6.7,-6.1 a 80.1,80.1 0 0 0 5.25,-7.42 c 3.11,-4.9 5.65,-10.19 8.89,-15 a 5.58,5.58 0 0 0 1.08,-2 c 0.19,-1.21 -1.38,-1.57 -2.17,-2.15 a 11.28,11.28 0 0 1 -4.26,-6.63 8,8 0 0 1 7.53,-9.88 6.82,6.82 0 0 1 5.72,2.27 1,1 0 0 0 1.17,0.15 11,11 0 0 0 6.5,-10.22 1,1 0 0 0 -1,-1 1.83,1.83 0 0 0 -1.6,2.48 c 0.46,1.52 2.13,1.7 3.41,1.18 a 25.46,25.46 0 0 0 4.85,-3 q 2.28,-1.64 4.42,-3.44 a 74.72,74.72 0 0 0 15,-17.06 64.66,64.66 0 0 0 5.83,-11.42 c 0.24,-0.6 -0.77,-1 -1,-0.44 z" />
      <path
         id="svg_15"
         d="m 169.76,320.54 a 20.2,20.2 0 0 0 3.3,0.11 c 1.15,0 2.3,0 3.45,0.05 a 50.27,50.27 0 0 1 6.9,0.88 c 1,0.19 1.38,-1.3 0.41,-1.49 a 47.8,47.8 0 0 0 -7,-0.86 c -1.15,-0.05 -2.3,-0.07 -3.45,0 a 11.57,11.57 0 0 0 -3.56,0.51 c -0.35,0.13 -0.45,0.74 0,0.82 z" />
      <path
         id="svg_16"
         d="m 178.91,331.11 a 0.91,0.91 0 0 0 -0.7,-0.89 1.66,1.66 0 0 0 -1.15,0.2 4.33,4.33 0 0 0 -1.65,1.53 3.33,3.33 0 0 0 -0.54,2.21 2.93,2.93 0 0 0 1.25,2.06 2.91,2.91 0 0 0 3.83,-0.85 2.59,2.59 0 0 0 0.3,-2.29 2.45,2.45 0 0 0 -2,-1.69 2.33,2.33 0 0 0 -2.54,1.52 2.29,2.29 0 0 0 0,1.37 2.09,2.09 0 0 0 1,1.25 1.3,1.3 0 0 0 1.28,0 1.26,1.26 0 0 0 0.62,-1 1.43,1.43 0 0 0 0,-0.39 1.45,1.45 0 0 0 -0.62,-0.78 l 0.25,0.2 a 1.67,1.67 0 0 1 -0.23,-0.23 l 0.2,0.26 a 2,2 0 0 1 -0.11,-0.2 l 0.12,0.3 a 1.28,1.28 0 0 1 -0.07,-0.28 v 0.34 a 1.31,1.31 0 0 1 0,-0.28 v 0.33 a 1,1 0 0 1 0.06,-0.23 l -0.13,0.3 a 2.25,2.25 0 0 1 0.12,-0.21 l -0.19,0.26 a 0.77,0.77 0 0 1 0.18,-0.18 l -0.25,0.19 0.22,-0.13 -0.3,0.13 a 1.49,1.49 0 0 1 0.3,-0.09 l -0.33,0.05 a 1.09,1.09 0 0 1 0.36,0 l -0.33,-0.05 a 1.32,1.32 0 0 1 0.3,0.09 l -0.29,-0.13 a 1.42,1.42 0 0 1 0.23,0.14 l -0.25,-0.2 a 1.31,1.31 0 0 1 0.23,0.24 l -0.19,-0.25 a 2.61,2.61 0 0 1 0.17,0.28 l -0.13,-0.29 a 1.62,1.62 0 0 1 0.12,0.43 L 178,333.82 a 1.7,1.7 0 0 1 0,0.39 v -0.32 a 1.4,1.4 0 0 1 -0.1,0.35 l 0.13,-0.29 a 1.88,1.88 0 0 1 -0.14,0.24 c -0.09,0.16 0.21,-0.23 0.08,-0.1 l -0.1,0.1 c -0.07,0.07 -0.21,0.14 0.11,-0.07 l -0.12,0.08 -0.24,0.13 0.28,-0.12 a 2.11,2.11 0 0 1 -0.49,0.14 l 0.31,-0.05 a 1.77,1.77 0 0 1 -0.46,0 h 0.31 a 2.37,2.37 0 0 0 -0.31,-0.08 c 0,0 0.3,0.15 0.1,0 l -0.11,-0.07 c -0.16,-0.09 0.22,0.21 0.07,0.05 l -0.12,-0.12 c -0.14,-0.14 0.16,0.24 0,0 l -0.09,-0.15 c -0.11,-0.23 0.07,0.24 0,0 a 1.09,1.09 0 0 1 0,-0.17 0.85,0.85 0 0 1 0,-0.17 c 0,0 0,-0.07 0,-0.11 v 0.18 a 1.61,1.61 0 0 1 0,-0.38 0.28,0.28 0 0 0 0,-0.09 c 0,-0.11 0,-0.07 0,0.12 a 1.16,1.16 0 0 0 0,-0.18 1.09,1.09 0 0 1 0.05,-0.17 1.34,1.34 0 0 0 0.07,-0.18 c -0.07,0.15 -0.08,0.17 0,0.07 v -0.06 l 0.1,-0.19 c 0,-0.07 0.15,-0.31 0.23,-0.35 l -0.05,0.07 0.06,-0.07 0.13,-0.15 c 0.18,-0.19 0.34,-0.4 0.52,-0.6 0.18,-0.2 -0.14,0.08 0,0 h 0.06 -0.07 0.12 a 0.37,0.37 0 0 1 -0.21,0 c -0.18,-0.13 -0.24,-0.15 -0.16,-0.07 a 0.57,0.57 0 0 0 0.63,0.12 0.59,0.59 0 0 0 0.36,-0.53 z" />
      <path
         id="svg_17"
         d="m 173.3,336.61 c 2.21,0.35 4.43,0.69 6.64,1 a 0.68,0.68 0 0 0 0.81,-0.46 0.65,0.65 0 0 0 -0.46,-0.81 c -2.27,-0.3 -4.55,-0.6 -6.83,-0.88 -0.64,-0.08 -0.8,1 -0.16,1.13 z" />
      <path
         id="svg_18"
         d="m 188.57,297.51 c 2.92,8.45 2.82,17.59 1.45,26.34 -1.08,6.93 -2.83,14.63 0.28,21.29 a 20.17,20.17 0 0 0 4,5.13 6.27,6.27 0 0 1 1.78,3 c 0.26,1.36 -0.47,2.25 -1.44,3.07 -1.63,1.39 -2.81,2.7 -3.1,4.9 a 35.17,35.17 0 0 0 0.24,6.15 c 0.4,8.12 -1,16.77 -5.64,23.61 -2.54,3.77 -6,7 -10.57,7.9 -4.57,0.9 -9.44,0 -13.83,-1.36 -1.22,-0.38 -1.7,1.48 -0.52,1.9 a 30.35,30.35 0 0 0 12.5,1.72 16.55,16.55 0 0 0 10.77,-5 c 6.06,-6 8.69,-14.61 9.21,-22.95 a 49.52,49.52 0 0 0 0,-6.33 c -0.14,-2.13 -0.77,-4.61 0.05,-6.67 0.82,-2.06 3.17,-2.71 4,-4.72 0.83,-2.01 -0.19,-4.27 -1.54,-5.87 -1.6,-1.89 -3.4,-3.36 -4.41,-5.7 a 18.69,18.69 0 0 1 -1.32,-6.9 58.09,58.09 0 0 1 1,-10.77 c 1.57,-9.61 2,-19.81 -1.65,-29 -0.28,-0.71 -1.43,-0.43 -1.17,0.32 z" />
      <path
         id="svg_19"
         d="m 147,333.18 a 8.54,8.54 0 0 0 -12.54,-5.43 c -5.67,3.25 -5.32,10.53 -1.76,15.25 a 21.36,21.36 0 0 0 3.65,3.71 c 1.33,1.07 2.84,2.36 4.59,2.6 a 0.89,0.89 0 0 0 0.47,-1.71 12.27,12.27 0 0 1 -4.28,-2.64 17.72,17.72 0 0 1 -3.32,-3.6 c -1.74,-2.6 -2.66,-6.1 -1.21,-9.05 a 7.27,7.27 0 0 1 6.75,-4 7.58,7.58 0 0 1 6.6,5.14 0.55,0.55 0 0 0 1.05,-0.29 z" />
      <path
         id="svg_20"
         d="m 139.61,335.8 h 0.26 0.12 c 0,0 0.15,0.05 0.08,0 -0.07,-0.05 0.06,0 0.06,0 a 1.64,1.64 0 0 1 0.22,0.14 c 0,0 -0.05,0 0,0 l 0.09,0.09 0.19,0.19 0.09,0.11 c -0.06,-0.07 0,-0.05 0,0 a 1.76,1.76 0 0 1 0.14,0.23 c 0,0 0.07,0.15 0,0 l 0.05,0.12 0.09,0.29 0.06,0.31 c 0,0 0,0.1 0,0.15 a 8.83,8.83 0 0 1 0,1.26 l 0.78,-0.77 c 0.26,0 -0.15,0 -0.13,-0.05 0.02,-0.05 0.14,0.08 0,0 l -0.15,-0.1 0.4,0.7 c 0,-0.1 0,-0.08 0,0 v -0.11 a 0.49,0.49 0 0 1 0,-0.11 c -0.05,0.1 -0.06,0.12 0,0.07 0.06,-0.05 0.12,-0.26 0.2,-0.38 a 0.76,0.76 0 0 0 -0.2,-1 0.78,0.78 0 0 0 -1,0.06 1.79,1.79 0 0 0 -0.62,1.37 c 0,0.75 0.83,1 1.46,1 a 0.79,0.79 0 0 0 0.77,-0.78 5.47,5.47 0 0 0 -0.63,-3 2.34,2.34 0 0 0 -2.56,-1.09 0.54,0.54 0 0 0 -0.39,0.59 0.55,0.55 0 0 0 0.54,0.47 z" />
      <path
         stroke="null"
         id="svg_21"
         d="m 166.28709,379.37705 a 26.152908,15.956836 0 0 0 15.69174,7.1222 2.583397,1.576224 0 1 0 1.37144,-3.03569 l -2.10499,-0.42811 -1.0525,-0.23352 h -0.41462 -0.22325 a 26.439952,16.131972 0 0 1 -3.79536,-1.32325 l -0.79735,-0.35027 -0.44651,-0.21405 a 18.466504,11.267083 0 0 1 -1.62659,-0.93406 c -0.54219,-0.33081 -1.05249,-0.66163 -1.5309,-1.0119 a 2.423928,1.478926 0 0 0 -0.25515,-0.21405 l -0.35083,-0.27244 -0.79734,-0.56432 a 2.232565,1.362169 0 0 0 -2.96613,-0.0973 2.296353,1.401088 0 0 0 -0.57408,1.77082 z" />
      <path
         id="svg_22"
         d="m 155.66,420.68 q 1.67,-5.18 3.56,-10.27 c 0.61,-1.64 1.21,-3.28 1.84,-4.9 0.34,-0.88 0.69,-1.75 1,-2.62 a 20.73,20.73 0 0 1 1,-2.59 0.86,0.86 0 0 0 0.23,-1.68 c -1.77,-0.68 -2.38,2.32 -2.8,3.42 -0.76,2 -1.5,4 -2.21,6 -1.41,4.05 -2.64,8.16 -3.78,12.29 a 0.58,0.58 0 0 0 1.11,0.31 z" />
      <path
         id="svg_23"
         fill="#f58220"
         d="m 87.21,297.91 c -5.07,3.43 -11.46,4.47 -17.56,4 -6.1,-0.47 -11.21,-3.52 -13.5,-9.3 a 21.27,21.27 0 0 1 2.65,-20.38 33.25,33.25 0 0 1 14.1,-10.83 24.48,24.48 0 0 1 17.57,-0.16 15.46,15.46 0 0 1 5.59,3.64 c 4,4.3 4.38,11 2.72,16.67 A 29.28,29.28 0 0 1 86.26,298" />
      <path
         id="svg_24"
         fill="#f58220"
         d="m 86.9,297.38 a 25.86,25.86 0 0 1 -13.28,3.72 c -4,0.08 -8,-0.46 -11.45,-2.7 -6.88,-4.51 -7.78,-14.85 -4.62,-21.86 a 27.44,27.44 0 0 1 8.25,-9.76 27.7,27.7 0 0 1 12.06,-5.55 21.56,21.56 0 0 1 14.12,2 12.6,12.6 0 0 1 6.49,10.21 c 0.89,9.65 -5.21,18.37 -12.68,23.79 a 0.93,0.93 0 0 0 0.94,1.6 28.24,28.24 0 0 0 14.13,-22.83 c 0.18,-4.44 -1,-9.08 -4.27,-12.28 -3.71,-3.69 -9.33,-5.24 -14.45,-5.24 -10,0 -19.67,6 -25.12,14.19 -4.84,7.3 -5,18.94 1.43,25.4 3.42,3.43 8.14,4.7 12.87,4.79 a 27.21,27.21 0 0 0 16.2,-4.46 c 0.64,-0.44 0.06,-1.49 -0.62,-1.06 z" />
      <path
         id="svg_25"
         fill="#000000"
         d="m 87.55,298.55 a 47.53,47.53 0 0 1 8.77,-9.64 c 0.82,-0.69 -0.36,-1.86 -1.17,-1.17 a 43.26,43.26 0 0 0 -8.73,10.15 c -0.46,0.72 0.66,1.36 1.13,0.66 z" />
      <path
         id="svg_26"
         d="m 99.87,286.57 a 14.23,14.23 0 0 1 -4.35,-8.45 c -0.27,-2.66 0.8,-5.82 3.5,-6.86 3.3,-1.26 4,2.9 4,5.22 a 14.72,14.72 0 0 1 -3,8 c -0.44,0.62 0.52,1.32 1,0.8 a 13,13 0 0 0 3.5,-7.46 c 0.31,-2.4 0.19,-5.34 -1.54,-7.23 -1.91,-2.07 -5,-1.17 -6.73,0.63 a 8.61,8.61 0 0 0 -2.12,7.4 15,15 0 0 0 4.95,8.74 c 0.53,0.46 1.29,-0.29 0.77,-0.78 z" />
      <path
         id="svg_27"
         d="m 112.27,270.82 a 11.34,11.34 0 0 1 -0.86,2.15 19.43,19.43 0 0 1 -1.19,2.14 39,39 0 0 1 -3,4 c -2,2.44 -3.93,5.05 -6.78,6.55 -0.88,0.46 -0.11,1.73 0.77,1.32 3.39,-1.58 5.77,-5 8,-7.94 a 30.49,30.49 0 0 0 3.12,-5 c 0.43,-0.91 2,-3.55 0.53,-4.23 a 0.54454109,0.54454109 0 0 0 -0.55,0.94 z" />
      <path
         id="svg_28"
         d="m 105,286 c 1.09,-0.31 2.08,-0.91 3.2,-1.16 a 4,4 0 0 1 2.72,0.22 2.36,2.36 0 0 1 1.42,1.8 3.11,3.11 0 0 1 -1.22,2.38 5.24,5.24 0 0 1 -4.74,0.94 7.75,7.75 0 0 1 -2.57,-1.28 10.34,10.34 0 0 1 -1.13,-1 c -0.35,-0.35 -0.66,-0.78 -1,-1.1 a 0.83,0.83 0 0 0 -1.3,1 7.23,7.23 0 0 0 2,2.19 10,10 0 0 0 2.59,1.54 7.3,7.3 0 0 0 5.4,0.1 5.58,5.58 0 0 0 3.63,-4 3.89,3.89 0 0 0 -2.76,-4.18 5.52,5.52 0 0 0 -3.17,-0.1 9.56,9.56 0 0 0 -3.47,1.56 c -0.47,0.36 -0.23,1.22 0.44,1 z" />
      <path
         id="svg_30"
         d="m 164.14,343.46 a 0.6,0.6 0 0 0 0,-1.2 0.6,0.6 0 0 0 0,1.2 z" />
      <path
         id="svg_31"
         d="m 166.78,342.34 a 0.56,0.56 0 0 0 0,-1.11 0.56,0.56 0 0 0 0,1.11 z" />
      <path
         id="svg_32"
         d="m 166.09,345.65 a 0.54,0.54 0 0 0 0,-1.08 0.54,0.54 0 0 0 0,1.08 z" />
      <path
         id="svg_33"
         d="m 718.81,331.52 c 0.07,-0.08 0,-0.06 -0.16,0.07 a 0.3,0.3 0 0 1 -0.16,0 c -0.14,0 0,0 0.06,0 h -0.09 0.08 c 0.13,0.06 -0.1,-0.11 0,0 l 0.5,0.58 0.15,0.17 c 0,0.06 0.12,0.21 0,0 0.06,0.11 0.15,0.21 0.21,0.32 l 0.11,0.19 c 0,0 0.1,0.25 0,0.08 -0.1,-0.17 0,0.09 0,0.12 a 1.09,1.09 0 0 1 0,0.17 v 0.18 c -0.08,-0.31 0,-0.15 0,-0.06 0,0.09 0,0.25 0,0.38 0,0.13 0,0 0,-0.15 a 0.36,0.36 0 0 1 0,0.11 v 0.17 a 1.09,1.09 0 0 0 0,0.17 c -0.07,0.2 0.12,-0.23 0,-0.06 a 1.09,1.09 0 0 1 -0.08,0.15 l -0.06,0.09 q 0.18,-0.23 0.09,-0.12 a 1.85,1.85 0 0 1 -0.14,0.14 c -0.14,0.15 0.24,-0.15 0.08,-0.05 l -0.12,0.07 c -0.11,0.05 -0.18,0 0.11,0 a 2,2 0 0 1 -0.31,0.08 h 0.31 a 1.77,1.77 0 0 1 -0.46,0 l 0.31,0.05 a 2.19,2.19 0 0 1 -0.5,-0.14 l 0.29,0.12 -0.25,-0.13 -0.11,-0.08 c 0.3,0.2 0.18,0.14 0.1,0.07 l -0.1,-0.1 c -0.12,-0.13 0.18,0.27 0.08,0.1 a 1.12,1.12 0 0 1 -0.13,-0.24 l 0.12,0.29 a 1.4,1.4 0 0 1 -0.1,-0.35 v 0.32 a 2.54,2.54 0 0 1 0,-0.39 v 0.33 a 1.6,1.6 0 0 1 0.11,-0.43 l -0.12,0.29 a 1.56,1.56 0 0 1 0.16,-0.28 L 718.6,334 a 1.75,1.75 0 0 1 0.23,-0.24 l -0.24,0.2 a 1,1 0 0 1 0.22,-0.14 l -0.29,0.13 a 1.49,1.49 0 0 1 0.3,-0.09 l -0.33,0.05 a 1.15,1.15 0 0 1 0.37,0 l -0.33,-0.05 a 1.4,1.4 0 0 1 0.29,0.09 l -0.29,-0.13 0.22,0.13 -0.26,-0.19 a 1.07,1.07 0 0 1 0.19,0.18 l -0.2,-0.26 a 1.13,1.13 0 0 1 0.12,0.21 l -0.13,-0.3 a 1,1 0 0 1 0.06,0.23 v -0.33 a 1.31,1.31 0 0 1 0,0.28 v -0.34 a 2.29,2.29 0 0 1 -0.08,0.28 l 0.13,-0.3 -0.12,0.2 0.2,-0.26 a 1.67,1.67 0 0 1 -0.23,0.23 l 0.25,-0.2 a 1.48,1.48 0 0 0 -0.61,0.78 1.16,1.16 0 0 0 0,0.39 1.27,1.27 0 0 0 1.9,1 1.94,1.94 0 0 0 1,-1.16 2.24,2.24 0 0 0 0.09,-1.28 2.2,2.2 0 0 0 -1.79,-1.68 2.47,2.47 0 0 0 -1.42,0.14 2.59,2.59 0 0 0 -1.1,0.92 2.65,2.65 0 0 0 -0.21,2.47 2.86,2.86 0 0 0 3.51,1.53 2.74,2.74 0 0 0 1.68,-1.77 3.27,3.27 0 0 0 -0.2,-2.34 4.15,4.15 0 0 0 -1.65,-1.82 2.12,2.12 0 0 0 -1.14,-0.35 0.94,0.94 0 0 0 -0.94,0.92 0.59,0.59 0 0 0 0.36,0.53 0.58,0.58 0 0 0 0.64,-0.12 z" />
      <path
         id="svg_34"
         d="m 723.27,335.48 c -2.28,0.28 -4.56,0.58 -6.84,0.88 a 0.66,0.66 0 0 0 -0.46,0.81 0.67,0.67 0 0 0 0.81,0.46 c 2.21,-0.33 4.43,-0.67 6.64,-1 0.63,-0.1 0.49,-1.21 -0.15,-1.13 z" />
      <path
         id="svg_35"
         d="m 753.93,333.47 a 7.6,7.6 0 0 1 6.61,-5.14 7.25,7.25 0 0 1 6.75,4 c 1.44,2.95 0.53,6.45 -1.21,9.05 a 18,18 0 0 1 -3.32,3.6 12.27,12.27 0 0 1 -4.28,2.64 0.89,0.89 0 0 0 0.47,1.71 9,9 0 0 0 4,-2.18 22.52,22.52 0 0 0 3.4,-3.15 13.16,13.16 0 0 0 3.47,-8.44 c 0,-5.65 -5.56,-10.4 -11.16,-8.62 a 8.72,8.72 0 0 0 -5.82,6.26 0.54,0.54 0 0 0 1,0.29 z" />
      <path
         id="svg_36"
         d="m 760.41,334.74 a 2.36,2.36 0 0 0 -2.56,1.09 5.58,5.58 0 0 0 -0.63,3 0.79,0.79 0 0 0 0.78,0.78 c 0.63,0 1.46,-0.31 1.45,-1 a 1.74,1.74 0 0 0 -0.61,-1.37 0.79,0.79 0 0 0 -1,-0.06 0.78,0.78 0 0 0 -0.2,1 c 0.08,0.12 0.13,0.26 0.21,0.38 v -0.07 c 0,0 0,0.07 0,0.11 a 0.43,0.43 0 0 1 0,0.11 c 0,-0.12 0,-0.14 0,0 l 0.39,-0.7 a 0.5,0.5 0 0 1 -0.12,0.08 c -0.05,0 0,0 0.06,0 0.06,0 -0.41,0.07 -0.13,0.05 l 0.78,0.77 a 8.83,8.83 0 0 1 0,-1.26 0.49,0.49 0 0 0 0,-0.12 c 0,-0.2 0,0.09 0,0 0,-0.09 0,-0.21 0.05,-0.31 l 0.09,-0.29 0.06,-0.15 a 1.13,1.13 0 0 1 0.12,-0.21 c 0,0 0.1,-0.14 0,-0.06 -0.1,0.08 0,0 0.05,-0.05 l 0.18,-0.2 0.1,-0.09 c 0,0 0.12,-0.09 0,0 l 0.22,-0.14 0.1,-0.05 c -0.13,0.06 0,0 0,0 h 0.1 0.28 a 0.53,0.53 0 0 0 0.53,-0.47 0.52,0.52 0 0 0 -0.39,-0.59 z" />
      <path
         id="svg_38"
         d="m 735.74,343.46 a 0.6,0.6 0 0 0 0,-1.2 0.6,0.6 0 0 0 0,1.2 z" />
      <path
         id="svg_39"
         d="m 733.1,342.34 a 0.56,0.56 0 0 0 0,-1.11 0.56,0.56 0 0 0 0,1.11 z" />
      <path
         id="svg_40"
         d="m 733.79,345.65 a 0.54,0.54 0 0 0 0,-1.08 0.54,0.54 0 0 0 0,1.08 z" />
      <path
         id="svg_41"
         d="m 93.65,414.32 c -12.86,9.5 -28.86,14 -41.06,24.49 -12.67,10.89 -17,27.75 -15,43.92 2.21,17.9 11.64,33.65 21.92,48.09 q 16.23,22.77 33.65,44.72 c 11.75,14.84 24.05,29.31 37.59,42.55 11.63,11.37 24.33,22.53 38.77,30.19 a 83.42,83.42 0 0 0 40.9,9.47 121.53,121.53 0 0 0 26.66,-3.32 c 9.78,-2.36 19.24,-5.84 28.64,-9.37 q 26.52,-10 53,-20 13.37,-5.07 26.73,-10.19 l 12.86,-4.94 a 117.21,117.21 0 0 0 11.48,-4.57 c 2.84,-1.46 5.52,-3.71 5.53,-7.15 a 0.92,0.92 0 0 0 -1.84,0 c 0,4.19 -5.22,5.92 -8.42,7.15 q -6,2.32 -12,4.62 -12.9,5 -25.83,9.87 -25.74,9.76 -51.52,19.43 c -17.91,6.72 -35.81,14.07 -55,15.92 -14.3,1.38 -28.74,0.47 -42.19,-4.9 -14.14,-5.65 -26.39,-15.4 -37.65,-25.46 -13.52,-12.08 -25.72,-25.59 -37.27,-39.53 -11.75,-14.18 -22.8,-28.9 -33.75,-43.69 -10.67,-14.42 -22,-29.13 -27.53,-46.44 -4.92,-15.34 -5,-33.61 4.47,-47.29 9,-13 24.78,-18.75 38,-26.36 a 86.83,86.83 0 0 0 9.45,-6.2 c 0.58,-0.44 0,-1.43 -0.58,-1 z" />
      <path
         id="svg_42"
         d="m 365.81,564.31 c -1.14,-5.15 -9.17,-5.35 -13.2,-5.45 -8.65,-0.21 -17.36,1 -25.88,2.4 -7.72,1.23 -15.38,2.76 -23.08,4.07 q -21.76,3.69 -43.58,7 c -8.38,1.29 -16.77,2.64 -25.2,3.59 -8.43,0.95 -17,1.41 -25.42,0.05 -0.54,-0.09 -1.32,0.24 -1.22,0.93 0.46,3.49 6.2,4.06 7,0.45 a 1,1 0 0 0 -0.25,-1 c -10.57,-8.53 -19.37,-19.24 -27.7,-29.9 -9.28,-11.86 -18,-24.18 -26.83,-36.35 -4.3,-5.9 -8.64,-11.78 -13.23,-17.47 -0.83,-1 -2.26,0.43 -1.44,1.44 8.66,10.71 16.53,22 24.63,33.17 8.78,12.05 17.68,24.09 27.6,35.24 a 132.09,132.09 0 0 0 15.6,15.24 l -0.25,-0.94 c -0.28,1.32 -3,1.51 -3.18,0.07 l -1.22,0.93 c 14.47,2.32 29.17,-0.48 43.48,-2.62 14.75,-2.22 29.46,-4.64 44.16,-7.1 8.36,-1.39 16.67,-3 25,-4.45 a 212.06,212.06 0 0 1 26.21,-3.39 45.32,45.32 0 0 1 11.4,0.53 c 2.19,0.46 5,1.34 5.58,3.79 0.16,0.67 1.18,0.38 1,-0.29 z" />
      <path
         id="svg_43"
         d="m 364.64,565.33 a 54.76,54.76 0 0 0 6.52,-2.67 c 2.17,-0.91 4.36,-1.77 6.57,-2.6 4.34,-1.64 8.73,-3.11 13.16,-4.48 4.43,-1.37 9.11,-3 13.78,-3.58 4.11,-0.5 8.39,0.23 11.1,3.63 0.55,0.69 1.74,-0.22 1.24,-1 -4.09,-6.06 -12.16,-5 -18.23,-3.33 a 207.8,207.8 0 0 0 -22.57,7.7 q -2.94,1.18 -5.84,2.45 a 34.69,34.69 0 0 0 -6.13,3 0.53851648,0.53851648 0 0 0 0.4,1 z" />
      <path
         id="svg_44"
         d="m 446.77,558.24 c -4.89,-1.26 -9,-4.54 -13.89,-5.78 -5.28,-1.33 -10,0.85 -14.41,3.64 a 137.26,137.26 0 0 0 -14.06,10.25 c -1.56,1.29 -4.21,3.14 -3.36,5.53 0.73,2.06 3.65,2.68 5.53,3 a 20,20 0 0 0 15.73,-3.46 l -1,-0.12 a 26.48,26.48 0 0 0 10.35,7.38 c 3.4,1.34 7.92,2.5 11,-0.15 0.63,-0.55 -0.28,-1.42 -0.91,-0.91 -2.93,2.37 -7.62,0.6 -10.59,-0.82 a 26.12,26.12 0 0 1 -8.71,-6.64 0.8,0.8 0 0 0 -1,-0.12 18.73,18.73 0 0 1 -12.37,3.56 17.21,17.21 0 0 1 -3.27,-0.56 c -0.95,-0.26 -2.75,-0.62 -3.22,-1.61 -0.58,-1.21 1.07,-2.42 1.85,-3.08 q 1.42,-1.2 2.88,-2.37 a 129.65,129.65 0 0 1 12.47,-8.86 c 4,-2.51 8.39,-4.39 13.19,-3.11 4.8,1.28 8.69,4.22 13.45,5.25 a 0.55430136,0.55430136 0 0 0 0.29,-1.07 z" />
      <path
         id="svg_45"
         d="m 372.4,597.91 a 72.88,72.88 0 0 1 13.39,4.24 c 4.19,1.84 8.23,4 12.38,5.94 7.91,3.68 16.83,6.51 25.56,4.29 0.93,-0.23 0.53,-1.67 -0.4,-1.44 -9,2.24 -17.95,-1.22 -25.95,-5.05 -3.89,-1.86 -7.72,-3.85 -11.69,-5.53 a 52.74,52.74 0 0 0 -13,-3.49 c -0.67,-0.1 -1,0.89 -0.29,1 z" />
      <path
         id="svg_46"
         d="m 416.79,600.8 c 4.77,2.62 11.07,3.82 16.35,2.13 a 0.62,0.62 0 0 0 -0.32,-1.19 26.89,26.89 0 0 1 -7.85,0.48 21.61,21.61 0 0 1 -7.63,-2.37 c -0.62,-0.33 -1.17,0.61 -0.55,0.95 z" />
      <path
         id="svg_47"
         d="m 423.71,593.74 a 64.7,64.7 0 0 0 10,2.17 c 2.35,0.31 5.5,0.91 7.3,-1.1 0.54,-0.61 -0.34,-1.51 -0.91,-0.9 a 4,4 0 0 1 -3.12,1 33,33 0 0 1 -4.21,-0.4 64.41,64.41 0 0 1 -8.77,-1.81 0.54,0.54 0 0 0 -0.28,1 z" />
      <path
         id="svg_48"
         d="m 447.93,587 c -3.61,-1.71 -7.17,-3.55 -10.64,-5.53 -1.72,-1 -3.4,-2 -5.09,-3 -1.34,-0.79 -3.56,-1.68 -4.05,-3.31 a 0.72,0.72 0 0 0 -1.38,0.38 c 0.26,1.64 1.66,2.55 3,3.37 1.88,1.19 3.81,2.3 5.77,3.36 q 5.79,3.13 11.83,5.76 c 0.69,0.31 1.31,-0.7 0.6,-1 z" />
      <path
         id="svg_49"
         d="m 103.33,404.59 c -5.24,0.45 -8.7,5 -10,9.78 a 52.8,52.8 0 0 0 -1.41,8.85 64.32,64.32 0 0 0 -0.44,8.44 c 0.13,5.65 1.5,11.18 5.17,15.6 3.67,4.42 8.75,7.62 13.67,10.36 10.56,5.87 22.17,9.2 33.71,12.54 2.66,0.78 5.43,1.7 7.39,3.77 1.77,1.88 2.59,4.42 3.29,6.85 a 40,40 0 0 0 2.44,7.05 16.9,16.9 0 0 0 5,5.69 63.86,63.86 0 0 0 8.54,5.08 q 4.92,2.67 9.87,5.26 10.11,5.31 20.37,10.36 a 0.9,0.9 0 0 0 1.29,-1 c -1.77,-9.31 -8.6,-16.69 -14.61,-23.62 q -9.71,-11.22 -20.3,-21.64 A 373.54,373.54 0 0 0 122.45,430.2 c -4.52,-3.24 -9.13,-6.38 -13.79,-9.42 -3.74,-2.43 -8.43,-5.5 -9.06,-10.32 -0.13,-1 -1.65,-1 -1.55,0 0.41,4 3,7 6.11,9.31 3.71,2.85 7.8,5.24 11.65,7.9 q 12.31,8.47 23.92,17.91 a 374.1,374.1 0 0 1 43,41.12 c 3.64,4.09 7.31,8.21 10.62,12.56 3.31,4.35 6.12,9 7.14,14.43 l 1.29,-1 c -11.46,-5.65 -22.86,-11.46 -34,-17.69 a 29.84,29.84 0 0 1 -6.52,-4.56 15.71,15.71 0 0 1 -3.83,-6.65 c -1.39,-4.35 -2.16,-9.25 -6,-12.23 a 20,20 0 0 0 -6.77,-3.07 c -2.75,-0.81 -5.52,-1.57 -8.27,-2.39 a 165.77,165.77 0 0 1 -16.65,-5.83 82.65,82.65 0 0 1 -14.83,-8 c -4.79,-3.31 -9,-7.3 -10.73,-13 -1.76,-6 -1.1,-12.43 -0.44,-18.54 0.63,-5.86 2.45,-14.15 9.6,-15 0.69,-0.08 0.72,-1.17 0,-1.1 z" />
      <path
         id="svg_50"
         d="m 157.71,413.11 c 6.53,3.22 12.7,7.5 17.21,13.29 4.62,6 7.38,13.69 6.37,21.27 -0.26,1.9 -0.92,3.8 -0.75,5.73 a 7.45,7.45 0 0 0 1.43,3.77 c 1.78,2.47 4.48,4 6.6,6.13 5.12,5.13 5.74,13.21 6.85,20 1.59,9.71 3.05,19.45 4.82,29.13 0.19,1.05 1.73,0.59 1.58,-0.43 -1.29,-8.84 -2.86,-17.65 -4.31,-26.46 -1.15,-7 -1.64,-15 -5.78,-21 -1.85,-2.69 -4.52,-4.39 -6.86,-6.59 a 8.06,8.06 0 0 1 -2.56,-3.82 c -0.48,-2 0.31,-4.17 0.57,-6.19 0.92,-7.24 -1.4,-14.69 -5.53,-20.63 -4.73,-6.79 -11.62,-11.68 -19,-15.16 -0.68,-0.32 -1.28,0.68 -0.59,1 z" />
      <path
         id="svg_51"
         d="m 155.85,416.4 a 285.13,285.13 0 0 1 16.88,47.92 q 1.74,7 3.11,14 c 0.2,1 1.73,0.58 1.54,-0.42 a 254.07,254.07 0 0 0 -14.75,-49 c -1.83,-4.41 -3.76,-8.77 -5.88,-13 -0.3,-0.62 -1.18,-0.08 -0.9,0.53 z" />
      <path
         id="svg_52"
         d="m 192.55,446.86 c 9,15.41 19.78,29.75 28.31,45.46 a 118,118 0 0 1 10.51,24.81 c 2.49,9.08 2.49,18.63 1.18,27.9 -1.51,10.6 -4.7,20.8 -7.73,31 a 0.92310617,0.92310617 0 0 0 1.78,0.49 c 5.69,-17.75 11.24,-37.1 7.52,-55.83 -1.76,-8.82 -5.59,-17.4 -9.73,-25.35 a 261.87,261.87 0 0 0 -14.22,-23.49 c -5.62,-8.49 -11.41,-16.87 -16.64,-25.61 a 0.57801384,0.57801384 0 0 0 -1,0.58 z" />
      <path
         id="svg_53"
         d="m 47.75,513 q 11.9,25.3 23.82,50.6 l 11.82,25.08 c 1,2.07 2,4.25 2,6.58 a 12.89,12.89 0 0 1 -2,6.08 c -1.42,2.56 -2.85,5.1 -4.2,7.68 -6.39,12.16 -12.08,24.67 -17.95,37.07 -3,6.23 -5.91,12.44 -9,18.59 -1.36,2.72 -2.74,5.42 -4.18,8.1 a 72.64,72.64 0 0 0 -4.1,8.06 17.42,17.42 0 0 0 1.28,15.88 c 3.27,5.06 8.68,8.46 14,11 13.61,6.51 28.45,10.73 43.22,13.65 a 279.89,279.89 0 0 0 46.82,5 351.55,351.55 0 0 0 46.79,-2 c 7.41,-0.81 14.92,-1.6 22.14,-3.46 A 59.65,59.65 0 0 0 229.19,717 c 3.27,-1.56 6.72,-3.49 9.13,-6.25 4.28,-4.9 3.8,-11.27 2.75,-17.26 q -2.2,-12.65 -5.13,-25.18 c -1,-4.38 -2.11,-8.74 -3.24,-13.1 a 0.9,0.9 0 0 0 -1.73,0.48 c 2.27,8.71 4.34,17.46 6.12,26.29 0.78,3.87 1.5,7.75 2.2,11.64 a 31,31 0 0 1 0.63,9.36 c -1,7.46 -8.35,11.31 -14.7,13.81 -7.08,2.79 -14.58,4 -22.1,5 a 357.14,357.14 0 0 1 -45.29,2.93 292.58,292.58 0 0 1 -46.56,-3.54 206.79,206.79 0 0 1 -43.67,-11.79 c -10,-4 -25.16,-10.65 -23,-24 a 27.72,27.72 0 0 1 3.55,-9 c 1.38,-2.48 2.7,-5 4,-7.52 3,-5.81 5.79,-11.7 8.58,-17.6 5.88,-12.41 11.58,-24.9 17.7,-37.19 1.32,-2.64 2.66,-5.27 4,-7.87 1.52,-2.84 3.53,-5.68 4.21,-8.87 0.87,-4 -1.22,-7.7 -2.89,-11.22 L 78,574 Q 66.27,549.29 54.53,524.61 l -5.8,-12.17 c -0.32,-0.66 -1.29,-0.09 -1,0.57 z" />
      <path
         id="svg_54"
         d="m 712.56,324.72 a 24.84,24.84 0 0 1 7,-1 c 2.22,0.09 4,1.36 5.8,2.58 l 1,-2.35 a 27.07,27.07 0 0 0 -7.65,-1.68 9.44,9.44 0 0 0 -6.71,1.71 1.35,1.35 0 0 0 -0.21,1.62 1.37,1.37 0 0 0 1.51,0.61 c 3.74,-0.8 7.77,-1.62 11.35,0.26 a 1.31,1.31 0 0 0 1.31,-2.26 10.79,10.79 0 0 0 -5.47,-1.28 43.12,43.12 0 0 0 -6.49,0.07 1.2,1.2 0 0 0 0,2.4 c 2,0.08 3.94,0 5.9,0 1.62,0.06 3.32,0.06 4.69,1 l 1.31,-2.26 c -4,-2.47 -9,-1.52 -13.37,-0.57 l 1.3,2.23 c 1.43,-1.13 3.53,-1.08 5.25,-0.91 a 31.91,31.91 0 0 1 6.54,1.47 1.29,1.29 0 0 0 1,-2.35 c -2.1,-1.27 -4.31,-2.45 -6.84,-2.41 a 24.35,24.35 0 0 0 -7.6,1.69 0.73,0.73 0 0 0 0.39,1.4 z" />
      <path
         id="svg_55"
         d="m 711.21,294.2 c -4.23,9.43 -3.63,19.82 -4.28,29.9 a 54.39,54.39 0 0 1 -2.55,14.42 28.28,28.28 0 0 1 -3.34,6.69 c -1.25,1.82 -2.91,3.49 -3.32,5.74 -1.05,5.7 5,8.61 9.37,10.18 l -0.67,-0.88 a 112,112 0 0 0 -0.34,13.83 c 0.16,4.13 0.3,8.52 1.7,12.45 2.45,6.85 9,11 15.77,12.8 a 71.32,71.32 0 0 0 14.45,1.74 c 1.11,0.06 1.1,-1.66 0,-1.72 -7.51,-0.43 -15.45,-0.92 -21.88,-5.25 a 16.76,16.76 0 0 1 -6.41,-7.64 c -1.43,-3.66 -1.58,-7.76 -1.76,-11.64 a 112.48,112.48 0 0 1 0.32,-14.57 0.92,0.92 0 0 0 -0.67,-0.88 c -2.21,-0.8 -4.57,-1.63 -6.27,-3.33 a 5.2,5.2 0 0 1 -1.15,-6.42 c 1.06,-1.9 2.53,-3.52 3.58,-5.43 a 31.85,31.85 0 0 0 2.51,-6 c 2.69,-8.76 2.1,-18 2.62,-27 0.33,-5.58 1.11,-11.19 3.37,-16.35 0.3,-0.69 -0.71,-1.29 -1,-0.6 z" />
      <path
         fill="#f58220"
         id="svg_56"
         d="m 705.76,359.63 -4.79,12 c -2.1,5.25 -4.22,10.59 -4.79,16.21 -0.57,5.62 0.61,11.68 4.4,15.87 2.9,3.2 7,5 11.22,6.12 a 42.66,42.66 0 0 0 26.66,-1.83 29.42,29.42 0 0 0 12,-8.52 c 5.14,-6.43 6.35,-15.22 5.68,-23.42 -0.67,-8.2 -3,-16.18 -4.1,-24.33 -1.1,-8.15 -1,-16.87 3,-24.07 1.71,-3.09 4.07,-5.82 5.4,-9.09 1.33,-3.27 1.37,-7.46 -1.19,-9.89 a 12.15,12.15 0 0 0 -5.23,-2.45 l -4.6,-1.32 a 6.1,6.1 0 0 0 -3,-0.34 c -2,0.42 -3,2.7 -3,4.72 0,2.02 1,3.89 1.64,5.81 2.83,8.64 -0.21,17.95 -1.47,27 -0.58,4.14 -0.79,8.41 -2.47,12.24 -1.68,3.83 -5.31,7.18 -9.48,7 -2.12,-0.09 -4.08,-1.05 -6.08,-1.74 a 25.45,25.45 0 0 0 -18.81,0.9" />
      <path
         id="svg_57"
         d="m 705.16,359.47 c -2.24,5.39 -4.57,10.75 -6.67,16.2 -1.83,4.77 -3.37,9.77 -3.35,14.92 a 20.91,20.91 0 0 0 4.05,12.84 c 2.91,3.71 7.31,5.85 11.78,7.09 a 43.41,43.41 0 0 0 30,-2.6 26.43,26.43 0 0 0 15.86,-21.57 c 1.51,-10.5 -1.49,-20.8 -3.32,-31.06 a 58.24,58.24 0 0 1 -1,-15.7 30.81,30.81 0 0 1 5.13,-14.34 c 2.47,-3.73 5.14,-7.67 4.56,-12.37 a 7.78,7.78 0 0 0 -2.54,-5 c -1.76,-1.51 -4.08,-2.08 -6.26,-2.7 -2.18,-0.62 -5.09,-2.05 -7.43,-1.33 a 5,5 0 0 0 -3.16,3.83 c -0.53,2.31 0.37,4.57 1.15,6.71 a 24.77,24.77 0 0 1 1.49,7.95 c 0.13,5.68 -1.22,11.25 -2.16,16.81 -0.87,5.08 -0.76,10.76 -3.13,15.45 a 11.47,11.47 0 0 1 -4.69,5 c -2.45,1.3 -4.88,0.88 -7.39,0 a 28.87,28.87 0 0 0 -14.67,-1.89 26.52,26.52 0 0 0 -7,2.09 c -1.06,0.48 -0.14,2 0.91,1.56 a 24.71,24.71 0 0 1 14.81,-1.71 c 4.36,0.86 8.52,3.83 13,2.1 4,-1.52 6.51,-5.26 7.71,-9.18 1.47,-4.74 1.58,-9.89 2.46,-14.76 0.92,-5.09 2,-10.24 1.91,-15.44 a 26.13,26.13 0 0 0 -1.13,-7.19 c -0.68,-2.15 -2,-4.5 -1.61,-6.83 a 3.73,3.73 0 0 1 1.32,-2.39 c 1.15,-0.84 2.63,-0.28 3.85,0.06 a 44.25,44.25 0 0 1 7.36,2.18 c 4.36,2.1 4.15,7.33 2.28,11.12 a 68.52,68.52 0 0 1 -3.79,6.12 29.36,29.36 0 0 0 -3,6.28 38,38 0 0 0 -1.72,13.65 c 0.4,10.41 3.8,20.38 4.62,30.73 0.71,9 -0.86,18.84 -7.76,25.28 -7.08,6.62 -17.68,9.28 -27.17,8.83 a 35.08,35.08 0 0 1 -14.2,-3.45 16.22,16.22 0 0 1 -8.45,-10.32 c -2.72,-9.9 2.24,-20 5.71,-29 l 2.92,-7.63 c 0.29,-0.75 -0.89,-1.05 -1.19,-0.33 z" />
      <path
         stroke="null"
         id="svg_58"
         fill="#000000"
         d="m 712.06879,376.0285 a 27.526033,33.795381 0 0 0 7.81182,-2.56343 20.850473,25.599391 0 0 0 3.423,-2.24954 7.10166,8.719139 0 0 0 2.84067,-3.60972 c 0.49711,-1.48226 -1.2641,-2.47624 -2.08789,-1.49969 -0.3977,0.48827 -0.71017,1.04629 -1.10786,1.51713 a 8.933888,10.968676 0 0 1 -1.23569,1.16836 33.150548,40.700939 0 0 1 -9.80029,5.33611 c -0.838,0.26158 -0.69596,2.04028 0.21305,1.90078 z" />
      <path
         id="svg_59"
         fill="#18c4ff"
         d="m 724,364.76 a 3.46,3.46 0 0 0 0.21,1.39 4.32,4.32 0 0 0 0.32,0.69 1.87,1.87 0 0 0 0.56,0.71 0.65,0.65 0 0 0 0.71,-0.05 0.64,0.64 0 0 0 0.23,-0.68 0.94,0.94 0 0 0 -0.2,-0.35 c 0,-0.05 0,0 0,0 v -0.06 l -0.17,-0.24 c -0.05,-0.09 -0.1,-0.18 -0.14,-0.27 -0.04,-0.09 0,-0.08 -0.07,-0.13 v -0.07 c 0,-0.06 0,0 0,0.05 0,-0.09 -0.07,-0.19 -0.1,-0.28 l -0.09,-0.28 c 0,-0.1 -0.06,-0.2 -0.08,-0.29 a 0.77,0.77 0 0 1 0,-0.15 c 0,0 0,-0.21 0,0 a 0.58,0.58 0 0 0 -0.57,-0.57 0.57,0.57 0 0 0 -0.56,0.57 z" />
      <path
         fill="#f58220"
         id="svg_60"
         d="m 751.85,334.06 c 2.12,-2.83 4.67,-5.74 8.14,-6.42 a 8.08,8.08 0 0 1 9.22,6.83 c 0.31,3.09 -1.23,6.06 -3,8.59 a 3.65,3.65 0 0 0 -0.85,1.77 3.45,3.45 0 0 0 0.95,2.24 85.56,85.56 0 0 0 7.71,8.86 c 4.2,4.2 9.47,8.19 15.39,7.81 a 7.64,7.64 0 0 0 5.56,-2.56 11,11 0 0 0 1.71,-4 c 3.2,-11.72 3.36,-14.26 5.72,-26.23 1.61,-8.14 2.77,-17.84 -0.12,-25.85 -2.14,-5.92 -7.94,-11.21 -13.15,-14.6 -11.12,-7.24 -22.88,-19.36 -35.83,-16.32 a 12.87,12.87 0 0 1 -4.25,0.57 16.94,16.94 0 0 1 -4.62,-1.66 c -6.84,-2.86 -14.85,-1.07 -21.34,2.5 -6.49,3.57 -11.93,8.76 -17.85,13.23 -2.26,1.71 -4.77,3.57 -5.38,6.35 a 7.66,7.66 0 0 0 2.18,6.61 23,23 0 0 0 5.89,4.15 c 0,-2.41 0.17,-5.3 2.28,-6.44 a 6.63,6.63 0 0 1 2.29,-0.6 l 29.63,-4 a 13.35,13.35 0 0 0 13.84,21.33 c 1.53,-0.41 3.58,-0.91 4.36,0.47 0.56,1 0,2.17 -0.59,3.13 l -3.17,5.36" />
      <path
         id="svg_61"
         d="m 752.23,334.44 c 2.58,-3.28 6.26,-7.28 10.89,-6 a 7.74,7.74 0 0 1 4.68,3.81 7.88,7.88 0 0 1 -0.17,6.8 19.37,19.37 0 0 1 -1.86,3.25 4.68,4.68 0 0 0 -1.2,2.71 c 0,2 2.21,4 3.39,5.43 a 57.43,57.43 0 0 0 10.26,10.23 c 3.47,2.54 7.74,4.41 12.13,3.76 a 8.1,8.1 0 0 0 5.06,-2.55 c 1.46,-1.71 1.91,-4 2.47,-6.12 2,-7.54 3.47,-15.15 5,-22.81 1.78,-9.12 3.55,-19.14 0.27,-28.15 C 800,296.25 792,291.59 785,286.5 c -7,-5.09 -13.81,-11 -22.24,-13.13 a 21.36,21.36 0 0 0 -5.9,-0.69 c -2.36,0.07 -4.58,1 -6.9,1.07 -2.32,0.07 -4.48,-1.45 -6.68,-2.16 a 20.75,20.75 0 0 0 -6.78,-0.94 c -9.87,0.24 -18,6.2 -25.37,12.17 -2,1.63 -4,3.28 -6.07,4.85 a 25.56,25.56 0 0 0 -4.59,4 c -2.78,3.52 -1.9,8 1.13,11.05 a 24.24,24.24 0 0 0 5.81,3.95 0.94,0.94 0 0 0 1.41,-0.8 c -0.05,-2.4 0,-5.43 2.89,-6 3.3,-0.71 6.78,-0.93 10.13,-1.37 l 20.25,-2.7 -0.64,-1.54 a 14.3,14.3 0 0 0 14,23.12 c 1.45,-0.3 5,-1.51 3.63,1.37 -1,2 -2.33,4 -3.48,5.92 a 1.0164768,1.0164768 0 0 0 1.77,1 52.87,52.87 0 0 0 3.75,-6.52 c 0.66,-1.61 0.35,-3.58 -1.47,-4.22 -1.82,-0.64 -3.43,0.22 -5.09,0.51 a 12.39,12.39 0 0 1 -5.8,-0.43 12.26,12.26 0 0 1 -8.16,-8 12.83,12.83 0 0 1 2.08,-11.51 0.91,0.91 0 0 0 -0.88,-1.51 l -23,3.1 -5.67,0.77 c -1.44,0.2 -2.94,0.29 -4.12,1.22 -2,1.59 -2.17,4.44 -2.15,6.79 l 1.41,-0.81 c -3.52,-2 -9.2,-5.45 -7.4,-10.39 0.72,-2 2.54,-3.38 4.15,-4.61 q 2.7,-2.05 5.33,-4.19 c 7.22,-5.86 14.94,-12.34 24.6,-13.18 a 20,20 0 0 1 6.72,0.5 c 2.08,0.54 3.91,1.73 6,2.27 2.3,0.61 4.43,-0.16 6.69,-0.57 a 17.33,17.33 0 0 1 5.88,0 c 8.12,1.3 15.08,6.85 21.52,11.58 6.76,5 14.73,9.2 18.71,16.94 2.1,4.08 2.61,8.91 2.58,13.43 a 75.75,75.75 0 0 1 -1.59,13.84 c -1.4,7.22 -2.65,14.48 -4.47,21.61 a 66.77,66.77 0 0 1 -1.81,6.55 6,6 0 0 1 -4.8,3.92 c -4.52,0.87 -9,-1.51 -12.38,-4.24 a 65.94,65.94 0 0 1 -9.71,-10 c -0.72,-0.88 -1.88,-1.94 -2.2,-3.05 -0.32,-1.11 1.13,-2.63 1.71,-3.6 a 13.58,13.58 0 0 0 2.08,-5.9 8.59,8.59 0 0 0 -5,-8.28 c -3.36,-1.58 -6.95,-0.68 -9.69,1.68 a 25.24,25.24 0 0 0 -3.86,4.46 c -0.35,0.49 0.47,1.14 0.85,0.65 z" />
      <path
         id="svg_62"
         d="m 803,404.13 q -3,-12.08 -5.43,-24.27 c -0.8,-4 -1.54,-8 -2.25,-12 -0.71,-4 -1.22,-8.4 -2.24,-12.47 -0.3,-1.22 -2.37,-1 -2.24,0.3 A 113.76,113.76 0 0 0 793.1,368 q 1.27,6.07 2.68,12.13 2.79,12.22 6.07,24.34 a 0.60166436,0.60166436 0 0 0 1.16,-0.32 z" />
      <path
         id="svg_63"
         d="m 732.14,404.47 c 0.69,3.37 1.54,6.7 2.34,10 0.38,1.62 0.79,3.25 1.19,4.87 a 29.93,29.93 0 0 0 1.37,4.77 c 0.27,0.64 1.36,0.32 1.3,-0.35 a 28.83,28.83 0 0 0 -1,-4.67 c -0.44,-1.69 -0.87,-3.37 -1.32,-5.05 -0.88,-3.31 -1.71,-6.65 -2.71,-9.94 a 0.6,0.6 0 0 0 -1.15,0.32 z" />
      <path
         id="svg_64"
         d="m 387.48,607.65 1.78,-1.33 0.89,-0.67 0.45,-0.33 a 2.31,2.31 0 0 1 0.45,-0.32 0.65,0.65 0 1 0 -0.79,-1 2.78,2.78 0 0 1 -0.41,0.36 l -0.43,0.35 -0.86,0.71 -1.72,1.41 a 0.52,0.52 0 0 0 0,0.7 0.53,0.53 0 0 0 0.69,0.14 z" />
      <path
         id="svg_65"
         d="m 398.13,612.85 c 1.72,-1.22 3.44,-2.45 5.08,-3.77 0.55,-0.44 -0.18,-1.4 -0.76,-1 -1.7,1.24 -3.34,2.58 -5,3.92 -0.45,0.38 0.15,1.17 0.64,0.83 z" />
      <path
         id="svg_66"
         d="m 406.73,616.37 4.68,-3.54 a 0.57,0.57 0 1 0 -0.69,-0.89 l -4.62,3.6 c -0.47,0.36 0.16,1.19 0.63,0.83 z" />
      <path
         id="svg_67"
         d="m 422.15,624 a 71.45,71.45 0 0 0 35.07,-17.32 65.54,65.54 0 0 0 7,-7.3 16.44,16.44 0 0 0 4,-8.55 c 0.42,-3.61 -0.2,-7.42 -0.8,-11 a 39.19,39.19 0 0 0 -2.84,-9.78 c -2.86,-6.33 -8.43,-11.64 -15.58,-12.31 -1,-0.1 -1,1.47 0,1.58 6,0.66 10.87,5.21 13.54,10.43 a 35.34,35.34 0 0 1 3.06,9.68 46.81,46.81 0 0 1 1,10 c -0.13,3.66 -1.81,6.59 -4.12,9.32 a 69.4,69.4 0 0 1 -6.19,6.41 75.61,75.61 0 0 1 -15,10.54 76.71,76.71 0 0 1 -19.43,7.3 c -0.68,0.15 -0.38,1.16 0.29,1 z" />
      <path
         id="svg_68"
         d="m 719,424.62 c -19.42,-2.28 -38.3,6.93 -52.67,19.35 -15.64,13.52 -27.08,31 -39.54,47.29 q -10.27,13.42 -21.31,26.23 c -3.53,4.09 -7.09,8.17 -10.78,12.12 a 61.94,61.94 0 0 1 -11.31,10 c -9.15,6 -20.54,6.48 -31.09,7.68 q -17.22,2 -34.51,3.28 -17.29,1.28 -34.62,2 -8.65,0.35 -17.33,0.52 c -4.79,0.1 -9.74,-0.07 -14.42,1.14 a 18.69,18.69 0 0 0 -6.06,2.75 c -1,0.7 -0.05,2.33 0.95,1.63 4,-2.82 8.88,-3.35 13.64,-3.51 5.57,-0.18 11.15,-0.22 16.72,-0.4 q 17.2,-0.56 34.36,-1.74 17.16,-1.18 34.27,-3 8.55,-0.9 17.07,-2 a 65.93,65.93 0 0 0 15.1,-3.25 c 9.23,-3.51 16,-10.87 22.41,-18.07 q 11.16,-12.49 21.58,-25.63 c 13,-16.32 24.34,-34.11 38.95,-49.06 13.57,-13.88 31.43,-25.5 51.37,-26.31 a 58,58 0 0 1 7.22,0.13 c 0.77,0.06 0.74,-1.1 0,-1.18 z" />
      <path
         id="svg_69"
         fill="#000000"
         d="m 726.33,456 a 6.37,6.37 0 0 1 5.55,-9.13 c 3.94,0 8.06,3.31 11.43,1.27 1.06,2.89 4.19,4.18 2.34,6.65 -1.46,1.94 -7.27,5.39 -8.61,7.42 -2.19,3.28 -1.72,7.59 -1.16,11.49 q 9.54,66.66 23.12,132.68 c 0.59,2.88 1.19,5.89 0.49,8.75 -0.64,2.65 -2.33,4.9 -4,7 a 224.91,224.91 0 0 1 -27.79,29.35 1.85,1.85 0 0 1 -1,0.56 c -0.64,0 -1.09,-0.62 -1.4,-1.18 l -14.93,-26.81 c -1.4,-2.51 -2.83,-5.09 -3.26,-7.94 a 24.34,24.34 0 0 1 0.15,-6.32 c 4.73,-42.32 9.46,-84.69 17.22,-126.56 a 124.88,124.88 0 0 1 4.3,-17.86 8.61,8.61 0 0 0 -1.36,-8.1 l -1.5,-1.92" />
      <path
         id="svg_70"
         fill="#f58220"
         d="m 726.88,455.64 c -1.57,-3.68 1,-8.17 5.19,-8 3.95,0.14 7.76,3.34 11.65,1.19 l -1.21,-0.5 a 12.54,12.54 0 0 0 1.76,2.92 c 0.75,1 1.55,1.9 0.67,3.06 -1.3,1.7 -3.45,2.91 -5.12,4.19 -1.67,1.28 -3.4,2.6 -4.3,4.65 -1.23,2.79 -1.11,5.94 -0.76,8.89 0.84,7.16 2,14.29 3.11,21.41 q 1.67,11 3.45,21.93 7.13,43.83 16,87.35 c 0.72,3.55 1.94,7.37 1.5,11 -0.44,3.63 -2.87,6.36 -5,9 q -6.54,8.18 -13.82,15.71 c -2.34,2.42 -4.74,4.8 -7.19,7.11 Q 731,647.3 729.09,649 a 22.5,22.5 0 0 1 -1.71,1.53 l -0.35,0.31 c -0.39,0.32 -0.67,0.27 -0.84,-0.16 a 6.78,6.78 0 0 1 -0.89,-1.58 l -10.84,-19.46 c -1.68,-3 -3.49,-6 -5,-9.11 a 16,16 0 0 1 -1.57,-4.9 24.83,24.83 0 0 1 0.22,-5.84 q 1.21,-11 2.47,-22.06 c 1.67,-14.71 3.4,-29.4 5.32,-44.08 2,-14.91 4.1,-29.81 6.61,-44.65 1.22,-7.2 2.44,-14.41 3.94,-21.55 A 102,102 0 0 1 729,467.4 c 0.93,-2.94 1.6,-5.6 0.34,-8.58 a 19,19 0 0 0 -2.79,-4.15 c -0.77,-1 -2.13,0.4 -1.37,1.37 1.21,1.55 2.49,3 2.93,5 a 8.8,8.8 0 0 1 -0.48,4.79 c -0.59,1.79 -1.11,3.6 -1.58,5.42 -1.83,7.15 -3,14.47 -4.25,21.73 -2.59,15 -4.86,30 -6.9,45.09 -2,14.91 -3.83,29.84 -5.56,44.79 q -1.3,11.26 -2.55,22.55 c -0.4,3.59 -1.18,7.37 -0.61,11 0.51,3.26 2.24,6.17 3.83,9 l 11.07,19.89 2.65,4.76 c 0.59,1.06 1.22,2.69 2.61,2.89 1.39,0.2 2.45,-1.2 3.36,-2 q 2.06,-1.85 4.06,-3.73 7.71,-7.26 14.7,-15.21 3.49,-4 6.8,-8.1 c 2,-2.48 4.11,-5 5,-8.11 1,-3.34 0.2,-6.83 -0.48,-10.14 q -1.14,-5.57 -2.25,-11.12 -2.24,-11.13 -4.34,-22.28 -4.23,-22.31 -8,-44.68 -3.77,-22.37 -7.08,-44.84 c -0.54,-3.69 -1.18,-7.38 -1.61,-11.08 -0.34,-3 -0.55,-6.61 1.37,-9.13 1.35,-1.78 3.54,-3.06 5.28,-4.4 1.42,-1.09 3.59,-2.48 3.86,-4.42 0.31,-2.27 -2.14,-3.86 -2.92,-5.78 a 0.84,0.84 0 0 0 -1.21,-0.5 c -2.36,1.32 -5.1,-0.05 -7.45,-0.73 a 8.91,8.91 0 0 0 -6.27,0 7.23,7.23 0 0 0 -3.38,9.65 c 0.34,0.74 1.4,0.09 1.09,-0.64 z" />
      <path
         id="svg_71"
         d="m 462.87,601 c 3.28,5.75 10.17,7.52 16.1,9.24 8.34,2.41 16.7,4.8 25.1,7 16.51,4.32 33.25,8 50.26,9.55 a 155.16,155.16 0 0 0 24,0.7 112.91,112.91 0 0 0 18.82,-2.88 149.37,149.37 0 0 0 38.15,-15 c 11.41,-6.36 22.3,-14.19 31.18,-23.82 1,-1.13 2,-2.3 3,-3.51 0.6,-0.75 -0.41,-1.83 -1.08,-1.08 a 126.85,126.85 0 0 1 -29.26,24.27 150.77,150.77 0 0 1 -37,16.16 117.94,117.94 0 0 1 -19,3.82 127.11,127.11 0 0 1 -21.46,0.32 c -16.82,-0.95 -33.43,-4.11 -49.77,-8.11 -8.13,-2 -16.2,-4.22 -24.26,-6.47 -3.91,-1.09 -7.84,-2.14 -11.72,-3.31 a 28.07,28.07 0 0 1 -8.74,-3.9 13,13 0 0 1 -3.36,-3.58 0.59,0.59 0 0 0 -1,0.6 z" />
      <path
         id="svg_72"
         d="m 671.5,486.16 c -4.06,24.27 -5.21,48.93 -4.51,73.51 0.7,24.58 3.3,49.23 6.53,73.68 1.62,12.24 3.4,24.46 5.22,36.68 0.81,5.48 1.31,11.18 3,16.48 a 20.73,20.73 0 0 0 8.42,11.28 c 4.1,2.67 8.9,4 13.59,5.24 q 9.09,2.36 18.31,4.14 a 281.38,281.38 0 0 0 36.35,4.65 265.28,265.28 0 0 0 72.47,-5.61 c 3.07,-0.67 6.12,-1.42 9.14,-2.27 a 0.89152958,0.89152958 0 0 0 -0.47,-1.72 323.72,323.72 0 0 1 -36.16,6.49 263,263 0 0 1 -35.6,1.5 275.73,275.73 0 0 1 -36.06,-3.33 q -9,-1.43 -17.82,-3.4 a 144.29,144.29 0 0 1 -16.17,-4.2 c -4.66,-1.62 -9.19,-4.09 -11.91,-8.35 -2.72,-4.26 -3.56,-9.62 -4.32,-14.62 -1.82,-12 -3.62,-23.92 -5.29,-35.9 -3.37,-24.13 -6.16,-48.35 -7.36,-72.69 -1.19,-24.08 -0.75,-48.3 2.43,-72.22 0.41,-3 0.85,-6 1.34,-9 0.12,-0.75 -1,-1.08 -1.16,-0.32 z" />
      <path
         fill="#f58220"
         id="svg_73"
         d="m 238.92,708.47 a 14.94,14.94 0 0 1 -4.11,4.21 c -7.46,5.32 -17.23,7.92 -26.17,9.21 -46.95,6.76 -103.51,5.42 -147.39,-14.23 A 41.75,41.75 0 0 1 48.93,699.77 C 39.45,720.49 26.12,756.18 25,795.05 h 230.88 z" />
      <path
         id="svg_74"
         d="m 824.15,418.09 c 18.09,-6.17 37.71,-2.09 54.06,7 17.42,9.69 30.51,25.16 41,41.83 11.27,17.87 20.22,37.2 29.71,56 9.85,19.54 21.24,39.52 24.42,61.49 a 64.18,64.18 0 0 1 -3.25,32 c -3.79,10.16 -9.31,19.77 -14.66,29.18 a 439.94,439.94 0 0 1 -35.08,52.55 Q 910.64,710.7 900,722.51 c -6.65,7.38 -13.49,15 -22.14,20 a 30.61,30.61 0 0 1 -13.6,4.51 24.59,24.59 0 0 1 -14,-3.67 62.15,62.15 0 0 1 -11.32,-9.21 26.68,26.68 0 0 1 -4.92,-5.48 c -1.57,-2.74 -0.87,-5.69 0.21,-8.46 2.19,-5.59 4.75,-11.06 7.13,-16.57 l 6.9,-16 c 4.5,-10.41 9,-20.83 13.51,-31.21 8.72,-19.83 17.89,-39.52 29,-58.15 q 4.13,-6.9 8.61,-13.59 h -1.51 c -0.05,-0.08 -1.21,-0.12 -1.47,-0.21 a 4.28,4.28 0 0 1 -1.84,-1.61 l -4,-4.92 q -3.84,-4.71 -7.63,-9.44 c -5.2,-6.5 -10.31,-13.06 -15.25,-19.75 A 302.24,302.24 0 0 1 841.4,507.27 189.22,189.22 0 0 1 830.49,481.66 c -0.33,-1 -1.89,-0.55 -1.55,0.43 11.77,34.74 33.93,64.37 56.74,92.6 l 4.73,5.83 2.55,3.13 a 8.42,8.42 0 0 0 2,2.08 c 1.54,0.91 6.1,0.94 4.42,-1.93 a 0.89,0.89 0 0 0 -1.51,0 c -12.61,18.76 -22.82,39 -32.15,59.51 -9.76,21.47 -18.88,43.23 -28.22,64.87 l -3.65,8.46 a 26.1,26.1 0 0 0 -2.48,7.41 c -0.56,5.13 3.36,8.49 6.71,11.72 6.83,6.58 14.73,13 24.69,13.07 9.59,0.06 18.19,-5.43 25.18,-11.5 8,-7 15,-15.28 21.84,-23.36 a 443.18,443.18 0 0 0 38.35,-52.61 q 8.61,-13.85 16.17,-28.31 c 5.13,-9.81 9.86,-19.88 11.17,-31 2.6,-22.2 -7,-43.77 -16.55,-63.19 -5.3,-10.7 -10.74,-21.34 -16.11,-32 -4.86,-9.64 -9.66,-19.31 -14.91,-28.74 -9.8,-17.59 -21.5,-34.85 -37.68,-47.19 -15,-11.44 -34.23,-18.87 -53.3,-17 a 56.39,56.39 0 0 0 -13.08,2.91 c -0.72,0.25 -0.42,1.4 0.32,1.15 z" />
      <path
         id="svg_75"
         fill="#000000"
         d="m 829.65,715.31 c 17.62,17.5 45.44,26.71 68.14,40.31 a 3.88,3.88 0 0 1 1.53,1.3 c 0.65,1.23 -0.65,2.54 -2,3.35 -6.36,3.8 -15.3,3.81 -23.13,2.37 A 81.53,81.53 0 0 1 847.6,752.52 c -13.38,-7.86 -24.33,-19.65 -23.8,-32.59" />
      <path
         id="svg_76"
         fill="#000000"
         d="m 829.22,715.74 c 16.19,16.17 38.36,24.54 58.22,35.11 2.51,1.34 5,2.71 7.46,4.14 1,0.58 2.65,1.18 3.37,2.09 1,1.31 -1.88,2.65 -2.77,3.09 -5.27,2.58 -11.54,2.7 -17.26,2.07 -12.18,-1.36 -24.24,-6.43 -34.32,-13.3 -9.56,-6.51 -19.45,-16.58 -19,-29 0.05,-1.41 -2.15,-1.41 -2.2,0 -0.37,11.41 7.46,21.08 16,27.79 a 80.85,80.85 0 0 0 35.46,15.94 c 5.95,1.05 12.28,1.36 18.17,-0.26 2.54,-0.7 5.8,-1.8 7.45,-4 1.93,-2.55 -0.68,-4.15 -2.68,-5.32 -10.74,-6.28 -22.09,-11.43 -33.18,-17.05 -12,-6.1 -24.07,-12.68 -33.79,-22.17 a 0.61,0.61 0 0 0 -0.86,0.86 z" />
      <path
         id="svg_77"
         d="M 829.53,714.65 A 104.85,104.85 0 0 0 851,732 a 224.08,224.08 0 0 0 25.17,12.86 128.37,128.37 0 0 0 14.72,6 c 1.37,0.43 2.35,-1.74 1,-2.37 -4.13,-1.94 -8.5,-3.49 -12.74,-5.18 -4.24,-1.69 -8.57,-3.62 -12.76,-5.66 a 174.2,174.2 0 0 1 -23.75,-13.83 116.15,116.15 0 0 1 -12.33,-9.9 0.54447222,0.54447222 0 0 0 -0.77,0.77 z" />
      <path
         id="svg_78"
         d="m 363.13,511.79 c 3.64,-2.75 7.19,-5.81 11.08,-8.2 a 10.9,10.9 0 0 1 6.55,-1.91 c 2.31,0.2 3.95,1.66 5.44,3.31 a 31.58,31.58 0 0 1 6.47,11 c 0.31,0.92 0.59,1.85 0.81,2.79 0.22,0.94 0.84,2.51 0.21,3.29 -0.63,0.78 -2.13,0.81 -3.07,0.75 a 12.63,12.63 0 0 1 -3.62,-0.89 25.07,25.07 0 0 1 -10.53,-8.14 c -0.52,-0.62 -1.52,0.19 -1.11,0.86 A 22.39,22.39 0 0 0 386,523.4 c 2.25,0.92 4.88,1.67 7.29,0.92 a 3.67,3.67 0 0 0 2.14,-1.53 4.33,4.33 0 0 0 0.12,-3 33.3,33.3 0 0 0 -6.1,-13.58 20.12,20.12 0 0 0 -4.89,-5 8.6,8.6 0 0 0 -7,-0.87 c -2.74,0.77 -5,2.53 -7.21,4.27 l -7.88,6.32 c -0.49,0.39 0.17,1.27 0.69,0.89 z" />
      <path
         id="svg_79"
         d="m 423.38,521 c -1.3,-3 -4.36,-4.7 -7.06,-6.23 a 51.86,51.86 0 0 0 -9.84,-4.3 53.48,53.48 0 0 0 -10.48,-2.2 c -1.54,-0.17 -3.53,-0.6 -5.06,-0.27 -1,0.22 -1.41,1.29 -0.48,1.94 a 0.82,0.82 0 0 0 0.83,0 l 0.1,-0.05 c 0.81,-0.43 0.25,-1.83 -0.63,-1.5 h -0.11 l 0.81,0.22 0.14,0.35 -0.42,0.74 c 0.29,-0.18 1.4,0 1.75,0.07 0.73,0 1.46,0.09 2.19,0.16 1.53,0.14 3.05,0.36 4.55,0.63 a 59.05,59.05 0 0 1 8.29,2.16 56.48,56.48 0 0 1 8.07,3.49 c 2.47,1.29 5.21,2.71 6.48,5.32 0.3,0.63 1.19,0.08 0.92,-0.54 z" />
      <path
         id="svg_80"
         d="m 421.54,531.54 a 20.59,20.59 0 0 0 -3.28,-2.19 c -0.59,-0.31 -1.2,-0.58 -1.81,-0.84 l -0.87,-0.35 a 2.78,2.78 0 0 0 -1.09,-0.27 0.7,0.7 0 0 0 -0.61,0.41 0.68,0.68 0 0 0 0.14,0.74 2.51,2.51 0 0 0 1,0.44 l 0.88,0.31 c 0.59,0.22 1.16,0.46 1.72,0.73 a 30,30 0 0 1 3.32,1.86 c 0.5,0.33 1.12,-0.45 0.65,-0.84 z" />
      <path
         id="svg_81"
         d="m 419.56,538.48 a 9.84,9.84 0 0 0 -1.3,-0.92 10.41,10.41 0 0 0 -1.52,-0.69 8.69,8.69 0 0 0 -3.14,-0.62 0.64,0.64 0 0 0 -0.63,0.56 0.63,0.63 0 0 0 0.46,0.7 18.75,18.75 0 0 1 2.86,0.64 13.35,13.35 0 0 1 2.6,1.21 c 0.53,0.32 1.18,-0.47 0.67,-0.88 z" />
      <path
         id="svg_82"
         d="m 418.73,546 a 45.7,45.7 0 0 0 -5.26,-1.5 0.71,0.71 0 0 0 -0.38,1.36 47,47 0 0 0 5.36,1.17 0.53,0.53 0 0 0 0.28,-1 z" />
      <path
         id="svg_83"
         d="m 734.94,416.2 c -2.77,-0.07 -6,-0.18 -8.7,0.75 -2.32,0.82 -3.5,3.3 -4.68,5.29 a 76.29,76.29 0 0 0 -7,15.53 78.42,78.42 0 0 0 -2.11,8.14 c -0.26,1.3 -0.49,2.61 -0.68,3.92 a 14.51,14.51 0 0 0 -0.3,3.83 c 0.78,6.33 8.64,0.8 11,-1.17 a 75.84,75.84 0 0 0 13.31,-14.07 c 0.56,-0.77 -0.7,-1.76 -1.32,-1 a 119.1,119.1 0 0 1 -10.11,10.72 45.38,45.38 0 0 1 -5.52,4.55 13.81,13.81 0 0 1 -3.14,1.64 c -0.47,0.16 -1.21,0.43 -1.69,0.14 -0.48,-0.29 -0.5,-1 -0.51,-1.43 a 31.9,31.9 0 0 1 1,-7 c 0.48,-2.32 1.07,-4.6 1.76,-6.86 a 77.34,77.34 0 0 1 5.6,-13.66 c 0.62,-1.17 1.27,-2.33 2,-3.47 a 9.48,9.48 0 0 1 2.38,-3.15 9.72,9.72 0 0 1 3.94,-1.07 c 1.58,-0.24 3.17,-0.42 4.76,-0.53 a 0.55,0.55 0 0 0 0,-1.09 z" />
      <path
         id="svg_84"
         d="m 737.73,437.83 a 75.94,75.94 0 0 0 6.53,13.49 c 2.13,3.58 4.56,8.28 8.53,10.12 a 7.05,7.05 0 0 0 5.81,0 69.54,69.54 0 0 0 6.57,-3.16 c 4.64,-2.43 9.13,-5.14 13.54,-8 9.12,-5.85 18,-12.09 27,-18.18 4.59,-3.12 9.25,-6.16 13.67,-9.5 1.61,-1.21 3.46,-2.52 4.1,-4.53 0.74,-2.29 -0.7,-4.44 -1.71,-6.4 -4.2,-8.15 -9.63,-21.24 -21.11,-19.23 -1.21,0.21 -0.7,2.07 0.51,1.85 4.28,-0.75 8.34,1.67 11.07,4.78 2.93,3.34 4.75,7.53 6.71,11.47 l 1.5,3 c 0.55,1.09 1.41,2.37 1.15,3.64 -0.42,2.05 -3.08,3.53 -4.62,4.65 -4,2.94 -8.18,5.69 -12.3,8.49 -8.08,5.48 -16.12,11 -24.26,16.42 -3.92,2.6 -7.89,5.12 -12,7.46 -2,1.15 -4,2.26 -6.09,3.31 -2.09,1.05 -4.24,2.55 -6.44,2.76 -2.2,0.21 -4.23,-1.47 -5.65,-3.1 a 49.46,49.46 0 0 1 -4.26,-6.08 132.55,132.55 0 0 1 -7.29,-13.67 0.54039338,0.54039338 0 0 0 -1,0.41 z" />
      <path
         id="svg_85"
         d="m 802.86,401.19 c -0.49,2.81 -2.7,4.83 -5.06,6.23 -2.36,1.4 -5.18,2.65 -7.79,3.9 -5.32,2.54 -10.67,5.05 -16.12,7.33 a 156.35,156.35 0 0 1 -16.8,6 q -4.17,1.21 -8.41,2.09 -2,0.42 -4,0.75 a 17.56,17.56 0 0 0 -4.19,0.88 c -2.63,1.13 -3.56,4.22 -4.38,6.72 a 38.39,38.39 0 0 0 -1.78,9.81 c -0.06,1.13 1.7,1.12 1.76,0 a 36.18,36.18 0 0 1 1.69,-9.11 20.83,20.83 0 0 1 1.6,-4 4.42,4.42 0 0 1 3.39,-2.2 144.24,144.24 0 0 0 17,-3.86 c 11.12,-3.46 21.72,-8.38 32.2,-13.41 4.93,-2.37 11.39,-4.74 11.94,-11.05 0.06,-0.59 -0.94,-0.74 -1,-0.14 z" />
      <path
         id="svg_87"
         d="m 54,722.33 c -1.92,3.58 -4,8.32 -1,12 a 5.62,5.62 0 0 0 5.34,1.8 c 1.78,-0.31 4.11,-1.4 4.68,-3.27 0.46,-1.51 -0.53,-3.39 -2.27,-3.14 -1.89,0.27 -2.57,2.39 -1.93,4 1.57,3.86 7,6 10.83,4.5 a 6.08,6.08 0 0 0 3.86,-4.54 4.13,4.13 0 0 0 -2.7,-4.69 0.84,0.84 0 0 0 -0.94,1.23 4.53,4.53 0 0 0 4.51,2.35 5,5 0 0 0 4.14,-3.59 6.34,6.34 0 0 0 -1.18,-5.83 c -1.18,-1.51 -3.41,-3.27 -5.44,-2.73 a 0.87,0.87 0 0 0 0,1.67 2.36,2.36 0 0 0 2.78,-1.77 A 4.25,4.25 0 0 0 74,716.6 c -1.6,-2.39 -4.66,-3.29 -7.39,-3.46 -1.1,-0.06 -1.09,1.63 0,1.71 a 9.68,9.68 0 0 1 4.62,1.44 4.58,4.58 0 0 1 1.62,1.71 c 0.21,0.46 0.62,2.59 -0.47,2.35 V 722 c 1.33,-0.36 3.09,1.34 3.78,2.3 a 4.69,4.69 0 0 1 0.84,3.81 3.4,3.4 0 0 1 -2.53,2.66 2.88,2.88 0 0 1 -3.13,-1.48 l -1,1.23 c 1.53,0.44 1.83,2.38 1.27,3.68 A 5.07,5.07 0 0 1 67.88,737 7,7 0 0 1 63,735.88 c -0.89,-0.55 -4.39,-3.34 -2.43,-4.48 0.69,-0.41 1.15,0.14 1.05,0.82 a 2,2 0 0 1 -0.78,1.17 5.87,5.87 0 0 1 -2.49,1.22 4.23,4.23 0 0 1 -4.66,-1.69 c -2.05,-3.18 -0.21,-7.06 1.26,-10 0.31,-0.62 -0.6,-1.16 -0.93,-0.54 z" />
      <path
         id="svg_88"
         d="m 57.55,718.68 a 0.62,0.62 0 0 0 0,-1.23 0.62,0.62 0 0 0 0,1.23 z" />
      <path
         id="svg_89"
         d="m 49.26,768.14 c -1.87,0.25 -2.79,-1.72 -2.35,-3.32 a 7.27,7.27 0 0 1 2.87,-3.73 c 1.09,-0.77 2.67,-1.43 4,-0.81 1.13,0.54 2,2 1.26,3.11 l 1.52,0.63 a 4.09,4.09 0 0 1 3.85,-2.27 4.64,4.64 0 0 1 4.07,2.81 c 1.78,3.72 -0.57,7.62 -3.65,9.74 l 1.12,1.46 c 0.18,-0.16 0.8,-0.72 1.07,-0.7 0.64,0.05 0.59,0.81 0.6,1.22 a 6,6 0 0 1 -0.32,1.92 7.2,7.2 0 0 1 -2.48,3.38 8.63,8.63 0 0 1 -8.62,0.57 9.07,9.07 0 0 1 -3.42,-2.44 2.48,2.48 0 0 1 -0.57,-2.32 c 0.23,-0.63 0.39,-0.65 0,-0.19 a 2.14,2.14 0 0 1 -1.06,0.74 c -1.54,0.43 -3.07,-0.91 -3.59,-2.25 A 4.72,4.72 0 0 1 44,771.6 c 0.55,-1 -0.82,-1.69 -1.46,-0.85 -2.44,3.16 -0.52,8.53 3.56,9.06 A 3.8,3.8 0 0 0 50.29,777 c 0.38,-1.87 -1.65,-2.7 -3,-1.64 -1.64,1.27 -1.36,3.75 -0.29,5.28 a 10.93,10.93 0 0 0 5.16,3.62 c 4.08,1.53 8.84,0.7 11.6,-2.83 a 7.93,7.93 0 0 0 1.73,-6.09 2.38,2.38 0 0 0 -1.95,-2.19 3.87,3.87 0 0 0 -2.89,1.29 c -0.78,0.7 0.25,2.07 1.12,1.46 4.1,-2.87 7,-8.45 3.75,-13.08 -2.62,-3.77 -8.71,-3.74 -10.55,0.76 -0.36,0.89 1.05,1.43 1.52,0.64 a 3.82,3.82 0 0 0 -1.37,-5 c -2,-1.36 -4.46,-0.64 -6.22,0.68 -1.76,1.32 -3.65,3.65 -3.48,6.09 a 3.63,3.63 0 0 0 4,3.43 c 0.72,-0.1 0.56,-1.38 -0.18,-1.29 z" />
      <path
         id="svg_90"
         d="m 106.7,755.57 c -5.53,-2.25 -13,0.58 -15.28,6.22 a 7.76,7.76 0 0 0 1.15,8 6.31,6.31 0 0 0 7.22,1.54 l -1.4,-0.8 a 6.88,6.88 0 0 0 11.61,4.64 14,14 0 0 0 3.93,-4.84 c 0.54,-1.37 -0.13,-3.24 -1.82,-3.26 -1.69,-0.02 -2.17,2.11 -1.16,3.22 1.01,1.11 3.41,1.16 4.92,0.83 a 7.77,7.77 0 0 0 4.71,-3.15 c 2.78,-4.07 -1.67,-9.26 -5,-11.45 l 0.19,1.48 c 1.26,-1.47 2.48,-3.49 1.09,-5.3 a 4.24,4.24 0 0 0 -4.64,-1.17 c -2,0.68 -3,2.67 -3.79,4.48 -0.34,0.85 -0.92,1.94 -0.47,2.85 a 1.43,1.43 0 0 0 2,0.58 c 1.07,-0.57 0.12,-2.18 -0.94,-1.62 l 0.64,0.2 0.1,-0.31 A 3.09,3.09 0 0 0 110,757 a 13.27,13.27 0 0 1 0.73,-1.63 4.1,4.1 0 0 1 2.22,-2.15 2.51,2.51 0 0 1 2.2,0.4 c 1,0.91 -0.11,2.26 -0.75,3 a 1,1 0 0 0 0.19,1.48 12.16,12.16 0 0 1 3.33,3.26 c 0.83,1.22 1.89,3 1.48,4.52 a 5.2,5.2 0 0 1 -3.4,3.16 6.14,6.14 0 0 1 -2.12,0.32 5.36,5.36 0 0 1 -1,-0.12 l -0.6,-0.18 c -0.36,-0.18 -0.44,0 -0.25,0.6 a 6.2,6.2 0 0 1 -1.2,1.69 17.57,17.57 0 0 1 -1.57,1.77 6,6 0 0 1 -3.82,1.94 5.22,5.22 0 0 1 -5.24,-4.57 1,1 0 0 0 -1.4,-0.81 4.49,4.49 0 0 1 -5.49,-1.92 6.5,6.5 0 0 1 0.3,-6.72 10.89,10.89 0 0 1 12.67,-4.19 c 0.84,0.33 1.18,-1 0.37,-1.33 z" />
      <path
         id="svg_91"
         d="m 98.91,736.36 h 0.58 a 0.42,0.42 0 0 0 0.27,-0.06 0.57,0.57 0 0 0 0.37,-0.37 0.42,0.42 0 0 0 0.06,-0.27 v -0.18 a 0.87,0.87 0 0 0 -0.18,-0.31 l -0.14,-0.11 a 0.74,0.74 0 0 0 -0.36,-0.09 h -0.58 a 0.42,0.42 0 0 0 -0.27,0.06 0.46,0.46 0 0 0 -0.23,0.14 0.59,0.59 0 0 0 -0.14,0.23 0.58,0.58 0 0 0 -0.06,0.26 v 0.19 a 0.87,0.87 0 0 0 0.18,0.31 l 0.15,0.11 a 0.68,0.68 0 0 0 0.35,0.09 z" />
      <path
         id="svg_92"
         d="m 83.55,778 1.17,-0.28 a 0.64,0.64 0 0 0 0.4,-0.3 0.67,0.67 0 0 0 -0.24,-0.9 0.69,0.69 0 0 0 -0.51,-0.06 l -1.17,0.29 a 0.68,0.68 0 0 0 -0.39,0.3 0.64,0.64 0 0 0 -0.06,0.49 0.65,0.65 0 0 0 0.3,0.39 0.66,0.66 0 0 0 0.5,0.07 z" />
      <path
         id="svg_93"
         d="m 146.6,781.47 c -1.46,-0.3 -3.12,-0.59 -4.19,-1.73 -1.28,-1.35 -0.69,-3 0.5,-4.19 a 4.91,4.91 0 0 1 4,-1.55 3,3 0 0 1 2.66,2.73 c 0.05,1.16 1.84,1.17 1.8,0 a 6.31,6.31 0 0 1 2.12,-4.74 10.71,10.71 0 0 1 4.51,-2.65 c 1.13,-0.23 1.56,0.5 2,1.45 a 8.46,8.46 0 0 1 0,7.45 l 1.94,0.53 c 0,-0.44 0,-1.45 0.6,-1.28 0.38,0.11 0.59,0.67 0.73,1 a 5.59,5.59 0 0 1 0.4,2.46 7.51,7.51 0 0 1 -2.19,4.78 c -3.14,3.12 -8.1,2.61 -11.89,1.2 -1.12,-0.42 -1.94,1.48 -0.82,1.95 5.51,2.33 13.17,1.84 16.06,-4.2 a 8.41,8.41 0 0 0 0.07,-7.66 c -0.64,-1.16 -1.68,-2.1 -3.09,-1.68 -1.41,0.42 -2,2 -1.95,3.42 0,1 1.47,1.5 1.94,0.52 a 10.85,10.85 0 0 0 0.88,-6.91 c -0.39,-1.88 -1.52,-4.88 -3.74,-5.14 a 6.52,6.52 0 0 0 -3.5,1.08 13.72,13.72 0 0 0 -3.06,2 8.06,8.06 0 0 0 -2.83,6.37 h 1.8 a 4.76,4.76 0 0 0 -3.47,-4.28 6.26,6.26 0 0 0 -5.87,1.69 c -1.48,1.36 -2.5,3.48 -1.55,5.43 1.07,2.2 3.56,2.83 5.77,3.23 0.86,0.16 1.24,-1.15 0.36,-1.33 z" />
      <path
         id="svg_94"
         d="m 144.26,730 a 15,15 0 0 0 -4.23,7.88 c -0.5,2.72 -0.15,5.88 2.51,7.35 5.23,2.88 10.71,-2.39 11.08,-7.48 a 0.9,0.9 0 0 0 -1.77,-0.24 6.78,6.78 0 1 0 13.37,1.09 l -1.88,0.25 a 3.2,3.2 0 0 0 4.46,2.08 c 1.57,-0.68 3.68,-3.26 2.69,-5.06 -0.53,-1 -1.85,-1.5 -2.76,-2 -1.24,-0.72 -2.46,-1.5 -3.75,-2.15 -2,-1 -4.54,-1.75 -6.54,-0.27 -0.93,0.69 -0.06,2.25 0.92,1.58 2.39,-1.67 5.71,0.94 7.77,2.14 a 16.88,16.88 0 0 1 2.1,1.22 c 0.64,0.52 0.5,0.92 0.08,1.59 -0.6,1 -2.75,2.3 -3.12,0.39 a 1,1 0 0 0 -1.88,0.26 4.92,4.92 0 1 1 -9.72,-0.61 l -1.78,-0.24 c -0.24,3.86 -4.68,8.41 -8.68,5.86 -2.12,-1.35 -1.89,-4.37 -1.37,-6.48 a 13.75,13.75 0 0 1 3.45,-6.18 0.68965571,0.68965571 0 0 0 -1,-0.95 z" />
      <path
         id="svg_95"
         d="m 131,737.93 0.29,0.88 a 0.59,0.59 0 0 0 0.15,0.27 0.56,0.56 0 0 0 0.22,0.21 0.63,0.63 0 0 0 0.3,0.1 0.58,0.58 0 0 0 0.32,0 0.75,0.75 0 0 0 0.48,-0.37 0.79,0.79 0 0 0 0.08,-0.62 l -0.29,-0.88 a 0.88,0.88 0 0 0 -0.37,-0.48 0.53,0.53 0 0 0 -0.3,-0.09 0.58,0.58 0 0 0 -0.32,0 0.8,0.8 0 0 0 -0.56,1 z" />
      <path
         id="svg_96"
         d="m 139.41,762.09 -1.16,1.18 a 0.77,0.77 0 0 0 0,1.1 0.79,0.79 0 0 0 0.54,0.22 0.84,0.84 0 0 0 0.55,-0.22 l 1.18,-1.17 a 0.76,0.76 0 0 0 0,-1.11 0.76,0.76 0 0 0 -0.55,-0.23 0.83,0.83 0 0 0 -0.56,0.23 z" />
      <path
         id="svg_97"
         d="m 122.37,782.11 a 0.7,0.7 0 0 0 0,-1.39 0.7,0.7 0 0 0 0,1.39 z" />
      <path
         id="svg_98"
         d="m 33.65,785.66 0.6,-0.57 a 0.63,0.63 0 0 0 0.13,-0.2 0.53,0.53 0 0 0 0,-0.25 0.49,0.49 0 0 0 0,-0.24 0.46,0.46 0 0 0 -0.13,-0.2 l -0.13,-0.1 a 0.62,0.62 0 0 0 -0.32,-0.09 h -0.17 a 0.62,0.62 0 0 0 -0.28,0.17 l -0.57,0.59 a 0.49,0.49 0 0 0 -0.13,0.2 0.4,0.4 0 0 0 0,0.24 0.42,0.42 0 0 0 0,0.24 0.41,0.41 0 0 0 0.13,0.19 l 0.12,0.1 a 0.58,0.58 0 0 0 0.31,0.08 h 0.17 a 0.63,0.63 0 0 0 0.27,-0.16 z" />
      <path
         id="svg_99"
         d="m 47.48,750.43 1.17,-0.3 a 0.7,0.7 0 0 0 0.41,-0.31 0.73,0.73 0 0 0 0.07,-0.52 0.7,0.7 0 0 0 -0.32,-0.41 0.68,0.68 0 0 0 -0.52,-0.07 l -1.17,0.29 a 0.7,0.7 0 0 0 -0.41,0.32 0.68,0.68 0 0 0 0.24,0.93 0.76,0.76 0 0 0 0.53,0.07 z" />
      <path
         id="svg_100"
         d="m 193.66,758.34 c -2.29,-1.74 -5.3,-1 -7.25,0.89 a 14.48,14.48 0 0 0 -3.92,8.31 c -0.32,2.72 0.62,5.85 3.2,7.19 a 4.77,4.77 0 0 0 6.25,-1.64 l -1.75,-0.74 c -0.93,2.32 0.46,4.68 2.38,6 a 8,8 0 0 0 7.11,0.69 9.55,9.55 0 0 0 5.31,-4.5 c 0.83,-1.6 1.36,-4.93 -1.19,-5.29 a 1,1 0 0 0 -1.26,1.27 c 0.47,2.39 3.24,3.25 5.35,2.56 a 6.47,6.47 0 0 0 4.23,-5.73 c 0.19,-2.4 -0.72,-5.72 -2.7,-7.26 -1.65,-1.29 -4.83,-0.56 -4.53,2 a 1.06,1.06 0 0 0 1.57,0.9 c 4.25,-2.6 0.61,-8.13 -2.22,-10.23 a 7.5,7.5 0 0 0 -5.57,-1.55 6.22,6.22 0 0 0 -2.77,1.08 5.83,5.83 0 0 0 -0.94,0.85 4.61,4.61 0 0 0 -0.46,0.63 l -0.17,0.28 c -0.16,0.2 -0.07,0.24 0.29,0.1 l 0.46,0.61 -0.06,-0.21 a 1,1 0 0 0 -1.91,0.53 c 0.25,1.46 2,1.37 2.78,0.42 0.56,-0.68 0.82,-1.32 1.64,-1.76 a 4.54,4.54 0 0 1 2.45,-0.51 7,7 0 0 1 4.66,2.78 c 1,1.24 2.76,3.95 0.77,5.18 l 1.57,0.9 c -0.11,-0.87 0.93,-0.53 1.32,-0.19 a 4.71,4.71 0 0 1 1,1.59 7.37,7.37 0 0 1 0.66,4.47 4.32,4.32 0 0 1 -2.21,3 c -1.1,0.55 -2.93,0.55 -3.23,-0.94 l -1.26,1.26 c 1.34,0.19 -0.49,3.1 -0.89,3.58 a 7.67,7.67 0 0 1 -3.87,2.46 6.07,6.07 0 0 1 -4.47,-0.36 c -1.47,-0.81 -2.65,-2.34 -2,-4 0.4,-1 -1.22,-1.64 -1.75,-0.73 -1,1.69 -3.32,1.59 -4.63,0.34 -1.6,-1.54 -1.7,-4 -1.23,-6 a 13.52,13.52 0 0 1 2.81,-5.87 c 1.44,-1.61 3.89,-2.52 5.87,-1.34 0.62,0.37 1.09,-0.53 0.55,-0.93 z" />
      <path
         id="svg_101"
         d="m 213,726 h -0.87 a 0.57,0.57 0 0 0 -0.39,0.16 0.59,0.59 0 0 0 -0.16,0.38 0.62,0.62 0 0 0 0.16,0.39 0.61,0.61 0 0 0 0.39,0.15 H 213 a 0.61,0.61 0 0 0 0.39,-0.15 0.62,0.62 0 0 0 0.16,-0.39 0.59,0.59 0 0 0 -0.16,-0.38 A 0.57,0.57 0 0 0 213,726 Z" />
      <path
         id="svg_102"
         d="m 213,726 a 10.88,10.88 0 0 1 -2.13,-0.18 0.76,0.76 0 0 0 -0.83,0.34 5,5 0 0 0 3.66,6.89 c 3.41,0.54 6.21,-2.93 5.55,-6.15 a 0.93,0.93 0 0 0 -1.82,0.24 5.65,5.65 0 1 0 10.87,-2.24 1,1 0 0 0 -1.78,-0.24 3.24,3.24 0 0 0 2,4.9 c 2.43,0.55 4.57,-1.44 5.06,-3.7 0.61,-2.79 -0.68,-5.62 -1.63,-8.19 -0.39,-1 -0.91,-2.14 -2.08,-2.42 a 1.94,1.94 0 0 0 -2.29,1.27 c -0.41,1 1.22,1.66 1.74,0.73 0.14,-0.26 0.75,1.17 0.79,1.3 0.24,0.65 0.47,1.29 0.71,1.93 a 10.7,10.7 0 0 1 0.92,4.31 2.94,2.94 0 0 1 -2,2.84 c -1.17,0.24 -2.3,-0.89 -1.52,-2 l -1.78,-0.23 a 3.75,3.75 0 1 1 -7.14,1.72 l -1.82,0.25 c 0.45,2.05 -1.53,4.37 -3.68,3.9 a 3.57,3.57 0 0 1 -2.39,-4.56 l -0.52,0.51 a 11.76,11.76 0 0 1 2.13,-0.16 0.54,0.54 0 0 0 0,-1.08 z" />
      <path
         id="svg_103"
         d="m 248.32,753.7 a 7.74,7.74 0 0 0 -9,4.14 8.13,8.13 0 0 0 2.69,9.72 v -1.78 a 6.78,6.78 0 0 0 -3.5,6.23 c 0.16,2.38 2,4.93 4.61,4.65 1.12,-0.12 1.65,-2 0.3,-2.18 a 3.94,3.94 0 0 0 -4.25,2.45 5.12,5.12 0 0 0 0.9,5.4 c 1.18,1.45 3.42,3.26 5.36,3.35 1.94,0.09 3.42,-2 1.94,-3.53 -0.77,-0.81 -2.23,0.26 -1.57,1.21 0.14,0.21 -1.08,-0.22 -1.24,-0.3 a 9.94,9.94 0 0 1 -1.24,-0.78 6.19,6.19 0 0 1 -2,-2.06 c -0.75,-1.41 -0.2,-3.82 1.75,-3.56 v -2.22 c -1.7,0.19 -2.52,-1.65 -2.43,-3.12 a 4.69,4.69 0 0 1 2.36,-3.76 1,1 0 0 0 0,-1.78 6.24,6.24 0 0 1 -2,-7.28 6.6,6.6 0 0 1 6.94,-3.69 c 0.71,0.1 1,-0.91 0.31,-1.11 z" />
      <path
         id="svg_104"
         d="m 232.25,753.65 0.58,0.29 a 0.63,0.63 0 0 0 0.3,0.1 0.65,0.65 0 0 0 0.31,0 0.59,0.59 0 0 0 0.27,-0.14 0.7,0.7 0 0 0 0.2,-0.22 l 0.08,-0.19 a 0.75,0.75 0 0 0 0,-0.42 l -0.08,-0.19 a 0.75,0.75 0 0 0 -0.28,-0.28 l -0.59,-0.29 a 0.63,0.63 0 0 0 -0.29,-0.1 0.65,0.65 0 0 0 -0.31,0 0.5,0.5 0 0 0 -0.27,0.14 0.56,0.56 0 0 0 -0.21,0.22 l -0.08,0.19 a 1,1 0 0 0 0,0.42 l 0.08,0.19 a 0.86,0.86 0 0 0 0.29,0.28 z" />
      <path
         id="svg_105"
         d="m 226.12,778.6 v 0.07 0.05 0.19 0.15 a 0.46,0.46 0 0 0 0.06,0.28 0.62,0.62 0 0 0 0.14,0.23 0.79,0.79 0 0 0 0.23,0.14 0.46,0.46 0 0 0 0.28,0.06 h 0.19 a 0.69,0.69 0 0 0 0.31,-0.18 l 0.12,-0.15 a 0.74,0.74 0 0 0 0.09,-0.36 v -0.15 a 1.64,1.64 0 0 0 -0.05,-0.32 l -0.07,-0.17 a 0.55,0.55 0 0 0 -0.18,-0.19 0.38,0.38 0 0 0 -0.15,-0.09 0.47,0.47 0 0 0 -0.26,0 h -0.18 l -0.16,0.07 a 0.55,0.55 0 0 0 -0.2,0.17 0.55,0.55 0 0 0 -0.12,0.24 z" />
      <path
         id="svg_106"
         d="m 215,791.5 a 17,17 0 0 1 3.88,-0.53 11.33,11.33 0 0 1 1.93,0.15 c 0.67,0.11 1.31,0.33 2,0.39 a 0.69,0.69 0 0 0 0.34,-1.27 6,6 0 0 0 -2.08,-0.55 13.06,13.06 0 0 0 -2.25,-0.12 10.47,10.47 0 0 0 -4.23,0.94 c -0.57,0.26 -0.16,1.12 0.42,1 z" />
      <path
         id="svg_107"
         d="m 190.35,787.85 -2.64,1.15 a 0.77,0.77 0 0 0 -0.33,0.42 0.73,0.73 0 0 0 0.08,0.54 0.66,0.66 0 0 0 0.42,0.33 0.84,0.84 0 0 0 0.54,-0.07 l 2.64,-1.17 a 0.76,0.76 0 0 0 0.33,-0.43 0.78,0.78 0 0 0 -0.07,-0.54 0.7,0.7 0 0 0 -1,-0.25 z" />
      <path
         id="svg_108"
         d="m 105,793.19 0.88,-0.27 a 0.7,0.7 0 0 0 0.37,-0.28 0.48,0.48 0 0 0 0.07,-0.23 0.49,0.49 0 0 0 0,-0.24 0.61,0.61 0 0 0 -0.75,-0.42 l -0.89,0.25 a 0.67,0.67 0 0 0 -0.37,0.29 0.44,0.44 0 0 0 -0.07,0.22 0.42,0.42 0 0 0 0,0.25 0.65,0.65 0 0 0 0.28,0.37 0.67,0.67 0 0 0 0.48,0.06 z" />
      <path
         id="svg_109"
         d="m 775.81,528.58 c 8.5,0.25 17,0.15 25.51,0.25 8.51,0.1 17,0.27 25.52,0.08 a 0.89,0.89 0 0 0 0,-1.78 c -8.5,-0.19 -17,0 -25.52,0.08 -8.52,0.08 -17,0 -25.51,0.25 a 0.56,0.56 0 0 0 0,1.12 z" />
      <path
         id="svg_111"
         d="m 100.62,348.3 a 88.55,88.55 0 0 0 23.84,-7.81 c 0.72,-0.37 0.09,-1.4 -0.63,-1.08 a 107.11,107.11 0 0 1 -23.5,7.84 c -0.68,0.14 -0.39,1.18 0.29,1.05 z" />
      <path
         id="svg_112"
         d="m 106.07,355.24 a 86.07,86.07 0 0 0 18,-6.35 c 0.74,-0.36 0.1,-1.47 -0.64,-1.1 a 85.51,85.51 0 0 1 -17.63,6.42 c -0.67,0.16 -0.38,1.19 0.28,1 z" />
      <path
         id="svg_113"
         d="m 114.11,361.58 a 3.74,3.74 0 0 0 2.5,-1.81 0.58053854,0.58053854 0 0 0 -1,-0.59 c 0,0.09 -0.11,0.18 -0.17,0.27 l -0.06,0.08 c 0,0 0.08,-0.1 0,0 l -0.11,0.13 a 5.11,5.11 0 0 1 -0.48,0.45 0.18,0.18 0 0 0 -0.07,0.05 l -0.13,0.09 -0.28,0.16 -0.15,0.06 c -0.1,0.05 0.12,0 0,0 h -0.07 l -0.32,0.1 a 0.53,0.53 0 1 0 0.28,1 z" />
      <path
         id="svg_114"
         d="m 147.2,325.11 1.37,-0.16 a 0.63,0.63 0 0 0 0.33,-0.09 l 0.13,-0.1 a 0.66,0.66 0 0 0 -0.06,-1 0.65,0.65 0 0 0 -0.22,-0.11 0.69,0.69 0 0 0 -0.35,0 l -1.36,0.21 a 0.63,0.63 0 0 0 -0.38,0.28 0.7,0.7 0 0 0 -0.07,0.4 0.61,0.61 0 0 0 0.17,0.36 0.58,0.58 0 0 0 0.44,0.18 z" />
      <path
         id="svg_115"
         d="m 720.56,512.64 a 183.54,183.54 0 0 1 16.82,-16.88 c 0.66,-0.59 -0.31,-1.55 -1,-1 a 131.59,131.59 0 0 0 -16.6,17.11 c -0.42,0.52 0.3,1.28 0.76,0.75 z" />
      <path
         id="svg_116"
         d="m 724.76,489 a 55.25,55.25 0 0 1 4.89,-4.15 c 0.84,-0.63 1.69,-1.24 2.57,-1.81 0.88,-0.57 1.86,-1.09 2.69,-1.76 0.46,-0.37 0,-1.24 -0.59,-1 a 15.1,15.1 0 0 0 -2.76,1.64 c -0.91,0.62 -1.8,1.27 -2.68,1.95 a 47.08,47.08 0 0 0 -4.87,4.39 0.53033009,0.53033009 0 0 0 0.75,0.75 z" />
      <path
         id="svg_117"
         d="m 728.59,470.74 a 32.65,32.65 0 0 1 7.25,-3.59 c 0.73,-0.25 0.41,-1.44 -0.33,-1.17 A 33.76,33.76 0 0 0 728,469.8 c -0.57,0.39 0,1.32 0.55,0.94 z" />
      <path
         id="svg_118"
         d="m 729.2,458.74 a 52,52 0 0 1 14.28,-7.65 c 0.74,-0.25 0.43,-1.42 -0.32,-1.17 a 49.3,49.3 0 0 0 -14.62,8 c -0.48,0.37 0.16,1.22 0.66,0.85 z" />
      <path
         id="svg_119"
         d="m 728.14,451.9 0.3,-0.29 a 0.39,0.39 0 0 0 0.12,-0.19 0.53,0.53 0 0 0 0.06,-0.24 0.48,0.48 0 0 0 -0.06,-0.24 0.47,0.47 0 0 0 -0.12,-0.2 l -0.13,-0.09 A 0.56,0.56 0 0 0 728,450.56 h -0.16 a 0.52,0.52 0 0 0 -0.27,0.15 l -0.29,0.3 a 0.53,0.53 0 0 0 -0.13,0.2 0.59,0.59 0 0 0 0,0.23 0.64,0.64 0 0 0 0,0.24 0.5,0.5 0 0 0 0.13,0.19 l 0.12,0.1 a 0.68,0.68 0 0 0 0.31,0.08 h 0.16 a 0.63,0.63 0 0 0 0.27,-0.16 z" />
      <path
         id="svg_120"
         d="m 717.2,538 c 3.9,-3.78 7.14,-8.16 10.89,-12.08 a 43.63,43.63 0 0 1 6.18,-5.42 c 2.11,-1.5 4.59,-2.92 6.23,-5 a 0.63287044,0.63287044 0 0 0 -0.9,-0.89 c -4.05,3.59 -8.66,6.42 -12.38,10.39 -3.72,3.97 -6.92,8.38 -10.79,12.2 -0.5,0.49 0.27,1.25 0.77,0.76 z" />
      <path
         id="svg_121"
         d="m 714.42,569.56 a 195.68,195.68 0 0 1 13.93,-14.86 q 3.64,-3.5 7.48,-6.76 c 2.62,-2.23 5.41,-4.25 8,-6.48 0.58,-0.49 -0.19,-1.48 -0.82,-1.05 a 88.79,88.79 0 0 0 -7.82,6.28 q -3.91,3.34 -7.63,6.92 a 165.37,165.37 0 0 0 -14,15.16 c -0.44,0.55 0.32,1.34 0.79,0.79 z" />
      <path
         id="svg_122"
         d="m 711.31,604 q 19.73,-18.25 39.33,-36.62 c 0.69,-0.65 -0.35,-1.68 -1,-1 q -19.54,18.42 -39.06,36.89 c -0.51,0.48 0.25,1.24 0.76,0.77 z" />
      <path
         id="svg_123"
         d="m 720.46,635.44 c 12.55,-12.27 24.73,-24.94 36.59,-37.88 0.6,-0.67 -0.38,-1.66 -1,-1 q -17.8,19.42 -36.39,38.08 a 0.56,0.56 0 0 0 0.79,0.79 z" />
      <path
         id="svg_124"
         d="m 738.57,761.72 c 3.82,3.41 4.6,9.26 5.46,14 a 122.23,122.23 0 0 1 1.72,17.39 0.81,0.81 0 0 0 1.61,0 90.23,90.23 0 0 0 -2.05,-18.24 c -1,-4.82 -2,-10.56 -6,-13.93 -0.52,-0.44 -1.27,0.29 -0.76,0.75 z" />
      <path
         fill="#000000"
         id="svg_125"
         d="M 467.21,223.7 C 444.59,207 414.31,203.19 387,205.62 c -27.31,2.43 -58.5,10.72 -78.07,30.9 -12.42,12.8 -19.75,30.76 -18.44,48.55 1.18,16 9.22,31.12 20.86,42.17 11.64,11.05 26.66,18.17 42.32,21.68 a 67.52,67.52 0 0 1 -18.9,19.82 c 11.54,0.37 20.65,-9.33 31.36,-13.65 13.52,-5.44 28.76,-2 43.33,-2.41 a 82.09,82.09 0 0 0 58.13,-26.88 c 24.57,-27.36 30.1,-75 0.84,-101.21" />
      <path
         id="svg_126"
         d="m 467.59,223 c -17.18,-12.7 -38.64,-18 -59.73,-19 a 175.27,175.27 0 0 0 -30.8,1.55 162.7,162.7 0 0 0 -29.74,6.73 c -19.36,6.46 -37.8,17.53 -48.63,35.32 a 65.1,65.1 0 0 0 -9.55,30.27 61.36,61.36 0 0 0 6.77,30.69 c 9.94,19.65 28.82,32.94 49.53,39.31 2.61,0.81 5.24,1.49 7.9,2.1 l -0.69,-1.71 a 67.53,67.53 0 0 1 -18.41,19.54 1,1 0 0 0 0.51,1.89 c 8.81,0.14 16.23,-5.14 23.46,-9.49 a 48.92,48.92 0 0 1 12.55,-5.72 57.4,57.4 0 0 1 15.06,-1.63 c 10,0 20,1.35 30,0.26 a 83.4,83.4 0 0 0 25.7,-7.11 81,81 0 0 0 36.74,-33.62 83.58,83.58 0 0 0 10.84,-43.59 c -0.54,-14.94 -5.74,-29.6 -15.88,-40.72 -1.32,-1.45 -2.72,-2.83 -4.17,-4.14 -0.87,-0.78 -2.15,0.5 -1.28,1.28 a 60.19,60.19 0 0 1 19.21,39 80.57,80.57 0 0 1 -8.19,43.3 78.91,78.91 0 0 1 -33.56,34.63 81.65,81.65 0 0 1 -24.93,8.57 c -9.61,1.64 -19.2,0.9 -28.87,0.49 -9.49,-0.4 -19.15,-0.11 -27.9,4 -7.66,3.61 -14.33,9.61 -22.62,11.82 a 21.69,21.69 0 0 1 -6.16,0.72 l 0.52,1.89 a 69.46,69.46 0 0 0 19.38,-20.12 1.17,1.17 0 0 0 -0.7,-1.7 c -20.69,-4.68 -40.43,-15.83 -52.17,-33.92 a 61.51,61.51 0 0 1 -10.08,-29.22 60.17,60.17 0 0 1 6.15,-30.15 c 8.95,-18.35 26,-30.58 44.63,-37.83 18.32,-7.12 38.47,-10.47 58.09,-10.7 20.63,-0.23 41.94,3.47 59.86,14.14 q 3.3,2 6.4,4.23 c 0.79,0.57 1.53,-0.74 0.76,-1.31 z" />
      <path
         id="svg_127"
         fill="#f58220"
         d="m 455.64,277.22 c 22.62,-16.67 52.9,-20.5 80.22,-18.07 27.32,2.43 58.51,10.72 78.08,30.9 12.42,12.8 19.75,30.76 18.44,48.55 -1.19,16 -9.22,31.12 -20.86,42.17 -11.64,11.05 -26.66,18.16 -42.32,21.68 a 67.52,67.52 0 0 0 18.9,19.82 c -11.54,0.36 -20.65,-9.34 -31.36,-13.65 -13.52,-5.44 -28.76,-2 -43.33,-2.41 a 82.09,82.09 0 0 1 -58.13,-26.88 c -24.57,-27.36 -30.1,-75 -0.84,-101.21" />
      <path
         id="svg_128"
         fill="#f58220"
         d="m 456,277.88 c 16.93,-12.31 37.89,-17.47 58.56,-18.26 a 170.8,170.8 0 0 1 58.83,8.1 c 18.75,6.11 36.94,16.6 47.79,33.55 a 62.72,62.72 0 0 1 9.95,29.59 58.68,58.68 0 0 1 -6.26,29.87 c -9.63,19.3 -28,32.3 -48.3,38.55 -2.54,0.79 -5.11,1.46 -7.69,2.05 a 1.17,1.17 0 0 0 -0.7,1.7 69.46,69.46 0 0 0 19.38,20.12 l 0.52,-1.89 c -8.73,0.24 -16,-5.26 -23.17,-9.51 a 49.55,49.55 0 0 0 -12.13,-5.45 56.57,56.57 0 0 0 -14.2,-1.73 c -9.8,-0.11 -19.58,1.28 -29.38,0.49 a 80.29,80.29 0 0 1 -25.87,-6.61 79.3,79.3 0 0 1 -36.77,-32.71 81.79,81.79 0 0 1 -11,-42.74 c 0.4,-14.73 5.44,-29.28 15.48,-40.23 1.29,-1.4 2.65,-2.74 4.06,-4 0.87,-0.78 -0.41,-2.05 -1.28,-1.27 -11.32,10.21 -18,24.35 -19.65,39.42 a 81.92,81.92 0 0 0 7.9,44.13 80.67,80.67 0 0 0 33.42,35.53 83.48,83.48 0 0 0 25.21,9.2 c 9.63,1.82 19.21,1.37 28.94,0.91 10,-0.47 20.24,-0.49 29.43,4 7.69,3.78 14.47,9.71 22.9,11.87 a 23.58,23.58 0 0 0 6.15,0.73 1,1 0 0 0 0.51,-1.89 67.53,67.53 0 0 1 -18.41,-19.54 l -0.69,1.7 c 21.2,-4.8 41.29,-16.16 53.46,-34.57 a 64.33,64.33 0 0 0 10.59,-29.59 62.2,62.2 0 0 0 -5.66,-31.16 69.45,69.45 0 0 0 -19.28,-24.82 98.69,98.69 0 0 0 -26,-14.94 c -18.8,-7.52 -39.56,-10.87 -59.76,-11 -21.06,-0.15 -42.85,3.73 -61.08,14.73 -2.25,1.35 -4.43,2.82 -6.54,4.38 -0.77,0.57 0,1.88 0.76,1.31 z" />
      <path
         id="svg_130"
         d="m 454.44,278.12 c -19.49,17.47 -23.53,44.44 -16.8,68.58 a 81.5,81.5 0 0 0 29.93,-20.9 c 15,-16.71 22.9,-41 20.1,-63.34 a 92.44,92.44 0 0 0 -32,14.76 z" />
      <path
         id="svg_131"
         d="m 453.33,277 c -15,13.53 -21.5,33.62 -20.09,53.49 a 84.53,84.53 0 0 0 2.88,16.63 1.59,1.59 0 0 0 1.94,1.1 82.78,82.78 0 0 0 34,-25.38 84.67,84.67 0 0 0 16.46,-37.25 78.69,78.69 0 0 0 0.69,-23.13 1.6,1.6 0 0 0 -2,-1.52 96.32,96.32 0 0 0 -33.6,15.81 c -1.61,1.2 0,3.94 1.59,2.73 A 93.82,93.82 0 0 1 488.09,264 l -2,-1.52 a 79.07,79.07 0 0 1 -48.87,82.72 l 1.94,1.1 c -5,-18.09 -4,-38.31 6,-54.59 a 56.64,56.64 0 0 1 10.43,-12.46 c 1.48,-1.38 -0.76,-3.61 -2.26,-2.25 z" />
      <path
         id="svg_132"
         d="m 553.36,308.7 c -0.91,0.74 -2,1.21 -3,1.89 -1,0.68 -2.18,1.55 -3.22,2.4 -1.9,1.57 -3.82,3.17 -5.61,4.87 -3.65,3.47 -7.26,6.95 -10.79,10.53 -3.53,3.58 -6.84,7 -10,10.69 q -0.94,0.89 1.65,-0.89 a 4.39,4.39 0 0 1 4.14,1 c -0.41,-0.47 -0.31,-0.33 0.31,0.42 -0.15,-0.24 -0.3,-0.47 -0.44,-0.71 l -2,-3.14 -2,-3.14 a 15.45,15.45 0 0 0 -1.71,-2.46 7.82,7.82 0 0 0 -3.23,-2 5.29,5.29 0 0 0 -4.87,1 5.8,5.8 0 0 0 -2.2,4.39 c -0.28,2.72 1.89,5.41 3.22,7.66 a 55.61,55.61 0 0 0 3.57,5.7 7.81,7.81 0 0 0 9.39,2.6 c 2.31,-1 3.91,-3.09 5.59,-4.87 6,-6.32 11.64,-12.82 17.12,-19.57 1.7,-2.1 3.34,-4.3 4.88,-6.52 1.38,-2 2.28,-4.27 3.66,-6.25 a 2.9,2.9 0 0 0 -0.75,-3.77 3,3 0 0 0 -3.84,0.23 z" />
      <path
         id="svg_133"
         fill="#f58220"
         d="m 413.76,250.14 c -0.91,0.74 -2,1.2 -3,1.89 -1,0.69 -2.19,1.55 -3.22,2.4 -1.91,1.57 -3.83,3.17 -5.61,4.87 -3.65,3.47 -7.26,6.94 -10.8,10.52 -3.54,3.58 -6.83,7 -10,10.7 q -0.94,0.89 1.65,-0.89 a 4.39,4.39 0 0 1 4.14,1 c -0.42,-0.47 -0.31,-0.33 0.31,0.41 -0.15,-0.23 -0.3,-0.46 -0.44,-0.7 l -2,-3.14 -1.86,-3.2 a 16.63,16.63 0 0 0 -1.71,-2.46 7.87,7.87 0 0 0 -3.24,-2 5.28,5.28 0 0 0 -4.86,1 5.8,5.8 0 0 0 -2.2,4.39 c -0.28,2.72 1.89,5.41 3.22,7.66 a 53.93,53.93 0 0 0 3.57,5.7 7.81,7.81 0 0 0 9.39,2.6 c 2.3,-1 3.91,-3.09 5.59,-4.87 q 8.93,-9.48 17.11,-19.57 c 1.7,-2.1 3.35,-4.31 4.89,-6.53 1.38,-2 2.28,-4.27 3.66,-6.24 a 2.9,2.9 0 0 0 -0.75,-3.77 3,3 0 0 0 -3.84,0.23 z" />
      <path
         id="svg_135"
         d="m 279.31,511.82 c 13,0.32 25.94,0.63 38.91,0.85 a 0.7,0.7 0 0 0 0,-1.39 q -19.46,-0.36 -38.91,-0.55 a 0.55,0.55 0 0 0 0,1.09 z" />
      <path
         id="svg_136"
         d="m 760.51,319.72 c 9.15,3.6 17.38,9.9 20.89,19.37 0.26,0.71 1.39,0.42 1.15,-0.32 -3.24,-10 -12.33,-16.45 -21.76,-20.06 -0.64,-0.24 -0.9,0.77 -0.28,1 z" />
      <path
         id="svg_137"
         d="m 772.29,336.05 a 36.63,36.63 0 0 1 3.82,4.53 c 0.56,0.78 1.08,1.58 1.58,2.4 0.5,0.82 1,1.79 1.51,2.64 0.32,0.51 1.27,0.19 1,-0.43 a 18,18 0 0 0 -1.42,-2.67 c -0.54,-0.89 -1.12,-1.76 -1.74,-2.6 a 38.44,38.44 0 0 0 -4,-4.62 0.53033009,0.53033009 0 0 0 -0.75,0.75 z" />
      <path
         id="svg_138"
         d="m 784,346.11 0.25,0.05 -0.14,-0.06 a 0.55,0.55 0 0 0 0.3,0.09 0.61,0.61 0 0 0 0.6,-0.6 0.61,0.61 0 0 0 -0.29,-0.52 0.58,0.58 0 0 0 -0.31,-0.08 0.54,0.54 0 0 0 -0.3,0.08 l 0.14,-0.06 -0.25,0.05 -0.13,0.06 a 0.47,0.47 0 0 0 -0.15,0.13 0.75,0.75 0 0 0 -0.07,0.12 0.36,0.36 0 0 0 0,0.21 v 0.14 l 0.05,0.13 a 0.4,0.4 0 0 0 0.14,0.15 0.51,0.51 0 0 0 0.18,0.09 z" />
      <path
         id="svg_139"
         d="m 782.1,351.12 a 0.54,0.54 0 0 0 0,-1.08 0.54,0.54 0 0 0 0,1.08 z" />
      <path
         id="svg_140"
         d="m 770.86,343.63 0.29,0.3 a 0.44,0.44 0 0 0 0.18,0.12 0.36,0.36 0 0 0 0.21,0 0.38,0.38 0 0 0 0.21,0 0.44,0.44 0 0 0 0.18,-0.12 l 0.08,-0.11 a 0.54,0.54 0 0 0 0.08,-0.28 v -0.14 a 0.56,0.56 0 0 0 -0.14,-0.25 l -0.3,-0.28 a 0.34,0.34 0 0 0 -0.18,-0.11 0.35,0.35 0 0 0 -0.2,-0.05 0.36,0.36 0 0 0 -0.21,0.05 0.34,0.34 0 0 0 -0.18,0.11 l -0.08,0.11 a 0.5,0.5 0 0 0 -0.08,0.27 v 0.14 a 0.57,0.57 0 0 0 0.14,0.24 z" />
      <path
         id="svg_141"
         d="m 774,347.35 1.42,2.08 a 0.58053854,0.58053854 0 1 0 1,-0.59 L 775,346.78 a 0.62,0.62 0 0 0 -0.33,-0.26 0.59,0.59 0 0 0 -0.43,0.06 0.57,0.57 0 0 0 -0.2,0.77 z" />
      <path
         id="svg_142"
         d="m 785,332.85 a 14.8,14.8 0 0 1 2.51,6.61 0.57,0.57 0 0 0 0.56,0.56 0.56,0.56 0 0 0 0.55,-0.56 15.81,15.81 0 0 0 -2.7,-7.15 c -0.39,-0.56 -1.31,0 -0.92,0.54 z" />
      <path
         id="svg_143"
         d="m 790.6,342.31 a 0.53,0.53 0 0 0 0,-1.05 0.53,0.53 0 0 0 0,1.05 z" />
      <path
         id="svg_145"
         d="m 909,583.07 a 57.22,57.22 0 0 1 16.68,-1.91 c 0.78,0 0.76,-1.14 0,-1.2 a 47.07,47.07 0 0 0 -17,2.08 0.53,0.53 0 0 0 0.28,1 z" />
      <path
         id="svg_146"
         d="m 911.78,577.29 9.4,-1.52 c 0.73,-0.12 0.42,-1.23 -0.3,-1.11 l -9.38,1.58 c -0.69,0.12 -0.4,1.16 0.28,1 z" />
      <path
         id="svg_147"
         d="m 610.69,556 a 29.77,29.77 0 0 1 8.6,17.34 c 0.09,0.66 1.26,0.51 1.18,-0.16 a 30.26,30.26 0 0 0 -9,-18 c -0.52,-0.51 -1.32,0.29 -0.8,0.8 z" />
      <path
         id="svg_148"
         d="m 619.69,551.37 a 13.4,13.4 0 0 1 4.73,8.63 0.63,0.63 0 0 0 0.61,0.61 0.61,0.61 0 0 0 0.61,-0.61 14.21,14.21 0 0 0 -5.16,-9.42 c -0.56,-0.44 -1.35,0.33 -0.79,0.79 z" />
      <path
         id="svg_149"
         d="M 519.80816,766.03455 -83.634441,796.7281"
         opacity="0.5"
         fill-opacity="null"
         stroke-opacity="null"
         stroke-width="null"
         stroke="null"
         fill="null" />
      <path
         d="m 153.20004,549.08807 c 4.40183,4.4018 13.20543,4.4018 17.60726,13.20545 4.40179,8.80359 19.74766,16.83142 22.00906,26.41089 1.01132,4.28405 8.44095,1.70294 13.20544,13.20538 1.68453,4.06677 1.28927,1.28931 4.40181,4.40185 3.11254,3.11255 3.11254,5.69104 0,8.80359 -3.11254,3.11255 -8.80363,0 -17.60725,-4.40179 -17.60727,-8.80365 -22.00906,-13.20544 -26.41087,-17.60724 0,0 -1.28928,-1.28925 -4.40181,-4.40179 -3.11255,-3.11255 -8.03079,-0.43091 -13.20545,-8.80365 -2.31416,-3.74439 -8.80362,-4.4018 -13.20543,-8.80365 v 0"
         id="svg_150"
         fill-opacity="null"
         stroke-opacity="null"
         stroke-width="null"
         stroke="null"
         fill="none" />
    </g>
  </g>
</svg>
